G04 EAGLE Gerber RS-274X export*
G75*
%MOMM*%
%FSLAX34Y34*%
%LPD*%
%INBottom Copper*%
%IPPOS*%
%AMOC8*
5,1,8,0,0,1.08239X$1,22.5*%
G01*
%ADD10R,1.778000X6.985000*%
%ADD11C,1.778000*%


D10*
X24130Y176530D03*
X49530Y176530D03*
X74930Y176530D03*
X100330Y176530D03*
X125730Y176530D03*
X151130Y176530D03*
X176530Y176530D03*
X201930Y176530D03*
X227330Y176530D03*
X252730Y176530D03*
X278130Y176530D03*
X303530Y176530D03*
X328930Y176530D03*
X354330Y176530D03*
X379730Y176530D03*
X405130Y176530D03*
X430530Y176530D03*
X455930Y176530D03*
X455930Y35560D03*
X430530Y35560D03*
X405130Y35560D03*
X379730Y35560D03*
X354330Y35560D03*
X328930Y35560D03*
X303530Y35560D03*
X278130Y35560D03*
X252730Y35560D03*
X227330Y35560D03*
X201930Y35560D03*
X176530Y35560D03*
X151130Y35560D03*
X125730Y35560D03*
X100330Y35560D03*
X74930Y35560D03*
X49530Y35560D03*
X24130Y35560D03*
D11*
X405130Y35560D02*
X405130Y176530D01*
X379730Y176530D02*
X379730Y35560D01*
X354330Y35560D02*
X354330Y138430D01*
X354330Y166370D01*
X354330Y176530D01*
X328930Y176530D02*
X328930Y78740D01*
X328930Y50800D01*
X328930Y35560D01*
X303530Y35560D02*
X303530Y176530D01*
X278130Y176530D02*
X278130Y57150D01*
X278130Y35560D02*
X278130Y30480D01*
X276860Y29210D01*
X278130Y35560D02*
X278130Y57150D01*
X252730Y57150D02*
X252730Y176530D01*
X252730Y35560D02*
X252730Y22860D01*
X252730Y35560D02*
X252730Y57150D01*
X227330Y46990D02*
X227330Y176530D01*
X227330Y35560D02*
X227330Y29210D01*
X227330Y35560D02*
X227330Y46990D01*
X201930Y44450D02*
X201930Y176530D01*
X201930Y35560D02*
X201930Y26670D01*
X201930Y35560D02*
X201930Y44450D01*
X176530Y35560D02*
X176530Y162560D01*
X176530Y176530D02*
X176530Y181610D01*
X176530Y176530D02*
X176530Y162560D01*
X151130Y176530D02*
X151130Y35560D01*
X125730Y35560D02*
X125730Y176530D01*
X100330Y176530D02*
X100330Y35560D01*
X74930Y35560D02*
X74930Y176530D01*
X49530Y176530D02*
X49530Y46990D01*
X49530Y35560D02*
X49530Y22860D01*
X49530Y35560D02*
X49530Y46990D01*
X24130Y35560D02*
X24130Y176530D01*
M02*
