G04 EAGLE Gerber RS-274X export*
G75*
%MOMM*%
%FSLAX34Y34*%
%LPD*%
%INSilkscreen Bottom*%
%IPPOS*%
%AMOC8*
5,1,8,0,0,1.08239X$1,22.5*%
G01*
%ADD10C,0.152400*%
%ADD11C,0.101600*%


D10*
X28448Y116911D02*
X23932Y120523D01*
X23932Y104267D01*
X19417Y104267D02*
X28448Y104267D01*
X46087Y116459D02*
X46089Y116584D01*
X46095Y116709D01*
X46104Y116834D01*
X46118Y116958D01*
X46135Y117082D01*
X46156Y117206D01*
X46181Y117328D01*
X46210Y117450D01*
X46242Y117571D01*
X46278Y117691D01*
X46318Y117810D01*
X46361Y117927D01*
X46408Y118043D01*
X46459Y118158D01*
X46513Y118270D01*
X46571Y118382D01*
X46631Y118491D01*
X46696Y118598D01*
X46763Y118704D01*
X46834Y118807D01*
X46908Y118908D01*
X46985Y119007D01*
X47065Y119103D01*
X47148Y119197D01*
X47233Y119288D01*
X47322Y119377D01*
X47413Y119462D01*
X47507Y119545D01*
X47603Y119625D01*
X47702Y119702D01*
X47803Y119776D01*
X47906Y119847D01*
X48012Y119914D01*
X48119Y119979D01*
X48228Y120039D01*
X48340Y120097D01*
X48452Y120151D01*
X48567Y120202D01*
X48683Y120249D01*
X48800Y120292D01*
X48919Y120332D01*
X49039Y120368D01*
X49160Y120400D01*
X49282Y120429D01*
X49404Y120454D01*
X49528Y120475D01*
X49652Y120492D01*
X49776Y120506D01*
X49901Y120515D01*
X50026Y120521D01*
X50151Y120523D01*
X50294Y120521D01*
X50436Y120515D01*
X50579Y120505D01*
X50721Y120492D01*
X50862Y120474D01*
X51004Y120453D01*
X51144Y120428D01*
X51284Y120399D01*
X51423Y120366D01*
X51561Y120329D01*
X51698Y120289D01*
X51833Y120245D01*
X51968Y120197D01*
X52101Y120145D01*
X52233Y120090D01*
X52363Y120031D01*
X52491Y119969D01*
X52618Y119903D01*
X52743Y119834D01*
X52866Y119762D01*
X52987Y119686D01*
X53105Y119607D01*
X53222Y119524D01*
X53336Y119439D01*
X53448Y119350D01*
X53557Y119259D01*
X53664Y119164D01*
X53769Y119067D01*
X53870Y118966D01*
X53969Y118863D01*
X54065Y118758D01*
X54158Y118649D01*
X54248Y118538D01*
X54335Y118425D01*
X54419Y118310D01*
X54499Y118192D01*
X54577Y118072D01*
X54651Y117950D01*
X54721Y117826D01*
X54789Y117700D01*
X54852Y117572D01*
X54913Y117443D01*
X54970Y117312D01*
X55023Y117180D01*
X55072Y117046D01*
X55118Y116911D01*
X47442Y113298D02*
X47348Y113390D01*
X47258Y113484D01*
X47170Y113581D01*
X47085Y113681D01*
X47003Y113783D01*
X46924Y113888D01*
X46849Y113995D01*
X46777Y114104D01*
X46708Y114215D01*
X46642Y114329D01*
X46580Y114444D01*
X46521Y114561D01*
X46466Y114680D01*
X46415Y114800D01*
X46367Y114922D01*
X46322Y115045D01*
X46282Y115169D01*
X46245Y115295D01*
X46212Y115422D01*
X46183Y115549D01*
X46157Y115678D01*
X46136Y115807D01*
X46118Y115937D01*
X46105Y116067D01*
X46095Y116197D01*
X46089Y116328D01*
X46087Y116459D01*
X47442Y113298D02*
X55118Y104267D01*
X46087Y104267D01*
X74732Y104267D02*
X79248Y104267D01*
X74732Y104267D02*
X74599Y104269D01*
X74467Y104275D01*
X74335Y104285D01*
X74203Y104298D01*
X74071Y104316D01*
X73941Y104337D01*
X73810Y104362D01*
X73681Y104391D01*
X73553Y104424D01*
X73425Y104460D01*
X73299Y104500D01*
X73174Y104544D01*
X73050Y104592D01*
X72928Y104643D01*
X72807Y104698D01*
X72688Y104756D01*
X72570Y104818D01*
X72455Y104883D01*
X72341Y104952D01*
X72230Y105023D01*
X72121Y105099D01*
X72014Y105177D01*
X71909Y105258D01*
X71807Y105343D01*
X71707Y105430D01*
X71610Y105520D01*
X71515Y105613D01*
X71424Y105709D01*
X71335Y105807D01*
X71249Y105908D01*
X71166Y106012D01*
X71086Y106118D01*
X71010Y106226D01*
X70936Y106336D01*
X70866Y106449D01*
X70799Y106563D01*
X70736Y106680D01*
X70676Y106798D01*
X70619Y106918D01*
X70566Y107040D01*
X70517Y107163D01*
X70471Y107287D01*
X70429Y107413D01*
X70391Y107540D01*
X70356Y107668D01*
X70325Y107797D01*
X70298Y107926D01*
X70275Y108057D01*
X70255Y108188D01*
X70240Y108320D01*
X70228Y108452D01*
X70220Y108584D01*
X70216Y108717D01*
X70216Y108849D01*
X70220Y108982D01*
X70228Y109114D01*
X70240Y109246D01*
X70255Y109378D01*
X70275Y109509D01*
X70298Y109640D01*
X70325Y109769D01*
X70356Y109898D01*
X70391Y110026D01*
X70429Y110153D01*
X70471Y110279D01*
X70517Y110403D01*
X70566Y110526D01*
X70619Y110648D01*
X70676Y110768D01*
X70736Y110886D01*
X70799Y111003D01*
X70866Y111117D01*
X70936Y111230D01*
X71010Y111340D01*
X71086Y111448D01*
X71166Y111554D01*
X71249Y111658D01*
X71335Y111759D01*
X71424Y111857D01*
X71515Y111953D01*
X71610Y112046D01*
X71707Y112136D01*
X71807Y112223D01*
X71909Y112308D01*
X72014Y112389D01*
X72121Y112467D01*
X72230Y112543D01*
X72341Y112614D01*
X72455Y112683D01*
X72570Y112748D01*
X72688Y112810D01*
X72807Y112868D01*
X72928Y112923D01*
X73050Y112974D01*
X73174Y113022D01*
X73299Y113066D01*
X73425Y113106D01*
X73553Y113142D01*
X73681Y113175D01*
X73810Y113204D01*
X73941Y113229D01*
X74071Y113250D01*
X74203Y113268D01*
X74335Y113281D01*
X74467Y113291D01*
X74599Y113297D01*
X74732Y113299D01*
X73829Y120523D02*
X79248Y120523D01*
X73829Y120523D02*
X73710Y120521D01*
X73590Y120515D01*
X73471Y120505D01*
X73353Y120491D01*
X73234Y120474D01*
X73117Y120452D01*
X73000Y120427D01*
X72885Y120397D01*
X72770Y120364D01*
X72656Y120327D01*
X72544Y120287D01*
X72433Y120242D01*
X72324Y120194D01*
X72216Y120143D01*
X72110Y120088D01*
X72006Y120029D01*
X71904Y119967D01*
X71804Y119902D01*
X71706Y119833D01*
X71610Y119761D01*
X71517Y119686D01*
X71427Y119609D01*
X71339Y119528D01*
X71254Y119444D01*
X71172Y119357D01*
X71092Y119268D01*
X71016Y119176D01*
X70942Y119082D01*
X70872Y118985D01*
X70805Y118887D01*
X70741Y118786D01*
X70681Y118682D01*
X70624Y118577D01*
X70571Y118470D01*
X70521Y118362D01*
X70475Y118252D01*
X70433Y118140D01*
X70394Y118027D01*
X70359Y117913D01*
X70328Y117798D01*
X70300Y117681D01*
X70277Y117564D01*
X70257Y117447D01*
X70241Y117328D01*
X70229Y117209D01*
X70221Y117090D01*
X70217Y116971D01*
X70217Y116851D01*
X70221Y116732D01*
X70229Y116613D01*
X70241Y116494D01*
X70257Y116375D01*
X70277Y116258D01*
X70300Y116141D01*
X70328Y116024D01*
X70359Y115909D01*
X70394Y115795D01*
X70433Y115682D01*
X70475Y115570D01*
X70521Y115460D01*
X70571Y115352D01*
X70624Y115245D01*
X70681Y115140D01*
X70741Y115036D01*
X70805Y114935D01*
X70872Y114837D01*
X70942Y114740D01*
X71016Y114646D01*
X71092Y114554D01*
X71172Y114465D01*
X71254Y114378D01*
X71339Y114294D01*
X71427Y114213D01*
X71517Y114136D01*
X71610Y114061D01*
X71706Y113989D01*
X71804Y113920D01*
X71904Y113855D01*
X72006Y113793D01*
X72110Y113734D01*
X72216Y113679D01*
X72324Y113628D01*
X72433Y113580D01*
X72544Y113535D01*
X72656Y113495D01*
X72770Y113458D01*
X72885Y113425D01*
X73000Y113395D01*
X73117Y113370D01*
X73234Y113348D01*
X73353Y113331D01*
X73471Y113317D01*
X73590Y113307D01*
X73710Y113301D01*
X73829Y113299D01*
X73829Y113298D02*
X77442Y113298D01*
X101036Y120523D02*
X104648Y107879D01*
X95617Y107879D01*
X98326Y111492D02*
X98326Y104267D01*
X125899Y104267D02*
X131318Y104267D01*
X125899Y104267D02*
X125781Y104269D01*
X125663Y104275D01*
X125545Y104284D01*
X125428Y104298D01*
X125311Y104315D01*
X125194Y104336D01*
X125079Y104361D01*
X124964Y104390D01*
X124850Y104423D01*
X124738Y104459D01*
X124627Y104499D01*
X124517Y104542D01*
X124408Y104589D01*
X124301Y104639D01*
X124196Y104694D01*
X124093Y104751D01*
X123992Y104812D01*
X123892Y104876D01*
X123795Y104943D01*
X123700Y105013D01*
X123608Y105087D01*
X123517Y105163D01*
X123430Y105243D01*
X123345Y105325D01*
X123263Y105410D01*
X123183Y105497D01*
X123107Y105588D01*
X123033Y105680D01*
X122963Y105775D01*
X122896Y105872D01*
X122832Y105972D01*
X122771Y106073D01*
X122714Y106176D01*
X122659Y106281D01*
X122609Y106388D01*
X122562Y106497D01*
X122519Y106607D01*
X122479Y106718D01*
X122443Y106830D01*
X122410Y106944D01*
X122381Y107059D01*
X122356Y107174D01*
X122335Y107291D01*
X122318Y107408D01*
X122304Y107525D01*
X122295Y107643D01*
X122289Y107761D01*
X122287Y107879D01*
X122287Y109686D01*
X122289Y109804D01*
X122295Y109922D01*
X122304Y110040D01*
X122318Y110157D01*
X122335Y110274D01*
X122356Y110391D01*
X122381Y110506D01*
X122410Y110621D01*
X122443Y110735D01*
X122479Y110847D01*
X122519Y110958D01*
X122562Y111068D01*
X122609Y111177D01*
X122659Y111284D01*
X122714Y111389D01*
X122771Y111492D01*
X122832Y111593D01*
X122896Y111693D01*
X122963Y111790D01*
X123033Y111885D01*
X123107Y111977D01*
X123183Y112068D01*
X123263Y112155D01*
X123345Y112240D01*
X123430Y112322D01*
X123517Y112402D01*
X123608Y112478D01*
X123700Y112552D01*
X123795Y112622D01*
X123892Y112689D01*
X123992Y112753D01*
X124093Y112814D01*
X124196Y112871D01*
X124301Y112926D01*
X124408Y112976D01*
X124517Y113023D01*
X124627Y113066D01*
X124738Y113106D01*
X124850Y113142D01*
X124964Y113175D01*
X125079Y113204D01*
X125194Y113229D01*
X125311Y113250D01*
X125428Y113267D01*
X125545Y113281D01*
X125663Y113290D01*
X125781Y113296D01*
X125899Y113298D01*
X131318Y113298D01*
X131318Y120523D01*
X122287Y120523D01*
X150029Y113298D02*
X155448Y113298D01*
X150029Y113298D02*
X149911Y113296D01*
X149793Y113290D01*
X149675Y113281D01*
X149558Y113267D01*
X149441Y113250D01*
X149324Y113229D01*
X149209Y113204D01*
X149094Y113175D01*
X148980Y113142D01*
X148868Y113106D01*
X148757Y113066D01*
X148647Y113023D01*
X148538Y112976D01*
X148431Y112926D01*
X148326Y112871D01*
X148223Y112814D01*
X148122Y112753D01*
X148022Y112689D01*
X147925Y112622D01*
X147830Y112552D01*
X147738Y112478D01*
X147647Y112402D01*
X147560Y112322D01*
X147475Y112240D01*
X147393Y112155D01*
X147313Y112068D01*
X147237Y111977D01*
X147163Y111885D01*
X147093Y111790D01*
X147026Y111693D01*
X146962Y111593D01*
X146901Y111492D01*
X146844Y111389D01*
X146789Y111284D01*
X146739Y111177D01*
X146692Y111068D01*
X146649Y110958D01*
X146609Y110847D01*
X146573Y110735D01*
X146540Y110621D01*
X146511Y110506D01*
X146486Y110391D01*
X146465Y110274D01*
X146448Y110157D01*
X146434Y110040D01*
X146425Y109922D01*
X146419Y109804D01*
X146417Y109686D01*
X146417Y108783D01*
X146416Y108783D02*
X146418Y108650D01*
X146424Y108518D01*
X146434Y108386D01*
X146447Y108254D01*
X146465Y108122D01*
X146486Y107992D01*
X146511Y107861D01*
X146540Y107732D01*
X146573Y107604D01*
X146609Y107476D01*
X146649Y107350D01*
X146693Y107225D01*
X146741Y107101D01*
X146792Y106979D01*
X146847Y106858D01*
X146905Y106739D01*
X146967Y106621D01*
X147032Y106506D01*
X147101Y106392D01*
X147172Y106281D01*
X147248Y106172D01*
X147326Y106065D01*
X147407Y105960D01*
X147492Y105858D01*
X147579Y105758D01*
X147669Y105661D01*
X147762Y105566D01*
X147858Y105475D01*
X147956Y105386D01*
X148057Y105300D01*
X148161Y105217D01*
X148267Y105137D01*
X148375Y105061D01*
X148485Y104987D01*
X148598Y104917D01*
X148712Y104850D01*
X148829Y104787D01*
X148947Y104727D01*
X149067Y104670D01*
X149189Y104617D01*
X149312Y104568D01*
X149436Y104522D01*
X149562Y104480D01*
X149689Y104442D01*
X149817Y104407D01*
X149946Y104376D01*
X150075Y104349D01*
X150206Y104326D01*
X150337Y104306D01*
X150469Y104291D01*
X150601Y104279D01*
X150733Y104271D01*
X150866Y104267D01*
X150998Y104267D01*
X151131Y104271D01*
X151263Y104279D01*
X151395Y104291D01*
X151527Y104306D01*
X151658Y104326D01*
X151789Y104349D01*
X151918Y104376D01*
X152047Y104407D01*
X152175Y104442D01*
X152302Y104480D01*
X152428Y104522D01*
X152552Y104568D01*
X152675Y104617D01*
X152797Y104670D01*
X152917Y104727D01*
X153035Y104787D01*
X153152Y104850D01*
X153266Y104917D01*
X153379Y104987D01*
X153489Y105061D01*
X153597Y105137D01*
X153703Y105217D01*
X153807Y105300D01*
X153908Y105386D01*
X154006Y105475D01*
X154102Y105566D01*
X154195Y105661D01*
X154285Y105758D01*
X154372Y105858D01*
X154457Y105960D01*
X154538Y106065D01*
X154616Y106172D01*
X154692Y106281D01*
X154763Y106392D01*
X154832Y106506D01*
X154897Y106621D01*
X154959Y106739D01*
X155017Y106858D01*
X155072Y106979D01*
X155123Y107101D01*
X155171Y107225D01*
X155215Y107350D01*
X155255Y107476D01*
X155291Y107604D01*
X155324Y107732D01*
X155353Y107861D01*
X155378Y107992D01*
X155399Y108122D01*
X155417Y108254D01*
X155430Y108386D01*
X155440Y108518D01*
X155446Y108650D01*
X155448Y108783D01*
X155448Y113298D01*
X155446Y113473D01*
X155440Y113647D01*
X155429Y113821D01*
X155414Y113995D01*
X155395Y114169D01*
X155372Y114342D01*
X155345Y114514D01*
X155313Y114686D01*
X155278Y114857D01*
X155238Y115027D01*
X155194Y115196D01*
X155146Y115364D01*
X155094Y115531D01*
X155038Y115696D01*
X154978Y115860D01*
X154915Y116023D01*
X154847Y116183D01*
X154775Y116343D01*
X154700Y116500D01*
X154620Y116656D01*
X154537Y116809D01*
X154451Y116961D01*
X154360Y117110D01*
X154266Y117257D01*
X154169Y117402D01*
X154068Y117545D01*
X153964Y117685D01*
X153856Y117822D01*
X153745Y117957D01*
X153631Y118089D01*
X153514Y118218D01*
X153393Y118345D01*
X153270Y118468D01*
X153143Y118589D01*
X153014Y118706D01*
X152882Y118820D01*
X152747Y118931D01*
X152610Y119039D01*
X152470Y119143D01*
X152327Y119244D01*
X152182Y119341D01*
X152035Y119435D01*
X151886Y119526D01*
X151734Y119612D01*
X151581Y119695D01*
X151425Y119775D01*
X151268Y119850D01*
X151108Y119922D01*
X150948Y119990D01*
X150785Y120053D01*
X150621Y120113D01*
X150456Y120169D01*
X150289Y120221D01*
X150121Y120269D01*
X149952Y120313D01*
X149782Y120353D01*
X149611Y120388D01*
X149439Y120420D01*
X149267Y120447D01*
X149094Y120470D01*
X148920Y120489D01*
X148746Y120504D01*
X148572Y120515D01*
X148398Y120521D01*
X148223Y120523D01*
X182118Y120523D02*
X182118Y118717D01*
X182118Y120523D02*
X173087Y120523D01*
X177602Y104267D01*
X197216Y108783D02*
X197218Y108916D01*
X197224Y109048D01*
X197234Y109180D01*
X197247Y109312D01*
X197265Y109444D01*
X197286Y109574D01*
X197311Y109705D01*
X197340Y109834D01*
X197373Y109962D01*
X197409Y110090D01*
X197449Y110216D01*
X197493Y110341D01*
X197541Y110465D01*
X197592Y110587D01*
X197647Y110708D01*
X197705Y110827D01*
X197767Y110945D01*
X197832Y111060D01*
X197901Y111174D01*
X197972Y111285D01*
X198048Y111394D01*
X198126Y111501D01*
X198207Y111606D01*
X198292Y111708D01*
X198379Y111808D01*
X198469Y111905D01*
X198562Y112000D01*
X198658Y112091D01*
X198756Y112180D01*
X198857Y112266D01*
X198961Y112349D01*
X199067Y112429D01*
X199175Y112505D01*
X199285Y112579D01*
X199398Y112649D01*
X199512Y112716D01*
X199629Y112779D01*
X199747Y112839D01*
X199867Y112896D01*
X199989Y112949D01*
X200112Y112998D01*
X200236Y113044D01*
X200362Y113086D01*
X200489Y113124D01*
X200617Y113159D01*
X200746Y113190D01*
X200875Y113217D01*
X201006Y113240D01*
X201137Y113260D01*
X201269Y113275D01*
X201401Y113287D01*
X201533Y113295D01*
X201666Y113299D01*
X201798Y113299D01*
X201931Y113295D01*
X202063Y113287D01*
X202195Y113275D01*
X202327Y113260D01*
X202458Y113240D01*
X202589Y113217D01*
X202718Y113190D01*
X202847Y113159D01*
X202975Y113124D01*
X203102Y113086D01*
X203228Y113044D01*
X203352Y112998D01*
X203475Y112949D01*
X203597Y112896D01*
X203717Y112839D01*
X203835Y112779D01*
X203952Y112716D01*
X204066Y112649D01*
X204179Y112579D01*
X204289Y112505D01*
X204397Y112429D01*
X204503Y112349D01*
X204607Y112266D01*
X204708Y112180D01*
X204806Y112091D01*
X204902Y112000D01*
X204995Y111905D01*
X205085Y111808D01*
X205172Y111708D01*
X205257Y111606D01*
X205338Y111501D01*
X205416Y111394D01*
X205492Y111285D01*
X205563Y111174D01*
X205632Y111060D01*
X205697Y110945D01*
X205759Y110827D01*
X205817Y110708D01*
X205872Y110587D01*
X205923Y110465D01*
X205971Y110341D01*
X206015Y110216D01*
X206055Y110090D01*
X206091Y109962D01*
X206124Y109834D01*
X206153Y109705D01*
X206178Y109574D01*
X206199Y109444D01*
X206217Y109312D01*
X206230Y109180D01*
X206240Y109048D01*
X206246Y108916D01*
X206248Y108783D01*
X206246Y108650D01*
X206240Y108518D01*
X206230Y108386D01*
X206217Y108254D01*
X206199Y108122D01*
X206178Y107992D01*
X206153Y107861D01*
X206124Y107732D01*
X206091Y107604D01*
X206055Y107476D01*
X206015Y107350D01*
X205971Y107225D01*
X205923Y107101D01*
X205872Y106979D01*
X205817Y106858D01*
X205759Y106739D01*
X205697Y106621D01*
X205632Y106506D01*
X205563Y106392D01*
X205492Y106281D01*
X205416Y106172D01*
X205338Y106065D01*
X205257Y105960D01*
X205172Y105858D01*
X205085Y105758D01*
X204995Y105661D01*
X204902Y105566D01*
X204806Y105475D01*
X204708Y105386D01*
X204607Y105300D01*
X204503Y105217D01*
X204397Y105137D01*
X204289Y105061D01*
X204179Y104987D01*
X204066Y104917D01*
X203952Y104850D01*
X203835Y104787D01*
X203717Y104727D01*
X203597Y104670D01*
X203475Y104617D01*
X203352Y104568D01*
X203228Y104522D01*
X203102Y104480D01*
X202975Y104442D01*
X202847Y104407D01*
X202718Y104376D01*
X202589Y104349D01*
X202458Y104326D01*
X202327Y104306D01*
X202195Y104291D01*
X202063Y104279D01*
X201931Y104271D01*
X201798Y104267D01*
X201666Y104267D01*
X201533Y104271D01*
X201401Y104279D01*
X201269Y104291D01*
X201137Y104306D01*
X201006Y104326D01*
X200875Y104349D01*
X200746Y104376D01*
X200617Y104407D01*
X200489Y104442D01*
X200362Y104480D01*
X200236Y104522D01*
X200112Y104568D01*
X199989Y104617D01*
X199867Y104670D01*
X199747Y104727D01*
X199629Y104787D01*
X199512Y104850D01*
X199398Y104917D01*
X199285Y104987D01*
X199175Y105061D01*
X199067Y105137D01*
X198961Y105217D01*
X198857Y105300D01*
X198756Y105386D01*
X198658Y105475D01*
X198562Y105566D01*
X198469Y105661D01*
X198379Y105758D01*
X198292Y105858D01*
X198207Y105960D01*
X198126Y106065D01*
X198048Y106172D01*
X197972Y106281D01*
X197901Y106392D01*
X197832Y106506D01*
X197767Y106621D01*
X197705Y106739D01*
X197647Y106858D01*
X197592Y106979D01*
X197541Y107101D01*
X197493Y107225D01*
X197449Y107350D01*
X197409Y107476D01*
X197373Y107604D01*
X197340Y107732D01*
X197311Y107861D01*
X197286Y107992D01*
X197265Y108122D01*
X197247Y108254D01*
X197234Y108386D01*
X197224Y108518D01*
X197218Y108650D01*
X197216Y108783D01*
X198120Y116911D02*
X198122Y117030D01*
X198128Y117150D01*
X198138Y117269D01*
X198152Y117387D01*
X198169Y117506D01*
X198191Y117623D01*
X198216Y117740D01*
X198246Y117855D01*
X198279Y117970D01*
X198316Y118084D01*
X198356Y118196D01*
X198401Y118307D01*
X198449Y118416D01*
X198500Y118524D01*
X198555Y118630D01*
X198614Y118734D01*
X198676Y118836D01*
X198741Y118936D01*
X198810Y119034D01*
X198882Y119130D01*
X198957Y119223D01*
X199034Y119313D01*
X199115Y119401D01*
X199199Y119486D01*
X199286Y119568D01*
X199375Y119648D01*
X199467Y119724D01*
X199561Y119798D01*
X199658Y119868D01*
X199756Y119935D01*
X199857Y119999D01*
X199961Y120059D01*
X200066Y120116D01*
X200173Y120169D01*
X200281Y120219D01*
X200391Y120265D01*
X200503Y120307D01*
X200616Y120346D01*
X200730Y120381D01*
X200845Y120412D01*
X200962Y120440D01*
X201079Y120463D01*
X201196Y120483D01*
X201315Y120499D01*
X201434Y120511D01*
X201553Y120519D01*
X201672Y120523D01*
X201792Y120523D01*
X201911Y120519D01*
X202030Y120511D01*
X202149Y120499D01*
X202268Y120483D01*
X202385Y120463D01*
X202502Y120440D01*
X202619Y120412D01*
X202734Y120381D01*
X202848Y120346D01*
X202961Y120307D01*
X203073Y120265D01*
X203183Y120219D01*
X203291Y120169D01*
X203398Y120116D01*
X203503Y120059D01*
X203607Y119999D01*
X203708Y119935D01*
X203806Y119868D01*
X203903Y119798D01*
X203997Y119724D01*
X204089Y119648D01*
X204178Y119568D01*
X204265Y119486D01*
X204349Y119401D01*
X204430Y119313D01*
X204507Y119223D01*
X204582Y119130D01*
X204654Y119034D01*
X204723Y118936D01*
X204788Y118836D01*
X204850Y118734D01*
X204909Y118630D01*
X204964Y118524D01*
X205015Y118416D01*
X205063Y118307D01*
X205108Y118196D01*
X205148Y118084D01*
X205185Y117970D01*
X205218Y117855D01*
X205248Y117740D01*
X205273Y117623D01*
X205295Y117506D01*
X205312Y117387D01*
X205326Y117269D01*
X205336Y117150D01*
X205342Y117030D01*
X205344Y116911D01*
X205342Y116792D01*
X205336Y116672D01*
X205326Y116553D01*
X205312Y116435D01*
X205295Y116316D01*
X205273Y116199D01*
X205248Y116082D01*
X205218Y115967D01*
X205185Y115852D01*
X205148Y115738D01*
X205108Y115626D01*
X205063Y115515D01*
X205015Y115406D01*
X204964Y115298D01*
X204909Y115192D01*
X204850Y115088D01*
X204788Y114986D01*
X204723Y114886D01*
X204654Y114788D01*
X204582Y114692D01*
X204507Y114599D01*
X204430Y114509D01*
X204349Y114421D01*
X204265Y114336D01*
X204178Y114254D01*
X204089Y114174D01*
X203997Y114098D01*
X203903Y114024D01*
X203806Y113954D01*
X203708Y113887D01*
X203607Y113823D01*
X203503Y113763D01*
X203398Y113706D01*
X203291Y113653D01*
X203183Y113603D01*
X203073Y113557D01*
X202961Y113515D01*
X202848Y113476D01*
X202734Y113441D01*
X202619Y113410D01*
X202502Y113382D01*
X202385Y113359D01*
X202268Y113339D01*
X202149Y113323D01*
X202030Y113311D01*
X201911Y113303D01*
X201792Y113299D01*
X201672Y113299D01*
X201553Y113303D01*
X201434Y113311D01*
X201315Y113323D01*
X201196Y113339D01*
X201079Y113359D01*
X200962Y113382D01*
X200845Y113410D01*
X200730Y113441D01*
X200616Y113476D01*
X200503Y113515D01*
X200391Y113557D01*
X200281Y113603D01*
X200173Y113653D01*
X200066Y113706D01*
X199961Y113763D01*
X199857Y113823D01*
X199756Y113887D01*
X199658Y113954D01*
X199561Y114024D01*
X199467Y114098D01*
X199375Y114174D01*
X199286Y114254D01*
X199199Y114336D01*
X199115Y114421D01*
X199034Y114509D01*
X198957Y114599D01*
X198882Y114692D01*
X198810Y114788D01*
X198741Y114886D01*
X198676Y114986D01*
X198614Y115088D01*
X198555Y115192D01*
X198500Y115298D01*
X198449Y115406D01*
X198401Y115515D01*
X198356Y115626D01*
X198316Y115738D01*
X198279Y115852D01*
X198246Y115967D01*
X198216Y116082D01*
X198191Y116199D01*
X198169Y116316D01*
X198152Y116435D01*
X198138Y116553D01*
X198128Y116672D01*
X198122Y116792D01*
X198120Y116911D01*
X222617Y111492D02*
X228036Y111492D01*
X228154Y111494D01*
X228272Y111500D01*
X228390Y111509D01*
X228507Y111523D01*
X228624Y111540D01*
X228741Y111561D01*
X228856Y111586D01*
X228971Y111615D01*
X229085Y111648D01*
X229197Y111684D01*
X229308Y111724D01*
X229418Y111767D01*
X229527Y111814D01*
X229634Y111864D01*
X229739Y111919D01*
X229842Y111976D01*
X229943Y112037D01*
X230043Y112101D01*
X230140Y112168D01*
X230235Y112238D01*
X230327Y112312D01*
X230418Y112388D01*
X230505Y112468D01*
X230590Y112550D01*
X230672Y112635D01*
X230752Y112722D01*
X230828Y112813D01*
X230902Y112905D01*
X230972Y113000D01*
X231039Y113097D01*
X231103Y113197D01*
X231164Y113298D01*
X231221Y113401D01*
X231276Y113506D01*
X231326Y113613D01*
X231373Y113722D01*
X231416Y113832D01*
X231456Y113943D01*
X231492Y114055D01*
X231525Y114169D01*
X231554Y114284D01*
X231579Y114399D01*
X231600Y114516D01*
X231617Y114633D01*
X231631Y114750D01*
X231640Y114868D01*
X231646Y114986D01*
X231648Y115104D01*
X231648Y116007D01*
X231646Y116140D01*
X231640Y116272D01*
X231630Y116404D01*
X231617Y116536D01*
X231599Y116668D01*
X231578Y116798D01*
X231553Y116929D01*
X231524Y117058D01*
X231491Y117186D01*
X231455Y117314D01*
X231415Y117440D01*
X231371Y117565D01*
X231323Y117689D01*
X231272Y117811D01*
X231217Y117932D01*
X231159Y118051D01*
X231097Y118169D01*
X231032Y118284D01*
X230963Y118398D01*
X230892Y118509D01*
X230816Y118618D01*
X230738Y118725D01*
X230657Y118830D01*
X230572Y118932D01*
X230485Y119032D01*
X230395Y119129D01*
X230302Y119224D01*
X230206Y119315D01*
X230108Y119404D01*
X230007Y119490D01*
X229903Y119573D01*
X229797Y119653D01*
X229689Y119729D01*
X229579Y119803D01*
X229466Y119873D01*
X229352Y119940D01*
X229235Y120003D01*
X229117Y120063D01*
X228997Y120120D01*
X228875Y120173D01*
X228752Y120222D01*
X228628Y120268D01*
X228502Y120310D01*
X228375Y120348D01*
X228247Y120383D01*
X228118Y120414D01*
X227989Y120441D01*
X227858Y120464D01*
X227727Y120484D01*
X227595Y120499D01*
X227463Y120511D01*
X227331Y120519D01*
X227198Y120523D01*
X227066Y120523D01*
X226933Y120519D01*
X226801Y120511D01*
X226669Y120499D01*
X226537Y120484D01*
X226406Y120464D01*
X226275Y120441D01*
X226146Y120414D01*
X226017Y120383D01*
X225889Y120348D01*
X225762Y120310D01*
X225636Y120268D01*
X225512Y120222D01*
X225389Y120173D01*
X225267Y120120D01*
X225147Y120063D01*
X225029Y120003D01*
X224912Y119940D01*
X224798Y119873D01*
X224685Y119803D01*
X224575Y119729D01*
X224467Y119653D01*
X224361Y119573D01*
X224257Y119490D01*
X224156Y119404D01*
X224058Y119315D01*
X223962Y119224D01*
X223869Y119129D01*
X223779Y119032D01*
X223692Y118932D01*
X223607Y118830D01*
X223526Y118725D01*
X223448Y118618D01*
X223372Y118509D01*
X223301Y118398D01*
X223232Y118284D01*
X223167Y118169D01*
X223105Y118051D01*
X223047Y117932D01*
X222992Y117811D01*
X222941Y117689D01*
X222893Y117565D01*
X222849Y117440D01*
X222809Y117314D01*
X222773Y117186D01*
X222740Y117058D01*
X222711Y116929D01*
X222686Y116798D01*
X222665Y116668D01*
X222647Y116536D01*
X222634Y116404D01*
X222624Y116272D01*
X222618Y116140D01*
X222616Y116007D01*
X222617Y116007D02*
X222617Y111492D01*
X222619Y111317D01*
X222625Y111143D01*
X222636Y110969D01*
X222651Y110795D01*
X222670Y110621D01*
X222693Y110448D01*
X222720Y110276D01*
X222752Y110104D01*
X222787Y109933D01*
X222827Y109763D01*
X222871Y109594D01*
X222919Y109426D01*
X222971Y109259D01*
X223027Y109094D01*
X223087Y108930D01*
X223150Y108767D01*
X223218Y108607D01*
X223290Y108447D01*
X223365Y108290D01*
X223445Y108134D01*
X223528Y107981D01*
X223614Y107829D01*
X223705Y107680D01*
X223799Y107533D01*
X223896Y107388D01*
X223997Y107245D01*
X224101Y107105D01*
X224209Y106968D01*
X224320Y106833D01*
X224434Y106701D01*
X224551Y106572D01*
X224672Y106445D01*
X224795Y106322D01*
X224922Y106201D01*
X225051Y106084D01*
X225183Y105970D01*
X225318Y105859D01*
X225455Y105751D01*
X225595Y105647D01*
X225738Y105546D01*
X225883Y105449D01*
X226030Y105355D01*
X226179Y105264D01*
X226331Y105178D01*
X226484Y105095D01*
X226640Y105015D01*
X226797Y104940D01*
X226957Y104868D01*
X227117Y104800D01*
X227280Y104737D01*
X227444Y104677D01*
X227609Y104621D01*
X227776Y104569D01*
X227944Y104521D01*
X228113Y104477D01*
X228283Y104437D01*
X228454Y104402D01*
X228626Y104370D01*
X228798Y104343D01*
X228971Y104320D01*
X229145Y104301D01*
X229319Y104286D01*
X229493Y104275D01*
X229667Y104269D01*
X229842Y104267D01*
D11*
X257866Y118237D02*
X261112Y115641D01*
X257866Y118237D02*
X257866Y106553D01*
X254621Y106553D02*
X261112Y106553D01*
X249683Y112395D02*
X249680Y112625D01*
X249672Y112855D01*
X249658Y113084D01*
X249639Y113313D01*
X249614Y113542D01*
X249584Y113770D01*
X249549Y113997D01*
X249508Y114223D01*
X249462Y114448D01*
X249410Y114672D01*
X249353Y114895D01*
X249291Y115116D01*
X249223Y115336D01*
X249150Y115554D01*
X249072Y115770D01*
X248989Y115984D01*
X248901Y116197D01*
X248808Y116407D01*
X248709Y116614D01*
X248676Y116704D01*
X248640Y116793D01*
X248600Y116881D01*
X248556Y116966D01*
X248509Y117050D01*
X248459Y117132D01*
X248405Y117212D01*
X248349Y117289D01*
X248289Y117365D01*
X248226Y117438D01*
X248161Y117508D01*
X248092Y117576D01*
X248021Y117640D01*
X247948Y117702D01*
X247872Y117761D01*
X247794Y117817D01*
X247713Y117870D01*
X247631Y117919D01*
X247547Y117965D01*
X247460Y118008D01*
X247373Y118047D01*
X247283Y118083D01*
X247193Y118115D01*
X247101Y118143D01*
X247008Y118168D01*
X246914Y118189D01*
X246820Y118206D01*
X246725Y118220D01*
X246629Y118229D01*
X246533Y118235D01*
X246437Y118237D01*
X246341Y118235D01*
X246245Y118229D01*
X246149Y118220D01*
X246054Y118206D01*
X245960Y118189D01*
X245866Y118168D01*
X245773Y118143D01*
X245681Y118115D01*
X245591Y118083D01*
X245501Y118047D01*
X245414Y118008D01*
X245327Y117965D01*
X245243Y117919D01*
X245161Y117870D01*
X245080Y117817D01*
X245002Y117761D01*
X244926Y117702D01*
X244853Y117640D01*
X244782Y117576D01*
X244713Y117508D01*
X244648Y117438D01*
X244585Y117365D01*
X244525Y117290D01*
X244469Y117212D01*
X244415Y117132D01*
X244365Y117050D01*
X244318Y116966D01*
X244275Y116881D01*
X244234Y116793D01*
X244198Y116704D01*
X244165Y116614D01*
X244066Y116406D01*
X243973Y116196D01*
X243885Y115984D01*
X243802Y115770D01*
X243724Y115553D01*
X243651Y115335D01*
X243583Y115116D01*
X243521Y114894D01*
X243464Y114672D01*
X243412Y114448D01*
X243366Y114223D01*
X243325Y113997D01*
X243290Y113769D01*
X243260Y113542D01*
X243235Y113313D01*
X243216Y113084D01*
X243202Y112855D01*
X243194Y112625D01*
X243191Y112395D01*
X249682Y112395D02*
X249679Y112165D01*
X249671Y111935D01*
X249657Y111706D01*
X249638Y111477D01*
X249613Y111248D01*
X249583Y111020D01*
X249548Y110793D01*
X249507Y110567D01*
X249461Y110342D01*
X249409Y110118D01*
X249352Y109895D01*
X249290Y109674D01*
X249222Y109454D01*
X249149Y109236D01*
X249071Y109020D01*
X248988Y108806D01*
X248900Y108594D01*
X248807Y108383D01*
X248708Y108176D01*
X248709Y108176D02*
X248676Y108086D01*
X248640Y107997D01*
X248599Y107909D01*
X248556Y107824D01*
X248509Y107740D01*
X248459Y107658D01*
X248405Y107578D01*
X248349Y107501D01*
X248289Y107425D01*
X248226Y107352D01*
X248161Y107282D01*
X248092Y107214D01*
X248021Y107150D01*
X247948Y107088D01*
X247872Y107029D01*
X247794Y106973D01*
X247713Y106920D01*
X247631Y106871D01*
X247547Y106825D01*
X247460Y106782D01*
X247373Y106743D01*
X247283Y106707D01*
X247193Y106675D01*
X247101Y106647D01*
X247008Y106622D01*
X246914Y106601D01*
X246820Y106584D01*
X246725Y106570D01*
X246629Y106561D01*
X246533Y106555D01*
X246437Y106553D01*
X244165Y108176D02*
X244066Y108383D01*
X243973Y108594D01*
X243885Y108806D01*
X243802Y109020D01*
X243724Y109236D01*
X243651Y109454D01*
X243583Y109674D01*
X243521Y109895D01*
X243464Y110118D01*
X243412Y110342D01*
X243366Y110567D01*
X243325Y110793D01*
X243290Y111020D01*
X243260Y111248D01*
X243235Y111477D01*
X243216Y111706D01*
X243202Y111935D01*
X243194Y112165D01*
X243191Y112395D01*
X244165Y108176D02*
X244198Y108086D01*
X244234Y107997D01*
X244275Y107909D01*
X244318Y107824D01*
X244365Y107740D01*
X244415Y107658D01*
X244469Y107578D01*
X244525Y107500D01*
X244585Y107425D01*
X244648Y107352D01*
X244713Y107282D01*
X244782Y107214D01*
X244853Y107150D01*
X244926Y107088D01*
X245002Y107029D01*
X245080Y106973D01*
X245161Y106920D01*
X245243Y106871D01*
X245327Y106825D01*
X245414Y106782D01*
X245501Y106743D01*
X245591Y106707D01*
X245681Y106675D01*
X245773Y106647D01*
X245866Y106622D01*
X245960Y106601D01*
X246054Y106584D01*
X246149Y106570D01*
X246245Y106561D01*
X246341Y106555D01*
X246437Y106553D01*
X249033Y109149D02*
X243840Y115641D01*
X283266Y118237D02*
X286512Y115641D01*
X283266Y118237D02*
X283266Y106553D01*
X280021Y106553D02*
X286512Y106553D01*
X275082Y115641D02*
X271837Y118237D01*
X271837Y106553D01*
X275082Y106553D02*
X268591Y106553D01*
X309936Y118237D02*
X313182Y115641D01*
X309936Y118237D02*
X309936Y106553D01*
X306691Y106553D02*
X313182Y106553D01*
X298182Y118237D02*
X298075Y118235D01*
X297969Y118229D01*
X297863Y118219D01*
X297757Y118206D01*
X297651Y118188D01*
X297547Y118167D01*
X297443Y118142D01*
X297340Y118113D01*
X297239Y118081D01*
X297139Y118044D01*
X297040Y118004D01*
X296942Y117961D01*
X296846Y117914D01*
X296752Y117863D01*
X296660Y117809D01*
X296570Y117752D01*
X296482Y117692D01*
X296397Y117628D01*
X296314Y117561D01*
X296233Y117491D01*
X296155Y117419D01*
X296079Y117343D01*
X296007Y117265D01*
X295937Y117184D01*
X295870Y117101D01*
X295806Y117016D01*
X295746Y116928D01*
X295689Y116838D01*
X295635Y116746D01*
X295584Y116652D01*
X295537Y116556D01*
X295494Y116458D01*
X295454Y116359D01*
X295417Y116259D01*
X295385Y116158D01*
X295356Y116055D01*
X295331Y115951D01*
X295310Y115847D01*
X295292Y115741D01*
X295279Y115635D01*
X295269Y115529D01*
X295263Y115423D01*
X295261Y115316D01*
X298182Y118237D02*
X298303Y118235D01*
X298424Y118229D01*
X298544Y118219D01*
X298665Y118206D01*
X298784Y118188D01*
X298904Y118167D01*
X299022Y118142D01*
X299139Y118113D01*
X299256Y118080D01*
X299371Y118044D01*
X299485Y118003D01*
X299598Y117960D01*
X299710Y117912D01*
X299819Y117861D01*
X299927Y117806D01*
X300034Y117748D01*
X300138Y117687D01*
X300240Y117622D01*
X300340Y117554D01*
X300438Y117483D01*
X300534Y117409D01*
X300627Y117332D01*
X300717Y117251D01*
X300805Y117168D01*
X300890Y117082D01*
X300973Y116993D01*
X301052Y116902D01*
X301129Y116808D01*
X301202Y116712D01*
X301272Y116614D01*
X301339Y116513D01*
X301403Y116410D01*
X301464Y116305D01*
X301521Y116198D01*
X301574Y116090D01*
X301624Y115980D01*
X301670Y115868D01*
X301713Y115755D01*
X301752Y115640D01*
X296235Y113044D02*
X296156Y113122D01*
X296080Y113202D01*
X296007Y113285D01*
X295937Y113371D01*
X295870Y113458D01*
X295806Y113549D01*
X295746Y113641D01*
X295688Y113735D01*
X295634Y113832D01*
X295584Y113930D01*
X295537Y114030D01*
X295493Y114131D01*
X295453Y114234D01*
X295417Y114339D01*
X295385Y114444D01*
X295356Y114551D01*
X295331Y114658D01*
X295309Y114767D01*
X295292Y114876D01*
X295278Y114985D01*
X295269Y115095D01*
X295263Y115206D01*
X295261Y115316D01*
X296235Y113044D02*
X301752Y106553D01*
X295261Y106553D01*
X335336Y118237D02*
X338582Y115641D01*
X335336Y118237D02*
X335336Y106553D01*
X332091Y106553D02*
X338582Y106553D01*
X327152Y106553D02*
X323907Y106553D01*
X323794Y106555D01*
X323681Y106561D01*
X323568Y106571D01*
X323455Y106585D01*
X323343Y106602D01*
X323232Y106624D01*
X323122Y106649D01*
X323012Y106679D01*
X322904Y106712D01*
X322797Y106749D01*
X322691Y106789D01*
X322587Y106834D01*
X322484Y106882D01*
X322383Y106933D01*
X322284Y106988D01*
X322187Y107046D01*
X322092Y107108D01*
X321999Y107173D01*
X321909Y107241D01*
X321821Y107312D01*
X321735Y107387D01*
X321652Y107464D01*
X321572Y107544D01*
X321495Y107627D01*
X321420Y107713D01*
X321349Y107801D01*
X321281Y107891D01*
X321216Y107984D01*
X321154Y108079D01*
X321096Y108176D01*
X321041Y108275D01*
X320990Y108376D01*
X320942Y108479D01*
X320897Y108583D01*
X320857Y108689D01*
X320820Y108796D01*
X320787Y108904D01*
X320757Y109014D01*
X320732Y109124D01*
X320710Y109235D01*
X320693Y109347D01*
X320679Y109460D01*
X320669Y109573D01*
X320663Y109686D01*
X320661Y109799D01*
X320663Y109912D01*
X320669Y110025D01*
X320679Y110138D01*
X320693Y110251D01*
X320710Y110363D01*
X320732Y110474D01*
X320757Y110584D01*
X320787Y110694D01*
X320820Y110802D01*
X320857Y110909D01*
X320897Y111015D01*
X320942Y111119D01*
X320990Y111222D01*
X321041Y111323D01*
X321096Y111422D01*
X321154Y111519D01*
X321216Y111614D01*
X321281Y111707D01*
X321349Y111797D01*
X321420Y111885D01*
X321495Y111971D01*
X321572Y112054D01*
X321652Y112134D01*
X321735Y112211D01*
X321821Y112286D01*
X321909Y112357D01*
X321999Y112425D01*
X322092Y112490D01*
X322187Y112552D01*
X322284Y112610D01*
X322383Y112665D01*
X322484Y112716D01*
X322587Y112764D01*
X322691Y112809D01*
X322797Y112849D01*
X322904Y112886D01*
X323012Y112919D01*
X323122Y112949D01*
X323232Y112974D01*
X323343Y112996D01*
X323455Y113013D01*
X323568Y113027D01*
X323681Y113037D01*
X323794Y113043D01*
X323907Y113045D01*
X323257Y118237D02*
X327152Y118237D01*
X323257Y118237D02*
X323156Y118235D01*
X323056Y118229D01*
X322956Y118219D01*
X322856Y118206D01*
X322757Y118188D01*
X322658Y118167D01*
X322561Y118142D01*
X322464Y118113D01*
X322369Y118080D01*
X322275Y118044D01*
X322183Y118004D01*
X322092Y117961D01*
X322003Y117914D01*
X321916Y117864D01*
X321830Y117810D01*
X321747Y117753D01*
X321667Y117693D01*
X321588Y117630D01*
X321512Y117563D01*
X321439Y117494D01*
X321369Y117422D01*
X321301Y117348D01*
X321236Y117271D01*
X321175Y117191D01*
X321116Y117109D01*
X321061Y117025D01*
X321009Y116939D01*
X320960Y116851D01*
X320915Y116761D01*
X320873Y116669D01*
X320835Y116576D01*
X320801Y116481D01*
X320770Y116386D01*
X320743Y116289D01*
X320720Y116191D01*
X320700Y116092D01*
X320685Y115992D01*
X320673Y115892D01*
X320665Y115792D01*
X320661Y115691D01*
X320661Y115591D01*
X320665Y115490D01*
X320673Y115390D01*
X320685Y115290D01*
X320700Y115190D01*
X320720Y115091D01*
X320743Y114993D01*
X320770Y114896D01*
X320801Y114801D01*
X320835Y114706D01*
X320873Y114613D01*
X320915Y114521D01*
X320960Y114431D01*
X321009Y114343D01*
X321061Y114257D01*
X321116Y114173D01*
X321175Y114091D01*
X321236Y114011D01*
X321301Y113934D01*
X321369Y113860D01*
X321439Y113788D01*
X321512Y113719D01*
X321588Y113652D01*
X321667Y113589D01*
X321747Y113529D01*
X321830Y113472D01*
X321916Y113418D01*
X322003Y113368D01*
X322092Y113321D01*
X322183Y113278D01*
X322275Y113238D01*
X322369Y113202D01*
X322464Y113169D01*
X322561Y113140D01*
X322658Y113115D01*
X322757Y113094D01*
X322856Y113076D01*
X322956Y113063D01*
X323056Y113053D01*
X323156Y113047D01*
X323257Y113045D01*
X323257Y113044D02*
X325854Y113044D01*
X360736Y118237D02*
X363982Y115641D01*
X360736Y118237D02*
X360736Y106553D01*
X357491Y106553D02*
X363982Y106553D01*
X352552Y109149D02*
X349956Y118237D01*
X352552Y109149D02*
X346061Y109149D01*
X348008Y111746D02*
X348008Y106553D01*
X386136Y118237D02*
X389382Y115641D01*
X386136Y118237D02*
X386136Y106553D01*
X382891Y106553D02*
X389382Y106553D01*
X377952Y106553D02*
X374057Y106553D01*
X373958Y106555D01*
X373858Y106561D01*
X373759Y106570D01*
X373661Y106583D01*
X373563Y106600D01*
X373465Y106621D01*
X373369Y106646D01*
X373274Y106674D01*
X373180Y106706D01*
X373087Y106741D01*
X372995Y106780D01*
X372905Y106823D01*
X372817Y106868D01*
X372730Y106918D01*
X372646Y106970D01*
X372563Y107026D01*
X372483Y107084D01*
X372405Y107146D01*
X372330Y107211D01*
X372257Y107279D01*
X372187Y107349D01*
X372119Y107422D01*
X372054Y107497D01*
X371992Y107575D01*
X371934Y107655D01*
X371878Y107738D01*
X371826Y107822D01*
X371776Y107909D01*
X371731Y107997D01*
X371688Y108087D01*
X371649Y108179D01*
X371614Y108272D01*
X371582Y108366D01*
X371554Y108461D01*
X371529Y108557D01*
X371508Y108655D01*
X371491Y108753D01*
X371478Y108851D01*
X371469Y108950D01*
X371463Y109050D01*
X371461Y109149D01*
X371461Y110448D01*
X371463Y110547D01*
X371469Y110647D01*
X371478Y110746D01*
X371491Y110844D01*
X371508Y110942D01*
X371529Y111040D01*
X371554Y111136D01*
X371582Y111231D01*
X371614Y111325D01*
X371649Y111418D01*
X371688Y111510D01*
X371731Y111600D01*
X371776Y111688D01*
X371826Y111775D01*
X371878Y111859D01*
X371934Y111942D01*
X371992Y112022D01*
X372054Y112100D01*
X372119Y112175D01*
X372187Y112248D01*
X372257Y112318D01*
X372330Y112386D01*
X372405Y112451D01*
X372483Y112513D01*
X372563Y112571D01*
X372646Y112627D01*
X372730Y112679D01*
X372817Y112729D01*
X372905Y112774D01*
X372995Y112817D01*
X373087Y112856D01*
X373180Y112891D01*
X373274Y112923D01*
X373369Y112951D01*
X373465Y112976D01*
X373563Y112997D01*
X373661Y113014D01*
X373759Y113027D01*
X373858Y113036D01*
X373958Y113042D01*
X374057Y113044D01*
X377952Y113044D01*
X377952Y118237D01*
X371461Y118237D01*
X410266Y118237D02*
X413512Y115641D01*
X410266Y118237D02*
X410266Y106553D01*
X407021Y106553D02*
X413512Y106553D01*
X402082Y113044D02*
X398187Y113044D01*
X398088Y113042D01*
X397988Y113036D01*
X397889Y113027D01*
X397791Y113014D01*
X397693Y112997D01*
X397595Y112976D01*
X397499Y112951D01*
X397404Y112923D01*
X397310Y112891D01*
X397217Y112856D01*
X397125Y112817D01*
X397035Y112774D01*
X396947Y112729D01*
X396860Y112679D01*
X396776Y112627D01*
X396693Y112571D01*
X396613Y112513D01*
X396535Y112451D01*
X396460Y112386D01*
X396387Y112318D01*
X396317Y112248D01*
X396249Y112175D01*
X396184Y112100D01*
X396122Y112022D01*
X396064Y111942D01*
X396008Y111859D01*
X395956Y111775D01*
X395906Y111688D01*
X395861Y111600D01*
X395818Y111510D01*
X395779Y111418D01*
X395744Y111325D01*
X395712Y111231D01*
X395684Y111136D01*
X395659Y111040D01*
X395638Y110942D01*
X395621Y110844D01*
X395608Y110746D01*
X395599Y110647D01*
X395593Y110547D01*
X395591Y110448D01*
X395591Y109799D01*
X395590Y109799D02*
X395592Y109686D01*
X395598Y109573D01*
X395608Y109460D01*
X395622Y109347D01*
X395639Y109235D01*
X395661Y109124D01*
X395686Y109014D01*
X395716Y108904D01*
X395749Y108796D01*
X395786Y108689D01*
X395826Y108583D01*
X395871Y108479D01*
X395919Y108376D01*
X395970Y108275D01*
X396025Y108176D01*
X396083Y108079D01*
X396145Y107984D01*
X396210Y107891D01*
X396278Y107801D01*
X396349Y107713D01*
X396424Y107627D01*
X396501Y107544D01*
X396581Y107464D01*
X396664Y107387D01*
X396750Y107312D01*
X396838Y107241D01*
X396928Y107173D01*
X397021Y107108D01*
X397116Y107046D01*
X397213Y106988D01*
X397312Y106933D01*
X397413Y106882D01*
X397516Y106834D01*
X397620Y106789D01*
X397726Y106749D01*
X397833Y106712D01*
X397941Y106679D01*
X398051Y106649D01*
X398161Y106624D01*
X398272Y106602D01*
X398384Y106585D01*
X398497Y106571D01*
X398610Y106561D01*
X398723Y106555D01*
X398836Y106553D01*
X398949Y106555D01*
X399062Y106561D01*
X399175Y106571D01*
X399288Y106585D01*
X399400Y106602D01*
X399511Y106624D01*
X399621Y106649D01*
X399731Y106679D01*
X399839Y106712D01*
X399946Y106749D01*
X400052Y106789D01*
X400156Y106834D01*
X400259Y106882D01*
X400360Y106933D01*
X400459Y106988D01*
X400556Y107046D01*
X400651Y107108D01*
X400744Y107173D01*
X400834Y107241D01*
X400922Y107312D01*
X401008Y107387D01*
X401091Y107464D01*
X401171Y107544D01*
X401248Y107627D01*
X401323Y107713D01*
X401394Y107801D01*
X401462Y107891D01*
X401527Y107984D01*
X401589Y108079D01*
X401647Y108176D01*
X401702Y108275D01*
X401753Y108376D01*
X401801Y108479D01*
X401846Y108583D01*
X401886Y108689D01*
X401923Y108796D01*
X401956Y108904D01*
X401986Y109014D01*
X402011Y109124D01*
X402033Y109235D01*
X402050Y109347D01*
X402064Y109460D01*
X402074Y109573D01*
X402080Y109686D01*
X402082Y109799D01*
X402082Y113044D01*
X402080Y113187D01*
X402074Y113330D01*
X402064Y113473D01*
X402050Y113615D01*
X402033Y113757D01*
X402011Y113899D01*
X401986Y114040D01*
X401956Y114180D01*
X401923Y114319D01*
X401886Y114457D01*
X401845Y114594D01*
X401801Y114730D01*
X401752Y114865D01*
X401700Y114998D01*
X401645Y115130D01*
X401585Y115260D01*
X401522Y115389D01*
X401456Y115516D01*
X401386Y115641D01*
X401313Y115763D01*
X401236Y115884D01*
X401156Y116003D01*
X401073Y116119D01*
X400987Y116234D01*
X400898Y116345D01*
X400805Y116455D01*
X400710Y116561D01*
X400611Y116665D01*
X400510Y116766D01*
X400406Y116865D01*
X400300Y116960D01*
X400190Y117053D01*
X400079Y117142D01*
X399964Y117228D01*
X399848Y117311D01*
X399729Y117391D01*
X399608Y117468D01*
X399486Y117541D01*
X399361Y117611D01*
X399234Y117677D01*
X399105Y117740D01*
X398975Y117800D01*
X398843Y117855D01*
X398710Y117907D01*
X398575Y117956D01*
X398439Y118000D01*
X398302Y118041D01*
X398164Y118078D01*
X398025Y118111D01*
X397885Y118141D01*
X397744Y118166D01*
X397602Y118188D01*
X397460Y118205D01*
X397318Y118219D01*
X397175Y118229D01*
X397032Y118235D01*
X396889Y118237D01*
M02*
