G04 EAGLE Gerber RS-274X export*
G75*
%MOMM*%
%FSLAX34Y34*%
%LPD*%
%INSilkscreen Top*%
%IPPOS*%
%AMOC8*
5,1,8,0,0,1.08239X$1,22.5*%
G01*
%ADD10C,0.152400*%
%ADD11C,0.101600*%


D10*
X21082Y116911D02*
X25598Y120523D01*
X25598Y104267D01*
X30113Y104267D02*
X21082Y104267D01*
X52719Y120523D02*
X52844Y120521D01*
X52969Y120515D01*
X53094Y120506D01*
X53218Y120492D01*
X53342Y120475D01*
X53466Y120454D01*
X53588Y120429D01*
X53710Y120400D01*
X53831Y120368D01*
X53951Y120332D01*
X54070Y120292D01*
X54187Y120249D01*
X54303Y120202D01*
X54418Y120151D01*
X54530Y120097D01*
X54642Y120039D01*
X54751Y119979D01*
X54858Y119914D01*
X54964Y119847D01*
X55067Y119776D01*
X55168Y119702D01*
X55267Y119625D01*
X55363Y119545D01*
X55457Y119462D01*
X55548Y119377D01*
X55637Y119288D01*
X55722Y119197D01*
X55805Y119103D01*
X55885Y119007D01*
X55962Y118908D01*
X56036Y118807D01*
X56107Y118704D01*
X56174Y118598D01*
X56239Y118491D01*
X56299Y118382D01*
X56357Y118270D01*
X56411Y118158D01*
X56462Y118043D01*
X56509Y117927D01*
X56552Y117810D01*
X56592Y117691D01*
X56628Y117571D01*
X56660Y117450D01*
X56689Y117328D01*
X56714Y117206D01*
X56735Y117082D01*
X56752Y116958D01*
X56766Y116834D01*
X56775Y116709D01*
X56781Y116584D01*
X56783Y116459D01*
X52719Y120523D02*
X52576Y120521D01*
X52434Y120515D01*
X52291Y120505D01*
X52149Y120492D01*
X52008Y120474D01*
X51866Y120453D01*
X51726Y120428D01*
X51586Y120399D01*
X51447Y120366D01*
X51309Y120329D01*
X51172Y120289D01*
X51037Y120245D01*
X50902Y120197D01*
X50769Y120145D01*
X50637Y120090D01*
X50507Y120031D01*
X50379Y119969D01*
X50252Y119903D01*
X50127Y119834D01*
X50004Y119762D01*
X49884Y119686D01*
X49765Y119607D01*
X49648Y119524D01*
X49534Y119439D01*
X49422Y119350D01*
X49313Y119259D01*
X49206Y119164D01*
X49101Y119067D01*
X49000Y118966D01*
X48901Y118863D01*
X48805Y118758D01*
X48712Y118649D01*
X48622Y118538D01*
X48535Y118425D01*
X48451Y118310D01*
X48371Y118192D01*
X48293Y118072D01*
X48219Y117950D01*
X48149Y117826D01*
X48081Y117700D01*
X48018Y117572D01*
X47957Y117443D01*
X47900Y117312D01*
X47847Y117180D01*
X47798Y117046D01*
X47752Y116911D01*
X55428Y113298D02*
X55522Y113390D01*
X55612Y113484D01*
X55700Y113581D01*
X55785Y113681D01*
X55867Y113783D01*
X55946Y113888D01*
X56021Y113995D01*
X56093Y114104D01*
X56162Y114215D01*
X56228Y114329D01*
X56290Y114444D01*
X56349Y114561D01*
X56404Y114680D01*
X56455Y114800D01*
X56503Y114922D01*
X56548Y115045D01*
X56588Y115169D01*
X56625Y115295D01*
X56658Y115422D01*
X56687Y115549D01*
X56713Y115678D01*
X56734Y115807D01*
X56752Y115937D01*
X56765Y116067D01*
X56775Y116197D01*
X56781Y116328D01*
X56783Y116459D01*
X55428Y113298D02*
X47752Y104267D01*
X56783Y104267D01*
X71882Y104267D02*
X76398Y104267D01*
X76531Y104269D01*
X76663Y104275D01*
X76795Y104285D01*
X76927Y104298D01*
X77059Y104316D01*
X77189Y104337D01*
X77320Y104362D01*
X77449Y104391D01*
X77577Y104424D01*
X77705Y104460D01*
X77831Y104500D01*
X77956Y104544D01*
X78080Y104592D01*
X78202Y104643D01*
X78323Y104698D01*
X78442Y104756D01*
X78560Y104818D01*
X78675Y104883D01*
X78789Y104952D01*
X78900Y105023D01*
X79009Y105099D01*
X79116Y105177D01*
X79221Y105258D01*
X79323Y105343D01*
X79423Y105430D01*
X79520Y105520D01*
X79615Y105613D01*
X79706Y105709D01*
X79795Y105807D01*
X79881Y105908D01*
X79964Y106012D01*
X80044Y106118D01*
X80120Y106226D01*
X80194Y106336D01*
X80264Y106449D01*
X80331Y106563D01*
X80394Y106680D01*
X80454Y106798D01*
X80511Y106918D01*
X80564Y107040D01*
X80613Y107163D01*
X80659Y107287D01*
X80701Y107413D01*
X80739Y107540D01*
X80774Y107668D01*
X80805Y107797D01*
X80832Y107926D01*
X80855Y108057D01*
X80875Y108188D01*
X80890Y108320D01*
X80902Y108452D01*
X80910Y108584D01*
X80914Y108717D01*
X80914Y108849D01*
X80910Y108982D01*
X80902Y109114D01*
X80890Y109246D01*
X80875Y109378D01*
X80855Y109509D01*
X80832Y109640D01*
X80805Y109769D01*
X80774Y109898D01*
X80739Y110026D01*
X80701Y110153D01*
X80659Y110279D01*
X80613Y110403D01*
X80564Y110526D01*
X80511Y110648D01*
X80454Y110768D01*
X80394Y110886D01*
X80331Y111003D01*
X80264Y111117D01*
X80194Y111230D01*
X80120Y111340D01*
X80044Y111448D01*
X79964Y111554D01*
X79881Y111658D01*
X79795Y111759D01*
X79706Y111857D01*
X79615Y111953D01*
X79520Y112046D01*
X79423Y112136D01*
X79323Y112223D01*
X79221Y112308D01*
X79116Y112389D01*
X79009Y112467D01*
X78900Y112543D01*
X78789Y112614D01*
X78675Y112683D01*
X78560Y112748D01*
X78442Y112810D01*
X78323Y112868D01*
X78202Y112923D01*
X78080Y112974D01*
X77956Y113022D01*
X77831Y113066D01*
X77705Y113106D01*
X77577Y113142D01*
X77449Y113175D01*
X77320Y113204D01*
X77189Y113229D01*
X77059Y113250D01*
X76927Y113268D01*
X76795Y113281D01*
X76663Y113291D01*
X76531Y113297D01*
X76398Y113299D01*
X77301Y120523D02*
X71882Y120523D01*
X77301Y120523D02*
X77420Y120521D01*
X77540Y120515D01*
X77659Y120505D01*
X77777Y120491D01*
X77896Y120474D01*
X78013Y120452D01*
X78130Y120427D01*
X78245Y120397D01*
X78360Y120364D01*
X78474Y120327D01*
X78586Y120287D01*
X78697Y120242D01*
X78806Y120194D01*
X78914Y120143D01*
X79020Y120088D01*
X79124Y120029D01*
X79226Y119967D01*
X79326Y119902D01*
X79424Y119833D01*
X79520Y119761D01*
X79613Y119686D01*
X79703Y119609D01*
X79791Y119528D01*
X79876Y119444D01*
X79958Y119357D01*
X80038Y119268D01*
X80114Y119176D01*
X80188Y119082D01*
X80258Y118985D01*
X80325Y118887D01*
X80389Y118786D01*
X80449Y118682D01*
X80506Y118577D01*
X80559Y118470D01*
X80609Y118362D01*
X80655Y118252D01*
X80697Y118140D01*
X80736Y118027D01*
X80771Y117913D01*
X80802Y117798D01*
X80830Y117681D01*
X80853Y117564D01*
X80873Y117447D01*
X80889Y117328D01*
X80901Y117209D01*
X80909Y117090D01*
X80913Y116971D01*
X80913Y116851D01*
X80909Y116732D01*
X80901Y116613D01*
X80889Y116494D01*
X80873Y116375D01*
X80853Y116258D01*
X80830Y116141D01*
X80802Y116024D01*
X80771Y115909D01*
X80736Y115795D01*
X80697Y115682D01*
X80655Y115570D01*
X80609Y115460D01*
X80559Y115352D01*
X80506Y115245D01*
X80449Y115140D01*
X80389Y115036D01*
X80325Y114935D01*
X80258Y114837D01*
X80188Y114740D01*
X80114Y114646D01*
X80038Y114554D01*
X79958Y114465D01*
X79876Y114378D01*
X79791Y114294D01*
X79703Y114213D01*
X79613Y114136D01*
X79520Y114061D01*
X79424Y113989D01*
X79326Y113920D01*
X79226Y113855D01*
X79124Y113793D01*
X79020Y113734D01*
X78914Y113679D01*
X78806Y113628D01*
X78697Y113580D01*
X78586Y113535D01*
X78474Y113495D01*
X78360Y113458D01*
X78245Y113425D01*
X78130Y113395D01*
X78013Y113370D01*
X77896Y113348D01*
X77777Y113331D01*
X77659Y113317D01*
X77540Y113307D01*
X77420Y113301D01*
X77301Y113299D01*
X77301Y113298D02*
X73688Y113298D01*
X98552Y107879D02*
X102164Y120523D01*
X98552Y107879D02*
X107583Y107879D01*
X104874Y111492D02*
X104874Y104267D01*
X123952Y104267D02*
X129371Y104267D01*
X129489Y104269D01*
X129607Y104275D01*
X129725Y104284D01*
X129842Y104298D01*
X129959Y104315D01*
X130076Y104336D01*
X130191Y104361D01*
X130306Y104390D01*
X130420Y104423D01*
X130532Y104459D01*
X130643Y104499D01*
X130753Y104542D01*
X130862Y104589D01*
X130969Y104639D01*
X131074Y104694D01*
X131177Y104751D01*
X131278Y104812D01*
X131378Y104876D01*
X131475Y104943D01*
X131570Y105013D01*
X131662Y105087D01*
X131753Y105163D01*
X131840Y105243D01*
X131925Y105325D01*
X132007Y105410D01*
X132087Y105497D01*
X132163Y105588D01*
X132237Y105680D01*
X132307Y105775D01*
X132374Y105872D01*
X132438Y105972D01*
X132499Y106073D01*
X132556Y106176D01*
X132611Y106281D01*
X132661Y106388D01*
X132708Y106497D01*
X132751Y106607D01*
X132791Y106718D01*
X132827Y106830D01*
X132860Y106944D01*
X132889Y107059D01*
X132914Y107174D01*
X132935Y107291D01*
X132952Y107408D01*
X132966Y107525D01*
X132975Y107643D01*
X132981Y107761D01*
X132983Y107879D01*
X132983Y109686D01*
X132981Y109804D01*
X132975Y109922D01*
X132966Y110040D01*
X132952Y110157D01*
X132935Y110274D01*
X132914Y110391D01*
X132889Y110506D01*
X132860Y110621D01*
X132827Y110735D01*
X132791Y110847D01*
X132751Y110958D01*
X132708Y111068D01*
X132661Y111177D01*
X132611Y111284D01*
X132556Y111389D01*
X132499Y111492D01*
X132438Y111593D01*
X132374Y111693D01*
X132307Y111790D01*
X132237Y111885D01*
X132163Y111977D01*
X132087Y112068D01*
X132007Y112155D01*
X131925Y112240D01*
X131840Y112322D01*
X131753Y112402D01*
X131662Y112478D01*
X131570Y112552D01*
X131475Y112622D01*
X131378Y112689D01*
X131278Y112753D01*
X131177Y112814D01*
X131074Y112871D01*
X130969Y112926D01*
X130862Y112976D01*
X130753Y113023D01*
X130643Y113066D01*
X130532Y113106D01*
X130420Y113142D01*
X130306Y113175D01*
X130191Y113204D01*
X130076Y113229D01*
X129959Y113250D01*
X129842Y113267D01*
X129725Y113281D01*
X129607Y113290D01*
X129489Y113296D01*
X129371Y113298D01*
X123952Y113298D01*
X123952Y120523D01*
X132983Y120523D01*
X148082Y113298D02*
X153501Y113298D01*
X153619Y113296D01*
X153737Y113290D01*
X153855Y113281D01*
X153972Y113267D01*
X154089Y113250D01*
X154206Y113229D01*
X154321Y113204D01*
X154436Y113175D01*
X154550Y113142D01*
X154662Y113106D01*
X154773Y113066D01*
X154883Y113023D01*
X154992Y112976D01*
X155099Y112926D01*
X155204Y112871D01*
X155307Y112814D01*
X155408Y112753D01*
X155508Y112689D01*
X155605Y112622D01*
X155700Y112552D01*
X155792Y112478D01*
X155883Y112402D01*
X155970Y112322D01*
X156055Y112240D01*
X156137Y112155D01*
X156217Y112068D01*
X156293Y111977D01*
X156367Y111885D01*
X156437Y111790D01*
X156504Y111693D01*
X156568Y111593D01*
X156629Y111492D01*
X156686Y111389D01*
X156741Y111284D01*
X156791Y111177D01*
X156838Y111068D01*
X156881Y110958D01*
X156921Y110847D01*
X156957Y110735D01*
X156990Y110621D01*
X157019Y110506D01*
X157044Y110391D01*
X157065Y110274D01*
X157082Y110157D01*
X157096Y110040D01*
X157105Y109922D01*
X157111Y109804D01*
X157113Y109686D01*
X157113Y108783D01*
X157114Y108783D02*
X157112Y108650D01*
X157106Y108518D01*
X157096Y108386D01*
X157083Y108254D01*
X157065Y108122D01*
X157044Y107992D01*
X157019Y107861D01*
X156990Y107732D01*
X156957Y107604D01*
X156921Y107476D01*
X156881Y107350D01*
X156837Y107225D01*
X156789Y107101D01*
X156738Y106979D01*
X156683Y106858D01*
X156625Y106739D01*
X156563Y106621D01*
X156498Y106506D01*
X156429Y106392D01*
X156358Y106281D01*
X156282Y106172D01*
X156204Y106065D01*
X156123Y105960D01*
X156038Y105858D01*
X155951Y105758D01*
X155861Y105661D01*
X155768Y105566D01*
X155672Y105475D01*
X155574Y105386D01*
X155473Y105300D01*
X155369Y105217D01*
X155263Y105137D01*
X155155Y105061D01*
X155045Y104987D01*
X154932Y104917D01*
X154818Y104850D01*
X154701Y104787D01*
X154583Y104727D01*
X154463Y104670D01*
X154341Y104617D01*
X154218Y104568D01*
X154094Y104522D01*
X153968Y104480D01*
X153841Y104442D01*
X153713Y104407D01*
X153584Y104376D01*
X153455Y104349D01*
X153324Y104326D01*
X153193Y104306D01*
X153061Y104291D01*
X152929Y104279D01*
X152797Y104271D01*
X152664Y104267D01*
X152532Y104267D01*
X152399Y104271D01*
X152267Y104279D01*
X152135Y104291D01*
X152003Y104306D01*
X151872Y104326D01*
X151741Y104349D01*
X151612Y104376D01*
X151483Y104407D01*
X151355Y104442D01*
X151228Y104480D01*
X151102Y104522D01*
X150978Y104568D01*
X150855Y104617D01*
X150733Y104670D01*
X150613Y104727D01*
X150495Y104787D01*
X150378Y104850D01*
X150264Y104917D01*
X150151Y104987D01*
X150041Y105061D01*
X149933Y105137D01*
X149827Y105217D01*
X149723Y105300D01*
X149622Y105386D01*
X149524Y105475D01*
X149428Y105566D01*
X149335Y105661D01*
X149245Y105758D01*
X149158Y105858D01*
X149073Y105960D01*
X148992Y106065D01*
X148914Y106172D01*
X148838Y106281D01*
X148767Y106392D01*
X148698Y106506D01*
X148633Y106621D01*
X148571Y106739D01*
X148513Y106858D01*
X148458Y106979D01*
X148407Y107101D01*
X148359Y107225D01*
X148315Y107350D01*
X148275Y107476D01*
X148239Y107604D01*
X148206Y107732D01*
X148177Y107861D01*
X148152Y107992D01*
X148131Y108122D01*
X148113Y108254D01*
X148100Y108386D01*
X148090Y108518D01*
X148084Y108650D01*
X148082Y108783D01*
X148082Y113298D01*
X148084Y113475D01*
X148091Y113653D01*
X148102Y113830D01*
X148117Y114006D01*
X148136Y114182D01*
X148160Y114358D01*
X148188Y114533D01*
X148221Y114708D01*
X148258Y114881D01*
X148299Y115054D01*
X148344Y115225D01*
X148393Y115395D01*
X148447Y115564D01*
X148504Y115732D01*
X148566Y115898D01*
X148632Y116063D01*
X148702Y116226D01*
X148776Y116387D01*
X148853Y116546D01*
X148935Y116704D01*
X149021Y116859D01*
X149110Y117012D01*
X149203Y117163D01*
X149300Y117312D01*
X149400Y117458D01*
X149504Y117602D01*
X149611Y117743D01*
X149722Y117881D01*
X149836Y118017D01*
X149954Y118150D01*
X150074Y118280D01*
X150198Y118407D01*
X150325Y118531D01*
X150455Y118651D01*
X150588Y118769D01*
X150723Y118883D01*
X150862Y118994D01*
X151003Y119101D01*
X151147Y119205D01*
X151293Y119305D01*
X151442Y119402D01*
X151593Y119495D01*
X151746Y119584D01*
X151901Y119670D01*
X152059Y119752D01*
X152218Y119829D01*
X152379Y119903D01*
X152542Y119973D01*
X152707Y120039D01*
X152873Y120101D01*
X153041Y120158D01*
X153210Y120212D01*
X153380Y120261D01*
X153551Y120306D01*
X153724Y120347D01*
X153897Y120384D01*
X154072Y120417D01*
X154247Y120445D01*
X154423Y120469D01*
X154599Y120488D01*
X154775Y120503D01*
X154952Y120514D01*
X155130Y120521D01*
X155307Y120523D01*
X173482Y120523D02*
X173482Y118717D01*
X173482Y120523D02*
X182513Y120523D01*
X177998Y104267D01*
X198882Y108783D02*
X198884Y108916D01*
X198890Y109048D01*
X198900Y109180D01*
X198913Y109312D01*
X198931Y109444D01*
X198952Y109574D01*
X198977Y109705D01*
X199006Y109834D01*
X199039Y109962D01*
X199075Y110090D01*
X199115Y110216D01*
X199159Y110341D01*
X199207Y110465D01*
X199258Y110587D01*
X199313Y110708D01*
X199371Y110827D01*
X199433Y110945D01*
X199498Y111060D01*
X199567Y111174D01*
X199638Y111285D01*
X199714Y111394D01*
X199792Y111501D01*
X199873Y111606D01*
X199958Y111708D01*
X200045Y111808D01*
X200135Y111905D01*
X200228Y112000D01*
X200324Y112091D01*
X200422Y112180D01*
X200523Y112266D01*
X200627Y112349D01*
X200733Y112429D01*
X200841Y112505D01*
X200951Y112579D01*
X201064Y112649D01*
X201178Y112716D01*
X201295Y112779D01*
X201413Y112839D01*
X201533Y112896D01*
X201655Y112949D01*
X201778Y112998D01*
X201902Y113044D01*
X202028Y113086D01*
X202155Y113124D01*
X202283Y113159D01*
X202412Y113190D01*
X202541Y113217D01*
X202672Y113240D01*
X202803Y113260D01*
X202935Y113275D01*
X203067Y113287D01*
X203199Y113295D01*
X203332Y113299D01*
X203464Y113299D01*
X203597Y113295D01*
X203729Y113287D01*
X203861Y113275D01*
X203993Y113260D01*
X204124Y113240D01*
X204255Y113217D01*
X204384Y113190D01*
X204513Y113159D01*
X204641Y113124D01*
X204768Y113086D01*
X204894Y113044D01*
X205018Y112998D01*
X205141Y112949D01*
X205263Y112896D01*
X205383Y112839D01*
X205501Y112779D01*
X205618Y112716D01*
X205732Y112649D01*
X205845Y112579D01*
X205955Y112505D01*
X206063Y112429D01*
X206169Y112349D01*
X206273Y112266D01*
X206374Y112180D01*
X206472Y112091D01*
X206568Y112000D01*
X206661Y111905D01*
X206751Y111808D01*
X206838Y111708D01*
X206923Y111606D01*
X207004Y111501D01*
X207082Y111394D01*
X207158Y111285D01*
X207229Y111174D01*
X207298Y111060D01*
X207363Y110945D01*
X207425Y110827D01*
X207483Y110708D01*
X207538Y110587D01*
X207589Y110465D01*
X207637Y110341D01*
X207681Y110216D01*
X207721Y110090D01*
X207757Y109962D01*
X207790Y109834D01*
X207819Y109705D01*
X207844Y109574D01*
X207865Y109444D01*
X207883Y109312D01*
X207896Y109180D01*
X207906Y109048D01*
X207912Y108916D01*
X207914Y108783D01*
X207912Y108650D01*
X207906Y108518D01*
X207896Y108386D01*
X207883Y108254D01*
X207865Y108122D01*
X207844Y107992D01*
X207819Y107861D01*
X207790Y107732D01*
X207757Y107604D01*
X207721Y107476D01*
X207681Y107350D01*
X207637Y107225D01*
X207589Y107101D01*
X207538Y106979D01*
X207483Y106858D01*
X207425Y106739D01*
X207363Y106621D01*
X207298Y106506D01*
X207229Y106392D01*
X207158Y106281D01*
X207082Y106172D01*
X207004Y106065D01*
X206923Y105960D01*
X206838Y105858D01*
X206751Y105758D01*
X206661Y105661D01*
X206568Y105566D01*
X206472Y105475D01*
X206374Y105386D01*
X206273Y105300D01*
X206169Y105217D01*
X206063Y105137D01*
X205955Y105061D01*
X205845Y104987D01*
X205732Y104917D01*
X205618Y104850D01*
X205501Y104787D01*
X205383Y104727D01*
X205263Y104670D01*
X205141Y104617D01*
X205018Y104568D01*
X204894Y104522D01*
X204768Y104480D01*
X204641Y104442D01*
X204513Y104407D01*
X204384Y104376D01*
X204255Y104349D01*
X204124Y104326D01*
X203993Y104306D01*
X203861Y104291D01*
X203729Y104279D01*
X203597Y104271D01*
X203464Y104267D01*
X203332Y104267D01*
X203199Y104271D01*
X203067Y104279D01*
X202935Y104291D01*
X202803Y104306D01*
X202672Y104326D01*
X202541Y104349D01*
X202412Y104376D01*
X202283Y104407D01*
X202155Y104442D01*
X202028Y104480D01*
X201902Y104522D01*
X201778Y104568D01*
X201655Y104617D01*
X201533Y104670D01*
X201413Y104727D01*
X201295Y104787D01*
X201178Y104850D01*
X201064Y104917D01*
X200951Y104987D01*
X200841Y105061D01*
X200733Y105137D01*
X200627Y105217D01*
X200523Y105300D01*
X200422Y105386D01*
X200324Y105475D01*
X200228Y105566D01*
X200135Y105661D01*
X200045Y105758D01*
X199958Y105858D01*
X199873Y105960D01*
X199792Y106065D01*
X199714Y106172D01*
X199638Y106281D01*
X199567Y106392D01*
X199498Y106506D01*
X199433Y106621D01*
X199371Y106739D01*
X199313Y106858D01*
X199258Y106979D01*
X199207Y107101D01*
X199159Y107225D01*
X199115Y107350D01*
X199075Y107476D01*
X199039Y107604D01*
X199006Y107732D01*
X198977Y107861D01*
X198952Y107992D01*
X198931Y108122D01*
X198913Y108254D01*
X198900Y108386D01*
X198890Y108518D01*
X198884Y108650D01*
X198882Y108783D01*
X199786Y116911D02*
X199788Y117030D01*
X199794Y117150D01*
X199804Y117269D01*
X199818Y117387D01*
X199835Y117506D01*
X199857Y117623D01*
X199882Y117740D01*
X199912Y117855D01*
X199945Y117970D01*
X199982Y118084D01*
X200022Y118196D01*
X200067Y118307D01*
X200115Y118416D01*
X200166Y118524D01*
X200221Y118630D01*
X200280Y118734D01*
X200342Y118836D01*
X200407Y118936D01*
X200476Y119034D01*
X200548Y119130D01*
X200623Y119223D01*
X200700Y119313D01*
X200781Y119401D01*
X200865Y119486D01*
X200952Y119568D01*
X201041Y119648D01*
X201133Y119724D01*
X201227Y119798D01*
X201324Y119868D01*
X201422Y119935D01*
X201523Y119999D01*
X201627Y120059D01*
X201732Y120116D01*
X201839Y120169D01*
X201947Y120219D01*
X202057Y120265D01*
X202169Y120307D01*
X202282Y120346D01*
X202396Y120381D01*
X202511Y120412D01*
X202628Y120440D01*
X202745Y120463D01*
X202862Y120483D01*
X202981Y120499D01*
X203100Y120511D01*
X203219Y120519D01*
X203338Y120523D01*
X203458Y120523D01*
X203577Y120519D01*
X203696Y120511D01*
X203815Y120499D01*
X203934Y120483D01*
X204051Y120463D01*
X204168Y120440D01*
X204285Y120412D01*
X204400Y120381D01*
X204514Y120346D01*
X204627Y120307D01*
X204739Y120265D01*
X204849Y120219D01*
X204957Y120169D01*
X205064Y120116D01*
X205169Y120059D01*
X205273Y119999D01*
X205374Y119935D01*
X205472Y119868D01*
X205569Y119798D01*
X205663Y119724D01*
X205755Y119648D01*
X205844Y119568D01*
X205931Y119486D01*
X206015Y119401D01*
X206096Y119313D01*
X206173Y119223D01*
X206248Y119130D01*
X206320Y119034D01*
X206389Y118936D01*
X206454Y118836D01*
X206516Y118734D01*
X206575Y118630D01*
X206630Y118524D01*
X206681Y118416D01*
X206729Y118307D01*
X206774Y118196D01*
X206814Y118084D01*
X206851Y117970D01*
X206884Y117855D01*
X206914Y117740D01*
X206939Y117623D01*
X206961Y117506D01*
X206978Y117387D01*
X206992Y117269D01*
X207002Y117150D01*
X207008Y117030D01*
X207010Y116911D01*
X207008Y116792D01*
X207002Y116672D01*
X206992Y116553D01*
X206978Y116435D01*
X206961Y116316D01*
X206939Y116199D01*
X206914Y116082D01*
X206884Y115967D01*
X206851Y115852D01*
X206814Y115738D01*
X206774Y115626D01*
X206729Y115515D01*
X206681Y115406D01*
X206630Y115298D01*
X206575Y115192D01*
X206516Y115088D01*
X206454Y114986D01*
X206389Y114886D01*
X206320Y114788D01*
X206248Y114692D01*
X206173Y114599D01*
X206096Y114509D01*
X206015Y114421D01*
X205931Y114336D01*
X205844Y114254D01*
X205755Y114174D01*
X205663Y114098D01*
X205569Y114024D01*
X205472Y113954D01*
X205374Y113887D01*
X205273Y113823D01*
X205169Y113763D01*
X205064Y113706D01*
X204957Y113653D01*
X204849Y113603D01*
X204739Y113557D01*
X204627Y113515D01*
X204514Y113476D01*
X204400Y113441D01*
X204285Y113410D01*
X204168Y113382D01*
X204051Y113359D01*
X203934Y113339D01*
X203815Y113323D01*
X203696Y113311D01*
X203577Y113303D01*
X203458Y113299D01*
X203338Y113299D01*
X203219Y113303D01*
X203100Y113311D01*
X202981Y113323D01*
X202862Y113339D01*
X202745Y113359D01*
X202628Y113382D01*
X202511Y113410D01*
X202396Y113441D01*
X202282Y113476D01*
X202169Y113515D01*
X202057Y113557D01*
X201947Y113603D01*
X201839Y113653D01*
X201732Y113706D01*
X201627Y113763D01*
X201523Y113823D01*
X201422Y113887D01*
X201324Y113954D01*
X201227Y114024D01*
X201133Y114098D01*
X201041Y114174D01*
X200952Y114254D01*
X200865Y114336D01*
X200781Y114421D01*
X200700Y114509D01*
X200623Y114599D01*
X200548Y114692D01*
X200476Y114788D01*
X200407Y114886D01*
X200342Y114986D01*
X200280Y115088D01*
X200221Y115192D01*
X200166Y115298D01*
X200115Y115406D01*
X200067Y115515D01*
X200022Y115626D01*
X199982Y115738D01*
X199945Y115852D01*
X199912Y115967D01*
X199882Y116082D01*
X199857Y116199D01*
X199835Y116316D01*
X199818Y116435D01*
X199804Y116553D01*
X199794Y116672D01*
X199788Y116792D01*
X199786Y116911D01*
X229164Y111492D02*
X234583Y111492D01*
X229164Y111492D02*
X229046Y111494D01*
X228928Y111500D01*
X228810Y111509D01*
X228693Y111523D01*
X228576Y111540D01*
X228459Y111561D01*
X228344Y111586D01*
X228229Y111615D01*
X228115Y111648D01*
X228003Y111684D01*
X227892Y111724D01*
X227782Y111767D01*
X227673Y111814D01*
X227566Y111864D01*
X227461Y111919D01*
X227358Y111976D01*
X227257Y112037D01*
X227157Y112101D01*
X227060Y112168D01*
X226965Y112238D01*
X226873Y112312D01*
X226782Y112388D01*
X226695Y112468D01*
X226610Y112550D01*
X226528Y112635D01*
X226448Y112722D01*
X226372Y112813D01*
X226298Y112905D01*
X226228Y113000D01*
X226161Y113097D01*
X226097Y113197D01*
X226036Y113298D01*
X225979Y113401D01*
X225924Y113506D01*
X225874Y113613D01*
X225827Y113722D01*
X225784Y113832D01*
X225744Y113943D01*
X225708Y114055D01*
X225675Y114169D01*
X225646Y114284D01*
X225621Y114399D01*
X225600Y114516D01*
X225583Y114633D01*
X225569Y114750D01*
X225560Y114868D01*
X225554Y114986D01*
X225552Y115104D01*
X225552Y116007D01*
X225554Y116140D01*
X225560Y116272D01*
X225570Y116404D01*
X225583Y116536D01*
X225601Y116668D01*
X225622Y116798D01*
X225647Y116929D01*
X225676Y117058D01*
X225709Y117186D01*
X225745Y117314D01*
X225785Y117440D01*
X225829Y117565D01*
X225877Y117689D01*
X225928Y117811D01*
X225983Y117932D01*
X226041Y118051D01*
X226103Y118169D01*
X226168Y118284D01*
X226237Y118398D01*
X226308Y118509D01*
X226384Y118618D01*
X226462Y118725D01*
X226543Y118830D01*
X226628Y118932D01*
X226715Y119032D01*
X226805Y119129D01*
X226898Y119224D01*
X226994Y119315D01*
X227092Y119404D01*
X227193Y119490D01*
X227297Y119573D01*
X227403Y119653D01*
X227511Y119729D01*
X227621Y119803D01*
X227734Y119873D01*
X227848Y119940D01*
X227965Y120003D01*
X228083Y120063D01*
X228203Y120120D01*
X228325Y120173D01*
X228448Y120222D01*
X228572Y120268D01*
X228698Y120310D01*
X228825Y120348D01*
X228953Y120383D01*
X229082Y120414D01*
X229211Y120441D01*
X229342Y120464D01*
X229473Y120484D01*
X229605Y120499D01*
X229737Y120511D01*
X229869Y120519D01*
X230002Y120523D01*
X230134Y120523D01*
X230267Y120519D01*
X230399Y120511D01*
X230531Y120499D01*
X230663Y120484D01*
X230794Y120464D01*
X230925Y120441D01*
X231054Y120414D01*
X231183Y120383D01*
X231311Y120348D01*
X231438Y120310D01*
X231564Y120268D01*
X231688Y120222D01*
X231811Y120173D01*
X231933Y120120D01*
X232053Y120063D01*
X232171Y120003D01*
X232288Y119940D01*
X232402Y119873D01*
X232515Y119803D01*
X232625Y119729D01*
X232733Y119653D01*
X232839Y119573D01*
X232943Y119490D01*
X233044Y119404D01*
X233142Y119315D01*
X233238Y119224D01*
X233331Y119129D01*
X233421Y119032D01*
X233508Y118932D01*
X233593Y118830D01*
X233674Y118725D01*
X233752Y118618D01*
X233828Y118509D01*
X233899Y118398D01*
X233968Y118284D01*
X234033Y118169D01*
X234095Y118051D01*
X234153Y117932D01*
X234208Y117811D01*
X234259Y117689D01*
X234307Y117565D01*
X234351Y117440D01*
X234391Y117314D01*
X234427Y117186D01*
X234460Y117058D01*
X234489Y116929D01*
X234514Y116798D01*
X234535Y116668D01*
X234553Y116536D01*
X234566Y116404D01*
X234576Y116272D01*
X234582Y116140D01*
X234584Y116007D01*
X234583Y116007D02*
X234583Y111492D01*
X234581Y111317D01*
X234575Y111143D01*
X234564Y110969D01*
X234549Y110795D01*
X234530Y110621D01*
X234507Y110448D01*
X234480Y110276D01*
X234448Y110104D01*
X234413Y109933D01*
X234373Y109763D01*
X234329Y109594D01*
X234281Y109426D01*
X234229Y109259D01*
X234173Y109094D01*
X234113Y108930D01*
X234050Y108767D01*
X233982Y108607D01*
X233910Y108447D01*
X233835Y108290D01*
X233755Y108134D01*
X233672Y107981D01*
X233586Y107829D01*
X233495Y107680D01*
X233401Y107533D01*
X233304Y107388D01*
X233203Y107245D01*
X233099Y107105D01*
X232991Y106968D01*
X232880Y106833D01*
X232766Y106701D01*
X232649Y106572D01*
X232528Y106445D01*
X232405Y106322D01*
X232278Y106201D01*
X232149Y106084D01*
X232017Y105970D01*
X231882Y105859D01*
X231745Y105751D01*
X231605Y105647D01*
X231462Y105546D01*
X231317Y105449D01*
X231170Y105355D01*
X231021Y105264D01*
X230869Y105178D01*
X230716Y105095D01*
X230560Y105015D01*
X230403Y104940D01*
X230243Y104868D01*
X230083Y104800D01*
X229920Y104737D01*
X229756Y104677D01*
X229591Y104621D01*
X229424Y104569D01*
X229256Y104521D01*
X229087Y104477D01*
X228917Y104437D01*
X228746Y104402D01*
X228574Y104370D01*
X228402Y104343D01*
X228229Y104320D01*
X228055Y104301D01*
X227881Y104286D01*
X227707Y104275D01*
X227533Y104269D01*
X227358Y104267D01*
D11*
X269748Y115641D02*
X272994Y118237D01*
X272994Y106553D01*
X276239Y106553D02*
X269748Y106553D01*
X281178Y115641D02*
X284424Y118237D01*
X284424Y106553D01*
X287669Y106553D02*
X281178Y106553D01*
X246324Y118237D02*
X243078Y115641D01*
X246324Y118237D02*
X246324Y106553D01*
X249569Y106553D02*
X243078Y106553D01*
X254508Y112395D02*
X254511Y112625D01*
X254519Y112855D01*
X254533Y113084D01*
X254552Y113313D01*
X254577Y113542D01*
X254607Y113769D01*
X254642Y113997D01*
X254683Y114223D01*
X254729Y114448D01*
X254781Y114672D01*
X254838Y114894D01*
X254900Y115116D01*
X254968Y115335D01*
X255041Y115553D01*
X255119Y115770D01*
X255202Y115984D01*
X255290Y116196D01*
X255383Y116406D01*
X255482Y116614D01*
X255515Y116704D01*
X255551Y116793D01*
X255591Y116881D01*
X255635Y116966D01*
X255682Y117050D01*
X255732Y117132D01*
X255786Y117212D01*
X255842Y117289D01*
X255902Y117365D01*
X255965Y117438D01*
X256030Y117508D01*
X256099Y117576D01*
X256170Y117640D01*
X256243Y117702D01*
X256319Y117761D01*
X256397Y117817D01*
X256478Y117870D01*
X256560Y117919D01*
X256644Y117965D01*
X256731Y118008D01*
X256818Y118047D01*
X256908Y118083D01*
X256998Y118115D01*
X257090Y118143D01*
X257183Y118168D01*
X257277Y118189D01*
X257371Y118206D01*
X257466Y118220D01*
X257562Y118229D01*
X257658Y118235D01*
X257754Y118237D01*
X257850Y118235D01*
X257946Y118229D01*
X258042Y118220D01*
X258137Y118206D01*
X258231Y118189D01*
X258325Y118168D01*
X258418Y118143D01*
X258510Y118115D01*
X258600Y118083D01*
X258690Y118047D01*
X258777Y118008D01*
X258864Y117965D01*
X258948Y117919D01*
X259030Y117870D01*
X259111Y117817D01*
X259189Y117761D01*
X259265Y117702D01*
X259338Y117640D01*
X259409Y117576D01*
X259478Y117508D01*
X259543Y117438D01*
X259606Y117365D01*
X259666Y117289D01*
X259722Y117212D01*
X259776Y117132D01*
X259826Y117050D01*
X259873Y116966D01*
X259917Y116881D01*
X259957Y116793D01*
X259993Y116704D01*
X260026Y116614D01*
X260125Y116407D01*
X260218Y116197D01*
X260306Y115984D01*
X260389Y115770D01*
X260467Y115554D01*
X260540Y115336D01*
X260608Y115116D01*
X260670Y114895D01*
X260727Y114672D01*
X260779Y114448D01*
X260825Y114223D01*
X260866Y113997D01*
X260901Y113770D01*
X260931Y113542D01*
X260956Y113313D01*
X260975Y113084D01*
X260989Y112855D01*
X260997Y112625D01*
X261000Y112395D01*
X254508Y112395D02*
X254511Y112165D01*
X254519Y111935D01*
X254533Y111706D01*
X254552Y111477D01*
X254577Y111248D01*
X254607Y111020D01*
X254642Y110793D01*
X254683Y110567D01*
X254729Y110342D01*
X254781Y110118D01*
X254838Y109895D01*
X254900Y109674D01*
X254968Y109454D01*
X255041Y109236D01*
X255119Y109020D01*
X255202Y108806D01*
X255290Y108594D01*
X255383Y108383D01*
X255482Y108176D01*
X255515Y108086D01*
X255551Y107997D01*
X255592Y107909D01*
X255635Y107824D01*
X255682Y107740D01*
X255732Y107658D01*
X255786Y107578D01*
X255842Y107501D01*
X255902Y107425D01*
X255965Y107352D01*
X256030Y107282D01*
X256099Y107214D01*
X256170Y107150D01*
X256243Y107088D01*
X256319Y107029D01*
X256397Y106973D01*
X256478Y106920D01*
X256560Y106871D01*
X256644Y106825D01*
X256731Y106782D01*
X256818Y106743D01*
X256908Y106707D01*
X256998Y106675D01*
X257090Y106647D01*
X257183Y106622D01*
X257277Y106601D01*
X257371Y106584D01*
X257466Y106570D01*
X257562Y106561D01*
X257658Y106555D01*
X257754Y106553D01*
X260025Y108176D02*
X260124Y108383D01*
X260217Y108594D01*
X260305Y108806D01*
X260388Y109020D01*
X260466Y109236D01*
X260539Y109454D01*
X260607Y109674D01*
X260669Y109895D01*
X260726Y110118D01*
X260778Y110342D01*
X260824Y110567D01*
X260865Y110793D01*
X260900Y111020D01*
X260930Y111248D01*
X260955Y111477D01*
X260974Y111706D01*
X260988Y111935D01*
X260996Y112165D01*
X260999Y112395D01*
X260026Y108176D02*
X259993Y108086D01*
X259957Y107997D01*
X259917Y107909D01*
X259873Y107824D01*
X259826Y107740D01*
X259776Y107658D01*
X259722Y107578D01*
X259666Y107501D01*
X259606Y107425D01*
X259543Y107352D01*
X259478Y107282D01*
X259409Y107214D01*
X259338Y107150D01*
X259265Y107088D01*
X259189Y107029D01*
X259111Y106973D01*
X259030Y106920D01*
X258948Y106871D01*
X258864Y106825D01*
X258777Y106782D01*
X258690Y106743D01*
X258600Y106707D01*
X258510Y106675D01*
X258418Y106647D01*
X258325Y106622D01*
X258231Y106601D01*
X258137Y106584D01*
X258042Y106570D01*
X257946Y106561D01*
X257850Y106555D01*
X257754Y106553D01*
X255157Y109149D02*
X260350Y115641D01*
X295148Y115641D02*
X298394Y118237D01*
X298394Y106553D01*
X301639Y106553D02*
X295148Y106553D01*
X310148Y118237D02*
X310255Y118235D01*
X310361Y118229D01*
X310467Y118219D01*
X310573Y118206D01*
X310679Y118188D01*
X310783Y118167D01*
X310887Y118142D01*
X310990Y118113D01*
X311091Y118081D01*
X311191Y118044D01*
X311290Y118004D01*
X311388Y117961D01*
X311484Y117914D01*
X311578Y117863D01*
X311670Y117809D01*
X311760Y117752D01*
X311848Y117692D01*
X311933Y117628D01*
X312016Y117561D01*
X312097Y117491D01*
X312175Y117419D01*
X312251Y117343D01*
X312323Y117265D01*
X312393Y117184D01*
X312460Y117101D01*
X312524Y117016D01*
X312584Y116928D01*
X312641Y116838D01*
X312695Y116746D01*
X312746Y116652D01*
X312793Y116556D01*
X312836Y116458D01*
X312876Y116359D01*
X312913Y116259D01*
X312945Y116158D01*
X312974Y116055D01*
X312999Y115951D01*
X313020Y115847D01*
X313038Y115741D01*
X313051Y115635D01*
X313061Y115529D01*
X313067Y115423D01*
X313069Y115316D01*
X310148Y118237D02*
X310027Y118235D01*
X309906Y118229D01*
X309786Y118219D01*
X309665Y118206D01*
X309546Y118188D01*
X309426Y118167D01*
X309308Y118142D01*
X309191Y118113D01*
X309074Y118080D01*
X308959Y118044D01*
X308845Y118003D01*
X308732Y117960D01*
X308620Y117912D01*
X308511Y117861D01*
X308403Y117806D01*
X308296Y117748D01*
X308192Y117687D01*
X308090Y117622D01*
X307990Y117554D01*
X307892Y117483D01*
X307796Y117409D01*
X307703Y117332D01*
X307613Y117251D01*
X307525Y117168D01*
X307440Y117082D01*
X307357Y116993D01*
X307278Y116902D01*
X307201Y116808D01*
X307128Y116712D01*
X307058Y116614D01*
X306991Y116513D01*
X306927Y116410D01*
X306867Y116305D01*
X306810Y116198D01*
X306756Y116090D01*
X306706Y115980D01*
X306660Y115868D01*
X306617Y115755D01*
X306578Y115640D01*
X312096Y113044D02*
X312175Y113121D01*
X312251Y113202D01*
X312324Y113285D01*
X312394Y113370D01*
X312461Y113458D01*
X312525Y113548D01*
X312585Y113640D01*
X312642Y113735D01*
X312696Y113831D01*
X312747Y113929D01*
X312794Y114029D01*
X312838Y114131D01*
X312878Y114234D01*
X312914Y114338D01*
X312946Y114444D01*
X312975Y114550D01*
X313000Y114658D01*
X313022Y114766D01*
X313039Y114876D01*
X313053Y114985D01*
X313062Y115095D01*
X313068Y115206D01*
X313070Y115316D01*
X312095Y113044D02*
X306578Y106553D01*
X313069Y106553D01*
X320548Y115641D02*
X323794Y118237D01*
X323794Y106553D01*
X327039Y106553D02*
X320548Y106553D01*
X331978Y106553D02*
X335224Y106553D01*
X335337Y106555D01*
X335450Y106561D01*
X335563Y106571D01*
X335676Y106585D01*
X335788Y106602D01*
X335899Y106624D01*
X336009Y106649D01*
X336119Y106679D01*
X336227Y106712D01*
X336334Y106749D01*
X336440Y106789D01*
X336544Y106834D01*
X336647Y106882D01*
X336748Y106933D01*
X336847Y106988D01*
X336944Y107046D01*
X337039Y107108D01*
X337132Y107173D01*
X337222Y107241D01*
X337310Y107312D01*
X337396Y107387D01*
X337479Y107464D01*
X337559Y107544D01*
X337636Y107627D01*
X337711Y107713D01*
X337782Y107801D01*
X337850Y107891D01*
X337915Y107984D01*
X337977Y108079D01*
X338035Y108176D01*
X338090Y108275D01*
X338141Y108376D01*
X338189Y108479D01*
X338234Y108583D01*
X338274Y108689D01*
X338311Y108796D01*
X338344Y108904D01*
X338374Y109014D01*
X338399Y109124D01*
X338421Y109235D01*
X338438Y109347D01*
X338452Y109460D01*
X338462Y109573D01*
X338468Y109686D01*
X338470Y109799D01*
X338468Y109912D01*
X338462Y110025D01*
X338452Y110138D01*
X338438Y110251D01*
X338421Y110363D01*
X338399Y110474D01*
X338374Y110584D01*
X338344Y110694D01*
X338311Y110802D01*
X338274Y110909D01*
X338234Y111015D01*
X338189Y111119D01*
X338141Y111222D01*
X338090Y111323D01*
X338035Y111422D01*
X337977Y111519D01*
X337915Y111614D01*
X337850Y111707D01*
X337782Y111797D01*
X337711Y111885D01*
X337636Y111971D01*
X337559Y112054D01*
X337479Y112134D01*
X337396Y112211D01*
X337310Y112286D01*
X337222Y112357D01*
X337132Y112425D01*
X337039Y112490D01*
X336944Y112552D01*
X336847Y112610D01*
X336748Y112665D01*
X336647Y112716D01*
X336544Y112764D01*
X336440Y112809D01*
X336334Y112849D01*
X336227Y112886D01*
X336119Y112919D01*
X336009Y112949D01*
X335899Y112974D01*
X335788Y112996D01*
X335676Y113013D01*
X335563Y113027D01*
X335450Y113037D01*
X335337Y113043D01*
X335224Y113045D01*
X335873Y118237D02*
X331978Y118237D01*
X335873Y118237D02*
X335974Y118235D01*
X336074Y118229D01*
X336174Y118219D01*
X336274Y118206D01*
X336373Y118188D01*
X336472Y118167D01*
X336569Y118142D01*
X336666Y118113D01*
X336761Y118080D01*
X336855Y118044D01*
X336947Y118004D01*
X337038Y117961D01*
X337127Y117914D01*
X337214Y117864D01*
X337300Y117810D01*
X337383Y117753D01*
X337463Y117693D01*
X337542Y117630D01*
X337618Y117563D01*
X337691Y117494D01*
X337761Y117422D01*
X337829Y117348D01*
X337894Y117271D01*
X337955Y117191D01*
X338014Y117109D01*
X338069Y117025D01*
X338121Y116939D01*
X338170Y116851D01*
X338215Y116761D01*
X338257Y116669D01*
X338295Y116576D01*
X338329Y116481D01*
X338360Y116386D01*
X338387Y116289D01*
X338410Y116191D01*
X338430Y116092D01*
X338445Y115992D01*
X338457Y115892D01*
X338465Y115792D01*
X338469Y115691D01*
X338469Y115591D01*
X338465Y115490D01*
X338457Y115390D01*
X338445Y115290D01*
X338430Y115190D01*
X338410Y115091D01*
X338387Y114993D01*
X338360Y114896D01*
X338329Y114801D01*
X338295Y114706D01*
X338257Y114613D01*
X338215Y114521D01*
X338170Y114431D01*
X338121Y114343D01*
X338069Y114257D01*
X338014Y114173D01*
X337955Y114091D01*
X337894Y114011D01*
X337829Y113934D01*
X337761Y113860D01*
X337691Y113788D01*
X337618Y113719D01*
X337542Y113652D01*
X337463Y113589D01*
X337383Y113529D01*
X337300Y113472D01*
X337214Y113418D01*
X337127Y113368D01*
X337038Y113321D01*
X336947Y113278D01*
X336855Y113238D01*
X336761Y113202D01*
X336666Y113169D01*
X336569Y113140D01*
X336472Y113115D01*
X336373Y113094D01*
X336274Y113076D01*
X336174Y113063D01*
X336074Y113053D01*
X335974Y113047D01*
X335873Y113045D01*
X335873Y113044D02*
X333276Y113044D01*
X345948Y115641D02*
X349194Y118237D01*
X349194Y106553D01*
X352439Y106553D02*
X345948Y106553D01*
X357378Y109149D02*
X359974Y118237D01*
X357378Y109149D02*
X363869Y109149D01*
X361922Y111746D02*
X361922Y106553D01*
X371348Y115641D02*
X374594Y118237D01*
X374594Y106553D01*
X377839Y106553D02*
X371348Y106553D01*
X382778Y106553D02*
X386673Y106553D01*
X386772Y106555D01*
X386872Y106561D01*
X386971Y106570D01*
X387069Y106583D01*
X387167Y106600D01*
X387265Y106621D01*
X387361Y106646D01*
X387456Y106674D01*
X387550Y106706D01*
X387643Y106741D01*
X387735Y106780D01*
X387825Y106823D01*
X387913Y106868D01*
X388000Y106918D01*
X388084Y106970D01*
X388167Y107026D01*
X388247Y107084D01*
X388325Y107146D01*
X388400Y107211D01*
X388473Y107279D01*
X388543Y107349D01*
X388611Y107422D01*
X388676Y107497D01*
X388738Y107575D01*
X388796Y107655D01*
X388852Y107738D01*
X388904Y107822D01*
X388954Y107909D01*
X388999Y107997D01*
X389042Y108087D01*
X389081Y108179D01*
X389116Y108272D01*
X389148Y108366D01*
X389176Y108461D01*
X389201Y108557D01*
X389222Y108655D01*
X389239Y108753D01*
X389252Y108851D01*
X389261Y108950D01*
X389267Y109050D01*
X389269Y109149D01*
X389269Y110448D01*
X389267Y110547D01*
X389261Y110647D01*
X389252Y110746D01*
X389239Y110844D01*
X389222Y110942D01*
X389201Y111040D01*
X389176Y111136D01*
X389148Y111231D01*
X389116Y111325D01*
X389081Y111418D01*
X389042Y111510D01*
X388999Y111600D01*
X388954Y111688D01*
X388904Y111775D01*
X388852Y111859D01*
X388796Y111942D01*
X388738Y112022D01*
X388676Y112100D01*
X388611Y112175D01*
X388543Y112248D01*
X388473Y112318D01*
X388400Y112386D01*
X388325Y112451D01*
X388247Y112513D01*
X388167Y112571D01*
X388084Y112627D01*
X388000Y112679D01*
X387913Y112729D01*
X387825Y112774D01*
X387735Y112817D01*
X387643Y112856D01*
X387550Y112891D01*
X387456Y112923D01*
X387361Y112951D01*
X387265Y112976D01*
X387167Y112997D01*
X387069Y113014D01*
X386971Y113027D01*
X386872Y113036D01*
X386772Y113042D01*
X386673Y113044D01*
X382778Y113044D01*
X382778Y118237D01*
X389269Y118237D01*
X396748Y115641D02*
X399994Y118237D01*
X399994Y106553D01*
X403239Y106553D02*
X396748Y106553D01*
X408178Y113044D02*
X412073Y113044D01*
X412172Y113042D01*
X412272Y113036D01*
X412371Y113027D01*
X412469Y113014D01*
X412567Y112997D01*
X412665Y112976D01*
X412761Y112951D01*
X412856Y112923D01*
X412950Y112891D01*
X413043Y112856D01*
X413135Y112817D01*
X413225Y112774D01*
X413313Y112729D01*
X413400Y112679D01*
X413484Y112627D01*
X413567Y112571D01*
X413647Y112513D01*
X413725Y112451D01*
X413800Y112386D01*
X413873Y112318D01*
X413943Y112248D01*
X414011Y112175D01*
X414076Y112100D01*
X414138Y112022D01*
X414196Y111942D01*
X414252Y111859D01*
X414304Y111775D01*
X414354Y111688D01*
X414399Y111600D01*
X414442Y111510D01*
X414481Y111418D01*
X414516Y111325D01*
X414548Y111231D01*
X414576Y111136D01*
X414601Y111040D01*
X414622Y110942D01*
X414639Y110844D01*
X414652Y110746D01*
X414661Y110647D01*
X414667Y110547D01*
X414669Y110448D01*
X414669Y109799D01*
X414670Y109799D02*
X414668Y109686D01*
X414662Y109573D01*
X414652Y109460D01*
X414638Y109347D01*
X414621Y109235D01*
X414599Y109124D01*
X414574Y109014D01*
X414544Y108904D01*
X414511Y108796D01*
X414474Y108689D01*
X414434Y108583D01*
X414389Y108479D01*
X414341Y108376D01*
X414290Y108275D01*
X414235Y108176D01*
X414177Y108079D01*
X414115Y107984D01*
X414050Y107891D01*
X413982Y107801D01*
X413911Y107713D01*
X413836Y107627D01*
X413759Y107544D01*
X413679Y107464D01*
X413596Y107387D01*
X413510Y107312D01*
X413422Y107241D01*
X413332Y107173D01*
X413239Y107108D01*
X413144Y107046D01*
X413047Y106988D01*
X412948Y106933D01*
X412847Y106882D01*
X412744Y106834D01*
X412640Y106789D01*
X412534Y106749D01*
X412427Y106712D01*
X412319Y106679D01*
X412209Y106649D01*
X412099Y106624D01*
X411988Y106602D01*
X411876Y106585D01*
X411763Y106571D01*
X411650Y106561D01*
X411537Y106555D01*
X411424Y106553D01*
X411311Y106555D01*
X411198Y106561D01*
X411085Y106571D01*
X410972Y106585D01*
X410860Y106602D01*
X410749Y106624D01*
X410639Y106649D01*
X410529Y106679D01*
X410421Y106712D01*
X410314Y106749D01*
X410208Y106789D01*
X410104Y106834D01*
X410001Y106882D01*
X409900Y106933D01*
X409801Y106988D01*
X409704Y107046D01*
X409609Y107108D01*
X409516Y107173D01*
X409426Y107241D01*
X409338Y107312D01*
X409252Y107387D01*
X409169Y107464D01*
X409089Y107544D01*
X409012Y107627D01*
X408937Y107713D01*
X408866Y107801D01*
X408798Y107891D01*
X408733Y107984D01*
X408671Y108079D01*
X408613Y108176D01*
X408558Y108275D01*
X408507Y108376D01*
X408459Y108479D01*
X408414Y108583D01*
X408374Y108689D01*
X408337Y108796D01*
X408304Y108904D01*
X408274Y109014D01*
X408249Y109124D01*
X408227Y109235D01*
X408210Y109347D01*
X408196Y109460D01*
X408186Y109573D01*
X408180Y109686D01*
X408178Y109799D01*
X408178Y113044D01*
X408180Y113187D01*
X408186Y113330D01*
X408196Y113473D01*
X408210Y113615D01*
X408227Y113757D01*
X408249Y113899D01*
X408274Y114040D01*
X408304Y114180D01*
X408337Y114319D01*
X408374Y114457D01*
X408415Y114594D01*
X408459Y114730D01*
X408508Y114865D01*
X408560Y114998D01*
X408615Y115130D01*
X408675Y115260D01*
X408738Y115389D01*
X408804Y115516D01*
X408874Y115640D01*
X408947Y115763D01*
X409024Y115884D01*
X409104Y116003D01*
X409187Y116119D01*
X409273Y116234D01*
X409362Y116345D01*
X409455Y116455D01*
X409550Y116561D01*
X409649Y116665D01*
X409750Y116766D01*
X409854Y116865D01*
X409960Y116960D01*
X410070Y117053D01*
X410181Y117142D01*
X410296Y117228D01*
X410412Y117311D01*
X410531Y117391D01*
X410652Y117468D01*
X410774Y117541D01*
X410899Y117611D01*
X411026Y117677D01*
X411155Y117740D01*
X411285Y117800D01*
X411417Y117855D01*
X411550Y117907D01*
X411685Y117956D01*
X411821Y118000D01*
X411958Y118041D01*
X412096Y118078D01*
X412235Y118111D01*
X412375Y118141D01*
X412516Y118166D01*
X412658Y118188D01*
X412800Y118205D01*
X412942Y118219D01*
X413085Y118229D01*
X413228Y118235D01*
X413371Y118237D01*
M02*
