  0
SECTION
  2
HEADER
  9
$ACADVER
  1
AC1009
  9
$FILLMODE
 70
0
  9
$EXTMIN
 10
-0.408094
 20
-0.200000
 30
0.000000
  9
$EXTMAX
 10
3.160000
 20
4.601850
 30
0.000000
  0
ENDSEC
  0
SECTION
  2
TABLES
  0
TABLE
  2
LTYPE
 70
1
  0
LTYPE
  2
CONTINUOUS
 70
64
  3
Solid line
 72
65
 73
0
 40
0
  0
ENDTAB
  0
TABLE
  2
LAYER
 70
255
  0
LAYER
  2
20
 70
64
 62
30
  6
CONTINUOUS
  0
LAYER
  2
21
 70
64
 62
253
  6
CONTINUOUS
  0
ENDTAB
  0
ENDSEC
  0
SECTION
  2
BLOCKS
  0
BLOCK
  8
0
  2
RECT
 70
64
 10
0.000000
 20
0.000000
 30
0.000000
  3
RECT
  0
SOLID
  8
0
 10
-0.500000
 20
-0.500000
 30
0.000000
 11
0.500000
 21
-0.500000
 31
0.000000
 12
-0.500000
 22
0.500000
 32
0.000000
 13
0.500000
 23
0.500000
 33
0.000000
  0
ENDBLK
  8
0
  0
BLOCK
  8
0
  2
PIE
 70
64
 10
0.000000
 20
0.000000
 30
0.000000
  3
PIE
  0
CIRCLE
  8
0
 10
0.000000
 20
0.000000
 30
0.000000
 40
0.500000
  0
ENDBLK
  8
0
  0
BLOCK
  8
0
  2
OCTAGONP
 70
64
 10
0.000000
 20
0.000000
 30
0.000000
  3
OCTAGONP
  0
POLYLINE
  8
0
 66
1
 10
0.000000
 20
0.000000
 30
0.000000
 40
0.000000
 41
0.000000
 70
1
  0
VERTEX
  8
0
 10
-0.500000
 20
-0.207107
 30
0.000000
  0
VERTEX
  8
0
 10
-0.500000
 20
0.207107
 30
0.000000
  0
VERTEX
  8
0
 10
-0.207107
 20
0.500000
 30
0.000000
  0
VERTEX
  8
0
 10
0.207107
 20
0.500000
 30
0.000000
  0
VERTEX
  8
0
 10
0.500000
 20
0.207107
 30
0.000000
  0
VERTEX
  8
0
 10
0.500000
 20
-0.207107
 30
0.000000
  0
VERTEX
  8
0
 10
0.207107
 20
-0.500000
 30
0.000000
  0
VERTEX
  8
0
 10
-0.207107
 20
-0.500000
 30
0.000000
  0
SEQEND
  8
0
  0
ENDBLK
  8
0
  0
BLOCK
  8
0
  2
SQUAREP
 70
64
 10
0.000000
 20
0.000000
 30
0.000000
  3
SQUAREP
  0
SOLID
  8
0
 10
-0.500000
 20
-0.500000
 30
0.000000
 11
0.500000
 21
-0.500000
 31
0.000000
 12
-0.500000
 22
0.500000
 32
0.000000
 13
0.500000
 23
0.500000
 33
0.000000
  0
ENDBLK
  8
0
  0
BLOCK
  8
0
  2
ROUNDP
 70
64
 10
0.000000
 20
0.000000
 30
0.000000
  3
ROUNDP
  0
CIRCLE
  8
0
 10
0.000000
 20
0.000000
 30
0.000000
 40
0.500000
  0
ENDBLK
  8
0
  0
BLOCK
  8
0
  2
ANNULUSP
 70
64
 10
0.000000
 20
0.000000
 30
0.000000
  3
ANNULUSP
  0
CIRCLE
  8
0
 10
0.000000
 20
0.000000
 30
0.000000
 40
0.500000
  0
ENDBLK
  8
0
  0
BLOCK
  8
0
  2
THERMALP
 70
64
 10
0.000000
 20
0.000000
 30
0.000000
  3
THERMALP
  0
POLYLINE
  8
0
 66
1
 10
0.000000
 20
0.000000
 30
0.000000
 40
0.000000
 41
0.000000
 70
1
  0
VERTEX
  8
0
 10
-0.237868
 20
0.400000
 30
0.000000
  0
VERTEX
  8
0
 10
0.237868
 20
0.400000
 30
0.000000
 42
1.000000
  0
VERTEX
  8
0
 10
0.237868
 20
0.500000
 30
0.000000
  0
VERTEX
  8
0
 10
-0.237868
 20
0.500000
 30
0.000000
 42
1.000000
  0
SEQEND
  8
0
  0
POLYLINE
  8
0
 66
1
 10
0.000000
 20
0.000000
 30
0.000000
 40
0.000000
 41
0.000000
 70
1
  0
VERTEX
  8
0
 10
0.400000
 20
0.237868
 30
0.000000
  0
VERTEX
  8
0
 10
0.400000
 20
-0.237868
 30
0.000000
 42
1.000000
  0
VERTEX
  8
0
 10
0.500000
 20
-0.237868
 30
0.000000
  0
VERTEX
  8
0
 10
0.500000
 20
0.237868
 30
0.000000
 42
1.000000
  0
SEQEND
  8
0
  0
POLYLINE
  8
0
 66
1
 10
0.000000
 20
0.000000
 30
0.000000
 40
0.000000
 41
0.000000
 70
1
  0
VERTEX
  8
0
 10
0.237868
 20
-0.400000
 30
0.000000
  0
VERTEX
  8
0
 10
-0.237868
 20
-0.400000
 30
0.000000
 42
1.000000
  0
VERTEX
  8
0
 10
-0.237868
 20
-0.500000
 30
0.000000
  0
VERTEX
  8
0
 10
0.237868
 20
-0.500000
 30
0.000000
 42
1.000000
  0
SEQEND
  8
0
  0
POLYLINE
  8
0
 66
1
 10
0.000000
 20
0.000000
 30
0.000000
 40
0.000000
 41
0.000000
 70
1
  0
VERTEX
  8
0
 10
-0.400000
 20
-0.237868
 30
0.000000
  0
VERTEX
  8
0
 10
-0.400000
 20
0.237868
 30
0.000000
 42
1.000000
  0
VERTEX
  8
0
 10
-0.500000
 20
0.237868
 30
0.000000
  0
VERTEX
  8
0
 10
-0.500000
 20
-0.237868
 30
0.000000
 42
1.000000
  0
SEQEND
  8
0
  0
ENDBLK
  8
0
  0
BLOCK
  8
0
  2
OCTAGONV
 70
64
 10
0.000000
 20
0.000000
 30
0.000000
  3
OCTAGONV
  0
POLYLINE
  8
0
 66
1
 10
0.000000
 20
0.000000
 30
0.000000
 40
0.000000
 41
0.000000
 70
1
  0
VERTEX
  8
0
 10
-0.500000
 20
-0.207107
 30
0.000000
  0
VERTEX
  8
0
 10
-0.500000
 20
0.207107
 30
0.000000
  0
VERTEX
  8
0
 10
-0.207107
 20
0.500000
 30
0.000000
  0
VERTEX
  8
0
 10
0.207107
 20
0.500000
 30
0.000000
  0
VERTEX
  8
0
 10
0.500000
 20
0.207107
 30
0.000000
  0
VERTEX
  8
0
 10
0.500000
 20
-0.207107
 30
0.000000
  0
VERTEX
  8
0
 10
0.207107
 20
-0.500000
 30
0.000000
  0
VERTEX
  8
0
 10
-0.207107
 20
-0.500000
 30
0.000000
  0
SEQEND
  8
0
  0
ENDBLK
  8
0
  0
BLOCK
  8
0
  2
SQUAREV
 70
64
 10
0.000000
 20
0.000000
 30
0.000000
  3
SQUAREV
  0
SOLID
  8
0
 10
-0.500000
 20
-0.500000
 30
0.000000
 11
0.500000
 21
-0.500000
 31
0.000000
 12
-0.500000
 22
0.500000
 32
0.000000
 13
0.500000
 23
0.500000
 33
0.000000
  0
ENDBLK
  8
0
  0
BLOCK
  8
0
  2
ROUNDV
 70
64
 10
0.000000
 20
0.000000
 30
0.000000
  3
ROUNDV
  0
CIRCLE
  8
0
 10
0.000000
 20
0.000000
 30
0.000000
 40
0.500000
  0
ENDBLK
  8
0
  0
BLOCK
  8
0
  2
ANNULUSV
 70
64
 10
0.000000
 20
0.000000
 30
0.000000
  3
ANNULUSV
  0
CIRCLE
  8
0
 10
0.000000
 20
0.000000
 30
0.000000
 40
0.500000
  0
ENDBLK
  8
0
  0
BLOCK
  8
0
  2
THERMALV
 70
64
 10
0.000000
 20
0.000000
 30
0.000000
  3
THERMALV
  0
POLYLINE
  8
0
 66
1
 10
0.000000
 20
0.000000
 30
0.000000
 40
0.000000
 41
0.000000
 70
1
  0
VERTEX
  8
0
 10
-0.237868
 20
0.400000
 30
0.000000
  0
VERTEX
  8
0
 10
0.237868
 20
0.400000
 30
0.000000
 42
1.000000
  0
VERTEX
  8
0
 10
0.237868
 20
0.500000
 30
0.000000
  0
VERTEX
  8
0
 10
-0.237868
 20
0.500000
 30
0.000000
 42
1.000000
  0
SEQEND
  8
0
  0
POLYLINE
  8
0
 66
1
 10
0.000000
 20
0.000000
 30
0.000000
 40
0.000000
 41
0.000000
 70
1
  0
VERTEX
  8
0
 10
0.400000
 20
0.237868
 30
0.000000
  0
VERTEX
  8
0
 10
0.400000
 20
-0.237868
 30
0.000000
 42
1.000000
  0
VERTEX
  8
0
 10
0.500000
 20
-0.237868
 30
0.000000
  0
VERTEX
  8
0
 10
0.500000
 20
0.237868
 30
0.000000
 42
1.000000
  0
SEQEND
  8
0
  0
POLYLINE
  8
0
 66
1
 10
0.000000
 20
0.000000
 30
0.000000
 40
0.000000
 41
0.000000
 70
1
  0
VERTEX
  8
0
 10
0.237868
 20
-0.400000
 30
0.000000
  0
VERTEX
  8
0
 10
-0.237868
 20
-0.400000
 30
0.000000
 42
1.000000
  0
VERTEX
  8
0
 10
-0.237868
 20
-0.500000
 30
0.000000
  0
VERTEX
  8
0
 10
0.237868
 20
-0.500000
 30
0.000000
 42
1.000000
  0
SEQEND
  8
0
  0
POLYLINE
  8
0
 66
1
 10
0.000000
 20
0.000000
 30
0.000000
 40
0.000000
 41
0.000000
 70
1
  0
VERTEX
  8
0
 10
-0.400000
 20
-0.237868
 30
0.000000
  0
VERTEX
  8
0
 10
-0.400000
 20
0.237868
 30
0.000000
 42
1.000000
  0
VERTEX
  8
0
 10
-0.500000
 20
0.237868
 30
0.000000
  0
VERTEX
  8
0
 10
-0.500000
 20
-0.237868
 30
0.000000
 42
1.000000
  0
SEQEND
  8
0
  0
ENDBLK
  8
0
  0
BLOCK
  8
0
  2
LONGP100
 70
64
 10
0.000000
 20
0.000000
 30
0.000000
  3
LONGP100
  0
POLYLINE
  8
0
 66
1
 10
0.000000
 20
0.000000
 30
0.000000
 40
0.000000
 41
0.000000
 70
1
  0
VERTEX
  8
0
 10
-0.500000
 20
-0.500000
 30
0.000000
  0
VERTEX
  8
0
 10
0.500000
 20
-0.500000
 30
0.000000
 42
1.000000
  0
VERTEX
  8
0
 10
0.500000
 20
0.500000
 30
0.000000
  0
VERTEX
  8
0
 10
-0.500000
 20
0.500000
 30
0.000000
 42
1.000000
  0
SEQEND
  8
0
  0
ENDBLK
  8
0
  0
BLOCK
  8
0
  2
OFFSETP100
 70
64
 10
0.000000
 20
0.000000
 30
0.000000
  3
OFFSETP100
  0
POLYLINE
  8
0
 66
1
 10
0.000000
 20
0.000000
 30
0.000000
 40
0.000000
 41
0.000000
 70
1
  0
VERTEX
  8
0
 10
0.000000
 20
-0.500000
 30
0.000000
  0
VERTEX
  8
0
 10
1.000000
 20
-0.500000
 30
0.000000
 42
1.000000
  0
VERTEX
  8
0
 10
1.000000
 20
0.500000
 30
0.000000
  0
VERTEX
  8
0
 10
0.000000
 20
0.500000
 30
0.000000
 42
1.000000
  0
SEQEND
  8
0
  0
ENDBLK
  8
0
  0
ENDSEC
  0
SECTION
  2
ENTITIES
  0
LINE
  8
20
 10
0.000000
 20
0.000000
 30
0.000000
 11
3.049213
 21
0.000000
 31
0.000000
  0
LINE
  8
20
 10
3.049213
 20
0.000000
 30
0.000000
 11
3.049213
 21
3.937008
 31
0.000000
  0
LINE
  8
20
 10
3.049213
 20
3.937008
 30
0.000000
 11
0.000000
 21
3.937008
 31
0.000000
  0
LINE
  8
20
 10
0.000000
 20
3.937008
 30
0.000000
 11
0.000000
 21
0.000000
 31
0.000000
  0
CIRCLE
  8
20
 10
0.200000
 20
3.750000
 30
0.000000
 40
0.062500
  0
CIRCLE
  8
20
 10
0.200000
 20
0.200000
 30
0.000000
 40
0.062500
  0
CIRCLE
  8
20
 10
2.850000
 20
0.200000
 30
0.000000
 40
0.062500
  0
CIRCLE
  8
20
 10
2.850000
 20
3.750000
 30
0.000000
 40
0.062500
  0
POLYLINE
  8
21
 66
1
 10
0.000000
 20
0.000000
 30
0.000000
 40
0.000000
 41
0.000000
 70
1
  0
VERTEX
  8
21
 10
0.415000
 20
2.992000
 30
0.000000
  0
VERTEX
  8
21
 10
0.445000
 20
2.992000
 30
0.000000
 42
1.000000
  0
VERTEX
  8
21
 10
0.445000
 20
2.998000
 30
0.000000
  0
VERTEX
  8
21
 10
0.415000
 20
2.998000
 30
0.000000
 42
1.000000
  0
SEQEND
  8
0
  0
POLYLINE
  8
21
 66
1
 10
0.000000
 20
0.000000
 30
0.000000
 40
0.000000
 41
0.000000
 70
1
  0
VERTEX
  8
21
 10
0.433000
 20
2.980000
 30
0.000000
  0
VERTEX
  8
21
 10
0.433000
 20
3.010000
 30
0.000000
 42
1.000000
  0
VERTEX
  8
21
 10
0.427000
 20
3.010000
 30
0.000000
  0
VERTEX
  8
21
 10
0.427000
 20
2.980000
 30
0.000000
 42
1.000000
  0
SEQEND
  8
0
  0
CIRCLE
  8
21
 10
0.550000
 20
2.950000
 30
0.000000
 40
0.157000
  0
CIRCLE
  8
21
 10
0.550000
 20
2.950000
 30
0.000000
 40
0.163000
  0
POLYLINE
  8
21
 66
1
 10
0.000000
 20
0.000000
 30
0.000000
 40
0.000000
 41
0.000000
 70
1
  0
VERTEX
  8
21
 10
0.532000
 20
3.275000
 30
0.000000
  0
VERTEX
  8
21
 10
0.532000
 20
3.250000
 30
0.000000
 42
1.000000
  0
VERTEX
  8
21
 10
0.544000
 20
3.250000
 30
0.000000
  0
VERTEX
  8
21
 10
0.544000
 20
3.275000
 30
0.000000
 42
1.000000
  0
SEQEND
  8
0
  0
POLYLINE
  8
21
 66
1
 10
0.000000
 20
0.000000
 30
0.000000
 40
0.000000
 41
0.000000
 70
1
  0
VERTEX
  8
21
 10
0.532000
 20
3.250000
 30
0.000000
  0
VERTEX
  8
21
 10
0.532000
 20
3.225000
 30
0.000000
 42
1.000000
  0
VERTEX
  8
21
 10
0.544000
 20
3.225000
 30
0.000000
  0
VERTEX
  8
21
 10
0.544000
 20
3.250000
 30
0.000000
 42
1.000000
  0
SEQEND
  8
0
  0
POLYLINE
  8
21
 66
1
 10
0.000000
 20
0.000000
 30
0.000000
 40
0.000000
 41
0.000000
 70
1
  0
VERTEX
  8
21
 10
0.538000
 20
3.253000
 30
0.000000
  0
VERTEX
  8
21
 10
0.490000
 20
3.253000
 30
0.000000
 42
1.000000
  0
VERTEX
  8
21
 10
0.490000
 20
3.247000
 30
0.000000
  0
VERTEX
  8
21
 10
0.538000
 20
3.247000
 30
0.000000
 42
1.000000
  0
SEQEND
  8
0
  0
POLYLINE
  8
21
 66
1
 10
0.000000
 20
0.000000
 30
0.000000
 40
0.000000
 41
0.000000
 70
1
  0
VERTEX
  8
21
 10
0.557000
 20
3.275000
 30
0.000000
  0
VERTEX
  8
21
 10
0.557000
 20
3.250000
 30
0.000000
 42
1.000000
  0
VERTEX
  8
21
 10
0.569000
 20
3.250000
 30
0.000000
  0
VERTEX
  8
21
 10
0.569000
 20
3.275000
 30
0.000000
 42
1.000000
  0
SEQEND
  8
0
  0
POLYLINE
  8
21
 66
1
 10
0.000000
 20
0.000000
 30
0.000000
 40
0.000000
 41
0.000000
 70
1
  0
VERTEX
  8
21
 10
0.557000
 20
3.250000
 30
0.000000
  0
VERTEX
  8
21
 10
0.557000
 20
3.225000
 30
0.000000
 42
1.000000
  0
VERTEX
  8
21
 10
0.569000
 20
3.225000
 30
0.000000
  0
VERTEX
  8
21
 10
0.569000
 20
3.250000
 30
0.000000
 42
1.000000
  0
SEQEND
  8
0
  0
POLYLINE
  8
21
 66
1
 10
0.000000
 20
0.000000
 30
0.000000
 40
0.000000
 41
0.000000
 70
1
  0
VERTEX
  8
21
 10
0.563000
 20
3.247000
 30
0.000000
  0
VERTEX
  8
21
 10
0.610000
 20
3.247000
 30
0.000000
 42
1.000000
  0
VERTEX
  8
21
 10
0.610000
 20
3.253000
 30
0.000000
  0
VERTEX
  8
21
 10
0.563000
 20
3.253000
 30
0.000000
 42
1.000000
  0
SEQEND
  8
0
  0
POLYLINE
  8
21
 66
1
 10
0.000000
 20
0.000000
 30
0.000000
 40
0.000000
 41
0.000000
 70
1
  0
VERTEX
  8
21
 10
0.402000
 20
3.290000
 30
0.000000
  0
VERTEX
  8
21
 10
0.402000
 20
3.210000
 30
0.000000
 42
1.000000
  0
VERTEX
  8
21
 10
0.408000
 20
3.210000
 30
0.000000
  0
VERTEX
  8
21
 10
0.408000
 20
3.290000
 30
0.000000
 42
1.000000
  0
SEQEND
  8
0
  0
POLYLINE
  8
21
 66
1
 10
0.000000
 20
0.000000
 30
0.000000
 40
0.000000
 41
0.000000
 70
1
  0
VERTEX
  8
21
 10
0.415000
 20
3.197000
 30
0.000000
  0
VERTEX
  8
21
 10
0.685000
 20
3.197000
 30
0.000000
 42
1.000000
  0
VERTEX
  8
21
 10
0.685000
 20
3.203000
 30
0.000000
  0
VERTEX
  8
21
 10
0.415000
 20
3.203000
 30
0.000000
 42
1.000000
  0
SEQEND
  8
0
  0
POLYLINE
  8
21
 66
1
 10
0.000000
 20
0.000000
 30
0.000000
 40
0.000000
 41
0.000000
 70
1
  0
VERTEX
  8
21
 10
0.698000
 20
3.210000
 30
0.000000
  0
VERTEX
  8
21
 10
0.698000
 20
3.290000
 30
0.000000
 42
1.000000
  0
VERTEX
  8
21
 10
0.692000
 20
3.290000
 30
0.000000
  0
VERTEX
  8
21
 10
0.692000
 20
3.210000
 30
0.000000
 42
1.000000
  0
SEQEND
  8
0
  0
POLYLINE
  8
21
 66
1
 10
0.000000
 20
0.000000
 30
0.000000
 40
0.000000
 41
0.000000
 70
1
  0
VERTEX
  8
21
 10
0.685000
 20
3.303000
 30
0.000000
  0
VERTEX
  8
21
 10
0.415000
 20
3.303000
 30
0.000000
 42
1.000000
  0
VERTEX
  8
21
 10
0.415000
 20
3.297000
 30
0.000000
  0
VERTEX
  8
21
 10
0.685000
 20
3.297000
 30
0.000000
 42
1.000000
  0
SEQEND
  8
0
  0
POLYLINE
  8
21
 66
1
 10
0.000000
 20
0.000000
 30
0.000000
 40
0.000000
 41
0.000000
 70
1
  0
VERTEX
  8
21
 10
0.692000
 20
3.290000
 30
0.000000
 42
1.000000
  0
VERTEX
  8
21
 10
0.698000
 20
3.290000
 30
0.000000
 42
0.414214
  0
VERTEX
  8
21
 10
0.685000
 20
3.303000
 30
0.000000
 42
1.000000
  0
VERTEX
  8
21
 10
0.685000
 20
3.297000
 30
0.000000
 42
-0.414214
  0
SEQEND
  8
0
  0
POLYLINE
  8
21
 66
1
 10
0.000000
 20
0.000000
 30
0.000000
 40
0.000000
 41
0.000000
 70
1
  0
VERTEX
  8
21
 10
0.685000
 20
3.203000
 30
0.000000
 42
1.000000
  0
VERTEX
  8
21
 10
0.685000
 20
3.197000
 30
0.000000
 42
0.414214
  0
VERTEX
  8
21
 10
0.698000
 20
3.210000
 30
0.000000
 42
1.000000
  0
VERTEX
  8
21
 10
0.692000
 20
3.210000
 30
0.000000
 42
-0.414214
  0
SEQEND
  8
0
  0
POLYLINE
  8
21
 66
1
 10
0.000000
 20
0.000000
 30
0.000000
 40
0.000000
 41
0.000000
 70
1
  0
VERTEX
  8
21
 10
0.408000
 20
3.210000
 30
0.000000
 42
1.000000
  0
VERTEX
  8
21
 10
0.402000
 20
3.210000
 30
0.000000
 42
0.414214
  0
VERTEX
  8
21
 10
0.415000
 20
3.197000
 30
0.000000
 42
1.000000
  0
VERTEX
  8
21
 10
0.415000
 20
3.203000
 30
0.000000
 42
-0.414214
  0
SEQEND
  8
0
  0
POLYLINE
  8
21
 66
1
 10
0.000000
 20
0.000000
 30
0.000000
 40
0.000000
 41
0.000000
 70
1
  0
VERTEX
  8
21
 10
0.415000
 20
3.297000
 30
0.000000
 42
1.000000
  0
VERTEX
  8
21
 10
0.415000
 20
3.303000
 30
0.000000
 42
0.414214
  0
VERTEX
  8
21
 10
0.402000
 20
3.290000
 30
0.000000
 42
1.000000
  0
VERTEX
  8
21
 10
0.408000
 20
3.290000
 30
0.000000
 42
-0.414214
  0
SEQEND
  8
0
  0
POLYLINE
  8
21
 66
1
 10
0.000000
 20
0.000000
 30
0.000000
 40
0.000000
 41
0.000000
 70
1
  0
VERTEX
  8
21
 10
1.425000
 20
3.532000
 30
0.000000
  0
VERTEX
  8
21
 10
1.450000
 20
3.532000
 30
0.000000
 42
1.000000
  0
VERTEX
  8
21
 10
1.450000
 20
3.544000
 30
0.000000
  0
VERTEX
  8
21
 10
1.425000
 20
3.544000
 30
0.000000
 42
1.000000
  0
SEQEND
  8
0
  0
POLYLINE
  8
21
 66
1
 10
0.000000
 20
0.000000
 30
0.000000
 40
0.000000
 41
0.000000
 70
1
  0
VERTEX
  8
21
 10
1.450000
 20
3.532000
 30
0.000000
  0
VERTEX
  8
21
 10
1.475000
 20
3.532000
 30
0.000000
 42
1.000000
  0
VERTEX
  8
21
 10
1.475000
 20
3.544000
 30
0.000000
  0
VERTEX
  8
21
 10
1.450000
 20
3.544000
 30
0.000000
 42
1.000000
  0
SEQEND
  8
0
  0
POLYLINE
  8
21
 66
1
 10
0.000000
 20
0.000000
 30
0.000000
 40
0.000000
 41
0.000000
 70
1
  0
VERTEX
  8
21
 10
1.447000
 20
3.538000
 30
0.000000
  0
VERTEX
  8
21
 10
1.447000
 20
3.490000
 30
0.000000
 42
1.000000
  0
VERTEX
  8
21
 10
1.453000
 20
3.490000
 30
0.000000
  0
VERTEX
  8
21
 10
1.453000
 20
3.538000
 30
0.000000
 42
1.000000
  0
SEQEND
  8
0
  0
POLYLINE
  8
21
 66
1
 10
0.000000
 20
0.000000
 30
0.000000
 40
0.000000
 41
0.000000
 70
1
  0
VERTEX
  8
21
 10
1.425000
 20
3.557000
 30
0.000000
  0
VERTEX
  8
21
 10
1.450000
 20
3.557000
 30
0.000000
 42
1.000000
  0
VERTEX
  8
21
 10
1.450000
 20
3.569000
 30
0.000000
  0
VERTEX
  8
21
 10
1.425000
 20
3.569000
 30
0.000000
 42
1.000000
  0
SEQEND
  8
0
  0
POLYLINE
  8
21
 66
1
 10
0.000000
 20
0.000000
 30
0.000000
 40
0.000000
 41
0.000000
 70
1
  0
VERTEX
  8
21
 10
1.450000
 20
3.557000
 30
0.000000
  0
VERTEX
  8
21
 10
1.475000
 20
3.557000
 30
0.000000
 42
1.000000
  0
VERTEX
  8
21
 10
1.475000
 20
3.569000
 30
0.000000
  0
VERTEX
  8
21
 10
1.450000
 20
3.569000
 30
0.000000
 42
1.000000
  0
SEQEND
  8
0
  0
POLYLINE
  8
21
 66
1
 10
0.000000
 20
0.000000
 30
0.000000
 40
0.000000
 41
0.000000
 70
1
  0
VERTEX
  8
21
 10
1.453000
 20
3.563000
 30
0.000000
  0
VERTEX
  8
21
 10
1.453000
 20
3.610000
 30
0.000000
 42
1.000000
  0
VERTEX
  8
21
 10
1.447000
 20
3.610000
 30
0.000000
  0
VERTEX
  8
21
 10
1.447000
 20
3.563000
 30
0.000000
 42
1.000000
  0
SEQEND
  8
0
  0
POLYLINE
  8
21
 66
1
 10
0.000000
 20
0.000000
 30
0.000000
 40
0.000000
 41
0.000000
 70
1
  0
VERTEX
  8
21
 10
1.410000
 20
3.402000
 30
0.000000
  0
VERTEX
  8
21
 10
1.490000
 20
3.402000
 30
0.000000
 42
1.000000
  0
VERTEX
  8
21
 10
1.490000
 20
3.408000
 30
0.000000
  0
VERTEX
  8
21
 10
1.410000
 20
3.408000
 30
0.000000
 42
1.000000
  0
SEQEND
  8
0
  0
POLYLINE
  8
21
 66
1
 10
0.000000
 20
0.000000
 30
0.000000
 40
0.000000
 41
0.000000
 70
1
  0
VERTEX
  8
21
 10
1.503000
 20
3.415000
 30
0.000000
  0
VERTEX
  8
21
 10
1.503000
 20
3.685000
 30
0.000000
 42
1.000000
  0
VERTEX
  8
21
 10
1.497000
 20
3.685000
 30
0.000000
  0
VERTEX
  8
21
 10
1.497000
 20
3.415000
 30
0.000000
 42
1.000000
  0
SEQEND
  8
0
  0
POLYLINE
  8
21
 66
1
 10
0.000000
 20
0.000000
 30
0.000000
 40
0.000000
 41
0.000000
 70
1
  0
VERTEX
  8
21
 10
1.490000
 20
3.698000
 30
0.000000
  0
VERTEX
  8
21
 10
1.410000
 20
3.698000
 30
0.000000
 42
1.000000
  0
VERTEX
  8
21
 10
1.410000
 20
3.692000
 30
0.000000
  0
VERTEX
  8
21
 10
1.490000
 20
3.692000
 30
0.000000
 42
1.000000
  0
SEQEND
  8
0
  0
POLYLINE
  8
21
 66
1
 10
0.000000
 20
0.000000
 30
0.000000
 40
0.000000
 41
0.000000
 70
1
  0
VERTEX
  8
21
 10
1.397000
 20
3.685000
 30
0.000000
  0
VERTEX
  8
21
 10
1.397000
 20
3.415000
 30
0.000000
 42
1.000000
  0
VERTEX
  8
21
 10
1.403000
 20
3.415000
 30
0.000000
  0
VERTEX
  8
21
 10
1.403000
 20
3.685000
 30
0.000000
 42
1.000000
  0
SEQEND
  8
0
  0
POLYLINE
  8
21
 66
1
 10
0.000000
 20
0.000000
 30
0.000000
 40
0.000000
 41
0.000000
 70
1
  0
VERTEX
  8
21
 10
1.410000
 20
3.692000
 30
0.000000
 42
1.000000
  0
VERTEX
  8
21
 10
1.410000
 20
3.698000
 30
0.000000
 42
0.414214
  0
VERTEX
  8
21
 10
1.397000
 20
3.685000
 30
0.000000
 42
1.000000
  0
VERTEX
  8
21
 10
1.403000
 20
3.685000
 30
0.000000
 42
-0.414214
  0
SEQEND
  8
0
  0
POLYLINE
  8
21
 66
1
 10
0.000000
 20
0.000000
 30
0.000000
 40
0.000000
 41
0.000000
 70
1
  0
VERTEX
  8
21
 10
1.497000
 20
3.685000
 30
0.000000
 42
1.000000
  0
VERTEX
  8
21
 10
1.503000
 20
3.685000
 30
0.000000
 42
0.414214
  0
VERTEX
  8
21
 10
1.490000
 20
3.698000
 30
0.000000
 42
1.000000
  0
VERTEX
  8
21
 10
1.490000
 20
3.692000
 30
0.000000
 42
-0.414214
  0
SEQEND
  8
0
  0
POLYLINE
  8
21
 66
1
 10
0.000000
 20
0.000000
 30
0.000000
 40
0.000000
 41
0.000000
 70
1
  0
VERTEX
  8
21
 10
1.490000
 20
3.408000
 30
0.000000
 42
1.000000
  0
VERTEX
  8
21
 10
1.490000
 20
3.402000
 30
0.000000
 42
0.414214
  0
VERTEX
  8
21
 10
1.503000
 20
3.415000
 30
0.000000
 42
1.000000
  0
VERTEX
  8
21
 10
1.497000
 20
3.415000
 30
0.000000
 42
-0.414214
  0
SEQEND
  8
0
  0
POLYLINE
  8
21
 66
1
 10
0.000000
 20
0.000000
 30
0.000000
 40
0.000000
 41
0.000000
 70
1
  0
VERTEX
  8
21
 10
1.403000
 20
3.415000
 30
0.000000
 42
1.000000
  0
VERTEX
  8
21
 10
1.397000
 20
3.415000
 30
0.000000
 42
0.414214
  0
VERTEX
  8
21
 10
1.410000
 20
3.402000
 30
0.000000
 42
1.000000
  0
VERTEX
  8
21
 10
1.410000
 20
3.408000
 30
0.000000
 42
-0.414214
  0
SEQEND
  8
0
  0
POLYLINE
  8
21
 66
1
 10
0.000000
 20
0.000000
 30
0.000000
 40
0.000000
 41
0.000000
 70
1
  0
VERTEX
  8
21
 10
0.580000
 20
1.053000
 30
0.000000
  0
VERTEX
  8
21
 10
0.420000
 20
1.053000
 30
0.000000
 42
1.000000
  0
VERTEX
  8
21
 10
0.420000
 20
1.047000
 30
0.000000
  0
VERTEX
  8
21
 10
0.580000
 20
1.047000
 30
0.000000
 42
1.000000
  0
SEQEND
  8
0
  0
POLYLINE
  8
21
 66
1
 10
0.000000
 20
0.000000
 30
0.000000
 40
0.000000
 41
0.000000
 70
1
  0
VERTEX
  8
21
 10
0.583000
 20
1.050000
 30
0.000000
  0
VERTEX
  8
21
 10
0.583000
 20
1.150000
 30
0.000000
 42
1.000000
  0
VERTEX
  8
21
 10
0.577000
 20
1.150000
 30
0.000000
  0
VERTEX
  8
21
 10
0.577000
 20
1.050000
 30
0.000000
 42
1.000000
  0
SEQEND
  8
0
  0
POLYLINE
  8
21
 66
1
 10
0.000000
 20
0.000000
 30
0.000000
 40
0.000000
 41
0.000000
 70
1
  0
VERTEX
  8
21
 10
0.420000
 20
1.147000
 30
0.000000
  0
VERTEX
  8
21
 10
0.580000
 20
1.147000
 30
0.000000
 42
1.000000
  0
VERTEX
  8
21
 10
0.580000
 20
1.153000
 30
0.000000
  0
VERTEX
  8
21
 10
0.420000
 20
1.153000
 30
0.000000
 42
1.000000
  0
SEQEND
  8
0
  0
POLYLINE
  8
21
 66
1
 10
0.000000
 20
0.000000
 30
0.000000
 40
0.000000
 41
0.000000
 70
1
  0
VERTEX
  8
21
 10
0.417000
 20
1.150000
 30
0.000000
  0
VERTEX
  8
21
 10
0.417000
 20
1.050000
 30
0.000000
 42
1.000000
  0
VERTEX
  8
21
 10
0.423000
 20
1.050000
 30
0.000000
  0
VERTEX
  8
21
 10
0.423000
 20
1.150000
 30
0.000000
 42
1.000000
  0
SEQEND
  8
0
  0
POLYLINE
  8
21
 66
1
 10
0.000000
 20
0.000000
 30
0.000000
 40
0.000000
 41
0.000000
 70
1
  0
VERTEX
  8
21
 10
0.475000
 20
1.097000
 30
0.000000
  0
VERTEX
  8
21
 10
0.500000
 20
1.097000
 30
0.000000
 42
1.000000
  0
VERTEX
  8
21
 10
0.500000
 20
1.103000
 30
0.000000
  0
VERTEX
  8
21
 10
0.475000
 20
1.103000
 30
0.000000
 42
1.000000
  0
SEQEND
  8
0
  0
POLYLINE
  8
21
 66
1
 10
0.000000
 20
0.000000
 30
0.000000
 40
0.000000
 41
0.000000
 70
1
  0
VERTEX
  8
21
 10
0.537000
 20
1.125000
 30
0.000000
  0
VERTEX
  8
21
 10
0.537000
 20
1.075000
 30
0.000000
 42
1.000000
  0
VERTEX
  8
21
 10
0.543000
 20
1.075000
 30
0.000000
  0
VERTEX
  8
21
 10
0.543000
 20
1.125000
 30
0.000000
 42
1.000000
  0
SEQEND
  8
0
  0
POLYLINE
  8
21
 66
1
 10
0.000000
 20
0.000000
 30
0.000000
 40
0.000000
 41
0.000000
 70
1
  0
VERTEX
  8
21
 10
0.541590
 20
1.077544
 30
0.000000
  0
VERTEX
  8
21
 10
0.501590
 20
1.102544
 30
0.000000
 42
1.000000
  0
VERTEX
  8
21
 10
0.498410
 20
1.097456
 30
0.000000
  0
VERTEX
  8
21
 10
0.538410
 20
1.072456
 30
0.000000
 42
1.000000
  0
SEQEND
  8
0
  0
POLYLINE
  8
21
 66
1
 10
0.000000
 20
0.000000
 30
0.000000
 40
0.000000
 41
0.000000
 70
1
  0
VERTEX
  8
21
 10
0.500000
 20
1.097000
 30
0.000000
  0
VERTEX
  8
21
 10
0.560000
 20
1.097000
 30
0.000000
 42
1.000000
  0
VERTEX
  8
21
 10
0.560000
 20
1.103000
 30
0.000000
  0
VERTEX
  8
21
 10
0.500000
 20
1.103000
 30
0.000000
 42
1.000000
  0
SEQEND
  8
0
  0
POLYLINE
  8
21
 66
1
 10
0.000000
 20
0.000000
 30
0.000000
 40
0.000000
 41
0.000000
 70
1
  0
VERTEX
  8
21
 10
0.501590
 20
1.097456
 30
0.000000
  0
VERTEX
  8
21
 10
0.541590
 20
1.122456
 30
0.000000
 42
1.000000
  0
VERTEX
  8
21
 10
0.538410
 20
1.127544
 30
0.000000
  0
VERTEX
  8
21
 10
0.498410
 20
1.102544
 30
0.000000
 42
1.000000
  0
SEQEND
  8
0
  0
POLYLINE
  8
21
 66
1
 10
0.000000
 20
0.000000
 30
0.000000
 40
0.000000
 41
0.000000
 70
1
  0
VERTEX
  8
21
 10
0.497000
 20
1.125000
 30
0.000000
  0
VERTEX
  8
21
 10
0.497000
 20
1.100000
 30
0.000000
 42
1.000000
  0
VERTEX
  8
21
 10
0.503000
 20
1.100000
 30
0.000000
  0
VERTEX
  8
21
 10
0.503000
 20
1.125000
 30
0.000000
 42
1.000000
  0
SEQEND
  8
0
  0
POLYLINE
  8
21
 66
1
 10
0.000000
 20
0.000000
 30
0.000000
 40
0.000000
 41
0.000000
 70
1
  0
VERTEX
  8
21
 10
0.497000
 20
1.100000
 30
0.000000
  0
VERTEX
  8
21
 10
0.497000
 20
1.075000
 30
0.000000
 42
1.000000
  0
VERTEX
  8
21
 10
0.503000
 20
1.075000
 30
0.000000
  0
VERTEX
  8
21
 10
0.503000
 20
1.100000
 30
0.000000
 42
1.000000
  0
SEQEND
  8
0
  0
INSERT
  8
21
  2
RECT
 10
0.445000
 20
1.100000
 30
0.000000
 41
0.020000
 42
0.100000
 43
1.000000
 50
0.000000
  0
INSERT
  8
21
  2
RECT
 10
0.617500
 20
1.100000
 30
0.000000
 41
0.075000
 42
0.030000
 43
1.000000
 50
0.000000
  0
INSERT
  8
21
  2
RECT
 10
0.382500
 20
1.100000
 30
0.000000
 41
0.075000
 42
0.030000
 43
1.000000
 50
0.000000
  0
POLYLINE
  8
21
 66
1
 10
0.000000
 20
0.000000
 30
0.000000
 40
0.000000
 41
0.000000
 70
1
  0
VERTEX
  8
21
 10
1.280000
 20
1.053000
 30
0.000000
  0
VERTEX
  8
21
 10
1.120000
 20
1.053000
 30
0.000000
 42
1.000000
  0
VERTEX
  8
21
 10
1.120000
 20
1.047000
 30
0.000000
  0
VERTEX
  8
21
 10
1.280000
 20
1.047000
 30
0.000000
 42
1.000000
  0
SEQEND
  8
0
  0
POLYLINE
  8
21
 66
1
 10
0.000000
 20
0.000000
 30
0.000000
 40
0.000000
 41
0.000000
 70
1
  0
VERTEX
  8
21
 10
1.283000
 20
1.050000
 30
0.000000
  0
VERTEX
  8
21
 10
1.283000
 20
1.150000
 30
0.000000
 42
1.000000
  0
VERTEX
  8
21
 10
1.277000
 20
1.150000
 30
0.000000
  0
VERTEX
  8
21
 10
1.277000
 20
1.050000
 30
0.000000
 42
1.000000
  0
SEQEND
  8
0
  0
POLYLINE
  8
21
 66
1
 10
0.000000
 20
0.000000
 30
0.000000
 40
0.000000
 41
0.000000
 70
1
  0
VERTEX
  8
21
 10
1.120000
 20
1.147000
 30
0.000000
  0
VERTEX
  8
21
 10
1.280000
 20
1.147000
 30
0.000000
 42
1.000000
  0
VERTEX
  8
21
 10
1.280000
 20
1.153000
 30
0.000000
  0
VERTEX
  8
21
 10
1.120000
 20
1.153000
 30
0.000000
 42
1.000000
  0
SEQEND
  8
0
  0
POLYLINE
  8
21
 66
1
 10
0.000000
 20
0.000000
 30
0.000000
 40
0.000000
 41
0.000000
 70
1
  0
VERTEX
  8
21
 10
1.117000
 20
1.150000
 30
0.000000
  0
VERTEX
  8
21
 10
1.117000
 20
1.050000
 30
0.000000
 42
1.000000
  0
VERTEX
  8
21
 10
1.123000
 20
1.050000
 30
0.000000
  0
VERTEX
  8
21
 10
1.123000
 20
1.150000
 30
0.000000
 42
1.000000
  0
SEQEND
  8
0
  0
POLYLINE
  8
21
 66
1
 10
0.000000
 20
0.000000
 30
0.000000
 40
0.000000
 41
0.000000
 70
1
  0
VERTEX
  8
21
 10
1.175000
 20
1.097000
 30
0.000000
  0
VERTEX
  8
21
 10
1.200000
 20
1.097000
 30
0.000000
 42
1.000000
  0
VERTEX
  8
21
 10
1.200000
 20
1.103000
 30
0.000000
  0
VERTEX
  8
21
 10
1.175000
 20
1.103000
 30
0.000000
 42
1.000000
  0
SEQEND
  8
0
  0
POLYLINE
  8
21
 66
1
 10
0.000000
 20
0.000000
 30
0.000000
 40
0.000000
 41
0.000000
 70
1
  0
VERTEX
  8
21
 10
1.237000
 20
1.125000
 30
0.000000
  0
VERTEX
  8
21
 10
1.237000
 20
1.075000
 30
0.000000
 42
1.000000
  0
VERTEX
  8
21
 10
1.243000
 20
1.075000
 30
0.000000
  0
VERTEX
  8
21
 10
1.243000
 20
1.125000
 30
0.000000
 42
1.000000
  0
SEQEND
  8
0
  0
POLYLINE
  8
21
 66
1
 10
0.000000
 20
0.000000
 30
0.000000
 40
0.000000
 41
0.000000
 70
1
  0
VERTEX
  8
21
 10
1.241590
 20
1.077544
 30
0.000000
  0
VERTEX
  8
21
 10
1.201590
 20
1.102544
 30
0.000000
 42
1.000000
  0
VERTEX
  8
21
 10
1.198410
 20
1.097456
 30
0.000000
  0
VERTEX
  8
21
 10
1.238410
 20
1.072456
 30
0.000000
 42
1.000000
  0
SEQEND
  8
0
  0
POLYLINE
  8
21
 66
1
 10
0.000000
 20
0.000000
 30
0.000000
 40
0.000000
 41
0.000000
 70
1
  0
VERTEX
  8
21
 10
1.200000
 20
1.097000
 30
0.000000
  0
VERTEX
  8
21
 10
1.260000
 20
1.097000
 30
0.000000
 42
1.000000
  0
VERTEX
  8
21
 10
1.260000
 20
1.103000
 30
0.000000
  0
VERTEX
  8
21
 10
1.200000
 20
1.103000
 30
0.000000
 42
1.000000
  0
SEQEND
  8
0
  0
POLYLINE
  8
21
 66
1
 10
0.000000
 20
0.000000
 30
0.000000
 40
0.000000
 41
0.000000
 70
1
  0
VERTEX
  8
21
 10
1.201590
 20
1.097456
 30
0.000000
  0
VERTEX
  8
21
 10
1.241590
 20
1.122456
 30
0.000000
 42
1.000000
  0
VERTEX
  8
21
 10
1.238410
 20
1.127544
 30
0.000000
  0
VERTEX
  8
21
 10
1.198410
 20
1.102544
 30
0.000000
 42
1.000000
  0
SEQEND
  8
0
  0
POLYLINE
  8
21
 66
1
 10
0.000000
 20
0.000000
 30
0.000000
 40
0.000000
 41
0.000000
 70
1
  0
VERTEX
  8
21
 10
1.197000
 20
1.125000
 30
0.000000
  0
VERTEX
  8
21
 10
1.197000
 20
1.100000
 30
0.000000
 42
1.000000
  0
VERTEX
  8
21
 10
1.203000
 20
1.100000
 30
0.000000
  0
VERTEX
  8
21
 10
1.203000
 20
1.125000
 30
0.000000
 42
1.000000
  0
SEQEND
  8
0
  0
POLYLINE
  8
21
 66
1
 10
0.000000
 20
0.000000
 30
0.000000
 40
0.000000
 41
0.000000
 70
1
  0
VERTEX
  8
21
 10
1.197000
 20
1.100000
 30
0.000000
  0
VERTEX
  8
21
 10
1.197000
 20
1.075000
 30
0.000000
 42
1.000000
  0
VERTEX
  8
21
 10
1.203000
 20
1.075000
 30
0.000000
  0
VERTEX
  8
21
 10
1.203000
 20
1.100000
 30
0.000000
 42
1.000000
  0
SEQEND
  8
0
  0
INSERT
  8
21
  2
RECT
 10
1.145000
 20
1.100000
 30
0.000000
 41
0.020000
 42
0.100000
 43
1.000000
 50
0.000000
  0
INSERT
  8
21
  2
RECT
 10
1.317500
 20
1.100000
 30
0.000000
 41
0.075000
 42
0.030000
 43
1.000000
 50
0.000000
  0
INSERT
  8
21
  2
RECT
 10
1.082500
 20
1.100000
 30
0.000000
 41
0.075000
 42
0.030000
 43
1.000000
 50
0.000000
  0
POLYLINE
  8
21
 66
1
 10
0.000000
 20
0.000000
 30
0.000000
 40
0.000000
 41
0.000000
 70
1
  0
VERTEX
  8
21
 10
1.225000
 20
1.903000
 30
0.000000
  0
VERTEX
  8
21
 10
1.200000
 20
1.903000
 30
0.000000
 42
1.000000
  0
VERTEX
  8
21
 10
1.200000
 20
1.897000
 30
0.000000
  0
VERTEX
  8
21
 10
1.225000
 20
1.897000
 30
0.000000
 42
1.000000
  0
SEQEND
  8
0
  0
POLYLINE
  8
21
 66
1
 10
0.000000
 20
0.000000
 30
0.000000
 40
0.000000
 41
0.000000
 70
1
  0
VERTEX
  8
21
 10
1.163000
 20
1.875000
 30
0.000000
  0
VERTEX
  8
21
 10
1.163000
 20
1.925000
 30
0.000000
 42
1.000000
  0
VERTEX
  8
21
 10
1.157000
 20
1.925000
 30
0.000000
  0
VERTEX
  8
21
 10
1.157000
 20
1.875000
 30
0.000000
 42
1.000000
  0
SEQEND
  8
0
  0
POLYLINE
  8
21
 66
1
 10
0.000000
 20
0.000000
 30
0.000000
 40
0.000000
 41
0.000000
 70
1
  0
VERTEX
  8
21
 10
1.158410
 20
1.922456
 30
0.000000
  0
VERTEX
  8
21
 10
1.198410
 20
1.897456
 30
0.000000
 42
1.000000
  0
VERTEX
  8
21
 10
1.201590
 20
1.902544
 30
0.000000
  0
VERTEX
  8
21
 10
1.161590
 20
1.927544
 30
0.000000
 42
1.000000
  0
SEQEND
  8
0
  0
POLYLINE
  8
21
 66
1
 10
0.000000
 20
0.000000
 30
0.000000
 40
0.000000
 41
0.000000
 70
1
  0
VERTEX
  8
21
 10
1.200000
 20
1.903000
 30
0.000000
  0
VERTEX
  8
21
 10
1.140000
 20
1.903000
 30
0.000000
 42
1.000000
  0
VERTEX
  8
21
 10
1.140000
 20
1.897000
 30
0.000000
  0
VERTEX
  8
21
 10
1.200000
 20
1.897000
 30
0.000000
 42
1.000000
  0
SEQEND
  8
0
  0
POLYLINE
  8
21
 66
1
 10
0.000000
 20
0.000000
 30
0.000000
 40
0.000000
 41
0.000000
 70
1
  0
VERTEX
  8
21
 10
1.198410
 20
1.902544
 30
0.000000
  0
VERTEX
  8
21
 10
1.158410
 20
1.877544
 30
0.000000
 42
1.000000
  0
VERTEX
  8
21
 10
1.161590
 20
1.872456
 30
0.000000
  0
VERTEX
  8
21
 10
1.201590
 20
1.897456
 30
0.000000
 42
1.000000
  0
SEQEND
  8
0
  0
POLYLINE
  8
21
 66
1
 10
0.000000
 20
0.000000
 30
0.000000
 40
0.000000
 41
0.000000
 70
1
  0
VERTEX
  8
21
 10
1.203000
 20
1.875000
 30
0.000000
  0
VERTEX
  8
21
 10
1.203000
 20
1.900000
 30
0.000000
 42
1.000000
  0
VERTEX
  8
21
 10
1.197000
 20
1.900000
 30
0.000000
  0
VERTEX
  8
21
 10
1.197000
 20
1.875000
 30
0.000000
 42
1.000000
  0
SEQEND
  8
0
  0
POLYLINE
  8
21
 66
1
 10
0.000000
 20
0.000000
 30
0.000000
 40
0.000000
 41
0.000000
 70
1
  0
VERTEX
  8
21
 10
1.203000
 20
1.900000
 30
0.000000
  0
VERTEX
  8
21
 10
1.203000
 20
1.925000
 30
0.000000
 42
1.000000
  0
VERTEX
  8
21
 10
1.197000
 20
1.925000
 30
0.000000
  0
VERTEX
  8
21
 10
1.197000
 20
1.900000
 30
0.000000
 42
1.000000
  0
SEQEND
  8
0
  0
POLYLINE
  8
21
 66
1
 10
0.000000
 20
0.000000
 30
0.000000
 40
0.000000
 41
0.000000
 70
1
  0
VERTEX
  8
21
 10
1.113000
 20
1.870000
 30
0.000000
 42
1.000000
  0
VERTEX
  8
21
 10
1.107000
 20
1.870000
 30
0.000000
 42
0.414214
  0
VERTEX
  8
21
 10
1.120000
 20
1.857000
 30
0.000000
 42
1.000000
  0
VERTEX
  8
21
 10
1.120000
 20
1.863000
 30
0.000000
 42
-0.414214
  0
SEQEND
  8
0
  0
POLYLINE
  8
21
 66
1
 10
0.000000
 20
0.000000
 30
0.000000
 40
0.000000
 41
0.000000
 70
1
  0
VERTEX
  8
21
 10
1.280000
 20
1.863000
 30
0.000000
 42
1.000000
  0
VERTEX
  8
21
 10
1.280000
 20
1.857000
 30
0.000000
 42
0.414214
  0
VERTEX
  8
21
 10
1.293000
 20
1.870000
 30
0.000000
 42
1.000000
  0
VERTEX
  8
21
 10
1.287000
 20
1.870000
 30
0.000000
 42
-0.414214
  0
SEQEND
  8
0
  0
POLYLINE
  8
21
 66
1
 10
0.000000
 20
0.000000
 30
0.000000
 40
0.000000
 41
0.000000
 70
1
  0
VERTEX
  8
21
 10
1.287000
 20
1.930000
 30
0.000000
 42
1.000000
  0
VERTEX
  8
21
 10
1.293000
 20
1.930000
 30
0.000000
 42
0.414214
  0
VERTEX
  8
21
 10
1.280000
 20
1.943000
 30
0.000000
 42
1.000000
  0
VERTEX
  8
21
 10
1.280000
 20
1.937000
 30
0.000000
 42
-0.414214
  0
SEQEND
  8
0
  0
POLYLINE
  8
21
 66
1
 10
0.000000
 20
0.000000
 30
0.000000
 40
0.000000
 41
0.000000
 70
1
  0
VERTEX
  8
21
 10
1.120000
 20
1.937000
 30
0.000000
 42
1.000000
  0
VERTEX
  8
21
 10
1.120000
 20
1.943000
 30
0.000000
 42
0.414214
  0
VERTEX
  8
21
 10
1.107000
 20
1.930000
 30
0.000000
 42
1.000000
  0
VERTEX
  8
21
 10
1.113000
 20
1.930000
 30
0.000000
 42
-0.414214
  0
SEQEND
  8
0
  0
POLYLINE
  8
21
 66
1
 10
0.000000
 20
0.000000
 30
0.000000
 40
0.000000
 41
0.000000
 70
1
  0
VERTEX
  8
21
 10
1.107000
 20
1.930000
 30
0.000000
  0
VERTEX
  8
21
 10
1.107000
 20
1.870000
 30
0.000000
 42
1.000000
  0
VERTEX
  8
21
 10
1.113000
 20
1.870000
 30
0.000000
  0
VERTEX
  8
21
 10
1.113000
 20
1.930000
 30
0.000000
 42
1.000000
  0
SEQEND
  8
0
  0
POLYLINE
  8
21
 66
1
 10
0.000000
 20
0.000000
 30
0.000000
 40
0.000000
 41
0.000000
 70
1
  0
VERTEX
  8
21
 10
1.293000
 20
1.870000
 30
0.000000
  0
VERTEX
  8
21
 10
1.293000
 20
1.930000
 30
0.000000
 42
1.000000
  0
VERTEX
  8
21
 10
1.287000
 20
1.930000
 30
0.000000
  0
VERTEX
  8
21
 10
1.287000
 20
1.870000
 30
0.000000
 42
1.000000
  0
SEQEND
  8
0
  0
POLYLINE
  8
21
 66
1
 10
0.000000
 20
0.000000
 30
0.000000
 40
0.000000
 41
0.000000
 70
1
  0
VERTEX
  8
21
 10
1.280000
 20
1.863000
 30
0.000000
  0
VERTEX
  8
21
 10
1.120000
 20
1.863000
 30
0.000000
 42
1.000000
  0
VERTEX
  8
21
 10
1.120000
 20
1.857000
 30
0.000000
  0
VERTEX
  8
21
 10
1.280000
 20
1.857000
 30
0.000000
 42
1.000000
  0
SEQEND
  8
0
  0
POLYLINE
  8
21
 66
1
 10
0.000000
 20
0.000000
 30
0.000000
 40
0.000000
 41
0.000000
 70
1
  0
VERTEX
  8
21
 10
1.280000
 20
1.943000
 30
0.000000
  0
VERTEX
  8
21
 10
1.120000
 20
1.943000
 30
0.000000
 42
1.000000
  0
VERTEX
  8
21
 10
1.120000
 20
1.937000
 30
0.000000
  0
VERTEX
  8
21
 10
1.280000
 20
1.937000
 30
0.000000
 42
1.000000
  0
SEQEND
  8
0
  0
INSERT
  8
21
  2
RECT
 10
1.265000
 20
1.900000
 30
0.000000
 41
0.020000
 42
0.080000
 43
1.000000
 50
180.000000
  0
INSERT
  8
21
  2
RECT
 10
1.072500
 20
1.900000
 30
0.000000
 41
0.075000
 42
0.020000
 43
1.000000
 50
180.000000
  0
INSERT
  8
21
  2
RECT
 10
1.327500
 20
1.900000
 30
0.000000
 41
0.075000
 42
0.020000
 43
1.000000
 50
180.000000
  0
POLYLINE
  8
21
 66
1
 10
0.000000
 20
0.000000
 30
0.000000
 40
0.000000
 41
0.000000
 70
1
  0
VERTEX
  8
21
 10
1.980000
 20
1.053000
 30
0.000000
  0
VERTEX
  8
21
 10
1.820000
 20
1.053000
 30
0.000000
 42
1.000000
  0
VERTEX
  8
21
 10
1.820000
 20
1.047000
 30
0.000000
  0
VERTEX
  8
21
 10
1.980000
 20
1.047000
 30
0.000000
 42
1.000000
  0
SEQEND
  8
0
  0
POLYLINE
  8
21
 66
1
 10
0.000000
 20
0.000000
 30
0.000000
 40
0.000000
 41
0.000000
 70
1
  0
VERTEX
  8
21
 10
1.983000
 20
1.050000
 30
0.000000
  0
VERTEX
  8
21
 10
1.983000
 20
1.150000
 30
0.000000
 42
1.000000
  0
VERTEX
  8
21
 10
1.977000
 20
1.150000
 30
0.000000
  0
VERTEX
  8
21
 10
1.977000
 20
1.050000
 30
0.000000
 42
1.000000
  0
SEQEND
  8
0
  0
POLYLINE
  8
21
 66
1
 10
0.000000
 20
0.000000
 30
0.000000
 40
0.000000
 41
0.000000
 70
1
  0
VERTEX
  8
21
 10
1.820000
 20
1.147000
 30
0.000000
  0
VERTEX
  8
21
 10
1.980000
 20
1.147000
 30
0.000000
 42
1.000000
  0
VERTEX
  8
21
 10
1.980000
 20
1.153000
 30
0.000000
  0
VERTEX
  8
21
 10
1.820000
 20
1.153000
 30
0.000000
 42
1.000000
  0
SEQEND
  8
0
  0
POLYLINE
  8
21
 66
1
 10
0.000000
 20
0.000000
 30
0.000000
 40
0.000000
 41
0.000000
 70
1
  0
VERTEX
  8
21
 10
1.817000
 20
1.150000
 30
0.000000
  0
VERTEX
  8
21
 10
1.817000
 20
1.050000
 30
0.000000
 42
1.000000
  0
VERTEX
  8
21
 10
1.823000
 20
1.050000
 30
0.000000
  0
VERTEX
  8
21
 10
1.823000
 20
1.150000
 30
0.000000
 42
1.000000
  0
SEQEND
  8
0
  0
POLYLINE
  8
21
 66
1
 10
0.000000
 20
0.000000
 30
0.000000
 40
0.000000
 41
0.000000
 70
1
  0
VERTEX
  8
21
 10
1.875000
 20
1.097000
 30
0.000000
  0
VERTEX
  8
21
 10
1.900000
 20
1.097000
 30
0.000000
 42
1.000000
  0
VERTEX
  8
21
 10
1.900000
 20
1.103000
 30
0.000000
  0
VERTEX
  8
21
 10
1.875000
 20
1.103000
 30
0.000000
 42
1.000000
  0
SEQEND
  8
0
  0
POLYLINE
  8
21
 66
1
 10
0.000000
 20
0.000000
 30
0.000000
 40
0.000000
 41
0.000000
 70
1
  0
VERTEX
  8
21
 10
1.937000
 20
1.125000
 30
0.000000
  0
VERTEX
  8
21
 10
1.937000
 20
1.075000
 30
0.000000
 42
1.000000
  0
VERTEX
  8
21
 10
1.943000
 20
1.075000
 30
0.000000
  0
VERTEX
  8
21
 10
1.943000
 20
1.125000
 30
0.000000
 42
1.000000
  0
SEQEND
  8
0
  0
POLYLINE
  8
21
 66
1
 10
0.000000
 20
0.000000
 30
0.000000
 40
0.000000
 41
0.000000
 70
1
  0
VERTEX
  8
21
 10
1.941590
 20
1.077544
 30
0.000000
  0
VERTEX
  8
21
 10
1.901590
 20
1.102544
 30
0.000000
 42
1.000000
  0
VERTEX
  8
21
 10
1.898410
 20
1.097456
 30
0.000000
  0
VERTEX
  8
21
 10
1.938410
 20
1.072456
 30
0.000000
 42
1.000000
  0
SEQEND
  8
0
  0
POLYLINE
  8
21
 66
1
 10
0.000000
 20
0.000000
 30
0.000000
 40
0.000000
 41
0.000000
 70
1
  0
VERTEX
  8
21
 10
1.900000
 20
1.097000
 30
0.000000
  0
VERTEX
  8
21
 10
1.960000
 20
1.097000
 30
0.000000
 42
1.000000
  0
VERTEX
  8
21
 10
1.960000
 20
1.103000
 30
0.000000
  0
VERTEX
  8
21
 10
1.900000
 20
1.103000
 30
0.000000
 42
1.000000
  0
SEQEND
  8
0
  0
POLYLINE
  8
21
 66
1
 10
0.000000
 20
0.000000
 30
0.000000
 40
0.000000
 41
0.000000
 70
1
  0
VERTEX
  8
21
 10
1.901590
 20
1.097456
 30
0.000000
  0
VERTEX
  8
21
 10
1.941590
 20
1.122456
 30
0.000000
 42
1.000000
  0
VERTEX
  8
21
 10
1.938410
 20
1.127544
 30
0.000000
  0
VERTEX
  8
21
 10
1.898410
 20
1.102544
 30
0.000000
 42
1.000000
  0
SEQEND
  8
0
  0
POLYLINE
  8
21
 66
1
 10
0.000000
 20
0.000000
 30
0.000000
 40
0.000000
 41
0.000000
 70
1
  0
VERTEX
  8
21
 10
1.897000
 20
1.125000
 30
0.000000
  0
VERTEX
  8
21
 10
1.897000
 20
1.100000
 30
0.000000
 42
1.000000
  0
VERTEX
  8
21
 10
1.903000
 20
1.100000
 30
0.000000
  0
VERTEX
  8
21
 10
1.903000
 20
1.125000
 30
0.000000
 42
1.000000
  0
SEQEND
  8
0
  0
POLYLINE
  8
21
 66
1
 10
0.000000
 20
0.000000
 30
0.000000
 40
0.000000
 41
0.000000
 70
1
  0
VERTEX
  8
21
 10
1.897000
 20
1.100000
 30
0.000000
  0
VERTEX
  8
21
 10
1.897000
 20
1.075000
 30
0.000000
 42
1.000000
  0
VERTEX
  8
21
 10
1.903000
 20
1.075000
 30
0.000000
  0
VERTEX
  8
21
 10
1.903000
 20
1.100000
 30
0.000000
 42
1.000000
  0
SEQEND
  8
0
  0
INSERT
  8
21
  2
RECT
 10
1.845000
 20
1.100000
 30
0.000000
 41
0.020000
 42
0.100000
 43
1.000000
 50
0.000000
  0
INSERT
  8
21
  2
RECT
 10
2.017500
 20
1.100000
 30
0.000000
 41
0.075000
 42
0.030000
 43
1.000000
 50
0.000000
  0
INSERT
  8
21
  2
RECT
 10
1.782500
 20
1.100000
 30
0.000000
 41
0.075000
 42
0.030000
 43
1.000000
 50
0.000000
  0
POLYLINE
  8
21
 66
1
 10
0.000000
 20
0.000000
 30
0.000000
 40
0.000000
 41
0.000000
 70
1
  0
VERTEX
  8
21
 10
0.525000
 20
1.903000
 30
0.000000
  0
VERTEX
  8
21
 10
0.500000
 20
1.903000
 30
0.000000
 42
1.000000
  0
VERTEX
  8
21
 10
0.500000
 20
1.897000
 30
0.000000
  0
VERTEX
  8
21
 10
0.525000
 20
1.897000
 30
0.000000
 42
1.000000
  0
SEQEND
  8
0
  0
POLYLINE
  8
21
 66
1
 10
0.000000
 20
0.000000
 30
0.000000
 40
0.000000
 41
0.000000
 70
1
  0
VERTEX
  8
21
 10
0.463000
 20
1.875000
 30
0.000000
  0
VERTEX
  8
21
 10
0.463000
 20
1.925000
 30
0.000000
 42
1.000000
  0
VERTEX
  8
21
 10
0.457000
 20
1.925000
 30
0.000000
  0
VERTEX
  8
21
 10
0.457000
 20
1.875000
 30
0.000000
 42
1.000000
  0
SEQEND
  8
0
  0
POLYLINE
  8
21
 66
1
 10
0.000000
 20
0.000000
 30
0.000000
 40
0.000000
 41
0.000000
 70
1
  0
VERTEX
  8
21
 10
0.458410
 20
1.922456
 30
0.000000
  0
VERTEX
  8
21
 10
0.498410
 20
1.897456
 30
0.000000
 42
1.000000
  0
VERTEX
  8
21
 10
0.501590
 20
1.902544
 30
0.000000
  0
VERTEX
  8
21
 10
0.461590
 20
1.927544
 30
0.000000
 42
1.000000
  0
SEQEND
  8
0
  0
POLYLINE
  8
21
 66
1
 10
0.000000
 20
0.000000
 30
0.000000
 40
0.000000
 41
0.000000
 70
1
  0
VERTEX
  8
21
 10
0.500000
 20
1.903000
 30
0.000000
  0
VERTEX
  8
21
 10
0.440000
 20
1.903000
 30
0.000000
 42
1.000000
  0
VERTEX
  8
21
 10
0.440000
 20
1.897000
 30
0.000000
  0
VERTEX
  8
21
 10
0.500000
 20
1.897000
 30
0.000000
 42
1.000000
  0
SEQEND
  8
0
  0
POLYLINE
  8
21
 66
1
 10
0.000000
 20
0.000000
 30
0.000000
 40
0.000000
 41
0.000000
 70
1
  0
VERTEX
  8
21
 10
0.498410
 20
1.902544
 30
0.000000
  0
VERTEX
  8
21
 10
0.458410
 20
1.877544
 30
0.000000
 42
1.000000
  0
VERTEX
  8
21
 10
0.461590
 20
1.872456
 30
0.000000
  0
VERTEX
  8
21
 10
0.501590
 20
1.897456
 30
0.000000
 42
1.000000
  0
SEQEND
  8
0
  0
POLYLINE
  8
21
 66
1
 10
0.000000
 20
0.000000
 30
0.000000
 40
0.000000
 41
0.000000
 70
1
  0
VERTEX
  8
21
 10
0.503000
 20
1.875000
 30
0.000000
  0
VERTEX
  8
21
 10
0.503000
 20
1.900000
 30
0.000000
 42
1.000000
  0
VERTEX
  8
21
 10
0.497000
 20
1.900000
 30
0.000000
  0
VERTEX
  8
21
 10
0.497000
 20
1.875000
 30
0.000000
 42
1.000000
  0
SEQEND
  8
0
  0
POLYLINE
  8
21
 66
1
 10
0.000000
 20
0.000000
 30
0.000000
 40
0.000000
 41
0.000000
 70
1
  0
VERTEX
  8
21
 10
0.503000
 20
1.900000
 30
0.000000
  0
VERTEX
  8
21
 10
0.503000
 20
1.925000
 30
0.000000
 42
1.000000
  0
VERTEX
  8
21
 10
0.497000
 20
1.925000
 30
0.000000
  0
VERTEX
  8
21
 10
0.497000
 20
1.900000
 30
0.000000
 42
1.000000
  0
SEQEND
  8
0
  0
POLYLINE
  8
21
 66
1
 10
0.000000
 20
0.000000
 30
0.000000
 40
0.000000
 41
0.000000
 70
1
  0
VERTEX
  8
21
 10
0.413000
 20
1.870000
 30
0.000000
 42
1.000000
  0
VERTEX
  8
21
 10
0.407000
 20
1.870000
 30
0.000000
 42
0.414214
  0
VERTEX
  8
21
 10
0.420000
 20
1.857000
 30
0.000000
 42
1.000000
  0
VERTEX
  8
21
 10
0.420000
 20
1.863000
 30
0.000000
 42
-0.414214
  0
SEQEND
  8
0
  0
POLYLINE
  8
21
 66
1
 10
0.000000
 20
0.000000
 30
0.000000
 40
0.000000
 41
0.000000
 70
1
  0
VERTEX
  8
21
 10
0.580000
 20
1.863000
 30
0.000000
 42
1.000000
  0
VERTEX
  8
21
 10
0.580000
 20
1.857000
 30
0.000000
 42
0.414214
  0
VERTEX
  8
21
 10
0.593000
 20
1.870000
 30
0.000000
 42
1.000000
  0
VERTEX
  8
21
 10
0.587000
 20
1.870000
 30
0.000000
 42
-0.414214
  0
SEQEND
  8
0
  0
POLYLINE
  8
21
 66
1
 10
0.000000
 20
0.000000
 30
0.000000
 40
0.000000
 41
0.000000
 70
1
  0
VERTEX
  8
21
 10
0.587000
 20
1.930000
 30
0.000000
 42
1.000000
  0
VERTEX
  8
21
 10
0.593000
 20
1.930000
 30
0.000000
 42
0.414214
  0
VERTEX
  8
21
 10
0.580000
 20
1.943000
 30
0.000000
 42
1.000000
  0
VERTEX
  8
21
 10
0.580000
 20
1.937000
 30
0.000000
 42
-0.414214
  0
SEQEND
  8
0
  0
POLYLINE
  8
21
 66
1
 10
0.000000
 20
0.000000
 30
0.000000
 40
0.000000
 41
0.000000
 70
1
  0
VERTEX
  8
21
 10
0.420000
 20
1.937000
 30
0.000000
 42
1.000000
  0
VERTEX
  8
21
 10
0.420000
 20
1.943000
 30
0.000000
 42
0.414214
  0
VERTEX
  8
21
 10
0.407000
 20
1.930000
 30
0.000000
 42
1.000000
  0
VERTEX
  8
21
 10
0.413000
 20
1.930000
 30
0.000000
 42
-0.414214
  0
SEQEND
  8
0
  0
POLYLINE
  8
21
 66
1
 10
0.000000
 20
0.000000
 30
0.000000
 40
0.000000
 41
0.000000
 70
1
  0
VERTEX
  8
21
 10
0.407000
 20
1.930000
 30
0.000000
  0
VERTEX
  8
21
 10
0.407000
 20
1.870000
 30
0.000000
 42
1.000000
  0
VERTEX
  8
21
 10
0.413000
 20
1.870000
 30
0.000000
  0
VERTEX
  8
21
 10
0.413000
 20
1.930000
 30
0.000000
 42
1.000000
  0
SEQEND
  8
0
  0
POLYLINE
  8
21
 66
1
 10
0.000000
 20
0.000000
 30
0.000000
 40
0.000000
 41
0.000000
 70
1
  0
VERTEX
  8
21
 10
0.593000
 20
1.870000
 30
0.000000
  0
VERTEX
  8
21
 10
0.593000
 20
1.930000
 30
0.000000
 42
1.000000
  0
VERTEX
  8
21
 10
0.587000
 20
1.930000
 30
0.000000
  0
VERTEX
  8
21
 10
0.587000
 20
1.870000
 30
0.000000
 42
1.000000
  0
SEQEND
  8
0
  0
POLYLINE
  8
21
 66
1
 10
0.000000
 20
0.000000
 30
0.000000
 40
0.000000
 41
0.000000
 70
1
  0
VERTEX
  8
21
 10
0.580000
 20
1.863000
 30
0.000000
  0
VERTEX
  8
21
 10
0.420000
 20
1.863000
 30
0.000000
 42
1.000000
  0
VERTEX
  8
21
 10
0.420000
 20
1.857000
 30
0.000000
  0
VERTEX
  8
21
 10
0.580000
 20
1.857000
 30
0.000000
 42
1.000000
  0
SEQEND
  8
0
  0
POLYLINE
  8
21
 66
1
 10
0.000000
 20
0.000000
 30
0.000000
 40
0.000000
 41
0.000000
 70
1
  0
VERTEX
  8
21
 10
0.580000
 20
1.943000
 30
0.000000
  0
VERTEX
  8
21
 10
0.420000
 20
1.943000
 30
0.000000
 42
1.000000
  0
VERTEX
  8
21
 10
0.420000
 20
1.937000
 30
0.000000
  0
VERTEX
  8
21
 10
0.580000
 20
1.937000
 30
0.000000
 42
1.000000
  0
SEQEND
  8
0
  0
INSERT
  8
21
  2
RECT
 10
0.565000
 20
1.900000
 30
0.000000
 41
0.020000
 42
0.080000
 43
1.000000
 50
180.000000
  0
INSERT
  8
21
  2
RECT
 10
0.372500
 20
1.900000
 30
0.000000
 41
0.075000
 42
0.020000
 43
1.000000
 50
180.000000
  0
INSERT
  8
21
  2
RECT
 10
0.627500
 20
1.900000
 30
0.000000
 41
0.075000
 42
0.020000
 43
1.000000
 50
180.000000
  0
POLYLINE
  8
21
 66
1
 10
0.000000
 20
0.000000
 30
0.000000
 40
0.000000
 41
0.000000
 70
1
  0
VERTEX
  8
21
 10
1.925000
 20
1.903000
 30
0.000000
  0
VERTEX
  8
21
 10
1.900000
 20
1.903000
 30
0.000000
 42
1.000000
  0
VERTEX
  8
21
 10
1.900000
 20
1.897000
 30
0.000000
  0
VERTEX
  8
21
 10
1.925000
 20
1.897000
 30
0.000000
 42
1.000000
  0
SEQEND
  8
0
  0
POLYLINE
  8
21
 66
1
 10
0.000000
 20
0.000000
 30
0.000000
 40
0.000000
 41
0.000000
 70
1
  0
VERTEX
  8
21
 10
1.863000
 20
1.875000
 30
0.000000
  0
VERTEX
  8
21
 10
1.863000
 20
1.925000
 30
0.000000
 42
1.000000
  0
VERTEX
  8
21
 10
1.857000
 20
1.925000
 30
0.000000
  0
VERTEX
  8
21
 10
1.857000
 20
1.875000
 30
0.000000
 42
1.000000
  0
SEQEND
  8
0
  0
POLYLINE
  8
21
 66
1
 10
0.000000
 20
0.000000
 30
0.000000
 40
0.000000
 41
0.000000
 70
1
  0
VERTEX
  8
21
 10
1.858410
 20
1.922456
 30
0.000000
  0
VERTEX
  8
21
 10
1.898410
 20
1.897456
 30
0.000000
 42
1.000000
  0
VERTEX
  8
21
 10
1.901590
 20
1.902544
 30
0.000000
  0
VERTEX
  8
21
 10
1.861590
 20
1.927544
 30
0.000000
 42
1.000000
  0
SEQEND
  8
0
  0
POLYLINE
  8
21
 66
1
 10
0.000000
 20
0.000000
 30
0.000000
 40
0.000000
 41
0.000000
 70
1
  0
VERTEX
  8
21
 10
1.900000
 20
1.903000
 30
0.000000
  0
VERTEX
  8
21
 10
1.840000
 20
1.903000
 30
0.000000
 42
1.000000
  0
VERTEX
  8
21
 10
1.840000
 20
1.897000
 30
0.000000
  0
VERTEX
  8
21
 10
1.900000
 20
1.897000
 30
0.000000
 42
1.000000
  0
SEQEND
  8
0
  0
POLYLINE
  8
21
 66
1
 10
0.000000
 20
0.000000
 30
0.000000
 40
0.000000
 41
0.000000
 70
1
  0
VERTEX
  8
21
 10
1.898410
 20
1.902544
 30
0.000000
  0
VERTEX
  8
21
 10
1.858410
 20
1.877544
 30
0.000000
 42
1.000000
  0
VERTEX
  8
21
 10
1.861590
 20
1.872456
 30
0.000000
  0
VERTEX
  8
21
 10
1.901590
 20
1.897456
 30
0.000000
 42
1.000000
  0
SEQEND
  8
0
  0
POLYLINE
  8
21
 66
1
 10
0.000000
 20
0.000000
 30
0.000000
 40
0.000000
 41
0.000000
 70
1
  0
VERTEX
  8
21
 10
1.903000
 20
1.875000
 30
0.000000
  0
VERTEX
  8
21
 10
1.903000
 20
1.900000
 30
0.000000
 42
1.000000
  0
VERTEX
  8
21
 10
1.897000
 20
1.900000
 30
0.000000
  0
VERTEX
  8
21
 10
1.897000
 20
1.875000
 30
0.000000
 42
1.000000
  0
SEQEND
  8
0
  0
POLYLINE
  8
21
 66
1
 10
0.000000
 20
0.000000
 30
0.000000
 40
0.000000
 41
0.000000
 70
1
  0
VERTEX
  8
21
 10
1.903000
 20
1.900000
 30
0.000000
  0
VERTEX
  8
21
 10
1.903000
 20
1.925000
 30
0.000000
 42
1.000000
  0
VERTEX
  8
21
 10
1.897000
 20
1.925000
 30
0.000000
  0
VERTEX
  8
21
 10
1.897000
 20
1.900000
 30
0.000000
 42
1.000000
  0
SEQEND
  8
0
  0
POLYLINE
  8
21
 66
1
 10
0.000000
 20
0.000000
 30
0.000000
 40
0.000000
 41
0.000000
 70
1
  0
VERTEX
  8
21
 10
1.813000
 20
1.870000
 30
0.000000
 42
1.000000
  0
VERTEX
  8
21
 10
1.807000
 20
1.870000
 30
0.000000
 42
0.414214
  0
VERTEX
  8
21
 10
1.820000
 20
1.857000
 30
0.000000
 42
1.000000
  0
VERTEX
  8
21
 10
1.820000
 20
1.863000
 30
0.000000
 42
-0.414214
  0
SEQEND
  8
0
  0
POLYLINE
  8
21
 66
1
 10
0.000000
 20
0.000000
 30
0.000000
 40
0.000000
 41
0.000000
 70
1
  0
VERTEX
  8
21
 10
1.980000
 20
1.863000
 30
0.000000
 42
1.000000
  0
VERTEX
  8
21
 10
1.980000
 20
1.857000
 30
0.000000
 42
0.414214
  0
VERTEX
  8
21
 10
1.993000
 20
1.870000
 30
0.000000
 42
1.000000
  0
VERTEX
  8
21
 10
1.987000
 20
1.870000
 30
0.000000
 42
-0.414214
  0
SEQEND
  8
0
  0
POLYLINE
  8
21
 66
1
 10
0.000000
 20
0.000000
 30
0.000000
 40
0.000000
 41
0.000000
 70
1
  0
VERTEX
  8
21
 10
1.987000
 20
1.930000
 30
0.000000
 42
1.000000
  0
VERTEX
  8
21
 10
1.993000
 20
1.930000
 30
0.000000
 42
0.414214
  0
VERTEX
  8
21
 10
1.980000
 20
1.943000
 30
0.000000
 42
1.000000
  0
VERTEX
  8
21
 10
1.980000
 20
1.937000
 30
0.000000
 42
-0.414214
  0
SEQEND
  8
0
  0
POLYLINE
  8
21
 66
1
 10
0.000000
 20
0.000000
 30
0.000000
 40
0.000000
 41
0.000000
 70
1
  0
VERTEX
  8
21
 10
1.820000
 20
1.937000
 30
0.000000
 42
1.000000
  0
VERTEX
  8
21
 10
1.820000
 20
1.943000
 30
0.000000
 42
0.414214
  0
VERTEX
  8
21
 10
1.807000
 20
1.930000
 30
0.000000
 42
1.000000
  0
VERTEX
  8
21
 10
1.813000
 20
1.930000
 30
0.000000
 42
-0.414214
  0
SEQEND
  8
0
  0
POLYLINE
  8
21
 66
1
 10
0.000000
 20
0.000000
 30
0.000000
 40
0.000000
 41
0.000000
 70
1
  0
VERTEX
  8
21
 10
1.807000
 20
1.930000
 30
0.000000
  0
VERTEX
  8
21
 10
1.807000
 20
1.870000
 30
0.000000
 42
1.000000
  0
VERTEX
  8
21
 10
1.813000
 20
1.870000
 30
0.000000
  0
VERTEX
  8
21
 10
1.813000
 20
1.930000
 30
0.000000
 42
1.000000
  0
SEQEND
  8
0
  0
POLYLINE
  8
21
 66
1
 10
0.000000
 20
0.000000
 30
0.000000
 40
0.000000
 41
0.000000
 70
1
  0
VERTEX
  8
21
 10
1.993000
 20
1.870000
 30
0.000000
  0
VERTEX
  8
21
 10
1.993000
 20
1.930000
 30
0.000000
 42
1.000000
  0
VERTEX
  8
21
 10
1.987000
 20
1.930000
 30
0.000000
  0
VERTEX
  8
21
 10
1.987000
 20
1.870000
 30
0.000000
 42
1.000000
  0
SEQEND
  8
0
  0
POLYLINE
  8
21
 66
1
 10
0.000000
 20
0.000000
 30
0.000000
 40
0.000000
 41
0.000000
 70
1
  0
VERTEX
  8
21
 10
1.980000
 20
1.863000
 30
0.000000
  0
VERTEX
  8
21
 10
1.820000
 20
1.863000
 30
0.000000
 42
1.000000
  0
VERTEX
  8
21
 10
1.820000
 20
1.857000
 30
0.000000
  0
VERTEX
  8
21
 10
1.980000
 20
1.857000
 30
0.000000
 42
1.000000
  0
SEQEND
  8
0
  0
POLYLINE
  8
21
 66
1
 10
0.000000
 20
0.000000
 30
0.000000
 40
0.000000
 41
0.000000
 70
1
  0
VERTEX
  8
21
 10
1.980000
 20
1.943000
 30
0.000000
  0
VERTEX
  8
21
 10
1.820000
 20
1.943000
 30
0.000000
 42
1.000000
  0
VERTEX
  8
21
 10
1.820000
 20
1.937000
 30
0.000000
  0
VERTEX
  8
21
 10
1.980000
 20
1.937000
 30
0.000000
 42
1.000000
  0
SEQEND
  8
0
  0
INSERT
  8
21
  2
RECT
 10
1.965000
 20
1.900000
 30
0.000000
 41
0.020000
 42
0.080000
 43
1.000000
 50
180.000000
  0
INSERT
  8
21
  2
RECT
 10
1.772500
 20
1.900000
 30
0.000000
 41
0.075000
 42
0.020000
 43
1.000000
 50
180.000000
  0
INSERT
  8
21
  2
RECT
 10
2.027500
 20
1.900000
 30
0.000000
 41
0.075000
 42
0.020000
 43
1.000000
 50
180.000000
  0
POLYLINE
  8
21
 66
1
 10
0.000000
 20
0.000000
 30
0.000000
 40
0.000000
 41
0.000000
 70
1
  0
VERTEX
  8
21
 10
2.630000
 20
1.053000
 30
0.000000
  0
VERTEX
  8
21
 10
2.470000
 20
1.053000
 30
0.000000
 42
1.000000
  0
VERTEX
  8
21
 10
2.470000
 20
1.047000
 30
0.000000
  0
VERTEX
  8
21
 10
2.630000
 20
1.047000
 30
0.000000
 42
1.000000
  0
SEQEND
  8
0
  0
POLYLINE
  8
21
 66
1
 10
0.000000
 20
0.000000
 30
0.000000
 40
0.000000
 41
0.000000
 70
1
  0
VERTEX
  8
21
 10
2.633000
 20
1.050000
 30
0.000000
  0
VERTEX
  8
21
 10
2.633000
 20
1.150000
 30
0.000000
 42
1.000000
  0
VERTEX
  8
21
 10
2.627000
 20
1.150000
 30
0.000000
  0
VERTEX
  8
21
 10
2.627000
 20
1.050000
 30
0.000000
 42
1.000000
  0
SEQEND
  8
0
  0
POLYLINE
  8
21
 66
1
 10
0.000000
 20
0.000000
 30
0.000000
 40
0.000000
 41
0.000000
 70
1
  0
VERTEX
  8
21
 10
2.470000
 20
1.147000
 30
0.000000
  0
VERTEX
  8
21
 10
2.630000
 20
1.147000
 30
0.000000
 42
1.000000
  0
VERTEX
  8
21
 10
2.630000
 20
1.153000
 30
0.000000
  0
VERTEX
  8
21
 10
2.470000
 20
1.153000
 30
0.000000
 42
1.000000
  0
SEQEND
  8
0
  0
POLYLINE
  8
21
 66
1
 10
0.000000
 20
0.000000
 30
0.000000
 40
0.000000
 41
0.000000
 70
1
  0
VERTEX
  8
21
 10
2.467000
 20
1.150000
 30
0.000000
  0
VERTEX
  8
21
 10
2.467000
 20
1.050000
 30
0.000000
 42
1.000000
  0
VERTEX
  8
21
 10
2.473000
 20
1.050000
 30
0.000000
  0
VERTEX
  8
21
 10
2.473000
 20
1.150000
 30
0.000000
 42
1.000000
  0
SEQEND
  8
0
  0
POLYLINE
  8
21
 66
1
 10
0.000000
 20
0.000000
 30
0.000000
 40
0.000000
 41
0.000000
 70
1
  0
VERTEX
  8
21
 10
2.525000
 20
1.097000
 30
0.000000
  0
VERTEX
  8
21
 10
2.550000
 20
1.097000
 30
0.000000
 42
1.000000
  0
VERTEX
  8
21
 10
2.550000
 20
1.103000
 30
0.000000
  0
VERTEX
  8
21
 10
2.525000
 20
1.103000
 30
0.000000
 42
1.000000
  0
SEQEND
  8
0
  0
POLYLINE
  8
21
 66
1
 10
0.000000
 20
0.000000
 30
0.000000
 40
0.000000
 41
0.000000
 70
1
  0
VERTEX
  8
21
 10
2.587000
 20
1.125000
 30
0.000000
  0
VERTEX
  8
21
 10
2.587000
 20
1.075000
 30
0.000000
 42
1.000000
  0
VERTEX
  8
21
 10
2.593000
 20
1.075000
 30
0.000000
  0
VERTEX
  8
21
 10
2.593000
 20
1.125000
 30
0.000000
 42
1.000000
  0
SEQEND
  8
0
  0
POLYLINE
  8
21
 66
1
 10
0.000000
 20
0.000000
 30
0.000000
 40
0.000000
 41
0.000000
 70
1
  0
VERTEX
  8
21
 10
2.591590
 20
1.077544
 30
0.000000
  0
VERTEX
  8
21
 10
2.551590
 20
1.102544
 30
0.000000
 42
1.000000
  0
VERTEX
  8
21
 10
2.548410
 20
1.097456
 30
0.000000
  0
VERTEX
  8
21
 10
2.588410
 20
1.072456
 30
0.000000
 42
1.000000
  0
SEQEND
  8
0
  0
POLYLINE
  8
21
 66
1
 10
0.000000
 20
0.000000
 30
0.000000
 40
0.000000
 41
0.000000
 70
1
  0
VERTEX
  8
21
 10
2.550000
 20
1.097000
 30
0.000000
  0
VERTEX
  8
21
 10
2.610000
 20
1.097000
 30
0.000000
 42
1.000000
  0
VERTEX
  8
21
 10
2.610000
 20
1.103000
 30
0.000000
  0
VERTEX
  8
21
 10
2.550000
 20
1.103000
 30
0.000000
 42
1.000000
  0
SEQEND
  8
0
  0
POLYLINE
  8
21
 66
1
 10
0.000000
 20
0.000000
 30
0.000000
 40
0.000000
 41
0.000000
 70
1
  0
VERTEX
  8
21
 10
2.551590
 20
1.097456
 30
0.000000
  0
VERTEX
  8
21
 10
2.591590
 20
1.122456
 30
0.000000
 42
1.000000
  0
VERTEX
  8
21
 10
2.588410
 20
1.127544
 30
0.000000
  0
VERTEX
  8
21
 10
2.548410
 20
1.102544
 30
0.000000
 42
1.000000
  0
SEQEND
  8
0
  0
POLYLINE
  8
21
 66
1
 10
0.000000
 20
0.000000
 30
0.000000
 40
0.000000
 41
0.000000
 70
1
  0
VERTEX
  8
21
 10
2.547000
 20
1.125000
 30
0.000000
  0
VERTEX
  8
21
 10
2.547000
 20
1.100000
 30
0.000000
 42
1.000000
  0
VERTEX
  8
21
 10
2.553000
 20
1.100000
 30
0.000000
  0
VERTEX
  8
21
 10
2.553000
 20
1.125000
 30
0.000000
 42
1.000000
  0
SEQEND
  8
0
  0
POLYLINE
  8
21
 66
1
 10
0.000000
 20
0.000000
 30
0.000000
 40
0.000000
 41
0.000000
 70
1
  0
VERTEX
  8
21
 10
2.547000
 20
1.100000
 30
0.000000
  0
VERTEX
  8
21
 10
2.547000
 20
1.075000
 30
0.000000
 42
1.000000
  0
VERTEX
  8
21
 10
2.553000
 20
1.075000
 30
0.000000
  0
VERTEX
  8
21
 10
2.553000
 20
1.100000
 30
0.000000
 42
1.000000
  0
SEQEND
  8
0
  0
INSERT
  8
21
  2
RECT
 10
2.495000
 20
1.100000
 30
0.000000
 41
0.020000
 42
0.100000
 43
1.000000
 50
0.000000
  0
INSERT
  8
21
  2
RECT
 10
2.667500
 20
1.100000
 30
0.000000
 41
0.075000
 42
0.030000
 43
1.000000
 50
0.000000
  0
INSERT
  8
21
  2
RECT
 10
2.432500
 20
1.100000
 30
0.000000
 41
0.075000
 42
0.030000
 43
1.000000
 50
0.000000
  0
POLYLINE
  8
21
 66
1
 10
0.000000
 20
0.000000
 30
0.000000
 40
0.000000
 41
0.000000
 70
1
  0
VERTEX
  8
21
 10
2.575000
 20
1.903000
 30
0.000000
  0
VERTEX
  8
21
 10
2.550000
 20
1.903000
 30
0.000000
 42
1.000000
  0
VERTEX
  8
21
 10
2.550000
 20
1.897000
 30
0.000000
  0
VERTEX
  8
21
 10
2.575000
 20
1.897000
 30
0.000000
 42
1.000000
  0
SEQEND
  8
0
  0
POLYLINE
  8
21
 66
1
 10
0.000000
 20
0.000000
 30
0.000000
 40
0.000000
 41
0.000000
 70
1
  0
VERTEX
  8
21
 10
2.513000
 20
1.875000
 30
0.000000
  0
VERTEX
  8
21
 10
2.513000
 20
1.925000
 30
0.000000
 42
1.000000
  0
VERTEX
  8
21
 10
2.507000
 20
1.925000
 30
0.000000
  0
VERTEX
  8
21
 10
2.507000
 20
1.875000
 30
0.000000
 42
1.000000
  0
SEQEND
  8
0
  0
POLYLINE
  8
21
 66
1
 10
0.000000
 20
0.000000
 30
0.000000
 40
0.000000
 41
0.000000
 70
1
  0
VERTEX
  8
21
 10
2.508410
 20
1.922456
 30
0.000000
  0
VERTEX
  8
21
 10
2.548410
 20
1.897456
 30
0.000000
 42
1.000000
  0
VERTEX
  8
21
 10
2.551590
 20
1.902544
 30
0.000000
  0
VERTEX
  8
21
 10
2.511590
 20
1.927544
 30
0.000000
 42
1.000000
  0
SEQEND
  8
0
  0
POLYLINE
  8
21
 66
1
 10
0.000000
 20
0.000000
 30
0.000000
 40
0.000000
 41
0.000000
 70
1
  0
VERTEX
  8
21
 10
2.550000
 20
1.903000
 30
0.000000
  0
VERTEX
  8
21
 10
2.490000
 20
1.903000
 30
0.000000
 42
1.000000
  0
VERTEX
  8
21
 10
2.490000
 20
1.897000
 30
0.000000
  0
VERTEX
  8
21
 10
2.550000
 20
1.897000
 30
0.000000
 42
1.000000
  0
SEQEND
  8
0
  0
POLYLINE
  8
21
 66
1
 10
0.000000
 20
0.000000
 30
0.000000
 40
0.000000
 41
0.000000
 70
1
  0
VERTEX
  8
21
 10
2.548410
 20
1.902544
 30
0.000000
  0
VERTEX
  8
21
 10
2.508410
 20
1.877544
 30
0.000000
 42
1.000000
  0
VERTEX
  8
21
 10
2.511590
 20
1.872456
 30
0.000000
  0
VERTEX
  8
21
 10
2.551590
 20
1.897456
 30
0.000000
 42
1.000000
  0
SEQEND
  8
0
  0
POLYLINE
  8
21
 66
1
 10
0.000000
 20
0.000000
 30
0.000000
 40
0.000000
 41
0.000000
 70
1
  0
VERTEX
  8
21
 10
2.553000
 20
1.875000
 30
0.000000
  0
VERTEX
  8
21
 10
2.553000
 20
1.900000
 30
0.000000
 42
1.000000
  0
VERTEX
  8
21
 10
2.547000
 20
1.900000
 30
0.000000
  0
VERTEX
  8
21
 10
2.547000
 20
1.875000
 30
0.000000
 42
1.000000
  0
SEQEND
  8
0
  0
POLYLINE
  8
21
 66
1
 10
0.000000
 20
0.000000
 30
0.000000
 40
0.000000
 41
0.000000
 70
1
  0
VERTEX
  8
21
 10
2.553000
 20
1.900000
 30
0.000000
  0
VERTEX
  8
21
 10
2.553000
 20
1.925000
 30
0.000000
 42
1.000000
  0
VERTEX
  8
21
 10
2.547000
 20
1.925000
 30
0.000000
  0
VERTEX
  8
21
 10
2.547000
 20
1.900000
 30
0.000000
 42
1.000000
  0
SEQEND
  8
0
  0
POLYLINE
  8
21
 66
1
 10
0.000000
 20
0.000000
 30
0.000000
 40
0.000000
 41
0.000000
 70
1
  0
VERTEX
  8
21
 10
2.463000
 20
1.870000
 30
0.000000
 42
1.000000
  0
VERTEX
  8
21
 10
2.457000
 20
1.870000
 30
0.000000
 42
0.414214
  0
VERTEX
  8
21
 10
2.470000
 20
1.857000
 30
0.000000
 42
1.000000
  0
VERTEX
  8
21
 10
2.470000
 20
1.863000
 30
0.000000
 42
-0.414214
  0
SEQEND
  8
0
  0
POLYLINE
  8
21
 66
1
 10
0.000000
 20
0.000000
 30
0.000000
 40
0.000000
 41
0.000000
 70
1
  0
VERTEX
  8
21
 10
2.630000
 20
1.863000
 30
0.000000
 42
1.000000
  0
VERTEX
  8
21
 10
2.630000
 20
1.857000
 30
0.000000
 42
0.414214
  0
VERTEX
  8
21
 10
2.643000
 20
1.870000
 30
0.000000
 42
1.000000
  0
VERTEX
  8
21
 10
2.637000
 20
1.870000
 30
0.000000
 42
-0.414214
  0
SEQEND
  8
0
  0
POLYLINE
  8
21
 66
1
 10
0.000000
 20
0.000000
 30
0.000000
 40
0.000000
 41
0.000000
 70
1
  0
VERTEX
  8
21
 10
2.637000
 20
1.930000
 30
0.000000
 42
1.000000
  0
VERTEX
  8
21
 10
2.643000
 20
1.930000
 30
0.000000
 42
0.414214
  0
VERTEX
  8
21
 10
2.630000
 20
1.943000
 30
0.000000
 42
1.000000
  0
VERTEX
  8
21
 10
2.630000
 20
1.937000
 30
0.000000
 42
-0.414214
  0
SEQEND
  8
0
  0
POLYLINE
  8
21
 66
1
 10
0.000000
 20
0.000000
 30
0.000000
 40
0.000000
 41
0.000000
 70
1
  0
VERTEX
  8
21
 10
2.470000
 20
1.937000
 30
0.000000
 42
1.000000
  0
VERTEX
  8
21
 10
2.470000
 20
1.943000
 30
0.000000
 42
0.414214
  0
VERTEX
  8
21
 10
2.457000
 20
1.930000
 30
0.000000
 42
1.000000
  0
VERTEX
  8
21
 10
2.463000
 20
1.930000
 30
0.000000
 42
-0.414214
  0
SEQEND
  8
0
  0
POLYLINE
  8
21
 66
1
 10
0.000000
 20
0.000000
 30
0.000000
 40
0.000000
 41
0.000000
 70
1
  0
VERTEX
  8
21
 10
2.457000
 20
1.930000
 30
0.000000
  0
VERTEX
  8
21
 10
2.457000
 20
1.870000
 30
0.000000
 42
1.000000
  0
VERTEX
  8
21
 10
2.463000
 20
1.870000
 30
0.000000
  0
VERTEX
  8
21
 10
2.463000
 20
1.930000
 30
0.000000
 42
1.000000
  0
SEQEND
  8
0
  0
POLYLINE
  8
21
 66
1
 10
0.000000
 20
0.000000
 30
0.000000
 40
0.000000
 41
0.000000
 70
1
  0
VERTEX
  8
21
 10
2.643000
 20
1.870000
 30
0.000000
  0
VERTEX
  8
21
 10
2.643000
 20
1.930000
 30
0.000000
 42
1.000000
  0
VERTEX
  8
21
 10
2.637000
 20
1.930000
 30
0.000000
  0
VERTEX
  8
21
 10
2.637000
 20
1.870000
 30
0.000000
 42
1.000000
  0
SEQEND
  8
0
  0
POLYLINE
  8
21
 66
1
 10
0.000000
 20
0.000000
 30
0.000000
 40
0.000000
 41
0.000000
 70
1
  0
VERTEX
  8
21
 10
2.630000
 20
1.863000
 30
0.000000
  0
VERTEX
  8
21
 10
2.470000
 20
1.863000
 30
0.000000
 42
1.000000
  0
VERTEX
  8
21
 10
2.470000
 20
1.857000
 30
0.000000
  0
VERTEX
  8
21
 10
2.630000
 20
1.857000
 30
0.000000
 42
1.000000
  0
SEQEND
  8
0
  0
POLYLINE
  8
21
 66
1
 10
0.000000
 20
0.000000
 30
0.000000
 40
0.000000
 41
0.000000
 70
1
  0
VERTEX
  8
21
 10
2.630000
 20
1.943000
 30
0.000000
  0
VERTEX
  8
21
 10
2.470000
 20
1.943000
 30
0.000000
 42
1.000000
  0
VERTEX
  8
21
 10
2.470000
 20
1.937000
 30
0.000000
  0
VERTEX
  8
21
 10
2.630000
 20
1.937000
 30
0.000000
 42
1.000000
  0
SEQEND
  8
0
  0
INSERT
  8
21
  2
RECT
 10
2.615000
 20
1.900000
 30
0.000000
 41
0.020000
 42
0.080000
 43
1.000000
 50
180.000000
  0
INSERT
  8
21
  2
RECT
 10
2.422500
 20
1.900000
 30
0.000000
 41
0.075000
 42
0.020000
 43
1.000000
 50
180.000000
  0
INSERT
  8
21
  2
RECT
 10
2.677500
 20
1.900000
 30
0.000000
 41
0.075000
 42
0.020000
 43
1.000000
 50
180.000000
  0
POLYLINE
  8
21
 66
1
 10
0.000000
 20
0.000000
 30
0.000000
 40
0.000000
 41
0.000000
 70
1
  0
VERTEX
  8
21
 10
0.378835
 20
3.484630
 30
0.000000
  0
VERTEX
  8
21
 10
0.455512
 20
3.484630
 30
0.000000
 42
1.000000
  0
VERTEX
  8
21
 10
0.455512
 20
3.492630
 30
0.000000
  0
VERTEX
  8
21
 10
0.378835
 20
3.492630
 30
0.000000
 42
1.000000
  0
SEQEND
  8
0
  0
POLYLINE
  8
21
 66
1
 10
0.000000
 20
0.000000
 30
0.000000
 40
0.000000
 41
0.000000
 70
1
  0
VERTEX
  8
21
 10
0.374835
 20
3.921890
 30
0.000000
  0
VERTEX
  8
21
 10
0.374835
 20
3.723228
 30
0.000000
 42
1.000000
  0
VERTEX
  8
21
 10
0.382835
 20
3.723228
 30
0.000000
  0
VERTEX
  8
21
 10
0.382835
 20
3.921890
 30
0.000000
 42
1.000000
  0
SEQEND
  8
0
  0
POLYLINE
  8
21
 66
1
 10
0.000000
 20
0.000000
 30
0.000000
 40
0.000000
 41
0.000000
 70
1
  0
VERTEX
  8
21
 10
0.382835
 20
3.488630
 30
0.000000
  0
VERTEX
  8
21
 10
0.382835
 20
3.538189
 30
0.000000
 42
1.000000
  0
VERTEX
  8
21
 10
0.374835
 20
3.538189
 30
0.000000
  0
VERTEX
  8
21
 10
0.374835
 20
3.488630
 30
0.000000
 42
1.000000
  0
SEQEND
  8
0
  0
POLYLINE
  8
21
 66
1
 10
0.000000
 20
0.000000
 30
0.000000
 40
0.000000
 41
0.000000
 70
1
  0
VERTEX
  8
21
 10
0.717165
 20
3.921890
 30
0.000000
  0
VERTEX
  8
21
 10
0.717165
 20
3.488630
 30
0.000000
 42
1.000000
  0
VERTEX
  8
21
 10
0.725165
 20
3.488630
 30
0.000000
  0
VERTEX
  8
21
 10
0.725165
 20
3.921890
 30
0.000000
 42
1.000000
  0
SEQEND
  8
0
  0
POLYLINE
  8
21
 66
1
 10
0.000000
 20
0.000000
 30
0.000000
 40
0.000000
 41
0.000000
 70
1
  0
VERTEX
  8
21
 10
0.721165
 20
3.492630
 30
0.000000
  0
VERTEX
  8
21
 10
0.644488
 20
3.492630
 30
0.000000
 42
1.000000
  0
VERTEX
  8
21
 10
0.644488
 20
3.484630
 30
0.000000
  0
VERTEX
  8
21
 10
0.721165
 20
3.484630
 30
0.000000
 42
1.000000
  0
SEQEND
  8
0
  0
POLYLINE
  8
21
 66
1
 10
0.000000
 20
0.000000
 30
0.000000
 40
0.000000
 41
0.000000
 70
1
  0
VERTEX
  8
21
 10
0.721165
 20
3.925890
 30
0.000000
  0
VERTEX
  8
21
 10
0.378835
 20
3.925890
 30
0.000000
 42
1.000000
  0
VERTEX
  8
21
 10
0.378835
 20
3.917890
 30
0.000000
  0
VERTEX
  8
21
 10
0.721165
 20
3.917890
 30
0.000000
 42
1.000000
  0
SEQEND
  8
0
  0
POLYLINE
  8
21
 66
1
 10
0.000000
 20
0.000000
 30
0.000000
 40
0.000000
 41
0.000000
 70
1
  0
VERTEX
  8
21
 10
0.302953
 20
0.361354
 30
0.000000
  0
VERTEX
  8
21
 10
0.743898
 20
0.361354
 30
0.000000
 42
1.000000
  0
VERTEX
  8
21
 10
0.743898
 20
0.369354
 30
0.000000
  0
VERTEX
  8
21
 10
0.302953
 20
0.369354
 30
0.000000
 42
1.000000
  0
SEQEND
  8
0
  0
POLYLINE
  8
21
 66
1
 10
0.000000
 20
0.000000
 30
0.000000
 40
0.000000
 41
0.000000
 70
1
  0
VERTEX
  8
21
 10
0.739898
 20
0.365354
 30
0.000000
  0
VERTEX
  8
21
 10
0.739898
 20
0.109449
 30
0.000000
 42
1.000000
  0
VERTEX
  8
21
 10
0.747898
 20
0.109449
 30
0.000000
  0
VERTEX
  8
21
 10
0.747898
 20
0.365354
 30
0.000000
 42
1.000000
  0
SEQEND
  8
0
  0
POLYLINE
  8
21
 66
1
 10
0.000000
 20
0.000000
 30
0.000000
 40
0.000000
 41
0.000000
 70
1
  0
VERTEX
  8
21
 10
0.739898
 20
0.109449
 30
0.000000
  0
VERTEX
  8
21
 10
0.739898
 20
0.070079
 30
0.000000
 42
1.000000
  0
VERTEX
  8
21
 10
0.747898
 20
0.070079
 30
0.000000
  0
VERTEX
  8
21
 10
0.747898
 20
0.109449
 30
0.000000
 42
1.000000
  0
SEQEND
  8
0
  0
POLYLINE
  8
21
 66
1
 10
0.000000
 20
0.000000
 30
0.000000
 40
0.000000
 41
0.000000
 70
1
  0
VERTEX
  8
21
 10
0.743898
 20
0.074079
 30
0.000000
  0
VERTEX
  8
21
 10
0.302953
 20
0.074079
 30
0.000000
 42
1.000000
  0
VERTEX
  8
21
 10
0.302953
 20
0.066079
 30
0.000000
  0
VERTEX
  8
21
 10
0.743898
 20
0.066079
 30
0.000000
 42
1.000000
  0
SEQEND
  8
0
  0
POLYLINE
  8
21
 66
1
 10
0.000000
 20
0.000000
 30
0.000000
 40
0.000000
 41
0.000000
 70
1
  0
VERTEX
  8
21
 10
0.306953
 20
0.070079
 30
0.000000
  0
VERTEX
  8
21
 10
0.306953
 20
0.109449
 30
0.000000
 42
1.000000
  0
VERTEX
  8
21
 10
0.298953
 20
0.109449
 30
0.000000
  0
VERTEX
  8
21
 10
0.298953
 20
0.070079
 30
0.000000
 42
1.000000
  0
SEQEND
  8
0
  0
POLYLINE
  8
21
 66
1
 10
0.000000
 20
0.000000
 30
0.000000
 40
0.000000
 41
0.000000
 70
1
  0
VERTEX
  8
21
 10
0.306953
 20
0.109449
 30
0.000000
  0
VERTEX
  8
21
 10
0.306953
 20
0.365354
 30
0.000000
 42
1.000000
  0
VERTEX
  8
21
 10
0.298953
 20
0.365354
 30
0.000000
  0
VERTEX
  8
21
 10
0.298953
 20
0.109449
 30
0.000000
 42
1.000000
  0
SEQEND
  8
0
  0
POLYLINE
  8
21
 66
1
 10
0.000000
 20
0.000000
 30
0.000000
 40
0.000000
 41
0.000000
 70
1
  0
VERTEX
  8
21
 10
0.743898
 20
0.113449
 30
0.000000
  0
VERTEX
  8
21
 10
0.302953
 20
0.113449
 30
0.000000
 42
1.000000
  0
VERTEX
  8
21
 10
0.302953
 20
0.105449
 30
0.000000
  0
VERTEX
  8
21
 10
0.743898
 20
0.105449
 30
0.000000
 42
1.000000
  0
SEQEND
  8
0
  0
POLYLINE
  8
21
 66
1
 10
0.000000
 20
0.000000
 30
0.000000
 40
0.000000
 41
0.000000
 70
1
  0
VERTEX
  8
21
 10
0.977953
 20
0.361354
 30
0.000000
  0
VERTEX
  8
21
 10
1.418898
 20
0.361354
 30
0.000000
 42
1.000000
  0
VERTEX
  8
21
 10
1.418898
 20
0.369354
 30
0.000000
  0
VERTEX
  8
21
 10
0.977953
 20
0.369354
 30
0.000000
 42
1.000000
  0
SEQEND
  8
0
  0
POLYLINE
  8
21
 66
1
 10
0.000000
 20
0.000000
 30
0.000000
 40
0.000000
 41
0.000000
 70
1
  0
VERTEX
  8
21
 10
1.414898
 20
0.365354
 30
0.000000
  0
VERTEX
  8
21
 10
1.414898
 20
0.109449
 30
0.000000
 42
1.000000
  0
VERTEX
  8
21
 10
1.422898
 20
0.109449
 30
0.000000
  0
VERTEX
  8
21
 10
1.422898
 20
0.365354
 30
0.000000
 42
1.000000
  0
SEQEND
  8
0
  0
POLYLINE
  8
21
 66
1
 10
0.000000
 20
0.000000
 30
0.000000
 40
0.000000
 41
0.000000
 70
1
  0
VERTEX
  8
21
 10
1.414898
 20
0.109449
 30
0.000000
  0
VERTEX
  8
21
 10
1.414898
 20
0.070079
 30
0.000000
 42
1.000000
  0
VERTEX
  8
21
 10
1.422898
 20
0.070079
 30
0.000000
  0
VERTEX
  8
21
 10
1.422898
 20
0.109449
 30
0.000000
 42
1.000000
  0
SEQEND
  8
0
  0
POLYLINE
  8
21
 66
1
 10
0.000000
 20
0.000000
 30
0.000000
 40
0.000000
 41
0.000000
 70
1
  0
VERTEX
  8
21
 10
1.418898
 20
0.074079
 30
0.000000
  0
VERTEX
  8
21
 10
0.977953
 20
0.074079
 30
0.000000
 42
1.000000
  0
VERTEX
  8
21
 10
0.977953
 20
0.066079
 30
0.000000
  0
VERTEX
  8
21
 10
1.418898
 20
0.066079
 30
0.000000
 42
1.000000
  0
SEQEND
  8
0
  0
POLYLINE
  8
21
 66
1
 10
0.000000
 20
0.000000
 30
0.000000
 40
0.000000
 41
0.000000
 70
1
  0
VERTEX
  8
21
 10
0.981953
 20
0.070079
 30
0.000000
  0
VERTEX
  8
21
 10
0.981953
 20
0.109449
 30
0.000000
 42
1.000000
  0
VERTEX
  8
21
 10
0.973953
 20
0.109449
 30
0.000000
  0
VERTEX
  8
21
 10
0.973953
 20
0.070079
 30
0.000000
 42
1.000000
  0
SEQEND
  8
0
  0
POLYLINE
  8
21
 66
1
 10
0.000000
 20
0.000000
 30
0.000000
 40
0.000000
 41
0.000000
 70
1
  0
VERTEX
  8
21
 10
0.981953
 20
0.109449
 30
0.000000
  0
VERTEX
  8
21
 10
0.981953
 20
0.365354
 30
0.000000
 42
1.000000
  0
VERTEX
  8
21
 10
0.973953
 20
0.365354
 30
0.000000
  0
VERTEX
  8
21
 10
0.973953
 20
0.109449
 30
0.000000
 42
1.000000
  0
SEQEND
  8
0
  0
POLYLINE
  8
21
 66
1
 10
0.000000
 20
0.000000
 30
0.000000
 40
0.000000
 41
0.000000
 70
1
  0
VERTEX
  8
21
 10
1.418898
 20
0.113449
 30
0.000000
  0
VERTEX
  8
21
 10
0.977953
 20
0.113449
 30
0.000000
 42
1.000000
  0
VERTEX
  8
21
 10
0.977953
 20
0.105449
 30
0.000000
  0
VERTEX
  8
21
 10
1.418898
 20
0.105449
 30
0.000000
 42
1.000000
  0
SEQEND
  8
0
  0
POLYLINE
  8
21
 66
1
 10
0.000000
 20
0.000000
 30
0.000000
 40
0.000000
 41
0.000000
 70
1
  0
VERTEX
  8
21
 10
1.677953
 20
0.361354
 30
0.000000
  0
VERTEX
  8
21
 10
2.118898
 20
0.361354
 30
0.000000
 42
1.000000
  0
VERTEX
  8
21
 10
2.118898
 20
0.369354
 30
0.000000
  0
VERTEX
  8
21
 10
1.677953
 20
0.369354
 30
0.000000
 42
1.000000
  0
SEQEND
  8
0
  0
POLYLINE
  8
21
 66
1
 10
0.000000
 20
0.000000
 30
0.000000
 40
0.000000
 41
0.000000
 70
1
  0
VERTEX
  8
21
 10
2.114898
 20
0.365354
 30
0.000000
  0
VERTEX
  8
21
 10
2.114898
 20
0.109449
 30
0.000000
 42
1.000000
  0
VERTEX
  8
21
 10
2.122898
 20
0.109449
 30
0.000000
  0
VERTEX
  8
21
 10
2.122898
 20
0.365354
 30
0.000000
 42
1.000000
  0
SEQEND
  8
0
  0
POLYLINE
  8
21
 66
1
 10
0.000000
 20
0.000000
 30
0.000000
 40
0.000000
 41
0.000000
 70
1
  0
VERTEX
  8
21
 10
2.114898
 20
0.109449
 30
0.000000
  0
VERTEX
  8
21
 10
2.114898
 20
0.070079
 30
0.000000
 42
1.000000
  0
VERTEX
  8
21
 10
2.122898
 20
0.070079
 30
0.000000
  0
VERTEX
  8
21
 10
2.122898
 20
0.109449
 30
0.000000
 42
1.000000
  0
SEQEND
  8
0
  0
POLYLINE
  8
21
 66
1
 10
0.000000
 20
0.000000
 30
0.000000
 40
0.000000
 41
0.000000
 70
1
  0
VERTEX
  8
21
 10
2.118898
 20
0.074079
 30
0.000000
  0
VERTEX
  8
21
 10
1.677953
 20
0.074079
 30
0.000000
 42
1.000000
  0
VERTEX
  8
21
 10
1.677953
 20
0.066079
 30
0.000000
  0
VERTEX
  8
21
 10
2.118898
 20
0.066079
 30
0.000000
 42
1.000000
  0
SEQEND
  8
0
  0
POLYLINE
  8
21
 66
1
 10
0.000000
 20
0.000000
 30
0.000000
 40
0.000000
 41
0.000000
 70
1
  0
VERTEX
  8
21
 10
1.681953
 20
0.070079
 30
0.000000
  0
VERTEX
  8
21
 10
1.681953
 20
0.109449
 30
0.000000
 42
1.000000
  0
VERTEX
  8
21
 10
1.673953
 20
0.109449
 30
0.000000
  0
VERTEX
  8
21
 10
1.673953
 20
0.070079
 30
0.000000
 42
1.000000
  0
SEQEND
  8
0
  0
POLYLINE
  8
21
 66
1
 10
0.000000
 20
0.000000
 30
0.000000
 40
0.000000
 41
0.000000
 70
1
  0
VERTEX
  8
21
 10
1.681953
 20
0.109449
 30
0.000000
  0
VERTEX
  8
21
 10
1.681953
 20
0.365354
 30
0.000000
 42
1.000000
  0
VERTEX
  8
21
 10
1.673953
 20
0.365354
 30
0.000000
  0
VERTEX
  8
21
 10
1.673953
 20
0.109449
 30
0.000000
 42
1.000000
  0
SEQEND
  8
0
  0
POLYLINE
  8
21
 66
1
 10
0.000000
 20
0.000000
 30
0.000000
 40
0.000000
 41
0.000000
 70
1
  0
VERTEX
  8
21
 10
2.118898
 20
0.113449
 30
0.000000
  0
VERTEX
  8
21
 10
1.677953
 20
0.113449
 30
0.000000
 42
1.000000
  0
VERTEX
  8
21
 10
1.677953
 20
0.105449
 30
0.000000
  0
VERTEX
  8
21
 10
2.118898
 20
0.105449
 30
0.000000
 42
1.000000
  0
SEQEND
  8
0
  0
POLYLINE
  8
21
 66
1
 10
0.000000
 20
0.000000
 30
0.000000
 40
0.000000
 41
0.000000
 70
1
  0
VERTEX
  8
21
 10
2.327953
 20
0.361354
 30
0.000000
  0
VERTEX
  8
21
 10
2.768898
 20
0.361354
 30
0.000000
 42
1.000000
  0
VERTEX
  8
21
 10
2.768898
 20
0.369354
 30
0.000000
  0
VERTEX
  8
21
 10
2.327953
 20
0.369354
 30
0.000000
 42
1.000000
  0
SEQEND
  8
0
  0
POLYLINE
  8
21
 66
1
 10
0.000000
 20
0.000000
 30
0.000000
 40
0.000000
 41
0.000000
 70
1
  0
VERTEX
  8
21
 10
2.764898
 20
0.365354
 30
0.000000
  0
VERTEX
  8
21
 10
2.764898
 20
0.109449
 30
0.000000
 42
1.000000
  0
VERTEX
  8
21
 10
2.772898
 20
0.109449
 30
0.000000
  0
VERTEX
  8
21
 10
2.772898
 20
0.365354
 30
0.000000
 42
1.000000
  0
SEQEND
  8
0
  0
POLYLINE
  8
21
 66
1
 10
0.000000
 20
0.000000
 30
0.000000
 40
0.000000
 41
0.000000
 70
1
  0
VERTEX
  8
21
 10
2.764898
 20
0.109449
 30
0.000000
  0
VERTEX
  8
21
 10
2.764898
 20
0.070079
 30
0.000000
 42
1.000000
  0
VERTEX
  8
21
 10
2.772898
 20
0.070079
 30
0.000000
  0
VERTEX
  8
21
 10
2.772898
 20
0.109449
 30
0.000000
 42
1.000000
  0
SEQEND
  8
0
  0
POLYLINE
  8
21
 66
1
 10
0.000000
 20
0.000000
 30
0.000000
 40
0.000000
 41
0.000000
 70
1
  0
VERTEX
  8
21
 10
2.768898
 20
0.074079
 30
0.000000
  0
VERTEX
  8
21
 10
2.327953
 20
0.074079
 30
0.000000
 42
1.000000
  0
VERTEX
  8
21
 10
2.327953
 20
0.066079
 30
0.000000
  0
VERTEX
  8
21
 10
2.768898
 20
0.066079
 30
0.000000
 42
1.000000
  0
SEQEND
  8
0
  0
POLYLINE
  8
21
 66
1
 10
0.000000
 20
0.000000
 30
0.000000
 40
0.000000
 41
0.000000
 70
1
  0
VERTEX
  8
21
 10
2.331953
 20
0.070079
 30
0.000000
  0
VERTEX
  8
21
 10
2.331953
 20
0.109449
 30
0.000000
 42
1.000000
  0
VERTEX
  8
21
 10
2.323953
 20
0.109449
 30
0.000000
  0
VERTEX
  8
21
 10
2.323953
 20
0.070079
 30
0.000000
 42
1.000000
  0
SEQEND
  8
0
  0
POLYLINE
  8
21
 66
1
 10
0.000000
 20
0.000000
 30
0.000000
 40
0.000000
 41
0.000000
 70
1
  0
VERTEX
  8
21
 10
2.331953
 20
0.109449
 30
0.000000
  0
VERTEX
  8
21
 10
2.331953
 20
0.365354
 30
0.000000
 42
1.000000
  0
VERTEX
  8
21
 10
2.323953
 20
0.365354
 30
0.000000
  0
VERTEX
  8
21
 10
2.323953
 20
0.109449
 30
0.000000
 42
1.000000
  0
SEQEND
  8
0
  0
POLYLINE
  8
21
 66
1
 10
0.000000
 20
0.000000
 30
0.000000
 40
0.000000
 41
0.000000
 70
1
  0
VERTEX
  8
21
 10
2.768898
 20
0.113449
 30
0.000000
  0
VERTEX
  8
21
 10
2.327953
 20
0.113449
 30
0.000000
 42
1.000000
  0
VERTEX
  8
21
 10
2.327953
 20
0.105449
 30
0.000000
  0
VERTEX
  8
21
 10
2.768898
 20
0.105449
 30
0.000000
 42
1.000000
  0
SEQEND
  8
0
  0
POLYLINE
  8
21
 66
1
 10
0.000000
 20
0.000000
 30
0.000000
 40
0.000000
 41
0.000000
 70
1
  0
VERTEX
  8
21
 10
0.604000
 20
0.450000
 30
0.000000
  0
VERTEX
  8
21
 10
0.604000
 20
0.600000
 30
0.000000
 42
1.000000
  0
VERTEX
  8
21
 10
0.596000
 20
0.600000
 30
0.000000
  0
VERTEX
  8
21
 10
0.596000
 20
0.450000
 30
0.000000
 42
1.000000
  0
SEQEND
  8
0
  0
POLYLINE
  8
21
 66
1
 10
0.000000
 20
0.000000
 30
0.000000
 40
0.000000
 41
0.000000
 70
1
  0
VERTEX
  8
21
 10
0.596000
 20
0.597000
 30
0.000000
 42
1.000000
  0
VERTEX
  8
21
 10
0.604000
 20
0.603000
 30
0.000000
 42
3.000000
  0
VERTEX
  8
21
 10
0.604000
 20
0.447000
 30
0.000000
 42
1.000000
  0
VERTEX
  8
21
 10
0.596000
 20
0.453000
 30
0.000000
 42
-3.000000
  0
SEQEND
  8
0
  0
CIRCLE
  8
21
 10
0.500000
 20
0.525000
 30
0.000000
 40
0.097000
  0
CIRCLE
  8
21
 10
0.500000
 20
0.525000
 30
0.000000
 40
0.103000
  0
POLYLINE
  8
21
 66
1
 10
0.000000
 20
0.000000
 30
0.000000
 40
0.000000
 41
0.000000
 70
1
  0
VERTEX
  8
21
 10
1.304000
 20
0.450000
 30
0.000000
  0
VERTEX
  8
21
 10
1.304000
 20
0.600000
 30
0.000000
 42
1.000000
  0
VERTEX
  8
21
 10
1.296000
 20
0.600000
 30
0.000000
  0
VERTEX
  8
21
 10
1.296000
 20
0.450000
 30
0.000000
 42
1.000000
  0
SEQEND
  8
0
  0
POLYLINE
  8
21
 66
1
 10
0.000000
 20
0.000000
 30
0.000000
 40
0.000000
 41
0.000000
 70
1
  0
VERTEX
  8
21
 10
1.296000
 20
0.597000
 30
0.000000
 42
1.000000
  0
VERTEX
  8
21
 10
1.304000
 20
0.603000
 30
0.000000
 42
3.000000
  0
VERTEX
  8
21
 10
1.304000
 20
0.447000
 30
0.000000
 42
1.000000
  0
VERTEX
  8
21
 10
1.296000
 20
0.453000
 30
0.000000
 42
-3.000000
  0
SEQEND
  8
0
  0
CIRCLE
  8
21
 10
1.200000
 20
0.525000
 30
0.000000
 40
0.097000
  0
CIRCLE
  8
21
 10
1.200000
 20
0.525000
 30
0.000000
 40
0.103000
  0
POLYLINE
  8
21
 66
1
 10
0.000000
 20
0.000000
 30
0.000000
 40
0.000000
 41
0.000000
 70
1
  0
VERTEX
  8
21
 10
2.004000
 20
0.450000
 30
0.000000
  0
VERTEX
  8
21
 10
2.004000
 20
0.600000
 30
0.000000
 42
1.000000
  0
VERTEX
  8
21
 10
1.996000
 20
0.600000
 30
0.000000
  0
VERTEX
  8
21
 10
1.996000
 20
0.450000
 30
0.000000
 42
1.000000
  0
SEQEND
  8
0
  0
POLYLINE
  8
21
 66
1
 10
0.000000
 20
0.000000
 30
0.000000
 40
0.000000
 41
0.000000
 70
1
  0
VERTEX
  8
21
 10
1.996000
 20
0.597000
 30
0.000000
 42
1.000000
  0
VERTEX
  8
21
 10
2.004000
 20
0.603000
 30
0.000000
 42
3.000000
  0
VERTEX
  8
21
 10
2.004000
 20
0.447000
 30
0.000000
 42
1.000000
  0
VERTEX
  8
21
 10
1.996000
 20
0.453000
 30
0.000000
 42
-3.000000
  0
SEQEND
  8
0
  0
CIRCLE
  8
21
 10
1.900000
 20
0.525000
 30
0.000000
 40
0.097000
  0
CIRCLE
  8
21
 10
1.900000
 20
0.525000
 30
0.000000
 40
0.103000
  0
POLYLINE
  8
21
 66
1
 10
0.000000
 20
0.000000
 30
0.000000
 40
0.000000
 41
0.000000
 70
1
  0
VERTEX
  8
21
 10
2.654000
 20
0.450000
 30
0.000000
  0
VERTEX
  8
21
 10
2.654000
 20
0.600000
 30
0.000000
 42
1.000000
  0
VERTEX
  8
21
 10
2.646000
 20
0.600000
 30
0.000000
  0
VERTEX
  8
21
 10
2.646000
 20
0.450000
 30
0.000000
 42
1.000000
  0
SEQEND
  8
0
  0
POLYLINE
  8
21
 66
1
 10
0.000000
 20
0.000000
 30
0.000000
 40
0.000000
 41
0.000000
 70
1
  0
VERTEX
  8
21
 10
2.646000
 20
0.597000
 30
0.000000
 42
1.000000
  0
VERTEX
  8
21
 10
2.654000
 20
0.603000
 30
0.000000
 42
3.000000
  0
VERTEX
  8
21
 10
2.654000
 20
0.447000
 30
0.000000
 42
1.000000
  0
VERTEX
  8
21
 10
2.646000
 20
0.453000
 30
0.000000
 42
-3.000000
  0
SEQEND
  8
0
  0
CIRCLE
  8
21
 10
2.550000
 20
0.525000
 30
0.000000
 40
0.097000
  0
CIRCLE
  8
21
 10
2.550000
 20
0.525000
 30
0.000000
 40
0.103000
  0
POLYLINE
  8
21
 66
1
 10
0.000000
 20
0.000000
 30
0.000000
 40
0.000000
 41
0.000000
 70
1
  0
VERTEX
  8
21
 10
1.750000
 20
3.654000
 30
0.000000
  0
VERTEX
  8
21
 10
1.600000
 20
3.654000
 30
0.000000
 42
1.000000
  0
VERTEX
  8
21
 10
1.600000
 20
3.646000
 30
0.000000
  0
VERTEX
  8
21
 10
1.750000
 20
3.646000
 30
0.000000
 42
1.000000
  0
SEQEND
  8
0
  0
POLYLINE
  8
21
 66
1
 10
0.000000
 20
0.000000
 30
0.000000
 40
0.000000
 41
0.000000
 70
1
  0
VERTEX
  8
21
 10
1.603000
 20
3.646000
 30
0.000000
 42
1.000000
  0
VERTEX
  8
21
 10
1.597000
 20
3.654000
 30
0.000000
 42
3.000000
  0
VERTEX
  8
21
 10
1.753000
 20
3.654000
 30
0.000000
 42
1.000000
  0
VERTEX
  8
21
 10
1.747000
 20
3.646000
 30
0.000000
 42
-3.000000
  0
SEQEND
  8
0
  0
CIRCLE
  8
21
 10
1.675000
 20
3.550000
 30
0.000000
 40
0.097000
  0
CIRCLE
  8
21
 10
1.675000
 20
3.550000
 30
0.000000
 40
0.103000
  0
POLYLINE
  8
21
 66
1
 10
0.000000
 20
0.000000
 30
0.000000
 40
0.000000
 41
0.000000
 70
1
  0
VERTEX
  8
21
 10
1.100000
 20
1.432000
 30
0.000000
  0
VERTEX
  8
21
 10
1.300000
 20
1.432000
 30
0.000000
 42
1.000000
  0
VERTEX
  8
21
 10
1.300000
 20
1.438000
 30
0.000000
  0
VERTEX
  8
21
 10
1.100000
 20
1.438000
 30
0.000000
 42
1.000000
  0
SEQEND
  8
0
  0
POLYLINE
  8
21
 66
1
 10
0.000000
 20
0.000000
 30
0.000000
 40
0.000000
 41
0.000000
 70
1
  0
VERTEX
  8
21
 10
1.300000
 20
1.668000
 30
0.000000
  0
VERTEX
  8
21
 10
1.100000
 20
1.668000
 30
0.000000
 42
1.000000
  0
VERTEX
  8
21
 10
1.100000
 20
1.662000
 30
0.000000
  0
VERTEX
  8
21
 10
1.300000
 20
1.662000
 30
0.000000
 42
1.000000
  0
SEQEND
  8
0
  0
POLYLINE
  8
21
 66
1
 10
0.000000
 20
0.000000
 30
0.000000
 40
0.000000
 41
0.000000
 70
1
  0
VERTEX
  8
21
 10
1.103000
 20
1.435000
 30
0.000000
  0
VERTEX
  8
21
 10
1.103000
 20
1.665000
 30
0.000000
 42
1.000000
  0
VERTEX
  8
21
 10
1.097000
 20
1.665000
 30
0.000000
  0
VERTEX
  8
21
 10
1.097000
 20
1.435000
 30
0.000000
 42
1.000000
  0
SEQEND
  8
0
  0
POLYLINE
  8
21
 66
1
 10
0.000000
 20
0.000000
 30
0.000000
 40
0.000000
 41
0.000000
 70
1
  0
VERTEX
  8
21
 10
1.303000
 20
1.435000
 30
0.000000
  0
VERTEX
  8
21
 10
1.303000
 20
1.510000
 30
0.000000
 42
1.000000
  0
VERTEX
  8
21
 10
1.297000
 20
1.510000
 30
0.000000
  0
VERTEX
  8
21
 10
1.297000
 20
1.435000
 30
0.000000
 42
1.000000
  0
SEQEND
  8
0
  0
POLYLINE
  8
21
 66
1
 10
0.000000
 20
0.000000
 30
0.000000
 40
0.000000
 41
0.000000
 70
1
  0
VERTEX
  8
21
 10
1.297000
 20
1.665000
 30
0.000000
  0
VERTEX
  8
21
 10
1.297000
 20
1.590000
 30
0.000000
 42
1.000000
  0
VERTEX
  8
21
 10
1.303000
 20
1.590000
 30
0.000000
  0
VERTEX
  8
21
 10
1.303000
 20
1.665000
 30
0.000000
 42
1.000000
  0
SEQEND
  8
0
  0
POLYLINE
  8
21
 66
1
 10
0.000000
 20
0.000000
 30
0.000000
 40
0.000000
 41
0.000000
 70
1
  0
VERTEX
  8
21
 10
1.300000
 20
1.587000
 30
0.000000
 42
1.000000
  0
VERTEX
  8
21
 10
1.300000
 20
1.593000
 30
0.000000
 42
1.000000
  0
VERTEX
  8
21
 10
1.300000
 20
1.507000
 30
0.000000
 42
1.000000
  0
VERTEX
  8
21
 10
1.300000
 20
1.513000
 30
0.000000
 42
-1.000000
  0
SEQEND
  8
0
  0
POLYLINE
  8
21
 66
1
 10
0.000000
 20
0.000000
 30
0.000000
 40
0.000000
 41
0.000000
 70
1
  0
VERTEX
  8
21
 10
0.400000
 20
1.432000
 30
0.000000
  0
VERTEX
  8
21
 10
0.600000
 20
1.432000
 30
0.000000
 42
1.000000
  0
VERTEX
  8
21
 10
0.600000
 20
1.438000
 30
0.000000
  0
VERTEX
  8
21
 10
0.400000
 20
1.438000
 30
0.000000
 42
1.000000
  0
SEQEND
  8
0
  0
POLYLINE
  8
21
 66
1
 10
0.000000
 20
0.000000
 30
0.000000
 40
0.000000
 41
0.000000
 70
1
  0
VERTEX
  8
21
 10
0.600000
 20
1.668000
 30
0.000000
  0
VERTEX
  8
21
 10
0.400000
 20
1.668000
 30
0.000000
 42
1.000000
  0
VERTEX
  8
21
 10
0.400000
 20
1.662000
 30
0.000000
  0
VERTEX
  8
21
 10
0.600000
 20
1.662000
 30
0.000000
 42
1.000000
  0
SEQEND
  8
0
  0
POLYLINE
  8
21
 66
1
 10
0.000000
 20
0.000000
 30
0.000000
 40
0.000000
 41
0.000000
 70
1
  0
VERTEX
  8
21
 10
0.403000
 20
1.435000
 30
0.000000
  0
VERTEX
  8
21
 10
0.403000
 20
1.665000
 30
0.000000
 42
1.000000
  0
VERTEX
  8
21
 10
0.397000
 20
1.665000
 30
0.000000
  0
VERTEX
  8
21
 10
0.397000
 20
1.435000
 30
0.000000
 42
1.000000
  0
SEQEND
  8
0
  0
POLYLINE
  8
21
 66
1
 10
0.000000
 20
0.000000
 30
0.000000
 40
0.000000
 41
0.000000
 70
1
  0
VERTEX
  8
21
 10
0.603000
 20
1.435000
 30
0.000000
  0
VERTEX
  8
21
 10
0.603000
 20
1.510000
 30
0.000000
 42
1.000000
  0
VERTEX
  8
21
 10
0.597000
 20
1.510000
 30
0.000000
  0
VERTEX
  8
21
 10
0.597000
 20
1.435000
 30
0.000000
 42
1.000000
  0
SEQEND
  8
0
  0
POLYLINE
  8
21
 66
1
 10
0.000000
 20
0.000000
 30
0.000000
 40
0.000000
 41
0.000000
 70
1
  0
VERTEX
  8
21
 10
0.597000
 20
1.665000
 30
0.000000
  0
VERTEX
  8
21
 10
0.597000
 20
1.590000
 30
0.000000
 42
1.000000
  0
VERTEX
  8
21
 10
0.603000
 20
1.590000
 30
0.000000
  0
VERTEX
  8
21
 10
0.603000
 20
1.665000
 30
0.000000
 42
1.000000
  0
SEQEND
  8
0
  0
POLYLINE
  8
21
 66
1
 10
0.000000
 20
0.000000
 30
0.000000
 40
0.000000
 41
0.000000
 70
1
  0
VERTEX
  8
21
 10
0.600000
 20
1.587000
 30
0.000000
 42
1.000000
  0
VERTEX
  8
21
 10
0.600000
 20
1.593000
 30
0.000000
 42
1.000000
  0
VERTEX
  8
21
 10
0.600000
 20
1.507000
 30
0.000000
 42
1.000000
  0
VERTEX
  8
21
 10
0.600000
 20
1.513000
 30
0.000000
 42
-1.000000
  0
SEQEND
  8
0
  0
POLYLINE
  8
21
 66
1
 10
0.000000
 20
0.000000
 30
0.000000
 40
0.000000
 41
0.000000
 70
1
  0
VERTEX
  8
21
 10
1.800000
 20
1.432000
 30
0.000000
  0
VERTEX
  8
21
 10
2.000000
 20
1.432000
 30
0.000000
 42
1.000000
  0
VERTEX
  8
21
 10
2.000000
 20
1.438000
 30
0.000000
  0
VERTEX
  8
21
 10
1.800000
 20
1.438000
 30
0.000000
 42
1.000000
  0
SEQEND
  8
0
  0
POLYLINE
  8
21
 66
1
 10
0.000000
 20
0.000000
 30
0.000000
 40
0.000000
 41
0.000000
 70
1
  0
VERTEX
  8
21
 10
2.000000
 20
1.668000
 30
0.000000
  0
VERTEX
  8
21
 10
1.800000
 20
1.668000
 30
0.000000
 42
1.000000
  0
VERTEX
  8
21
 10
1.800000
 20
1.662000
 30
0.000000
  0
VERTEX
  8
21
 10
2.000000
 20
1.662000
 30
0.000000
 42
1.000000
  0
SEQEND
  8
0
  0
POLYLINE
  8
21
 66
1
 10
0.000000
 20
0.000000
 30
0.000000
 40
0.000000
 41
0.000000
 70
1
  0
VERTEX
  8
21
 10
1.803000
 20
1.435000
 30
0.000000
  0
VERTEX
  8
21
 10
1.803000
 20
1.665000
 30
0.000000
 42
1.000000
  0
VERTEX
  8
21
 10
1.797000
 20
1.665000
 30
0.000000
  0
VERTEX
  8
21
 10
1.797000
 20
1.435000
 30
0.000000
 42
1.000000
  0
SEQEND
  8
0
  0
POLYLINE
  8
21
 66
1
 10
0.000000
 20
0.000000
 30
0.000000
 40
0.000000
 41
0.000000
 70
1
  0
VERTEX
  8
21
 10
2.003000
 20
1.435000
 30
0.000000
  0
VERTEX
  8
21
 10
2.003000
 20
1.510000
 30
0.000000
 42
1.000000
  0
VERTEX
  8
21
 10
1.997000
 20
1.510000
 30
0.000000
  0
VERTEX
  8
21
 10
1.997000
 20
1.435000
 30
0.000000
 42
1.000000
  0
SEQEND
  8
0
  0
POLYLINE
  8
21
 66
1
 10
0.000000
 20
0.000000
 30
0.000000
 40
0.000000
 41
0.000000
 70
1
  0
VERTEX
  8
21
 10
1.997000
 20
1.665000
 30
0.000000
  0
VERTEX
  8
21
 10
1.997000
 20
1.590000
 30
0.000000
 42
1.000000
  0
VERTEX
  8
21
 10
2.003000
 20
1.590000
 30
0.000000
  0
VERTEX
  8
21
 10
2.003000
 20
1.665000
 30
0.000000
 42
1.000000
  0
SEQEND
  8
0
  0
POLYLINE
  8
21
 66
1
 10
0.000000
 20
0.000000
 30
0.000000
 40
0.000000
 41
0.000000
 70
1
  0
VERTEX
  8
21
 10
2.000000
 20
1.587000
 30
0.000000
 42
1.000000
  0
VERTEX
  8
21
 10
2.000000
 20
1.593000
 30
0.000000
 42
1.000000
  0
VERTEX
  8
21
 10
2.000000
 20
1.507000
 30
0.000000
 42
1.000000
  0
VERTEX
  8
21
 10
2.000000
 20
1.513000
 30
0.000000
 42
-1.000000
  0
SEQEND
  8
0
  0
POLYLINE
  8
21
 66
1
 10
0.000000
 20
0.000000
 30
0.000000
 40
0.000000
 41
0.000000
 70
1
  0
VERTEX
  8
21
 10
2.450000
 20
1.432000
 30
0.000000
  0
VERTEX
  8
21
 10
2.650000
 20
1.432000
 30
0.000000
 42
1.000000
  0
VERTEX
  8
21
 10
2.650000
 20
1.438000
 30
0.000000
  0
VERTEX
  8
21
 10
2.450000
 20
1.438000
 30
0.000000
 42
1.000000
  0
SEQEND
  8
0
  0
POLYLINE
  8
21
 66
1
 10
0.000000
 20
0.000000
 30
0.000000
 40
0.000000
 41
0.000000
 70
1
  0
VERTEX
  8
21
 10
2.650000
 20
1.668000
 30
0.000000
  0
VERTEX
  8
21
 10
2.450000
 20
1.668000
 30
0.000000
 42
1.000000
  0
VERTEX
  8
21
 10
2.450000
 20
1.662000
 30
0.000000
  0
VERTEX
  8
21
 10
2.650000
 20
1.662000
 30
0.000000
 42
1.000000
  0
SEQEND
  8
0
  0
POLYLINE
  8
21
 66
1
 10
0.000000
 20
0.000000
 30
0.000000
 40
0.000000
 41
0.000000
 70
1
  0
VERTEX
  8
21
 10
2.453000
 20
1.435000
 30
0.000000
  0
VERTEX
  8
21
 10
2.453000
 20
1.665000
 30
0.000000
 42
1.000000
  0
VERTEX
  8
21
 10
2.447000
 20
1.665000
 30
0.000000
  0
VERTEX
  8
21
 10
2.447000
 20
1.435000
 30
0.000000
 42
1.000000
  0
SEQEND
  8
0
  0
POLYLINE
  8
21
 66
1
 10
0.000000
 20
0.000000
 30
0.000000
 40
0.000000
 41
0.000000
 70
1
  0
VERTEX
  8
21
 10
2.653000
 20
1.435000
 30
0.000000
  0
VERTEX
  8
21
 10
2.653000
 20
1.510000
 30
0.000000
 42
1.000000
  0
VERTEX
  8
21
 10
2.647000
 20
1.510000
 30
0.000000
  0
VERTEX
  8
21
 10
2.647000
 20
1.435000
 30
0.000000
 42
1.000000
  0
SEQEND
  8
0
  0
POLYLINE
  8
21
 66
1
 10
0.000000
 20
0.000000
 30
0.000000
 40
0.000000
 41
0.000000
 70
1
  0
VERTEX
  8
21
 10
2.647000
 20
1.665000
 30
0.000000
  0
VERTEX
  8
21
 10
2.647000
 20
1.590000
 30
0.000000
 42
1.000000
  0
VERTEX
  8
21
 10
2.653000
 20
1.590000
 30
0.000000
  0
VERTEX
  8
21
 10
2.653000
 20
1.665000
 30
0.000000
 42
1.000000
  0
SEQEND
  8
0
  0
POLYLINE
  8
21
 66
1
 10
0.000000
 20
0.000000
 30
0.000000
 40
0.000000
 41
0.000000
 70
1
  0
VERTEX
  8
21
 10
2.650000
 20
1.587000
 30
0.000000
 42
1.000000
  0
VERTEX
  8
21
 10
2.650000
 20
1.593000
 30
0.000000
 42
1.000000
  0
VERTEX
  8
21
 10
2.650000
 20
1.507000
 30
0.000000
 42
1.000000
  0
VERTEX
  8
21
 10
2.650000
 20
1.513000
 30
0.000000
 42
-1.000000
  0
SEQEND
  8
0
  0
POLYLINE
  8
21
 66
1
 10
0.000000
 20
0.000000
 30
0.000000
 40
0.000000
 41
0.000000
 70
1
  0
VERTEX
  8
21
 10
0.687121
 20
0.827879
 30
0.000000
  0
VERTEX
  8
21
 10
0.697121
 20
0.837879
 30
0.000000
 42
1.000000
  0
VERTEX
  8
21
 10
0.692879
 20
0.842121
 30
0.000000
  0
VERTEX
  8
21
 10
0.682879
 20
0.832121
 30
0.000000
 42
1.000000
  0
SEQEND
  8
0
  0
POLYLINE
  8
21
 66
1
 10
0.000000
 20
0.000000
 30
0.000000
 40
0.000000
 41
0.000000
 70
1
  0
VERTEX
  8
21
 10
0.685000
 20
0.833000
 30
0.000000
  0
VERTEX
  8
21
 10
0.315000
 20
0.833000
 30
0.000000
 42
1.000000
  0
VERTEX
  8
21
 10
0.315000
 20
0.827000
 30
0.000000
  0
VERTEX
  8
21
 10
0.685000
 20
0.827000
 30
0.000000
 42
1.000000
  0
SEQEND
  8
0
  0
POLYLINE
  8
21
 66
1
 10
0.000000
 20
0.000000
 30
0.000000
 40
0.000000
 41
0.000000
 70
1
  0
VERTEX
  8
21
 10
0.302879
 20
0.837879
 30
0.000000
  0
VERTEX
  8
21
 10
0.312879
 20
0.827879
 30
0.000000
 42
1.000000
  0
VERTEX
  8
21
 10
0.317121
 20
0.832121
 30
0.000000
  0
VERTEX
  8
21
 10
0.307121
 20
0.842121
 30
0.000000
 42
1.000000
  0
SEQEND
  8
0
  0
POLYLINE
  8
21
 66
1
 10
0.000000
 20
0.000000
 30
0.000000
 40
0.000000
 41
0.000000
 70
1
  0
VERTEX
  8
21
 10
0.697003
 20
0.955130
 30
0.000000
  0
VERTEX
  8
21
 10
0.692003
 20
0.840130
 30
0.000000
 42
1.000000
  0
VERTEX
  8
21
 10
0.697997
 20
0.839870
 30
0.000000
  0
VERTEX
  8
21
 10
0.702997
 20
0.954870
 30
0.000000
 42
1.000000
  0
SEQEND
  8
0
  0
POLYLINE
  8
21
 66
1
 10
0.000000
 20
0.000000
 30
0.000000
 40
0.000000
 41
0.000000
 70
1
  0
VERTEX
  8
21
 10
0.307997
 20
0.840130
 30
0.000000
  0
VERTEX
  8
21
 10
0.302997
 20
0.955130
 30
0.000000
 42
1.000000
  0
VERTEX
  8
21
 10
0.297003
 20
0.954870
 30
0.000000
  0
VERTEX
  8
21
 10
0.302003
 20
0.839870
 30
0.000000
 42
1.000000
  0
SEQEND
  8
0
  0
CIRCLE
  8
21
 10
0.323000
 20
0.854000
 30
0.000000
 40
0.010000
  0
INSERT
  8
21
  2
RECT
 10
0.500000
 20
0.985000
 30
0.000000
 41
0.420000
 42
0.030000
 43
1.000000
 50
0.000000
  0
INSERT
  8
21
  2
RECT
 10
0.327500
 20
0.960000
 30
0.000000
 41
0.075000
 42
0.020000
 43
1.000000
 50
0.000000
  0
INSERT
  8
21
  2
RECT
 10
0.450000
 20
0.960000
 30
0.000000
 41
0.030000
 42
0.020000
 43
1.000000
 50
0.000000
  0
INSERT
  8
21
  2
RECT
 10
0.550000
 20
0.960000
 30
0.000000
 41
0.030000
 42
0.020000
 43
1.000000
 50
0.000000
  0
INSERT
  8
21
  2
RECT
 10
0.672500
 20
0.960000
 30
0.000000
 41
0.075000
 42
0.020000
 43
1.000000
 50
0.000000
  0
POLYLINE
  8
21
 66
1
 10
0.000000
 20
0.000000
 30
0.000000
 40
0.000000
 41
0.000000
 70
1
  0
VERTEX
  8
21
 10
1.387121
 20
0.827879
 30
0.000000
  0
VERTEX
  8
21
 10
1.397121
 20
0.837879
 30
0.000000
 42
1.000000
  0
VERTEX
  8
21
 10
1.392879
 20
0.842121
 30
0.000000
  0
VERTEX
  8
21
 10
1.382879
 20
0.832121
 30
0.000000
 42
1.000000
  0
SEQEND
  8
0
  0
POLYLINE
  8
21
 66
1
 10
0.000000
 20
0.000000
 30
0.000000
 40
0.000000
 41
0.000000
 70
1
  0
VERTEX
  8
21
 10
1.385000
 20
0.833000
 30
0.000000
  0
VERTEX
  8
21
 10
1.015000
 20
0.833000
 30
0.000000
 42
1.000000
  0
VERTEX
  8
21
 10
1.015000
 20
0.827000
 30
0.000000
  0
VERTEX
  8
21
 10
1.385000
 20
0.827000
 30
0.000000
 42
1.000000
  0
SEQEND
  8
0
  0
POLYLINE
  8
21
 66
1
 10
0.000000
 20
0.000000
 30
0.000000
 40
0.000000
 41
0.000000
 70
1
  0
VERTEX
  8
21
 10
1.002879
 20
0.837879
 30
0.000000
  0
VERTEX
  8
21
 10
1.012879
 20
0.827879
 30
0.000000
 42
1.000000
  0
VERTEX
  8
21
 10
1.017121
 20
0.832121
 30
0.000000
  0
VERTEX
  8
21
 10
1.007121
 20
0.842121
 30
0.000000
 42
1.000000
  0
SEQEND
  8
0
  0
POLYLINE
  8
21
 66
1
 10
0.000000
 20
0.000000
 30
0.000000
 40
0.000000
 41
0.000000
 70
1
  0
VERTEX
  8
21
 10
1.397003
 20
0.955130
 30
0.000000
  0
VERTEX
  8
21
 10
1.392003
 20
0.840130
 30
0.000000
 42
1.000000
  0
VERTEX
  8
21
 10
1.397997
 20
0.839870
 30
0.000000
  0
VERTEX
  8
21
 10
1.402997
 20
0.954870
 30
0.000000
 42
1.000000
  0
SEQEND
  8
0
  0
POLYLINE
  8
21
 66
1
 10
0.000000
 20
0.000000
 30
0.000000
 40
0.000000
 41
0.000000
 70
1
  0
VERTEX
  8
21
 10
1.007997
 20
0.840130
 30
0.000000
  0
VERTEX
  8
21
 10
1.002997
 20
0.955130
 30
0.000000
 42
1.000000
  0
VERTEX
  8
21
 10
0.997003
 20
0.954870
 30
0.000000
  0
VERTEX
  8
21
 10
1.002003
 20
0.839870
 30
0.000000
 42
1.000000
  0
SEQEND
  8
0
  0
CIRCLE
  8
21
 10
1.023000
 20
0.854000
 30
0.000000
 40
0.010000
  0
INSERT
  8
21
  2
RECT
 10
1.200000
 20
0.985000
 30
0.000000
 41
0.420000
 42
0.030000
 43
1.000000
 50
0.000000
  0
INSERT
  8
21
  2
RECT
 10
1.027500
 20
0.960000
 30
0.000000
 41
0.075000
 42
0.020000
 43
1.000000
 50
0.000000
  0
INSERT
  8
21
  2
RECT
 10
1.150000
 20
0.960000
 30
0.000000
 41
0.030000
 42
0.020000
 43
1.000000
 50
0.000000
  0
INSERT
  8
21
  2
RECT
 10
1.250000
 20
0.960000
 30
0.000000
 41
0.030000
 42
0.020000
 43
1.000000
 50
0.000000
  0
INSERT
  8
21
  2
RECT
 10
1.372500
 20
0.960000
 30
0.000000
 41
0.075000
 42
0.020000
 43
1.000000
 50
0.000000
  0
POLYLINE
  8
21
 66
1
 10
0.000000
 20
0.000000
 30
0.000000
 40
0.000000
 41
0.000000
 70
1
  0
VERTEX
  8
21
 10
2.087121
 20
0.827879
 30
0.000000
  0
VERTEX
  8
21
 10
2.097121
 20
0.837879
 30
0.000000
 42
1.000000
  0
VERTEX
  8
21
 10
2.092879
 20
0.842121
 30
0.000000
  0
VERTEX
  8
21
 10
2.082879
 20
0.832121
 30
0.000000
 42
1.000000
  0
SEQEND
  8
0
  0
POLYLINE
  8
21
 66
1
 10
0.000000
 20
0.000000
 30
0.000000
 40
0.000000
 41
0.000000
 70
1
  0
VERTEX
  8
21
 10
2.085000
 20
0.833000
 30
0.000000
  0
VERTEX
  8
21
 10
1.715000
 20
0.833000
 30
0.000000
 42
1.000000
  0
VERTEX
  8
21
 10
1.715000
 20
0.827000
 30
0.000000
  0
VERTEX
  8
21
 10
2.085000
 20
0.827000
 30
0.000000
 42
1.000000
  0
SEQEND
  8
0
  0
POLYLINE
  8
21
 66
1
 10
0.000000
 20
0.000000
 30
0.000000
 40
0.000000
 41
0.000000
 70
1
  0
VERTEX
  8
21
 10
1.702879
 20
0.837879
 30
0.000000
  0
VERTEX
  8
21
 10
1.712879
 20
0.827879
 30
0.000000
 42
1.000000
  0
VERTEX
  8
21
 10
1.717121
 20
0.832121
 30
0.000000
  0
VERTEX
  8
21
 10
1.707121
 20
0.842121
 30
0.000000
 42
1.000000
  0
SEQEND
  8
0
  0
POLYLINE
  8
21
 66
1
 10
0.000000
 20
0.000000
 30
0.000000
 40
0.000000
 41
0.000000
 70
1
  0
VERTEX
  8
21
 10
2.097003
 20
0.955130
 30
0.000000
  0
VERTEX
  8
21
 10
2.092003
 20
0.840130
 30
0.000000
 42
1.000000
  0
VERTEX
  8
21
 10
2.097997
 20
0.839870
 30
0.000000
  0
VERTEX
  8
21
 10
2.102997
 20
0.954870
 30
0.000000
 42
1.000000
  0
SEQEND
  8
0
  0
POLYLINE
  8
21
 66
1
 10
0.000000
 20
0.000000
 30
0.000000
 40
0.000000
 41
0.000000
 70
1
  0
VERTEX
  8
21
 10
1.707997
 20
0.840130
 30
0.000000
  0
VERTEX
  8
21
 10
1.702997
 20
0.955130
 30
0.000000
 42
1.000000
  0
VERTEX
  8
21
 10
1.697003
 20
0.954870
 30
0.000000
  0
VERTEX
  8
21
 10
1.702003
 20
0.839870
 30
0.000000
 42
1.000000
  0
SEQEND
  8
0
  0
CIRCLE
  8
21
 10
1.723000
 20
0.854000
 30
0.000000
 40
0.010000
  0
INSERT
  8
21
  2
RECT
 10
1.900000
 20
0.985000
 30
0.000000
 41
0.420000
 42
0.030000
 43
1.000000
 50
0.000000
  0
INSERT
  8
21
  2
RECT
 10
1.727500
 20
0.960000
 30
0.000000
 41
0.075000
 42
0.020000
 43
1.000000
 50
0.000000
  0
INSERT
  8
21
  2
RECT
 10
1.850000
 20
0.960000
 30
0.000000
 41
0.030000
 42
0.020000
 43
1.000000
 50
0.000000
  0
INSERT
  8
21
  2
RECT
 10
1.950000
 20
0.960000
 30
0.000000
 41
0.030000
 42
0.020000
 43
1.000000
 50
0.000000
  0
INSERT
  8
21
  2
RECT
 10
2.072500
 20
0.960000
 30
0.000000
 41
0.075000
 42
0.020000
 43
1.000000
 50
0.000000
  0
POLYLINE
  8
21
 66
1
 10
0.000000
 20
0.000000
 30
0.000000
 40
0.000000
 41
0.000000
 70
1
  0
VERTEX
  8
21
 10
2.737121
 20
0.827879
 30
0.000000
  0
VERTEX
  8
21
 10
2.747121
 20
0.837879
 30
0.000000
 42
1.000000
  0
VERTEX
  8
21
 10
2.742879
 20
0.842121
 30
0.000000
  0
VERTEX
  8
21
 10
2.732879
 20
0.832121
 30
0.000000
 42
1.000000
  0
SEQEND
  8
0
  0
POLYLINE
  8
21
 66
1
 10
0.000000
 20
0.000000
 30
0.000000
 40
0.000000
 41
0.000000
 70
1
  0
VERTEX
  8
21
 10
2.735000
 20
0.833000
 30
0.000000
  0
VERTEX
  8
21
 10
2.365000
 20
0.833000
 30
0.000000
 42
1.000000
  0
VERTEX
  8
21
 10
2.365000
 20
0.827000
 30
0.000000
  0
VERTEX
  8
21
 10
2.735000
 20
0.827000
 30
0.000000
 42
1.000000
  0
SEQEND
  8
0
  0
POLYLINE
  8
21
 66
1
 10
0.000000
 20
0.000000
 30
0.000000
 40
0.000000
 41
0.000000
 70
1
  0
VERTEX
  8
21
 10
2.352879
 20
0.837879
 30
0.000000
  0
VERTEX
  8
21
 10
2.362879
 20
0.827879
 30
0.000000
 42
1.000000
  0
VERTEX
  8
21
 10
2.367121
 20
0.832121
 30
0.000000
  0
VERTEX
  8
21
 10
2.357121
 20
0.842121
 30
0.000000
 42
1.000000
  0
SEQEND
  8
0
  0
POLYLINE
  8
21
 66
1
 10
0.000000
 20
0.000000
 30
0.000000
 40
0.000000
 41
0.000000
 70
1
  0
VERTEX
  8
21
 10
2.747003
 20
0.955130
 30
0.000000
  0
VERTEX
  8
21
 10
2.742003
 20
0.840130
 30
0.000000
 42
1.000000
  0
VERTEX
  8
21
 10
2.747997
 20
0.839870
 30
0.000000
  0
VERTEX
  8
21
 10
2.752997
 20
0.954870
 30
0.000000
 42
1.000000
  0
SEQEND
  8
0
  0
POLYLINE
  8
21
 66
1
 10
0.000000
 20
0.000000
 30
0.000000
 40
0.000000
 41
0.000000
 70
1
  0
VERTEX
  8
21
 10
2.357997
 20
0.840130
 30
0.000000
  0
VERTEX
  8
21
 10
2.352997
 20
0.955130
 30
0.000000
 42
1.000000
  0
VERTEX
  8
21
 10
2.347003
 20
0.954870
 30
0.000000
  0
VERTEX
  8
21
 10
2.352003
 20
0.839870
 30
0.000000
 42
1.000000
  0
SEQEND
  8
0
  0
CIRCLE
  8
21
 10
2.373000
 20
0.854000
 30
0.000000
 40
0.010000
  0
INSERT
  8
21
  2
RECT
 10
2.550000
 20
0.985000
 30
0.000000
 41
0.420000
 42
0.030000
 43
1.000000
 50
0.000000
  0
INSERT
  8
21
  2
RECT
 10
2.377500
 20
0.960000
 30
0.000000
 41
0.075000
 42
0.020000
 43
1.000000
 50
0.000000
  0
INSERT
  8
21
  2
RECT
 10
2.500000
 20
0.960000
 30
0.000000
 41
0.030000
 42
0.020000
 43
1.000000
 50
0.000000
  0
INSERT
  8
21
  2
RECT
 10
2.600000
 20
0.960000
 30
0.000000
 41
0.030000
 42
0.020000
 43
1.000000
 50
0.000000
  0
INSERT
  8
21
  2
RECT
 10
2.722500
 20
0.960000
 30
0.000000
 41
0.075000
 42
0.020000
 43
1.000000
 50
0.000000
  0
POLYLINE
  8
21
 66
1
 10
0.000000
 20
0.000000
 30
0.000000
 40
0.000000
 41
0.000000
 70
1
  0
VERTEX
  8
21
 10
1.037000
 20
1.490000
 30
0.000000
 42
1.000000
  0
VERTEX
  8
21
 10
1.043000
 20
1.490000
 30
0.000000
 42
0.414214
  0
VERTEX
  8
21
 10
1.030000
 20
1.503000
 30
0.000000
 42
1.000000
  0
VERTEX
  8
21
 10
1.030000
 20
1.497000
 30
0.000000
 42
-0.414214
  0
SEQEND
  8
0
  0
POLYLINE
  8
21
 66
1
 10
0.000000
 20
0.000000
 30
0.000000
 40
0.000000
 41
0.000000
 70
1
  0
VERTEX
  8
21
 10
0.970000
 20
1.497000
 30
0.000000
 42
1.000000
  0
VERTEX
  8
21
 10
0.970000
 20
1.503000
 30
0.000000
 42
0.414214
  0
VERTEX
  8
21
 10
0.957000
 20
1.490000
 30
0.000000
 42
1.000000
  0
VERTEX
  8
21
 10
0.963000
 20
1.490000
 30
0.000000
 42
-0.414214
  0
SEQEND
  8
0
  0
POLYLINE
  8
21
 66
1
 10
0.000000
 20
0.000000
 30
0.000000
 40
0.000000
 41
0.000000
 70
1
  0
VERTEX
  8
21
 10
0.963000
 20
1.310000
 30
0.000000
 42
1.000000
  0
VERTEX
  8
21
 10
0.957000
 20
1.310000
 30
0.000000
 42
0.414214
  0
VERTEX
  8
21
 10
0.970000
 20
1.297000
 30
0.000000
 42
1.000000
  0
VERTEX
  8
21
 10
0.970000
 20
1.303000
 30
0.000000
 42
-0.414214
  0
SEQEND
  8
0
  0
POLYLINE
  8
21
 66
1
 10
0.000000
 20
0.000000
 30
0.000000
 40
0.000000
 41
0.000000
 70
1
  0
VERTEX
  8
21
 10
1.030000
 20
1.303000
 30
0.000000
 42
1.000000
  0
VERTEX
  8
21
 10
1.030000
 20
1.297000
 30
0.000000
 42
0.414214
  0
VERTEX
  8
21
 10
1.043000
 20
1.310000
 30
0.000000
 42
1.000000
  0
VERTEX
  8
21
 10
1.037000
 20
1.310000
 30
0.000000
 42
-0.414214
  0
SEQEND
  8
0
  0
POLYLINE
  8
21
 66
1
 10
0.000000
 20
0.000000
 30
0.000000
 40
0.000000
 41
0.000000
 70
1
  0
VERTEX
  8
21
 10
0.970000
 20
1.497000
 30
0.000000
  0
VERTEX
  8
21
 10
1.030000
 20
1.497000
 30
0.000000
 42
1.000000
  0
VERTEX
  8
21
 10
1.030000
 20
1.503000
 30
0.000000
  0
VERTEX
  8
21
 10
0.970000
 20
1.503000
 30
0.000000
 42
1.000000
  0
SEQEND
  8
0
  0
POLYLINE
  8
21
 66
1
 10
0.000000
 20
0.000000
 30
0.000000
 40
0.000000
 41
0.000000
 70
1
  0
VERTEX
  8
21
 10
1.037000
 20
1.490000
 30
0.000000
  0
VERTEX
  8
21
 10
1.037000
 20
1.475000
 30
0.000000
 42
1.000000
  0
VERTEX
  8
21
 10
1.043000
 20
1.475000
 30
0.000000
  0
VERTEX
  8
21
 10
1.043000
 20
1.490000
 30
0.000000
 42
1.000000
  0
SEQEND
  8
0
  0
POLYLINE
  8
21
 66
1
 10
0.000000
 20
0.000000
 30
0.000000
 40
0.000000
 41
0.000000
 70
1
  0
VERTEX
  8
21
 10
1.037121
 20
1.467879
 30
0.000000
  0
VERTEX
  8
21
 10
1.042121
 20
1.472879
 30
0.000000
 42
1.000000
  0
VERTEX
  8
21
 10
1.037879
 20
1.477121
 30
0.000000
  0
VERTEX
  8
21
 10
1.032879
 20
1.472121
 30
0.000000
 42
1.000000
  0
SEQEND
  8
0
  0
POLYLINE
  8
21
 66
1
 10
0.000000
 20
0.000000
 30
0.000000
 40
0.000000
 41
0.000000
 70
1
  0
VERTEX
  8
21
 10
0.957000
 20
1.490000
 30
0.000000
  0
VERTEX
  8
21
 10
0.957000
 20
1.475000
 30
0.000000
 42
1.000000
  0
VERTEX
  8
21
 10
0.963000
 20
1.475000
 30
0.000000
  0
VERTEX
  8
21
 10
0.963000
 20
1.490000
 30
0.000000
 42
1.000000
  0
SEQEND
  8
0
  0
POLYLINE
  8
21
 66
1
 10
0.000000
 20
0.000000
 30
0.000000
 40
0.000000
 41
0.000000
 70
1
  0
VERTEX
  8
21
 10
0.967121
 20
1.472121
 30
0.000000
  0
VERTEX
  8
21
 10
0.962121
 20
1.477121
 30
0.000000
 42
1.000000
  0
VERTEX
  8
21
 10
0.957879
 20
1.472879
 30
0.000000
  0
VERTEX
  8
21
 10
0.962879
 20
1.467879
 30
0.000000
 42
1.000000
  0
SEQEND
  8
0
  0
POLYLINE
  8
21
 66
1
 10
0.000000
 20
0.000000
 30
0.000000
 40
0.000000
 41
0.000000
 70
1
  0
VERTEX
  8
21
 10
1.032879
 20
1.327879
 30
0.000000
  0
VERTEX
  8
21
 10
1.037879
 20
1.322879
 30
0.000000
 42
1.000000
  0
VERTEX
  8
21
 10
1.042121
 20
1.327121
 30
0.000000
  0
VERTEX
  8
21
 10
1.037121
 20
1.332121
 30
0.000000
 42
1.000000
  0
SEQEND
  8
0
  0
POLYLINE
  8
21
 66
1
 10
0.000000
 20
0.000000
 30
0.000000
 40
0.000000
 41
0.000000
 70
1
  0
VERTEX
  8
21
 10
1.038000
 20
1.330000
 30
0.000000
  0
VERTEX
  8
21
 10
1.038000
 20
1.470000
 30
0.000000
 42
1.000000
  0
VERTEX
  8
21
 10
1.032000
 20
1.470000
 30
0.000000
  0
VERTEX
  8
21
 10
1.032000
 20
1.330000
 30
0.000000
 42
1.000000
  0
SEQEND
  8
0
  0
POLYLINE
  8
21
 66
1
 10
0.000000
 20
0.000000
 30
0.000000
 40
0.000000
 41
0.000000
 70
1
  0
VERTEX
  8
21
 10
0.962879
 20
1.332121
 30
0.000000
  0
VERTEX
  8
21
 10
0.957879
 20
1.327121
 30
0.000000
 42
1.000000
  0
VERTEX
  8
21
 10
0.962121
 20
1.322879
 30
0.000000
  0
VERTEX
  8
21
 10
0.967121
 20
1.327879
 30
0.000000
 42
1.000000
  0
SEQEND
  8
0
  0
POLYLINE
  8
21
 66
1
 10
0.000000
 20
0.000000
 30
0.000000
 40
0.000000
 41
0.000000
 70
1
  0
VERTEX
  8
21
 10
0.968000
 20
1.330000
 30
0.000000
  0
VERTEX
  8
21
 10
0.968000
 20
1.470000
 30
0.000000
 42
1.000000
  0
VERTEX
  8
21
 10
0.962000
 20
1.470000
 30
0.000000
  0
VERTEX
  8
21
 10
0.962000
 20
1.330000
 30
0.000000
 42
1.000000
  0
SEQEND
  8
0
  0
POLYLINE
  8
21
 66
1
 10
0.000000
 20
0.000000
 30
0.000000
 40
0.000000
 41
0.000000
 70
1
  0
VERTEX
  8
21
 10
1.043000
 20
1.310000
 30
0.000000
  0
VERTEX
  8
21
 10
1.043000
 20
1.325000
 30
0.000000
 42
1.000000
  0
VERTEX
  8
21
 10
1.037000
 20
1.325000
 30
0.000000
  0
VERTEX
  8
21
 10
1.037000
 20
1.310000
 30
0.000000
 42
1.000000
  0
SEQEND
  8
0
  0
POLYLINE
  8
21
 66
1
 10
0.000000
 20
0.000000
 30
0.000000
 40
0.000000
 41
0.000000
 70
1
  0
VERTEX
  8
21
 10
0.963000
 20
1.310000
 30
0.000000
  0
VERTEX
  8
21
 10
0.963000
 20
1.325000
 30
0.000000
 42
1.000000
  0
VERTEX
  8
21
 10
0.957000
 20
1.325000
 30
0.000000
  0
VERTEX
  8
21
 10
0.957000
 20
1.310000
 30
0.000000
 42
1.000000
  0
SEQEND
  8
0
  0
POLYLINE
  8
21
 66
1
 10
0.000000
 20
0.000000
 30
0.000000
 40
0.000000
 41
0.000000
 70
1
  0
VERTEX
  8
21
 10
0.970000
 20
1.297000
 30
0.000000
  0
VERTEX
  8
21
 10
1.030000
 20
1.297000
 30
0.000000
 42
1.000000
  0
VERTEX
  8
21
 10
1.030000
 20
1.303000
 30
0.000000
  0
VERTEX
  8
21
 10
0.970000
 20
1.303000
 30
0.000000
 42
1.000000
  0
SEQEND
  8
0
  0
INSERT
  8
21
  2
RECT
 10
1.000000
 20
1.292500
 30
0.000000
 41
0.015000
 42
0.020000
 43
1.000000
 50
270.000000
  0
INSERT
  8
21
  2
RECT
 10
1.000000
 20
1.507500
 30
0.000000
 41
0.015000
 42
0.020000
 43
1.000000
 50
270.000000
  0
POLYLINE
  8
21
 66
1
 10
0.000000
 20
0.000000
 30
0.000000
 40
0.000000
 41
0.000000
 70
1
  0
VERTEX
  8
21
 10
0.765000
 20
2.263000
 30
0.000000
 42
1.000000
  0
VERTEX
  8
21
 10
0.765000
 20
2.257000
 30
0.000000
 42
0.414214
  0
VERTEX
  8
21
 10
0.778000
 20
2.270000
 30
0.000000
 42
1.000000
  0
VERTEX
  8
21
 10
0.772000
 20
2.270000
 30
0.000000
 42
-0.414214
  0
SEQEND
  8
0
  0
POLYLINE
  8
21
 66
1
 10
0.000000
 20
0.000000
 30
0.000000
 40
0.000000
 41
0.000000
 70
1
  0
VERTEX
  8
21
 10
0.772000
 20
2.330000
 30
0.000000
 42
1.000000
  0
VERTEX
  8
21
 10
0.778000
 20
2.330000
 30
0.000000
 42
0.414214
  0
VERTEX
  8
21
 10
0.765000
 20
2.343000
 30
0.000000
 42
1.000000
  0
VERTEX
  8
21
 10
0.765000
 20
2.337000
 30
0.000000
 42
-0.414214
  0
SEQEND
  8
0
  0
POLYLINE
  8
21
 66
1
 10
0.000000
 20
0.000000
 30
0.000000
 40
0.000000
 41
0.000000
 70
1
  0
VERTEX
  8
21
 10
0.585000
 20
2.337000
 30
0.000000
 42
1.000000
  0
VERTEX
  8
21
 10
0.585000
 20
2.343000
 30
0.000000
 42
0.414214
  0
VERTEX
  8
21
 10
0.572000
 20
2.330000
 30
0.000000
 42
1.000000
  0
VERTEX
  8
21
 10
0.578000
 20
2.330000
 30
0.000000
 42
-0.414214
  0
SEQEND
  8
0
  0
POLYLINE
  8
21
 66
1
 10
0.000000
 20
0.000000
 30
0.000000
 40
0.000000
 41
0.000000
 70
1
  0
VERTEX
  8
21
 10
0.578000
 20
2.270000
 30
0.000000
 42
1.000000
  0
VERTEX
  8
21
 10
0.572000
 20
2.270000
 30
0.000000
 42
0.414214
  0
VERTEX
  8
21
 10
0.585000
 20
2.257000
 30
0.000000
 42
1.000000
  0
VERTEX
  8
21
 10
0.585000
 20
2.263000
 30
0.000000
 42
-0.414214
  0
SEQEND
  8
0
  0
POLYLINE
  8
21
 66
1
 10
0.000000
 20
0.000000
 30
0.000000
 40
0.000000
 41
0.000000
 70
1
  0
VERTEX
  8
21
 10
0.772000
 20
2.330000
 30
0.000000
  0
VERTEX
  8
21
 10
0.772000
 20
2.270000
 30
0.000000
 42
1.000000
  0
VERTEX
  8
21
 10
0.778000
 20
2.270000
 30
0.000000
  0
VERTEX
  8
21
 10
0.778000
 20
2.330000
 30
0.000000
 42
1.000000
  0
SEQEND
  8
0
  0
POLYLINE
  8
21
 66
1
 10
0.000000
 20
0.000000
 30
0.000000
 40
0.000000
 41
0.000000
 70
1
  0
VERTEX
  8
21
 10
0.765000
 20
2.263000
 30
0.000000
  0
VERTEX
  8
21
 10
0.750000
 20
2.263000
 30
0.000000
 42
1.000000
  0
VERTEX
  8
21
 10
0.750000
 20
2.257000
 30
0.000000
  0
VERTEX
  8
21
 10
0.765000
 20
2.257000
 30
0.000000
 42
1.000000
  0
SEQEND
  8
0
  0
POLYLINE
  8
21
 66
1
 10
0.000000
 20
0.000000
 30
0.000000
 40
0.000000
 41
0.000000
 70
1
  0
VERTEX
  8
21
 10
0.742879
 20
2.262879
 30
0.000000
  0
VERTEX
  8
21
 10
0.747879
 20
2.257879
 30
0.000000
 42
1.000000
  0
VERTEX
  8
21
 10
0.752121
 20
2.262121
 30
0.000000
  0
VERTEX
  8
21
 10
0.747121
 20
2.267121
 30
0.000000
 42
1.000000
  0
SEQEND
  8
0
  0
POLYLINE
  8
21
 66
1
 10
0.000000
 20
0.000000
 30
0.000000
 40
0.000000
 41
0.000000
 70
1
  0
VERTEX
  8
21
 10
0.765000
 20
2.343000
 30
0.000000
  0
VERTEX
  8
21
 10
0.750000
 20
2.343000
 30
0.000000
 42
1.000000
  0
VERTEX
  8
21
 10
0.750000
 20
2.337000
 30
0.000000
  0
VERTEX
  8
21
 10
0.765000
 20
2.337000
 30
0.000000
 42
1.000000
  0
SEQEND
  8
0
  0
POLYLINE
  8
21
 66
1
 10
0.000000
 20
0.000000
 30
0.000000
 40
0.000000
 41
0.000000
 70
1
  0
VERTEX
  8
21
 10
0.747121
 20
2.332879
 30
0.000000
  0
VERTEX
  8
21
 10
0.752121
 20
2.337879
 30
0.000000
 42
1.000000
  0
VERTEX
  8
21
 10
0.747879
 20
2.342121
 30
0.000000
  0
VERTEX
  8
21
 10
0.742879
 20
2.337121
 30
0.000000
 42
1.000000
  0
SEQEND
  8
0
  0
POLYLINE
  8
21
 66
1
 10
0.000000
 20
0.000000
 30
0.000000
 40
0.000000
 41
0.000000
 70
1
  0
VERTEX
  8
21
 10
0.602879
 20
2.267121
 30
0.000000
  0
VERTEX
  8
21
 10
0.597879
 20
2.262121
 30
0.000000
 42
1.000000
  0
VERTEX
  8
21
 10
0.602121
 20
2.257879
 30
0.000000
  0
VERTEX
  8
21
 10
0.607121
 20
2.262879
 30
0.000000
 42
1.000000
  0
SEQEND
  8
0
  0
POLYLINE
  8
21
 66
1
 10
0.000000
 20
0.000000
 30
0.000000
 40
0.000000
 41
0.000000
 70
1
  0
VERTEX
  8
21
 10
0.605000
 20
2.262000
 30
0.000000
  0
VERTEX
  8
21
 10
0.745000
 20
2.262000
 30
0.000000
 42
1.000000
  0
VERTEX
  8
21
 10
0.745000
 20
2.268000
 30
0.000000
  0
VERTEX
  8
21
 10
0.605000
 20
2.268000
 30
0.000000
 42
1.000000
  0
SEQEND
  8
0
  0
POLYLINE
  8
21
 66
1
 10
0.000000
 20
0.000000
 30
0.000000
 40
0.000000
 41
0.000000
 70
1
  0
VERTEX
  8
21
 10
0.607121
 20
2.337121
 30
0.000000
  0
VERTEX
  8
21
 10
0.602121
 20
2.342121
 30
0.000000
 42
1.000000
  0
VERTEX
  8
21
 10
0.597879
 20
2.337879
 30
0.000000
  0
VERTEX
  8
21
 10
0.602879
 20
2.332879
 30
0.000000
 42
1.000000
  0
SEQEND
  8
0
  0
POLYLINE
  8
21
 66
1
 10
0.000000
 20
0.000000
 30
0.000000
 40
0.000000
 41
0.000000
 70
1
  0
VERTEX
  8
21
 10
0.605000
 20
2.332000
 30
0.000000
  0
VERTEX
  8
21
 10
0.745000
 20
2.332000
 30
0.000000
 42
1.000000
  0
VERTEX
  8
21
 10
0.745000
 20
2.338000
 30
0.000000
  0
VERTEX
  8
21
 10
0.605000
 20
2.338000
 30
0.000000
 42
1.000000
  0
SEQEND
  8
0
  0
POLYLINE
  8
21
 66
1
 10
0.000000
 20
0.000000
 30
0.000000
 40
0.000000
 41
0.000000
 70
1
  0
VERTEX
  8
21
 10
0.585000
 20
2.257000
 30
0.000000
  0
VERTEX
  8
21
 10
0.600000
 20
2.257000
 30
0.000000
 42
1.000000
  0
VERTEX
  8
21
 10
0.600000
 20
2.263000
 30
0.000000
  0
VERTEX
  8
21
 10
0.585000
 20
2.263000
 30
0.000000
 42
1.000000
  0
SEQEND
  8
0
  0
POLYLINE
  8
21
 66
1
 10
0.000000
 20
0.000000
 30
0.000000
 40
0.000000
 41
0.000000
 70
1
  0
VERTEX
  8
21
 10
0.585000
 20
2.337000
 30
0.000000
  0
VERTEX
  8
21
 10
0.600000
 20
2.337000
 30
0.000000
 42
1.000000
  0
VERTEX
  8
21
 10
0.600000
 20
2.343000
 30
0.000000
  0
VERTEX
  8
21
 10
0.585000
 20
2.343000
 30
0.000000
 42
1.000000
  0
SEQEND
  8
0
  0
POLYLINE
  8
21
 66
1
 10
0.000000
 20
0.000000
 30
0.000000
 40
0.000000
 41
0.000000
 70
1
  0
VERTEX
  8
21
 10
0.572000
 20
2.330000
 30
0.000000
  0
VERTEX
  8
21
 10
0.572000
 20
2.270000
 30
0.000000
 42
1.000000
  0
VERTEX
  8
21
 10
0.578000
 20
2.270000
 30
0.000000
  0
VERTEX
  8
21
 10
0.578000
 20
2.330000
 30
0.000000
 42
1.000000
  0
SEQEND
  8
0
  0
INSERT
  8
21
  2
RECT
 10
0.567500
 20
2.300000
 30
0.000000
 41
0.015000
 42
0.020000
 43
1.000000
 50
180.000000
  0
INSERT
  8
21
  2
RECT
 10
0.782500
 20
2.300000
 30
0.000000
 41
0.015000
 42
0.020000
 43
1.000000
 50
180.000000
  0
POLYLINE
  8
21
 66
1
 10
0.000000
 20
0.000000
 30
0.000000
 40
0.000000
 41
0.000000
 70
1
  0
VERTEX
  8
21
 10
1.290000
 20
0.663000
 30
0.000000
 42
1.000000
  0
VERTEX
  8
21
 10
1.290000
 20
0.657000
 30
0.000000
 42
0.414214
  0
VERTEX
  8
21
 10
1.303000
 20
0.670000
 30
0.000000
 42
1.000000
  0
VERTEX
  8
21
 10
1.297000
 20
0.670000
 30
0.000000
 42
-0.414214
  0
SEQEND
  8
0
  0
POLYLINE
  8
21
 66
1
 10
0.000000
 20
0.000000
 30
0.000000
 40
0.000000
 41
0.000000
 70
1
  0
VERTEX
  8
21
 10
1.297000
 20
0.730000
 30
0.000000
 42
1.000000
  0
VERTEX
  8
21
 10
1.303000
 20
0.730000
 30
0.000000
 42
0.414214
  0
VERTEX
  8
21
 10
1.290000
 20
0.743000
 30
0.000000
 42
1.000000
  0
VERTEX
  8
21
 10
1.290000
 20
0.737000
 30
0.000000
 42
-0.414214
  0
SEQEND
  8
0
  0
POLYLINE
  8
21
 66
1
 10
0.000000
 20
0.000000
 30
0.000000
 40
0.000000
 41
0.000000
 70
1
  0
VERTEX
  8
21
 10
1.110000
 20
0.737000
 30
0.000000
 42
1.000000
  0
VERTEX
  8
21
 10
1.110000
 20
0.743000
 30
0.000000
 42
0.414214
  0
VERTEX
  8
21
 10
1.097000
 20
0.730000
 30
0.000000
 42
1.000000
  0
VERTEX
  8
21
 10
1.103000
 20
0.730000
 30
0.000000
 42
-0.414214
  0
SEQEND
  8
0
  0
POLYLINE
  8
21
 66
1
 10
0.000000
 20
0.000000
 30
0.000000
 40
0.000000
 41
0.000000
 70
1
  0
VERTEX
  8
21
 10
1.103000
 20
0.670000
 30
0.000000
 42
1.000000
  0
VERTEX
  8
21
 10
1.097000
 20
0.670000
 30
0.000000
 42
0.414214
  0
VERTEX
  8
21
 10
1.110000
 20
0.657000
 30
0.000000
 42
1.000000
  0
VERTEX
  8
21
 10
1.110000
 20
0.663000
 30
0.000000
 42
-0.414214
  0
SEQEND
  8
0
  0
POLYLINE
  8
21
 66
1
 10
0.000000
 20
0.000000
 30
0.000000
 40
0.000000
 41
0.000000
 70
1
  0
VERTEX
  8
21
 10
1.297000
 20
0.730000
 30
0.000000
  0
VERTEX
  8
21
 10
1.297000
 20
0.670000
 30
0.000000
 42
1.000000
  0
VERTEX
  8
21
 10
1.303000
 20
0.670000
 30
0.000000
  0
VERTEX
  8
21
 10
1.303000
 20
0.730000
 30
0.000000
 42
1.000000
  0
SEQEND
  8
0
  0
POLYLINE
  8
21
 66
1
 10
0.000000
 20
0.000000
 30
0.000000
 40
0.000000
 41
0.000000
 70
1
  0
VERTEX
  8
21
 10
1.290000
 20
0.663000
 30
0.000000
  0
VERTEX
  8
21
 10
1.275000
 20
0.663000
 30
0.000000
 42
1.000000
  0
VERTEX
  8
21
 10
1.275000
 20
0.657000
 30
0.000000
  0
VERTEX
  8
21
 10
1.290000
 20
0.657000
 30
0.000000
 42
1.000000
  0
SEQEND
  8
0
  0
POLYLINE
  8
21
 66
1
 10
0.000000
 20
0.000000
 30
0.000000
 40
0.000000
 41
0.000000
 70
1
  0
VERTEX
  8
21
 10
1.267879
 20
0.662879
 30
0.000000
  0
VERTEX
  8
21
 10
1.272879
 20
0.657879
 30
0.000000
 42
1.000000
  0
VERTEX
  8
21
 10
1.277121
 20
0.662121
 30
0.000000
  0
VERTEX
  8
21
 10
1.272121
 20
0.667121
 30
0.000000
 42
1.000000
  0
SEQEND
  8
0
  0
POLYLINE
  8
21
 66
1
 10
0.000000
 20
0.000000
 30
0.000000
 40
0.000000
 41
0.000000
 70
1
  0
VERTEX
  8
21
 10
1.290000
 20
0.743000
 30
0.000000
  0
VERTEX
  8
21
 10
1.275000
 20
0.743000
 30
0.000000
 42
1.000000
  0
VERTEX
  8
21
 10
1.275000
 20
0.737000
 30
0.000000
  0
VERTEX
  8
21
 10
1.290000
 20
0.737000
 30
0.000000
 42
1.000000
  0
SEQEND
  8
0
  0
POLYLINE
  8
21
 66
1
 10
0.000000
 20
0.000000
 30
0.000000
 40
0.000000
 41
0.000000
 70
1
  0
VERTEX
  8
21
 10
1.272121
 20
0.732879
 30
0.000000
  0
VERTEX
  8
21
 10
1.277121
 20
0.737879
 30
0.000000
 42
1.000000
  0
VERTEX
  8
21
 10
1.272879
 20
0.742121
 30
0.000000
  0
VERTEX
  8
21
 10
1.267879
 20
0.737121
 30
0.000000
 42
1.000000
  0
SEQEND
  8
0
  0
POLYLINE
  8
21
 66
1
 10
0.000000
 20
0.000000
 30
0.000000
 40
0.000000
 41
0.000000
 70
1
  0
VERTEX
  8
21
 10
1.127879
 20
0.667121
 30
0.000000
  0
VERTEX
  8
21
 10
1.122879
 20
0.662121
 30
0.000000
 42
1.000000
  0
VERTEX
  8
21
 10
1.127121
 20
0.657879
 30
0.000000
  0
VERTEX
  8
21
 10
1.132121
 20
0.662879
 30
0.000000
 42
1.000000
  0
SEQEND
  8
0
  0
POLYLINE
  8
21
 66
1
 10
0.000000
 20
0.000000
 30
0.000000
 40
0.000000
 41
0.000000
 70
1
  0
VERTEX
  8
21
 10
1.130000
 20
0.662000
 30
0.000000
  0
VERTEX
  8
21
 10
1.270000
 20
0.662000
 30
0.000000
 42
1.000000
  0
VERTEX
  8
21
 10
1.270000
 20
0.668000
 30
0.000000
  0
VERTEX
  8
21
 10
1.130000
 20
0.668000
 30
0.000000
 42
1.000000
  0
SEQEND
  8
0
  0
POLYLINE
  8
21
 66
1
 10
0.000000
 20
0.000000
 30
0.000000
 40
0.000000
 41
0.000000
 70
1
  0
VERTEX
  8
21
 10
1.132121
 20
0.737121
 30
0.000000
  0
VERTEX
  8
21
 10
1.127121
 20
0.742121
 30
0.000000
 42
1.000000
  0
VERTEX
  8
21
 10
1.122879
 20
0.737879
 30
0.000000
  0
VERTEX
  8
21
 10
1.127879
 20
0.732879
 30
0.000000
 42
1.000000
  0
SEQEND
  8
0
  0
POLYLINE
  8
21
 66
1
 10
0.000000
 20
0.000000
 30
0.000000
 40
0.000000
 41
0.000000
 70
1
  0
VERTEX
  8
21
 10
1.130000
 20
0.732000
 30
0.000000
  0
VERTEX
  8
21
 10
1.270000
 20
0.732000
 30
0.000000
 42
1.000000
  0
VERTEX
  8
21
 10
1.270000
 20
0.738000
 30
0.000000
  0
VERTEX
  8
21
 10
1.130000
 20
0.738000
 30
0.000000
 42
1.000000
  0
SEQEND
  8
0
  0
POLYLINE
  8
21
 66
1
 10
0.000000
 20
0.000000
 30
0.000000
 40
0.000000
 41
0.000000
 70
1
  0
VERTEX
  8
21
 10
1.110000
 20
0.657000
 30
0.000000
  0
VERTEX
  8
21
 10
1.125000
 20
0.657000
 30
0.000000
 42
1.000000
  0
VERTEX
  8
21
 10
1.125000
 20
0.663000
 30
0.000000
  0
VERTEX
  8
21
 10
1.110000
 20
0.663000
 30
0.000000
 42
1.000000
  0
SEQEND
  8
0
  0
POLYLINE
  8
21
 66
1
 10
0.000000
 20
0.000000
 30
0.000000
 40
0.000000
 41
0.000000
 70
1
  0
VERTEX
  8
21
 10
1.110000
 20
0.737000
 30
0.000000
  0
VERTEX
  8
21
 10
1.125000
 20
0.737000
 30
0.000000
 42
1.000000
  0
VERTEX
  8
21
 10
1.125000
 20
0.743000
 30
0.000000
  0
VERTEX
  8
21
 10
1.110000
 20
0.743000
 30
0.000000
 42
1.000000
  0
SEQEND
  8
0
  0
POLYLINE
  8
21
 66
1
 10
0.000000
 20
0.000000
 30
0.000000
 40
0.000000
 41
0.000000
 70
1
  0
VERTEX
  8
21
 10
1.097000
 20
0.730000
 30
0.000000
  0
VERTEX
  8
21
 10
1.097000
 20
0.670000
 30
0.000000
 42
1.000000
  0
VERTEX
  8
21
 10
1.103000
 20
0.670000
 30
0.000000
  0
VERTEX
  8
21
 10
1.103000
 20
0.730000
 30
0.000000
 42
1.000000
  0
SEQEND
  8
0
  0
INSERT
  8
21
  2
RECT
 10
1.092500
 20
0.700000
 30
0.000000
 41
0.015000
 42
0.020000
 43
1.000000
 50
180.000000
  0
INSERT
  8
21
  2
RECT
 10
1.307500
 20
0.700000
 30
0.000000
 41
0.015000
 42
0.020000
 43
1.000000
 50
180.000000
  0
POLYLINE
  8
21
 66
1
 10
0.000000
 20
0.000000
 30
0.000000
 40
0.000000
 41
0.000000
 70
1
  0
VERTEX
  8
21
 10
1.737000
 20
1.490000
 30
0.000000
 42
1.000000
  0
VERTEX
  8
21
 10
1.743000
 20
1.490000
 30
0.000000
 42
0.414214
  0
VERTEX
  8
21
 10
1.730000
 20
1.503000
 30
0.000000
 42
1.000000
  0
VERTEX
  8
21
 10
1.730000
 20
1.497000
 30
0.000000
 42
-0.414214
  0
SEQEND
  8
0
  0
POLYLINE
  8
21
 66
1
 10
0.000000
 20
0.000000
 30
0.000000
 40
0.000000
 41
0.000000
 70
1
  0
VERTEX
  8
21
 10
1.670000
 20
1.497000
 30
0.000000
 42
1.000000
  0
VERTEX
  8
21
 10
1.670000
 20
1.503000
 30
0.000000
 42
0.414214
  0
VERTEX
  8
21
 10
1.657000
 20
1.490000
 30
0.000000
 42
1.000000
  0
VERTEX
  8
21
 10
1.663000
 20
1.490000
 30
0.000000
 42
-0.414214
  0
SEQEND
  8
0
  0
POLYLINE
  8
21
 66
1
 10
0.000000
 20
0.000000
 30
0.000000
 40
0.000000
 41
0.000000
 70
1
  0
VERTEX
  8
21
 10
1.663000
 20
1.310000
 30
0.000000
 42
1.000000
  0
VERTEX
  8
21
 10
1.657000
 20
1.310000
 30
0.000000
 42
0.414214
  0
VERTEX
  8
21
 10
1.670000
 20
1.297000
 30
0.000000
 42
1.000000
  0
VERTEX
  8
21
 10
1.670000
 20
1.303000
 30
0.000000
 42
-0.414214
  0
SEQEND
  8
0
  0
POLYLINE
  8
21
 66
1
 10
0.000000
 20
0.000000
 30
0.000000
 40
0.000000
 41
0.000000
 70
1
  0
VERTEX
  8
21
 10
1.730000
 20
1.303000
 30
0.000000
 42
1.000000
  0
VERTEX
  8
21
 10
1.730000
 20
1.297000
 30
0.000000
 42
0.414214
  0
VERTEX
  8
21
 10
1.743000
 20
1.310000
 30
0.000000
 42
1.000000
  0
VERTEX
  8
21
 10
1.737000
 20
1.310000
 30
0.000000
 42
-0.414214
  0
SEQEND
  8
0
  0
POLYLINE
  8
21
 66
1
 10
0.000000
 20
0.000000
 30
0.000000
 40
0.000000
 41
0.000000
 70
1
  0
VERTEX
  8
21
 10
1.670000
 20
1.497000
 30
0.000000
  0
VERTEX
  8
21
 10
1.730000
 20
1.497000
 30
0.000000
 42
1.000000
  0
VERTEX
  8
21
 10
1.730000
 20
1.503000
 30
0.000000
  0
VERTEX
  8
21
 10
1.670000
 20
1.503000
 30
0.000000
 42
1.000000
  0
SEQEND
  8
0
  0
POLYLINE
  8
21
 66
1
 10
0.000000
 20
0.000000
 30
0.000000
 40
0.000000
 41
0.000000
 70
1
  0
VERTEX
  8
21
 10
1.737000
 20
1.490000
 30
0.000000
  0
VERTEX
  8
21
 10
1.737000
 20
1.475000
 30
0.000000
 42
1.000000
  0
VERTEX
  8
21
 10
1.743000
 20
1.475000
 30
0.000000
  0
VERTEX
  8
21
 10
1.743000
 20
1.490000
 30
0.000000
 42
1.000000
  0
SEQEND
  8
0
  0
POLYLINE
  8
21
 66
1
 10
0.000000
 20
0.000000
 30
0.000000
 40
0.000000
 41
0.000000
 70
1
  0
VERTEX
  8
21
 10
1.737121
 20
1.467879
 30
0.000000
  0
VERTEX
  8
21
 10
1.742121
 20
1.472879
 30
0.000000
 42
1.000000
  0
VERTEX
  8
21
 10
1.737879
 20
1.477121
 30
0.000000
  0
VERTEX
  8
21
 10
1.732879
 20
1.472121
 30
0.000000
 42
1.000000
  0
SEQEND
  8
0
  0
POLYLINE
  8
21
 66
1
 10
0.000000
 20
0.000000
 30
0.000000
 40
0.000000
 41
0.000000
 70
1
  0
VERTEX
  8
21
 10
1.657000
 20
1.490000
 30
0.000000
  0
VERTEX
  8
21
 10
1.657000
 20
1.475000
 30
0.000000
 42
1.000000
  0
VERTEX
  8
21
 10
1.663000
 20
1.475000
 30
0.000000
  0
VERTEX
  8
21
 10
1.663000
 20
1.490000
 30
0.000000
 42
1.000000
  0
SEQEND
  8
0
  0
POLYLINE
  8
21
 66
1
 10
0.000000
 20
0.000000
 30
0.000000
 40
0.000000
 41
0.000000
 70
1
  0
VERTEX
  8
21
 10
1.667121
 20
1.472121
 30
0.000000
  0
VERTEX
  8
21
 10
1.662121
 20
1.477121
 30
0.000000
 42
1.000000
  0
VERTEX
  8
21
 10
1.657879
 20
1.472879
 30
0.000000
  0
VERTEX
  8
21
 10
1.662879
 20
1.467879
 30
0.000000
 42
1.000000
  0
SEQEND
  8
0
  0
POLYLINE
  8
21
 66
1
 10
0.000000
 20
0.000000
 30
0.000000
 40
0.000000
 41
0.000000
 70
1
  0
VERTEX
  8
21
 10
1.732879
 20
1.327879
 30
0.000000
  0
VERTEX
  8
21
 10
1.737879
 20
1.322879
 30
0.000000
 42
1.000000
  0
VERTEX
  8
21
 10
1.742121
 20
1.327121
 30
0.000000
  0
VERTEX
  8
21
 10
1.737121
 20
1.332121
 30
0.000000
 42
1.000000
  0
SEQEND
  8
0
  0
POLYLINE
  8
21
 66
1
 10
0.000000
 20
0.000000
 30
0.000000
 40
0.000000
 41
0.000000
 70
1
  0
VERTEX
  8
21
 10
1.738000
 20
1.330000
 30
0.000000
  0
VERTEX
  8
21
 10
1.738000
 20
1.470000
 30
0.000000
 42
1.000000
  0
VERTEX
  8
21
 10
1.732000
 20
1.470000
 30
0.000000
  0
VERTEX
  8
21
 10
1.732000
 20
1.330000
 30
0.000000
 42
1.000000
  0
SEQEND
  8
0
  0
POLYLINE
  8
21
 66
1
 10
0.000000
 20
0.000000
 30
0.000000
 40
0.000000
 41
0.000000
 70
1
  0
VERTEX
  8
21
 10
1.662879
 20
1.332121
 30
0.000000
  0
VERTEX
  8
21
 10
1.657879
 20
1.327121
 30
0.000000
 42
1.000000
  0
VERTEX
  8
21
 10
1.662121
 20
1.322879
 30
0.000000
  0
VERTEX
  8
21
 10
1.667121
 20
1.327879
 30
0.000000
 42
1.000000
  0
SEQEND
  8
0
  0
POLYLINE
  8
21
 66
1
 10
0.000000
 20
0.000000
 30
0.000000
 40
0.000000
 41
0.000000
 70
1
  0
VERTEX
  8
21
 10
1.668000
 20
1.330000
 30
0.000000
  0
VERTEX
  8
21
 10
1.668000
 20
1.470000
 30
0.000000
 42
1.000000
  0
VERTEX
  8
21
 10
1.662000
 20
1.470000
 30
0.000000
  0
VERTEX
  8
21
 10
1.662000
 20
1.330000
 30
0.000000
 42
1.000000
  0
SEQEND
  8
0
  0
POLYLINE
  8
21
 66
1
 10
0.000000
 20
0.000000
 30
0.000000
 40
0.000000
 41
0.000000
 70
1
  0
VERTEX
  8
21
 10
1.743000
 20
1.310000
 30
0.000000
  0
VERTEX
  8
21
 10
1.743000
 20
1.325000
 30
0.000000
 42
1.000000
  0
VERTEX
  8
21
 10
1.737000
 20
1.325000
 30
0.000000
  0
VERTEX
  8
21
 10
1.737000
 20
1.310000
 30
0.000000
 42
1.000000
  0
SEQEND
  8
0
  0
POLYLINE
  8
21
 66
1
 10
0.000000
 20
0.000000
 30
0.000000
 40
0.000000
 41
0.000000
 70
1
  0
VERTEX
  8
21
 10
1.663000
 20
1.310000
 30
0.000000
  0
VERTEX
  8
21
 10
1.663000
 20
1.325000
 30
0.000000
 42
1.000000
  0
VERTEX
  8
21
 10
1.657000
 20
1.325000
 30
0.000000
  0
VERTEX
  8
21
 10
1.657000
 20
1.310000
 30
0.000000
 42
1.000000
  0
SEQEND
  8
0
  0
POLYLINE
  8
21
 66
1
 10
0.000000
 20
0.000000
 30
0.000000
 40
0.000000
 41
0.000000
 70
1
  0
VERTEX
  8
21
 10
1.670000
 20
1.297000
 30
0.000000
  0
VERTEX
  8
21
 10
1.730000
 20
1.297000
 30
0.000000
 42
1.000000
  0
VERTEX
  8
21
 10
1.730000
 20
1.303000
 30
0.000000
  0
VERTEX
  8
21
 10
1.670000
 20
1.303000
 30
0.000000
 42
1.000000
  0
SEQEND
  8
0
  0
INSERT
  8
21
  2
RECT
 10
1.700000
 20
1.292500
 30
0.000000
 41
0.015000
 42
0.020000
 43
1.000000
 50
270.000000
  0
INSERT
  8
21
  2
RECT
 10
1.700000
 20
1.507500
 30
0.000000
 41
0.015000
 42
0.020000
 43
1.000000
 50
270.000000
  0
POLYLINE
  8
21
 66
1
 10
0.000000
 20
0.000000
 30
0.000000
 40
0.000000
 41
0.000000
 70
1
  0
VERTEX
  8
21
 10
0.337000
 20
1.490000
 30
0.000000
 42
1.000000
  0
VERTEX
  8
21
 10
0.343000
 20
1.490000
 30
0.000000
 42
0.414214
  0
VERTEX
  8
21
 10
0.330000
 20
1.503000
 30
0.000000
 42
1.000000
  0
VERTEX
  8
21
 10
0.330000
 20
1.497000
 30
0.000000
 42
-0.414214
  0
SEQEND
  8
0
  0
POLYLINE
  8
21
 66
1
 10
0.000000
 20
0.000000
 30
0.000000
 40
0.000000
 41
0.000000
 70
1
  0
VERTEX
  8
21
 10
0.270000
 20
1.497000
 30
0.000000
 42
1.000000
  0
VERTEX
  8
21
 10
0.270000
 20
1.503000
 30
0.000000
 42
0.414214
  0
VERTEX
  8
21
 10
0.257000
 20
1.490000
 30
0.000000
 42
1.000000
  0
VERTEX
  8
21
 10
0.263000
 20
1.490000
 30
0.000000
 42
-0.414214
  0
SEQEND
  8
0
  0
POLYLINE
  8
21
 66
1
 10
0.000000
 20
0.000000
 30
0.000000
 40
0.000000
 41
0.000000
 70
1
  0
VERTEX
  8
21
 10
0.263000
 20
1.310000
 30
0.000000
 42
1.000000
  0
VERTEX
  8
21
 10
0.257000
 20
1.310000
 30
0.000000
 42
0.414214
  0
VERTEX
  8
21
 10
0.270000
 20
1.297000
 30
0.000000
 42
1.000000
  0
VERTEX
  8
21
 10
0.270000
 20
1.303000
 30
0.000000
 42
-0.414214
  0
SEQEND
  8
0
  0
POLYLINE
  8
21
 66
1
 10
0.000000
 20
0.000000
 30
0.000000
 40
0.000000
 41
0.000000
 70
1
  0
VERTEX
  8
21
 10
0.330000
 20
1.303000
 30
0.000000
 42
1.000000
  0
VERTEX
  8
21
 10
0.330000
 20
1.297000
 30
0.000000
 42
0.414214
  0
VERTEX
  8
21
 10
0.343000
 20
1.310000
 30
0.000000
 42
1.000000
  0
VERTEX
  8
21
 10
0.337000
 20
1.310000
 30
0.000000
 42
-0.414214
  0
SEQEND
  8
0
  0
POLYLINE
  8
21
 66
1
 10
0.000000
 20
0.000000
 30
0.000000
 40
0.000000
 41
0.000000
 70
1
  0
VERTEX
  8
21
 10
0.270000
 20
1.497000
 30
0.000000
  0
VERTEX
  8
21
 10
0.330000
 20
1.497000
 30
0.000000
 42
1.000000
  0
VERTEX
  8
21
 10
0.330000
 20
1.503000
 30
0.000000
  0
VERTEX
  8
21
 10
0.270000
 20
1.503000
 30
0.000000
 42
1.000000
  0
SEQEND
  8
0
  0
POLYLINE
  8
21
 66
1
 10
0.000000
 20
0.000000
 30
0.000000
 40
0.000000
 41
0.000000
 70
1
  0
VERTEX
  8
21
 10
0.337000
 20
1.490000
 30
0.000000
  0
VERTEX
  8
21
 10
0.337000
 20
1.475000
 30
0.000000
 42
1.000000
  0
VERTEX
  8
21
 10
0.343000
 20
1.475000
 30
0.000000
  0
VERTEX
  8
21
 10
0.343000
 20
1.490000
 30
0.000000
 42
1.000000
  0
SEQEND
  8
0
  0
POLYLINE
  8
21
 66
1
 10
0.000000
 20
0.000000
 30
0.000000
 40
0.000000
 41
0.000000
 70
1
  0
VERTEX
  8
21
 10
0.337121
 20
1.467879
 30
0.000000
  0
VERTEX
  8
21
 10
0.342121
 20
1.472879
 30
0.000000
 42
1.000000
  0
VERTEX
  8
21
 10
0.337879
 20
1.477121
 30
0.000000
  0
VERTEX
  8
21
 10
0.332879
 20
1.472121
 30
0.000000
 42
1.000000
  0
SEQEND
  8
0
  0
POLYLINE
  8
21
 66
1
 10
0.000000
 20
0.000000
 30
0.000000
 40
0.000000
 41
0.000000
 70
1
  0
VERTEX
  8
21
 10
0.257000
 20
1.490000
 30
0.000000
  0
VERTEX
  8
21
 10
0.257000
 20
1.475000
 30
0.000000
 42
1.000000
  0
VERTEX
  8
21
 10
0.263000
 20
1.475000
 30
0.000000
  0
VERTEX
  8
21
 10
0.263000
 20
1.490000
 30
0.000000
 42
1.000000
  0
SEQEND
  8
0
  0
POLYLINE
  8
21
 66
1
 10
0.000000
 20
0.000000
 30
0.000000
 40
0.000000
 41
0.000000
 70
1
  0
VERTEX
  8
21
 10
0.267121
 20
1.472121
 30
0.000000
  0
VERTEX
  8
21
 10
0.262121
 20
1.477121
 30
0.000000
 42
1.000000
  0
VERTEX
  8
21
 10
0.257879
 20
1.472879
 30
0.000000
  0
VERTEX
  8
21
 10
0.262879
 20
1.467879
 30
0.000000
 42
1.000000
  0
SEQEND
  8
0
  0
POLYLINE
  8
21
 66
1
 10
0.000000
 20
0.000000
 30
0.000000
 40
0.000000
 41
0.000000
 70
1
  0
VERTEX
  8
21
 10
0.332879
 20
1.327879
 30
0.000000
  0
VERTEX
  8
21
 10
0.337879
 20
1.322879
 30
0.000000
 42
1.000000
  0
VERTEX
  8
21
 10
0.342121
 20
1.327121
 30
0.000000
  0
VERTEX
  8
21
 10
0.337121
 20
1.332121
 30
0.000000
 42
1.000000
  0
SEQEND
  8
0
  0
POLYLINE
  8
21
 66
1
 10
0.000000
 20
0.000000
 30
0.000000
 40
0.000000
 41
0.000000
 70
1
  0
VERTEX
  8
21
 10
0.338000
 20
1.330000
 30
0.000000
  0
VERTEX
  8
21
 10
0.338000
 20
1.470000
 30
0.000000
 42
1.000000
  0
VERTEX
  8
21
 10
0.332000
 20
1.470000
 30
0.000000
  0
VERTEX
  8
21
 10
0.332000
 20
1.330000
 30
0.000000
 42
1.000000
  0
SEQEND
  8
0
  0
POLYLINE
  8
21
 66
1
 10
0.000000
 20
0.000000
 30
0.000000
 40
0.000000
 41
0.000000
 70
1
  0
VERTEX
  8
21
 10
0.262879
 20
1.332121
 30
0.000000
  0
VERTEX
  8
21
 10
0.257879
 20
1.327121
 30
0.000000
 42
1.000000
  0
VERTEX
  8
21
 10
0.262121
 20
1.322879
 30
0.000000
  0
VERTEX
  8
21
 10
0.267121
 20
1.327879
 30
0.000000
 42
1.000000
  0
SEQEND
  8
0
  0
POLYLINE
  8
21
 66
1
 10
0.000000
 20
0.000000
 30
0.000000
 40
0.000000
 41
0.000000
 70
1
  0
VERTEX
  8
21
 10
0.268000
 20
1.330000
 30
0.000000
  0
VERTEX
  8
21
 10
0.268000
 20
1.470000
 30
0.000000
 42
1.000000
  0
VERTEX
  8
21
 10
0.262000
 20
1.470000
 30
0.000000
  0
VERTEX
  8
21
 10
0.262000
 20
1.330000
 30
0.000000
 42
1.000000
  0
SEQEND
  8
0
  0
POLYLINE
  8
21
 66
1
 10
0.000000
 20
0.000000
 30
0.000000
 40
0.000000
 41
0.000000
 70
1
  0
VERTEX
  8
21
 10
0.343000
 20
1.310000
 30
0.000000
  0
VERTEX
  8
21
 10
0.343000
 20
1.325000
 30
0.000000
 42
1.000000
  0
VERTEX
  8
21
 10
0.337000
 20
1.325000
 30
0.000000
  0
VERTEX
  8
21
 10
0.337000
 20
1.310000
 30
0.000000
 42
1.000000
  0
SEQEND
  8
0
  0
POLYLINE
  8
21
 66
1
 10
0.000000
 20
0.000000
 30
0.000000
 40
0.000000
 41
0.000000
 70
1
  0
VERTEX
  8
21
 10
0.263000
 20
1.310000
 30
0.000000
  0
VERTEX
  8
21
 10
0.263000
 20
1.325000
 30
0.000000
 42
1.000000
  0
VERTEX
  8
21
 10
0.257000
 20
1.325000
 30
0.000000
  0
VERTEX
  8
21
 10
0.257000
 20
1.310000
 30
0.000000
 42
1.000000
  0
SEQEND
  8
0
  0
POLYLINE
  8
21
 66
1
 10
0.000000
 20
0.000000
 30
0.000000
 40
0.000000
 41
0.000000
 70
1
  0
VERTEX
  8
21
 10
0.270000
 20
1.297000
 30
0.000000
  0
VERTEX
  8
21
 10
0.330000
 20
1.297000
 30
0.000000
 42
1.000000
  0
VERTEX
  8
21
 10
0.330000
 20
1.303000
 30
0.000000
  0
VERTEX
  8
21
 10
0.270000
 20
1.303000
 30
0.000000
 42
1.000000
  0
SEQEND
  8
0
  0
INSERT
  8
21
  2
RECT
 10
0.300000
 20
1.292500
 30
0.000000
 41
0.015000
 42
0.020000
 43
1.000000
 50
270.000000
  0
INSERT
  8
21
  2
RECT
 10
0.300000
 20
1.507500
 30
0.000000
 41
0.015000
 42
0.020000
 43
1.000000
 50
270.000000
  0
POLYLINE
  8
21
 66
1
 10
0.000000
 20
0.000000
 30
0.000000
 40
0.000000
 41
0.000000
 70
1
  0
VERTEX
  8
21
 10
0.540000
 20
2.013000
 30
0.000000
 42
1.000000
  0
VERTEX
  8
21
 10
0.540000
 20
2.007000
 30
0.000000
 42
0.414214
  0
VERTEX
  8
21
 10
0.553000
 20
2.020000
 30
0.000000
 42
1.000000
  0
VERTEX
  8
21
 10
0.547000
 20
2.020000
 30
0.000000
 42
-0.414214
  0
SEQEND
  8
0
  0
POLYLINE
  8
21
 66
1
 10
0.000000
 20
0.000000
 30
0.000000
 40
0.000000
 41
0.000000
 70
1
  0
VERTEX
  8
21
 10
0.547000
 20
2.080000
 30
0.000000
 42
1.000000
  0
VERTEX
  8
21
 10
0.553000
 20
2.080000
 30
0.000000
 42
0.414214
  0
VERTEX
  8
21
 10
0.540000
 20
2.093000
 30
0.000000
 42
1.000000
  0
VERTEX
  8
21
 10
0.540000
 20
2.087000
 30
0.000000
 42
-0.414214
  0
SEQEND
  8
0
  0
POLYLINE
  8
21
 66
1
 10
0.000000
 20
0.000000
 30
0.000000
 40
0.000000
 41
0.000000
 70
1
  0
VERTEX
  8
21
 10
0.360000
 20
2.087000
 30
0.000000
 42
1.000000
  0
VERTEX
  8
21
 10
0.360000
 20
2.093000
 30
0.000000
 42
0.414214
  0
VERTEX
  8
21
 10
0.347000
 20
2.080000
 30
0.000000
 42
1.000000
  0
VERTEX
  8
21
 10
0.353000
 20
2.080000
 30
0.000000
 42
-0.414214
  0
SEQEND
  8
0
  0
POLYLINE
  8
21
 66
1
 10
0.000000
 20
0.000000
 30
0.000000
 40
0.000000
 41
0.000000
 70
1
  0
VERTEX
  8
21
 10
0.353000
 20
2.020000
 30
0.000000
 42
1.000000
  0
VERTEX
  8
21
 10
0.347000
 20
2.020000
 30
0.000000
 42
0.414214
  0
VERTEX
  8
21
 10
0.360000
 20
2.007000
 30
0.000000
 42
1.000000
  0
VERTEX
  8
21
 10
0.360000
 20
2.013000
 30
0.000000
 42
-0.414214
  0
SEQEND
  8
0
  0
POLYLINE
  8
21
 66
1
 10
0.000000
 20
0.000000
 30
0.000000
 40
0.000000
 41
0.000000
 70
1
  0
VERTEX
  8
21
 10
0.547000
 20
2.080000
 30
0.000000
  0
VERTEX
  8
21
 10
0.547000
 20
2.020000
 30
0.000000
 42
1.000000
  0
VERTEX
  8
21
 10
0.553000
 20
2.020000
 30
0.000000
  0
VERTEX
  8
21
 10
0.553000
 20
2.080000
 30
0.000000
 42
1.000000
  0
SEQEND
  8
0
  0
POLYLINE
  8
21
 66
1
 10
0.000000
 20
0.000000
 30
0.000000
 40
0.000000
 41
0.000000
 70
1
  0
VERTEX
  8
21
 10
0.540000
 20
2.013000
 30
0.000000
  0
VERTEX
  8
21
 10
0.525000
 20
2.013000
 30
0.000000
 42
1.000000
  0
VERTEX
  8
21
 10
0.525000
 20
2.007000
 30
0.000000
  0
VERTEX
  8
21
 10
0.540000
 20
2.007000
 30
0.000000
 42
1.000000
  0
SEQEND
  8
0
  0
POLYLINE
  8
21
 66
1
 10
0.000000
 20
0.000000
 30
0.000000
 40
0.000000
 41
0.000000
 70
1
  0
VERTEX
  8
21
 10
0.517879
 20
2.012879
 30
0.000000
  0
VERTEX
  8
21
 10
0.522879
 20
2.007879
 30
0.000000
 42
1.000000
  0
VERTEX
  8
21
 10
0.527121
 20
2.012121
 30
0.000000
  0
VERTEX
  8
21
 10
0.522121
 20
2.017121
 30
0.000000
 42
1.000000
  0
SEQEND
  8
0
  0
POLYLINE
  8
21
 66
1
 10
0.000000
 20
0.000000
 30
0.000000
 40
0.000000
 41
0.000000
 70
1
  0
VERTEX
  8
21
 10
0.540000
 20
2.093000
 30
0.000000
  0
VERTEX
  8
21
 10
0.525000
 20
2.093000
 30
0.000000
 42
1.000000
  0
VERTEX
  8
21
 10
0.525000
 20
2.087000
 30
0.000000
  0
VERTEX
  8
21
 10
0.540000
 20
2.087000
 30
0.000000
 42
1.000000
  0
SEQEND
  8
0
  0
POLYLINE
  8
21
 66
1
 10
0.000000
 20
0.000000
 30
0.000000
 40
0.000000
 41
0.000000
 70
1
  0
VERTEX
  8
21
 10
0.522121
 20
2.082879
 30
0.000000
  0
VERTEX
  8
21
 10
0.527121
 20
2.087879
 30
0.000000
 42
1.000000
  0
VERTEX
  8
21
 10
0.522879
 20
2.092121
 30
0.000000
  0
VERTEX
  8
21
 10
0.517879
 20
2.087121
 30
0.000000
 42
1.000000
  0
SEQEND
  8
0
  0
POLYLINE
  8
21
 66
1
 10
0.000000
 20
0.000000
 30
0.000000
 40
0.000000
 41
0.000000
 70
1
  0
VERTEX
  8
21
 10
0.377879
 20
2.017121
 30
0.000000
  0
VERTEX
  8
21
 10
0.372879
 20
2.012121
 30
0.000000
 42
1.000000
  0
VERTEX
  8
21
 10
0.377121
 20
2.007879
 30
0.000000
  0
VERTEX
  8
21
 10
0.382121
 20
2.012879
 30
0.000000
 42
1.000000
  0
SEQEND
  8
0
  0
POLYLINE
  8
21
 66
1
 10
0.000000
 20
0.000000
 30
0.000000
 40
0.000000
 41
0.000000
 70
1
  0
VERTEX
  8
21
 10
0.380000
 20
2.012000
 30
0.000000
  0
VERTEX
  8
21
 10
0.520000
 20
2.012000
 30
0.000000
 42
1.000000
  0
VERTEX
  8
21
 10
0.520000
 20
2.018000
 30
0.000000
  0
VERTEX
  8
21
 10
0.380000
 20
2.018000
 30
0.000000
 42
1.000000
  0
SEQEND
  8
0
  0
POLYLINE
  8
21
 66
1
 10
0.000000
 20
0.000000
 30
0.000000
 40
0.000000
 41
0.000000
 70
1
  0
VERTEX
  8
21
 10
0.382121
 20
2.087121
 30
0.000000
  0
VERTEX
  8
21
 10
0.377121
 20
2.092121
 30
0.000000
 42
1.000000
  0
VERTEX
  8
21
 10
0.372879
 20
2.087879
 30
0.000000
  0
VERTEX
  8
21
 10
0.377879
 20
2.082879
 30
0.000000
 42
1.000000
  0
SEQEND
  8
0
  0
POLYLINE
  8
21
 66
1
 10
0.000000
 20
0.000000
 30
0.000000
 40
0.000000
 41
0.000000
 70
1
  0
VERTEX
  8
21
 10
0.380000
 20
2.082000
 30
0.000000
  0
VERTEX
  8
21
 10
0.520000
 20
2.082000
 30
0.000000
 42
1.000000
  0
VERTEX
  8
21
 10
0.520000
 20
2.088000
 30
0.000000
  0
VERTEX
  8
21
 10
0.380000
 20
2.088000
 30
0.000000
 42
1.000000
  0
SEQEND
  8
0
  0
POLYLINE
  8
21
 66
1
 10
0.000000
 20
0.000000
 30
0.000000
 40
0.000000
 41
0.000000
 70
1
  0
VERTEX
  8
21
 10
0.360000
 20
2.007000
 30
0.000000
  0
VERTEX
  8
21
 10
0.375000
 20
2.007000
 30
0.000000
 42
1.000000
  0
VERTEX
  8
21
 10
0.375000
 20
2.013000
 30
0.000000
  0
VERTEX
  8
21
 10
0.360000
 20
2.013000
 30
0.000000
 42
1.000000
  0
SEQEND
  8
0
  0
POLYLINE
  8
21
 66
1
 10
0.000000
 20
0.000000
 30
0.000000
 40
0.000000
 41
0.000000
 70
1
  0
VERTEX
  8
21
 10
0.360000
 20
2.087000
 30
0.000000
  0
VERTEX
  8
21
 10
0.375000
 20
2.087000
 30
0.000000
 42
1.000000
  0
VERTEX
  8
21
 10
0.375000
 20
2.093000
 30
0.000000
  0
VERTEX
  8
21
 10
0.360000
 20
2.093000
 30
0.000000
 42
1.000000
  0
SEQEND
  8
0
  0
POLYLINE
  8
21
 66
1
 10
0.000000
 20
0.000000
 30
0.000000
 40
0.000000
 41
0.000000
 70
1
  0
VERTEX
  8
21
 10
0.347000
 20
2.080000
 30
0.000000
  0
VERTEX
  8
21
 10
0.347000
 20
2.020000
 30
0.000000
 42
1.000000
  0
VERTEX
  8
21
 10
0.353000
 20
2.020000
 30
0.000000
  0
VERTEX
  8
21
 10
0.353000
 20
2.080000
 30
0.000000
 42
1.000000
  0
SEQEND
  8
0
  0
INSERT
  8
21
  2
RECT
 10
0.342500
 20
2.050000
 30
0.000000
 41
0.015000
 42
0.020000
 43
1.000000
 50
180.000000
  0
INSERT
  8
21
  2
RECT
 10
0.557500
 20
2.050000
 30
0.000000
 41
0.015000
 42
0.020000
 43
1.000000
 50
180.000000
  0
POLYLINE
  8
21
 66
1
 10
0.000000
 20
0.000000
 30
0.000000
 40
0.000000
 41
0.000000
 70
1
  0
VERTEX
  8
21
 10
0.590000
 20
0.663000
 30
0.000000
 42
1.000000
  0
VERTEX
  8
21
 10
0.590000
 20
0.657000
 30
0.000000
 42
0.414214
  0
VERTEX
  8
21
 10
0.603000
 20
0.670000
 30
0.000000
 42
1.000000
  0
VERTEX
  8
21
 10
0.597000
 20
0.670000
 30
0.000000
 42
-0.414214
  0
SEQEND
  8
0
  0
POLYLINE
  8
21
 66
1
 10
0.000000
 20
0.000000
 30
0.000000
 40
0.000000
 41
0.000000
 70
1
  0
VERTEX
  8
21
 10
0.597000
 20
0.730000
 30
0.000000
 42
1.000000
  0
VERTEX
  8
21
 10
0.603000
 20
0.730000
 30
0.000000
 42
0.414214
  0
VERTEX
  8
21
 10
0.590000
 20
0.743000
 30
0.000000
 42
1.000000
  0
VERTEX
  8
21
 10
0.590000
 20
0.737000
 30
0.000000
 42
-0.414214
  0
SEQEND
  8
0
  0
POLYLINE
  8
21
 66
1
 10
0.000000
 20
0.000000
 30
0.000000
 40
0.000000
 41
0.000000
 70
1
  0
VERTEX
  8
21
 10
0.410000
 20
0.737000
 30
0.000000
 42
1.000000
  0
VERTEX
  8
21
 10
0.410000
 20
0.743000
 30
0.000000
 42
0.414214
  0
VERTEX
  8
21
 10
0.397000
 20
0.730000
 30
0.000000
 42
1.000000
  0
VERTEX
  8
21
 10
0.403000
 20
0.730000
 30
0.000000
 42
-0.414214
  0
SEQEND
  8
0
  0
POLYLINE
  8
21
 66
1
 10
0.000000
 20
0.000000
 30
0.000000
 40
0.000000
 41
0.000000
 70
1
  0
VERTEX
  8
21
 10
0.403000
 20
0.670000
 30
0.000000
 42
1.000000
  0
VERTEX
  8
21
 10
0.397000
 20
0.670000
 30
0.000000
 42
0.414214
  0
VERTEX
  8
21
 10
0.410000
 20
0.657000
 30
0.000000
 42
1.000000
  0
VERTEX
  8
21
 10
0.410000
 20
0.663000
 30
0.000000
 42
-0.414214
  0
SEQEND
  8
0
  0
POLYLINE
  8
21
 66
1
 10
0.000000
 20
0.000000
 30
0.000000
 40
0.000000
 41
0.000000
 70
1
  0
VERTEX
  8
21
 10
0.597000
 20
0.730000
 30
0.000000
  0
VERTEX
  8
21
 10
0.597000
 20
0.670000
 30
0.000000
 42
1.000000
  0
VERTEX
  8
21
 10
0.603000
 20
0.670000
 30
0.000000
  0
VERTEX
  8
21
 10
0.603000
 20
0.730000
 30
0.000000
 42
1.000000
  0
SEQEND
  8
0
  0
POLYLINE
  8
21
 66
1
 10
0.000000
 20
0.000000
 30
0.000000
 40
0.000000
 41
0.000000
 70
1
  0
VERTEX
  8
21
 10
0.590000
 20
0.663000
 30
0.000000
  0
VERTEX
  8
21
 10
0.575000
 20
0.663000
 30
0.000000
 42
1.000000
  0
VERTEX
  8
21
 10
0.575000
 20
0.657000
 30
0.000000
  0
VERTEX
  8
21
 10
0.590000
 20
0.657000
 30
0.000000
 42
1.000000
  0
SEQEND
  8
0
  0
POLYLINE
  8
21
 66
1
 10
0.000000
 20
0.000000
 30
0.000000
 40
0.000000
 41
0.000000
 70
1
  0
VERTEX
  8
21
 10
0.567879
 20
0.662879
 30
0.000000
  0
VERTEX
  8
21
 10
0.572879
 20
0.657879
 30
0.000000
 42
1.000000
  0
VERTEX
  8
21
 10
0.577121
 20
0.662121
 30
0.000000
  0
VERTEX
  8
21
 10
0.572121
 20
0.667121
 30
0.000000
 42
1.000000
  0
SEQEND
  8
0
  0
POLYLINE
  8
21
 66
1
 10
0.000000
 20
0.000000
 30
0.000000
 40
0.000000
 41
0.000000
 70
1
  0
VERTEX
  8
21
 10
0.590000
 20
0.743000
 30
0.000000
  0
VERTEX
  8
21
 10
0.575000
 20
0.743000
 30
0.000000
 42
1.000000
  0
VERTEX
  8
21
 10
0.575000
 20
0.737000
 30
0.000000
  0
VERTEX
  8
21
 10
0.590000
 20
0.737000
 30
0.000000
 42
1.000000
  0
SEQEND
  8
0
  0
POLYLINE
  8
21
 66
1
 10
0.000000
 20
0.000000
 30
0.000000
 40
0.000000
 41
0.000000
 70
1
  0
VERTEX
  8
21
 10
0.572121
 20
0.732879
 30
0.000000
  0
VERTEX
  8
21
 10
0.577121
 20
0.737879
 30
0.000000
 42
1.000000
  0
VERTEX
  8
21
 10
0.572879
 20
0.742121
 30
0.000000
  0
VERTEX
  8
21
 10
0.567879
 20
0.737121
 30
0.000000
 42
1.000000
  0
SEQEND
  8
0
  0
POLYLINE
  8
21
 66
1
 10
0.000000
 20
0.000000
 30
0.000000
 40
0.000000
 41
0.000000
 70
1
  0
VERTEX
  8
21
 10
0.427879
 20
0.667121
 30
0.000000
  0
VERTEX
  8
21
 10
0.422879
 20
0.662121
 30
0.000000
 42
1.000000
  0
VERTEX
  8
21
 10
0.427121
 20
0.657879
 30
0.000000
  0
VERTEX
  8
21
 10
0.432121
 20
0.662879
 30
0.000000
 42
1.000000
  0
SEQEND
  8
0
  0
POLYLINE
  8
21
 66
1
 10
0.000000
 20
0.000000
 30
0.000000
 40
0.000000
 41
0.000000
 70
1
  0
VERTEX
  8
21
 10
0.430000
 20
0.662000
 30
0.000000
  0
VERTEX
  8
21
 10
0.570000
 20
0.662000
 30
0.000000
 42
1.000000
  0
VERTEX
  8
21
 10
0.570000
 20
0.668000
 30
0.000000
  0
VERTEX
  8
21
 10
0.430000
 20
0.668000
 30
0.000000
 42
1.000000
  0
SEQEND
  8
0
  0
POLYLINE
  8
21
 66
1
 10
0.000000
 20
0.000000
 30
0.000000
 40
0.000000
 41
0.000000
 70
1
  0
VERTEX
  8
21
 10
0.432121
 20
0.737121
 30
0.000000
  0
VERTEX
  8
21
 10
0.427121
 20
0.742121
 30
0.000000
 42
1.000000
  0
VERTEX
  8
21
 10
0.422879
 20
0.737879
 30
0.000000
  0
VERTEX
  8
21
 10
0.427879
 20
0.732879
 30
0.000000
 42
1.000000
  0
SEQEND
  8
0
  0
POLYLINE
  8
21
 66
1
 10
0.000000
 20
0.000000
 30
0.000000
 40
0.000000
 41
0.000000
 70
1
  0
VERTEX
  8
21
 10
0.430000
 20
0.732000
 30
0.000000
  0
VERTEX
  8
21
 10
0.570000
 20
0.732000
 30
0.000000
 42
1.000000
  0
VERTEX
  8
21
 10
0.570000
 20
0.738000
 30
0.000000
  0
VERTEX
  8
21
 10
0.430000
 20
0.738000
 30
0.000000
 42
1.000000
  0
SEQEND
  8
0
  0
POLYLINE
  8
21
 66
1
 10
0.000000
 20
0.000000
 30
0.000000
 40
0.000000
 41
0.000000
 70
1
  0
VERTEX
  8
21
 10
0.410000
 20
0.657000
 30
0.000000
  0
VERTEX
  8
21
 10
0.425000
 20
0.657000
 30
0.000000
 42
1.000000
  0
VERTEX
  8
21
 10
0.425000
 20
0.663000
 30
0.000000
  0
VERTEX
  8
21
 10
0.410000
 20
0.663000
 30
0.000000
 42
1.000000
  0
SEQEND
  8
0
  0
POLYLINE
  8
21
 66
1
 10
0.000000
 20
0.000000
 30
0.000000
 40
0.000000
 41
0.000000
 70
1
  0
VERTEX
  8
21
 10
0.410000
 20
0.737000
 30
0.000000
  0
VERTEX
  8
21
 10
0.425000
 20
0.737000
 30
0.000000
 42
1.000000
  0
VERTEX
  8
21
 10
0.425000
 20
0.743000
 30
0.000000
  0
VERTEX
  8
21
 10
0.410000
 20
0.743000
 30
0.000000
 42
1.000000
  0
SEQEND
  8
0
  0
POLYLINE
  8
21
 66
1
 10
0.000000
 20
0.000000
 30
0.000000
 40
0.000000
 41
0.000000
 70
1
  0
VERTEX
  8
21
 10
0.397000
 20
0.730000
 30
0.000000
  0
VERTEX
  8
21
 10
0.397000
 20
0.670000
 30
0.000000
 42
1.000000
  0
VERTEX
  8
21
 10
0.403000
 20
0.670000
 30
0.000000
  0
VERTEX
  8
21
 10
0.403000
 20
0.730000
 30
0.000000
 42
1.000000
  0
SEQEND
  8
0
  0
INSERT
  8
21
  2
RECT
 10
0.392500
 20
0.700000
 30
0.000000
 41
0.015000
 42
0.020000
 43
1.000000
 50
180.000000
  0
INSERT
  8
21
  2
RECT
 10
0.607500
 20
0.700000
 30
0.000000
 41
0.015000
 42
0.020000
 43
1.000000
 50
180.000000
  0
POLYLINE
  8
21
 66
1
 10
0.000000
 20
0.000000
 30
0.000000
 40
0.000000
 41
0.000000
 70
1
  0
VERTEX
  8
21
 10
1.985000
 20
2.087000
 30
0.000000
 42
1.000000
  0
VERTEX
  8
21
 10
1.985000
 20
2.093000
 30
0.000000
 42
0.414214
  0
VERTEX
  8
21
 10
1.972000
 20
2.080000
 30
0.000000
 42
1.000000
  0
VERTEX
  8
21
 10
1.978000
 20
2.080000
 30
0.000000
 42
-0.414214
  0
SEQEND
  8
0
  0
POLYLINE
  8
21
 66
1
 10
0.000000
 20
0.000000
 30
0.000000
 40
0.000000
 41
0.000000
 70
1
  0
VERTEX
  8
21
 10
1.978000
 20
2.020000
 30
0.000000
 42
1.000000
  0
VERTEX
  8
21
 10
1.972000
 20
2.020000
 30
0.000000
 42
0.414214
  0
VERTEX
  8
21
 10
1.985000
 20
2.007000
 30
0.000000
 42
1.000000
  0
VERTEX
  8
21
 10
1.985000
 20
2.013000
 30
0.000000
 42
-0.414214
  0
SEQEND
  8
0
  0
POLYLINE
  8
21
 66
1
 10
0.000000
 20
0.000000
 30
0.000000
 40
0.000000
 41
0.000000
 70
1
  0
VERTEX
  8
21
 10
2.165000
 20
2.013000
 30
0.000000
 42
1.000000
  0
VERTEX
  8
21
 10
2.165000
 20
2.007000
 30
0.000000
 42
0.414214
  0
VERTEX
  8
21
 10
2.178000
 20
2.020000
 30
0.000000
 42
1.000000
  0
VERTEX
  8
21
 10
2.172000
 20
2.020000
 30
0.000000
 42
-0.414214
  0
SEQEND
  8
0
  0
POLYLINE
  8
21
 66
1
 10
0.000000
 20
0.000000
 30
0.000000
 40
0.000000
 41
0.000000
 70
1
  0
VERTEX
  8
21
 10
2.172000
 20
2.080000
 30
0.000000
 42
1.000000
  0
VERTEX
  8
21
 10
2.178000
 20
2.080000
 30
0.000000
 42
0.414214
  0
VERTEX
  8
21
 10
2.165000
 20
2.093000
 30
0.000000
 42
1.000000
  0
VERTEX
  8
21
 10
2.165000
 20
2.087000
 30
0.000000
 42
-0.414214
  0
SEQEND
  8
0
  0
POLYLINE
  8
21
 66
1
 10
0.000000
 20
0.000000
 30
0.000000
 40
0.000000
 41
0.000000
 70
1
  0
VERTEX
  8
21
 10
1.978000
 20
2.020000
 30
0.000000
  0
VERTEX
  8
21
 10
1.978000
 20
2.080000
 30
0.000000
 42
1.000000
  0
VERTEX
  8
21
 10
1.972000
 20
2.080000
 30
0.000000
  0
VERTEX
  8
21
 10
1.972000
 20
2.020000
 30
0.000000
 42
1.000000
  0
SEQEND
  8
0
  0
POLYLINE
  8
21
 66
1
 10
0.000000
 20
0.000000
 30
0.000000
 40
0.000000
 41
0.000000
 70
1
  0
VERTEX
  8
21
 10
1.985000
 20
2.087000
 30
0.000000
  0
VERTEX
  8
21
 10
2.000000
 20
2.087000
 30
0.000000
 42
1.000000
  0
VERTEX
  8
21
 10
2.000000
 20
2.093000
 30
0.000000
  0
VERTEX
  8
21
 10
1.985000
 20
2.093000
 30
0.000000
 42
1.000000
  0
SEQEND
  8
0
  0
POLYLINE
  8
21
 66
1
 10
0.000000
 20
0.000000
 30
0.000000
 40
0.000000
 41
0.000000
 70
1
  0
VERTEX
  8
21
 10
2.007121
 20
2.087121
 30
0.000000
  0
VERTEX
  8
21
 10
2.002121
 20
2.092121
 30
0.000000
 42
1.000000
  0
VERTEX
  8
21
 10
1.997879
 20
2.087879
 30
0.000000
  0
VERTEX
  8
21
 10
2.002879
 20
2.082879
 30
0.000000
 42
1.000000
  0
SEQEND
  8
0
  0
POLYLINE
  8
21
 66
1
 10
0.000000
 20
0.000000
 30
0.000000
 40
0.000000
 41
0.000000
 70
1
  0
VERTEX
  8
21
 10
1.985000
 20
2.007000
 30
0.000000
  0
VERTEX
  8
21
 10
2.000000
 20
2.007000
 30
0.000000
 42
1.000000
  0
VERTEX
  8
21
 10
2.000000
 20
2.013000
 30
0.000000
  0
VERTEX
  8
21
 10
1.985000
 20
2.013000
 30
0.000000
 42
1.000000
  0
SEQEND
  8
0
  0
POLYLINE
  8
21
 66
1
 10
0.000000
 20
0.000000
 30
0.000000
 40
0.000000
 41
0.000000
 70
1
  0
VERTEX
  8
21
 10
2.002879
 20
2.017121
 30
0.000000
  0
VERTEX
  8
21
 10
1.997879
 20
2.012121
 30
0.000000
 42
1.000000
  0
VERTEX
  8
21
 10
2.002121
 20
2.007879
 30
0.000000
  0
VERTEX
  8
21
 10
2.007121
 20
2.012879
 30
0.000000
 42
1.000000
  0
SEQEND
  8
0
  0
POLYLINE
  8
21
 66
1
 10
0.000000
 20
0.000000
 30
0.000000
 40
0.000000
 41
0.000000
 70
1
  0
VERTEX
  8
21
 10
2.147121
 20
2.082879
 30
0.000000
  0
VERTEX
  8
21
 10
2.152121
 20
2.087879
 30
0.000000
 42
1.000000
  0
VERTEX
  8
21
 10
2.147879
 20
2.092121
 30
0.000000
  0
VERTEX
  8
21
 10
2.142879
 20
2.087121
 30
0.000000
 42
1.000000
  0
SEQEND
  8
0
  0
POLYLINE
  8
21
 66
1
 10
0.000000
 20
0.000000
 30
0.000000
 40
0.000000
 41
0.000000
 70
1
  0
VERTEX
  8
21
 10
2.145000
 20
2.088000
 30
0.000000
  0
VERTEX
  8
21
 10
2.005000
 20
2.088000
 30
0.000000
 42
1.000000
  0
VERTEX
  8
21
 10
2.005000
 20
2.082000
 30
0.000000
  0
VERTEX
  8
21
 10
2.145000
 20
2.082000
 30
0.000000
 42
1.000000
  0
SEQEND
  8
0
  0
POLYLINE
  8
21
 66
1
 10
0.000000
 20
0.000000
 30
0.000000
 40
0.000000
 41
0.000000
 70
1
  0
VERTEX
  8
21
 10
2.142879
 20
2.012879
 30
0.000000
  0
VERTEX
  8
21
 10
2.147879
 20
2.007879
 30
0.000000
 42
1.000000
  0
VERTEX
  8
21
 10
2.152121
 20
2.012121
 30
0.000000
  0
VERTEX
  8
21
 10
2.147121
 20
2.017121
 30
0.000000
 42
1.000000
  0
SEQEND
  8
0
  0
POLYLINE
  8
21
 66
1
 10
0.000000
 20
0.000000
 30
0.000000
 40
0.000000
 41
0.000000
 70
1
  0
VERTEX
  8
21
 10
2.145000
 20
2.018000
 30
0.000000
  0
VERTEX
  8
21
 10
2.005000
 20
2.018000
 30
0.000000
 42
1.000000
  0
VERTEX
  8
21
 10
2.005000
 20
2.012000
 30
0.000000
  0
VERTEX
  8
21
 10
2.145000
 20
2.012000
 30
0.000000
 42
1.000000
  0
SEQEND
  8
0
  0
POLYLINE
  8
21
 66
1
 10
0.000000
 20
0.000000
 30
0.000000
 40
0.000000
 41
0.000000
 70
1
  0
VERTEX
  8
21
 10
2.165000
 20
2.093000
 30
0.000000
  0
VERTEX
  8
21
 10
2.150000
 20
2.093000
 30
0.000000
 42
1.000000
  0
VERTEX
  8
21
 10
2.150000
 20
2.087000
 30
0.000000
  0
VERTEX
  8
21
 10
2.165000
 20
2.087000
 30
0.000000
 42
1.000000
  0
SEQEND
  8
0
  0
POLYLINE
  8
21
 66
1
 10
0.000000
 20
0.000000
 30
0.000000
 40
0.000000
 41
0.000000
 70
1
  0
VERTEX
  8
21
 10
2.165000
 20
2.013000
 30
0.000000
  0
VERTEX
  8
21
 10
2.150000
 20
2.013000
 30
0.000000
 42
1.000000
  0
VERTEX
  8
21
 10
2.150000
 20
2.007000
 30
0.000000
  0
VERTEX
  8
21
 10
2.165000
 20
2.007000
 30
0.000000
 42
1.000000
  0
SEQEND
  8
0
  0
POLYLINE
  8
21
 66
1
 10
0.000000
 20
0.000000
 30
0.000000
 40
0.000000
 41
0.000000
 70
1
  0
VERTEX
  8
21
 10
2.178000
 20
2.020000
 30
0.000000
  0
VERTEX
  8
21
 10
2.178000
 20
2.080000
 30
0.000000
 42
1.000000
  0
VERTEX
  8
21
 10
2.172000
 20
2.080000
 30
0.000000
  0
VERTEX
  8
21
 10
2.172000
 20
2.020000
 30
0.000000
 42
1.000000
  0
SEQEND
  8
0
  0
INSERT
  8
21
  2
RECT
 10
2.182500
 20
2.050000
 30
0.000000
 41
0.015000
 42
0.020000
 43
1.000000
 50
0.000000
  0
INSERT
  8
21
  2
RECT
 10
1.967500
 20
2.050000
 30
0.000000
 41
0.015000
 42
0.020000
 43
1.000000
 50
0.000000
  0
POLYLINE
  8
21
 66
1
 10
0.000000
 20
0.000000
 30
0.000000
 40
0.000000
 41
0.000000
 70
1
  0
VERTEX
  8
21
 10
1.990000
 20
0.663000
 30
0.000000
 42
1.000000
  0
VERTEX
  8
21
 10
1.990000
 20
0.657000
 30
0.000000
 42
0.414214
  0
VERTEX
  8
21
 10
2.003000
 20
0.670000
 30
0.000000
 42
1.000000
  0
VERTEX
  8
21
 10
1.997000
 20
0.670000
 30
0.000000
 42
-0.414214
  0
SEQEND
  8
0
  0
POLYLINE
  8
21
 66
1
 10
0.000000
 20
0.000000
 30
0.000000
 40
0.000000
 41
0.000000
 70
1
  0
VERTEX
  8
21
 10
1.997000
 20
0.730000
 30
0.000000
 42
1.000000
  0
VERTEX
  8
21
 10
2.003000
 20
0.730000
 30
0.000000
 42
0.414214
  0
VERTEX
  8
21
 10
1.990000
 20
0.743000
 30
0.000000
 42
1.000000
  0
VERTEX
  8
21
 10
1.990000
 20
0.737000
 30
0.000000
 42
-0.414214
  0
SEQEND
  8
0
  0
POLYLINE
  8
21
 66
1
 10
0.000000
 20
0.000000
 30
0.000000
 40
0.000000
 41
0.000000
 70
1
  0
VERTEX
  8
21
 10
1.810000
 20
0.737000
 30
0.000000
 42
1.000000
  0
VERTEX
  8
21
 10
1.810000
 20
0.743000
 30
0.000000
 42
0.414214
  0
VERTEX
  8
21
 10
1.797000
 20
0.730000
 30
0.000000
 42
1.000000
  0
VERTEX
  8
21
 10
1.803000
 20
0.730000
 30
0.000000
 42
-0.414214
  0
SEQEND
  8
0
  0
POLYLINE
  8
21
 66
1
 10
0.000000
 20
0.000000
 30
0.000000
 40
0.000000
 41
0.000000
 70
1
  0
VERTEX
  8
21
 10
1.803000
 20
0.670000
 30
0.000000
 42
1.000000
  0
VERTEX
  8
21
 10
1.797000
 20
0.670000
 30
0.000000
 42
0.414214
  0
VERTEX
  8
21
 10
1.810000
 20
0.657000
 30
0.000000
 42
1.000000
  0
VERTEX
  8
21
 10
1.810000
 20
0.663000
 30
0.000000
 42
-0.414214
  0
SEQEND
  8
0
  0
POLYLINE
  8
21
 66
1
 10
0.000000
 20
0.000000
 30
0.000000
 40
0.000000
 41
0.000000
 70
1
  0
VERTEX
  8
21
 10
1.997000
 20
0.730000
 30
0.000000
  0
VERTEX
  8
21
 10
1.997000
 20
0.670000
 30
0.000000
 42
1.000000
  0
VERTEX
  8
21
 10
2.003000
 20
0.670000
 30
0.000000
  0
VERTEX
  8
21
 10
2.003000
 20
0.730000
 30
0.000000
 42
1.000000
  0
SEQEND
  8
0
  0
POLYLINE
  8
21
 66
1
 10
0.000000
 20
0.000000
 30
0.000000
 40
0.000000
 41
0.000000
 70
1
  0
VERTEX
  8
21
 10
1.990000
 20
0.663000
 30
0.000000
  0
VERTEX
  8
21
 10
1.975000
 20
0.663000
 30
0.000000
 42
1.000000
  0
VERTEX
  8
21
 10
1.975000
 20
0.657000
 30
0.000000
  0
VERTEX
  8
21
 10
1.990000
 20
0.657000
 30
0.000000
 42
1.000000
  0
SEQEND
  8
0
  0
POLYLINE
  8
21
 66
1
 10
0.000000
 20
0.000000
 30
0.000000
 40
0.000000
 41
0.000000
 70
1
  0
VERTEX
  8
21
 10
1.967879
 20
0.662879
 30
0.000000
  0
VERTEX
  8
21
 10
1.972879
 20
0.657879
 30
0.000000
 42
1.000000
  0
VERTEX
  8
21
 10
1.977121
 20
0.662121
 30
0.000000
  0
VERTEX
  8
21
 10
1.972121
 20
0.667121
 30
0.000000
 42
1.000000
  0
SEQEND
  8
0
  0
POLYLINE
  8
21
 66
1
 10
0.000000
 20
0.000000
 30
0.000000
 40
0.000000
 41
0.000000
 70
1
  0
VERTEX
  8
21
 10
1.990000
 20
0.743000
 30
0.000000
  0
VERTEX
  8
21
 10
1.975000
 20
0.743000
 30
0.000000
 42
1.000000
  0
VERTEX
  8
21
 10
1.975000
 20
0.737000
 30
0.000000
  0
VERTEX
  8
21
 10
1.990000
 20
0.737000
 30
0.000000
 42
1.000000
  0
SEQEND
  8
0
  0
POLYLINE
  8
21
 66
1
 10
0.000000
 20
0.000000
 30
0.000000
 40
0.000000
 41
0.000000
 70
1
  0
VERTEX
  8
21
 10
1.972121
 20
0.732879
 30
0.000000
  0
VERTEX
  8
21
 10
1.977121
 20
0.737879
 30
0.000000
 42
1.000000
  0
VERTEX
  8
21
 10
1.972879
 20
0.742121
 30
0.000000
  0
VERTEX
  8
21
 10
1.967879
 20
0.737121
 30
0.000000
 42
1.000000
  0
SEQEND
  8
0
  0
POLYLINE
  8
21
 66
1
 10
0.000000
 20
0.000000
 30
0.000000
 40
0.000000
 41
0.000000
 70
1
  0
VERTEX
  8
21
 10
1.827879
 20
0.667121
 30
0.000000
  0
VERTEX
  8
21
 10
1.822879
 20
0.662121
 30
0.000000
 42
1.000000
  0
VERTEX
  8
21
 10
1.827121
 20
0.657879
 30
0.000000
  0
VERTEX
  8
21
 10
1.832121
 20
0.662879
 30
0.000000
 42
1.000000
  0
SEQEND
  8
0
  0
POLYLINE
  8
21
 66
1
 10
0.000000
 20
0.000000
 30
0.000000
 40
0.000000
 41
0.000000
 70
1
  0
VERTEX
  8
21
 10
1.830000
 20
0.662000
 30
0.000000
  0
VERTEX
  8
21
 10
1.970000
 20
0.662000
 30
0.000000
 42
1.000000
  0
VERTEX
  8
21
 10
1.970000
 20
0.668000
 30
0.000000
  0
VERTEX
  8
21
 10
1.830000
 20
0.668000
 30
0.000000
 42
1.000000
  0
SEQEND
  8
0
  0
POLYLINE
  8
21
 66
1
 10
0.000000
 20
0.000000
 30
0.000000
 40
0.000000
 41
0.000000
 70
1
  0
VERTEX
  8
21
 10
1.832121
 20
0.737121
 30
0.000000
  0
VERTEX
  8
21
 10
1.827121
 20
0.742121
 30
0.000000
 42
1.000000
  0
VERTEX
  8
21
 10
1.822879
 20
0.737879
 30
0.000000
  0
VERTEX
  8
21
 10
1.827879
 20
0.732879
 30
0.000000
 42
1.000000
  0
SEQEND
  8
0
  0
POLYLINE
  8
21
 66
1
 10
0.000000
 20
0.000000
 30
0.000000
 40
0.000000
 41
0.000000
 70
1
  0
VERTEX
  8
21
 10
1.830000
 20
0.732000
 30
0.000000
  0
VERTEX
  8
21
 10
1.970000
 20
0.732000
 30
0.000000
 42
1.000000
  0
VERTEX
  8
21
 10
1.970000
 20
0.738000
 30
0.000000
  0
VERTEX
  8
21
 10
1.830000
 20
0.738000
 30
0.000000
 42
1.000000
  0
SEQEND
  8
0
  0
POLYLINE
  8
21
 66
1
 10
0.000000
 20
0.000000
 30
0.000000
 40
0.000000
 41
0.000000
 70
1
  0
VERTEX
  8
21
 10
1.810000
 20
0.657000
 30
0.000000
  0
VERTEX
  8
21
 10
1.825000
 20
0.657000
 30
0.000000
 42
1.000000
  0
VERTEX
  8
21
 10
1.825000
 20
0.663000
 30
0.000000
  0
VERTEX
  8
21
 10
1.810000
 20
0.663000
 30
0.000000
 42
1.000000
  0
SEQEND
  8
0
  0
POLYLINE
  8
21
 66
1
 10
0.000000
 20
0.000000
 30
0.000000
 40
0.000000
 41
0.000000
 70
1
  0
VERTEX
  8
21
 10
1.810000
 20
0.737000
 30
0.000000
  0
VERTEX
  8
21
 10
1.825000
 20
0.737000
 30
0.000000
 42
1.000000
  0
VERTEX
  8
21
 10
1.825000
 20
0.743000
 30
0.000000
  0
VERTEX
  8
21
 10
1.810000
 20
0.743000
 30
0.000000
 42
1.000000
  0
SEQEND
  8
0
  0
POLYLINE
  8
21
 66
1
 10
0.000000
 20
0.000000
 30
0.000000
 40
0.000000
 41
0.000000
 70
1
  0
VERTEX
  8
21
 10
1.797000
 20
0.730000
 30
0.000000
  0
VERTEX
  8
21
 10
1.797000
 20
0.670000
 30
0.000000
 42
1.000000
  0
VERTEX
  8
21
 10
1.803000
 20
0.670000
 30
0.000000
  0
VERTEX
  8
21
 10
1.803000
 20
0.730000
 30
0.000000
 42
1.000000
  0
SEQEND
  8
0
  0
INSERT
  8
21
  2
RECT
 10
1.792500
 20
0.700000
 30
0.000000
 41
0.015000
 42
0.020000
 43
1.000000
 50
180.000000
  0
INSERT
  8
21
  2
RECT
 10
2.007500
 20
0.700000
 30
0.000000
 41
0.015000
 42
0.020000
 43
1.000000
 50
180.000000
  0
POLYLINE
  8
21
 66
1
 10
0.000000
 20
0.000000
 30
0.000000
 40
0.000000
 41
0.000000
 70
1
  0
VERTEX
  8
21
 10
2.387000
 20
1.490000
 30
0.000000
 42
1.000000
  0
VERTEX
  8
21
 10
2.393000
 20
1.490000
 30
0.000000
 42
0.414214
  0
VERTEX
  8
21
 10
2.380000
 20
1.503000
 30
0.000000
 42
1.000000
  0
VERTEX
  8
21
 10
2.380000
 20
1.497000
 30
0.000000
 42
-0.414214
  0
SEQEND
  8
0
  0
POLYLINE
  8
21
 66
1
 10
0.000000
 20
0.000000
 30
0.000000
 40
0.000000
 41
0.000000
 70
1
  0
VERTEX
  8
21
 10
2.320000
 20
1.497000
 30
0.000000
 42
1.000000
  0
VERTEX
  8
21
 10
2.320000
 20
1.503000
 30
0.000000
 42
0.414214
  0
VERTEX
  8
21
 10
2.307000
 20
1.490000
 30
0.000000
 42
1.000000
  0
VERTEX
  8
21
 10
2.313000
 20
1.490000
 30
0.000000
 42
-0.414214
  0
SEQEND
  8
0
  0
POLYLINE
  8
21
 66
1
 10
0.000000
 20
0.000000
 30
0.000000
 40
0.000000
 41
0.000000
 70
1
  0
VERTEX
  8
21
 10
2.313000
 20
1.310000
 30
0.000000
 42
1.000000
  0
VERTEX
  8
21
 10
2.307000
 20
1.310000
 30
0.000000
 42
0.414214
  0
VERTEX
  8
21
 10
2.320000
 20
1.297000
 30
0.000000
 42
1.000000
  0
VERTEX
  8
21
 10
2.320000
 20
1.303000
 30
0.000000
 42
-0.414214
  0
SEQEND
  8
0
  0
POLYLINE
  8
21
 66
1
 10
0.000000
 20
0.000000
 30
0.000000
 40
0.000000
 41
0.000000
 70
1
  0
VERTEX
  8
21
 10
2.380000
 20
1.303000
 30
0.000000
 42
1.000000
  0
VERTEX
  8
21
 10
2.380000
 20
1.297000
 30
0.000000
 42
0.414214
  0
VERTEX
  8
21
 10
2.393000
 20
1.310000
 30
0.000000
 42
1.000000
  0
VERTEX
  8
21
 10
2.387000
 20
1.310000
 30
0.000000
 42
-0.414214
  0
SEQEND
  8
0
  0
POLYLINE
  8
21
 66
1
 10
0.000000
 20
0.000000
 30
0.000000
 40
0.000000
 41
0.000000
 70
1
  0
VERTEX
  8
21
 10
2.320000
 20
1.497000
 30
0.000000
  0
VERTEX
  8
21
 10
2.380000
 20
1.497000
 30
0.000000
 42
1.000000
  0
VERTEX
  8
21
 10
2.380000
 20
1.503000
 30
0.000000
  0
VERTEX
  8
21
 10
2.320000
 20
1.503000
 30
0.000000
 42
1.000000
  0
SEQEND
  8
0
  0
POLYLINE
  8
21
 66
1
 10
0.000000
 20
0.000000
 30
0.000000
 40
0.000000
 41
0.000000
 70
1
  0
VERTEX
  8
21
 10
2.387000
 20
1.490000
 30
0.000000
  0
VERTEX
  8
21
 10
2.387000
 20
1.475000
 30
0.000000
 42
1.000000
  0
VERTEX
  8
21
 10
2.393000
 20
1.475000
 30
0.000000
  0
VERTEX
  8
21
 10
2.393000
 20
1.490000
 30
0.000000
 42
1.000000
  0
SEQEND
  8
0
  0
POLYLINE
  8
21
 66
1
 10
0.000000
 20
0.000000
 30
0.000000
 40
0.000000
 41
0.000000
 70
1
  0
VERTEX
  8
21
 10
2.387121
 20
1.467879
 30
0.000000
  0
VERTEX
  8
21
 10
2.392121
 20
1.472879
 30
0.000000
 42
1.000000
  0
VERTEX
  8
21
 10
2.387879
 20
1.477121
 30
0.000000
  0
VERTEX
  8
21
 10
2.382879
 20
1.472121
 30
0.000000
 42
1.000000
  0
SEQEND
  8
0
  0
POLYLINE
  8
21
 66
1
 10
0.000000
 20
0.000000
 30
0.000000
 40
0.000000
 41
0.000000
 70
1
  0
VERTEX
  8
21
 10
2.307000
 20
1.490000
 30
0.000000
  0
VERTEX
  8
21
 10
2.307000
 20
1.475000
 30
0.000000
 42
1.000000
  0
VERTEX
  8
21
 10
2.313000
 20
1.475000
 30
0.000000
  0
VERTEX
  8
21
 10
2.313000
 20
1.490000
 30
0.000000
 42
1.000000
  0
SEQEND
  8
0
  0
POLYLINE
  8
21
 66
1
 10
0.000000
 20
0.000000
 30
0.000000
 40
0.000000
 41
0.000000
 70
1
  0
VERTEX
  8
21
 10
2.317121
 20
1.472121
 30
0.000000
  0
VERTEX
  8
21
 10
2.312121
 20
1.477121
 30
0.000000
 42
1.000000
  0
VERTEX
  8
21
 10
2.307879
 20
1.472879
 30
0.000000
  0
VERTEX
  8
21
 10
2.312879
 20
1.467879
 30
0.000000
 42
1.000000
  0
SEQEND
  8
0
  0
POLYLINE
  8
21
 66
1
 10
0.000000
 20
0.000000
 30
0.000000
 40
0.000000
 41
0.000000
 70
1
  0
VERTEX
  8
21
 10
2.382879
 20
1.327879
 30
0.000000
  0
VERTEX
  8
21
 10
2.387879
 20
1.322879
 30
0.000000
 42
1.000000
  0
VERTEX
  8
21
 10
2.392121
 20
1.327121
 30
0.000000
  0
VERTEX
  8
21
 10
2.387121
 20
1.332121
 30
0.000000
 42
1.000000
  0
SEQEND
  8
0
  0
POLYLINE
  8
21
 66
1
 10
0.000000
 20
0.000000
 30
0.000000
 40
0.000000
 41
0.000000
 70
1
  0
VERTEX
  8
21
 10
2.388000
 20
1.330000
 30
0.000000
  0
VERTEX
  8
21
 10
2.388000
 20
1.470000
 30
0.000000
 42
1.000000
  0
VERTEX
  8
21
 10
2.382000
 20
1.470000
 30
0.000000
  0
VERTEX
  8
21
 10
2.382000
 20
1.330000
 30
0.000000
 42
1.000000
  0
SEQEND
  8
0
  0
POLYLINE
  8
21
 66
1
 10
0.000000
 20
0.000000
 30
0.000000
 40
0.000000
 41
0.000000
 70
1
  0
VERTEX
  8
21
 10
2.312879
 20
1.332121
 30
0.000000
  0
VERTEX
  8
21
 10
2.307879
 20
1.327121
 30
0.000000
 42
1.000000
  0
VERTEX
  8
21
 10
2.312121
 20
1.322879
 30
0.000000
  0
VERTEX
  8
21
 10
2.317121
 20
1.327879
 30
0.000000
 42
1.000000
  0
SEQEND
  8
0
  0
POLYLINE
  8
21
 66
1
 10
0.000000
 20
0.000000
 30
0.000000
 40
0.000000
 41
0.000000
 70
1
  0
VERTEX
  8
21
 10
2.318000
 20
1.330000
 30
0.000000
  0
VERTEX
  8
21
 10
2.318000
 20
1.470000
 30
0.000000
 42
1.000000
  0
VERTEX
  8
21
 10
2.312000
 20
1.470000
 30
0.000000
  0
VERTEX
  8
21
 10
2.312000
 20
1.330000
 30
0.000000
 42
1.000000
  0
SEQEND
  8
0
  0
POLYLINE
  8
21
 66
1
 10
0.000000
 20
0.000000
 30
0.000000
 40
0.000000
 41
0.000000
 70
1
  0
VERTEX
  8
21
 10
2.393000
 20
1.310000
 30
0.000000
  0
VERTEX
  8
21
 10
2.393000
 20
1.325000
 30
0.000000
 42
1.000000
  0
VERTEX
  8
21
 10
2.387000
 20
1.325000
 30
0.000000
  0
VERTEX
  8
21
 10
2.387000
 20
1.310000
 30
0.000000
 42
1.000000
  0
SEQEND
  8
0
  0
POLYLINE
  8
21
 66
1
 10
0.000000
 20
0.000000
 30
0.000000
 40
0.000000
 41
0.000000
 70
1
  0
VERTEX
  8
21
 10
2.313000
 20
1.310000
 30
0.000000
  0
VERTEX
  8
21
 10
2.313000
 20
1.325000
 30
0.000000
 42
1.000000
  0
VERTEX
  8
21
 10
2.307000
 20
1.325000
 30
0.000000
  0
VERTEX
  8
21
 10
2.307000
 20
1.310000
 30
0.000000
 42
1.000000
  0
SEQEND
  8
0
  0
POLYLINE
  8
21
 66
1
 10
0.000000
 20
0.000000
 30
0.000000
 40
0.000000
 41
0.000000
 70
1
  0
VERTEX
  8
21
 10
2.320000
 20
1.297000
 30
0.000000
  0
VERTEX
  8
21
 10
2.380000
 20
1.297000
 30
0.000000
 42
1.000000
  0
VERTEX
  8
21
 10
2.380000
 20
1.303000
 30
0.000000
  0
VERTEX
  8
21
 10
2.320000
 20
1.303000
 30
0.000000
 42
1.000000
  0
SEQEND
  8
0
  0
INSERT
  8
21
  2
RECT
 10
2.350000
 20
1.292500
 30
0.000000
 41
0.015000
 42
0.020000
 43
1.000000
 50
270.000000
  0
INSERT
  8
21
  2
RECT
 10
2.350000
 20
1.507500
 30
0.000000
 41
0.015000
 42
0.020000
 43
1.000000
 50
270.000000
  0
POLYLINE
  8
21
 66
1
 10
0.000000
 20
0.000000
 30
0.000000
 40
0.000000
 41
0.000000
 70
1
  0
VERTEX
  8
21
 10
2.660000
 20
2.087000
 30
0.000000
 42
1.000000
  0
VERTEX
  8
21
 10
2.660000
 20
2.093000
 30
0.000000
 42
0.414214
  0
VERTEX
  8
21
 10
2.647000
 20
2.080000
 30
0.000000
 42
1.000000
  0
VERTEX
  8
21
 10
2.653000
 20
2.080000
 30
0.000000
 42
-0.414214
  0
SEQEND
  8
0
  0
POLYLINE
  8
21
 66
1
 10
0.000000
 20
0.000000
 30
0.000000
 40
0.000000
 41
0.000000
 70
1
  0
VERTEX
  8
21
 10
2.653000
 20
2.020000
 30
0.000000
 42
1.000000
  0
VERTEX
  8
21
 10
2.647000
 20
2.020000
 30
0.000000
 42
0.414214
  0
VERTEX
  8
21
 10
2.660000
 20
2.007000
 30
0.000000
 42
1.000000
  0
VERTEX
  8
21
 10
2.660000
 20
2.013000
 30
0.000000
 42
-0.414214
  0
SEQEND
  8
0
  0
POLYLINE
  8
21
 66
1
 10
0.000000
 20
0.000000
 30
0.000000
 40
0.000000
 41
0.000000
 70
1
  0
VERTEX
  8
21
 10
2.840000
 20
2.013000
 30
0.000000
 42
1.000000
  0
VERTEX
  8
21
 10
2.840000
 20
2.007000
 30
0.000000
 42
0.414214
  0
VERTEX
  8
21
 10
2.853000
 20
2.020000
 30
0.000000
 42
1.000000
  0
VERTEX
  8
21
 10
2.847000
 20
2.020000
 30
0.000000
 42
-0.414214
  0
SEQEND
  8
0
  0
POLYLINE
  8
21
 66
1
 10
0.000000
 20
0.000000
 30
0.000000
 40
0.000000
 41
0.000000
 70
1
  0
VERTEX
  8
21
 10
2.847000
 20
2.080000
 30
0.000000
 42
1.000000
  0
VERTEX
  8
21
 10
2.853000
 20
2.080000
 30
0.000000
 42
0.414214
  0
VERTEX
  8
21
 10
2.840000
 20
2.093000
 30
0.000000
 42
1.000000
  0
VERTEX
  8
21
 10
2.840000
 20
2.087000
 30
0.000000
 42
-0.414214
  0
SEQEND
  8
0
  0
POLYLINE
  8
21
 66
1
 10
0.000000
 20
0.000000
 30
0.000000
 40
0.000000
 41
0.000000
 70
1
  0
VERTEX
  8
21
 10
2.653000
 20
2.020000
 30
0.000000
  0
VERTEX
  8
21
 10
2.653000
 20
2.080000
 30
0.000000
 42
1.000000
  0
VERTEX
  8
21
 10
2.647000
 20
2.080000
 30
0.000000
  0
VERTEX
  8
21
 10
2.647000
 20
2.020000
 30
0.000000
 42
1.000000
  0
SEQEND
  8
0
  0
POLYLINE
  8
21
 66
1
 10
0.000000
 20
0.000000
 30
0.000000
 40
0.000000
 41
0.000000
 70
1
  0
VERTEX
  8
21
 10
2.660000
 20
2.087000
 30
0.000000
  0
VERTEX
  8
21
 10
2.675000
 20
2.087000
 30
0.000000
 42
1.000000
  0
VERTEX
  8
21
 10
2.675000
 20
2.093000
 30
0.000000
  0
VERTEX
  8
21
 10
2.660000
 20
2.093000
 30
0.000000
 42
1.000000
  0
SEQEND
  8
0
  0
POLYLINE
  8
21
 66
1
 10
0.000000
 20
0.000000
 30
0.000000
 40
0.000000
 41
0.000000
 70
1
  0
VERTEX
  8
21
 10
2.682121
 20
2.087121
 30
0.000000
  0
VERTEX
  8
21
 10
2.677121
 20
2.092121
 30
0.000000
 42
1.000000
  0
VERTEX
  8
21
 10
2.672879
 20
2.087879
 30
0.000000
  0
VERTEX
  8
21
 10
2.677879
 20
2.082879
 30
0.000000
 42
1.000000
  0
SEQEND
  8
0
  0
POLYLINE
  8
21
 66
1
 10
0.000000
 20
0.000000
 30
0.000000
 40
0.000000
 41
0.000000
 70
1
  0
VERTEX
  8
21
 10
2.660000
 20
2.007000
 30
0.000000
  0
VERTEX
  8
21
 10
2.675000
 20
2.007000
 30
0.000000
 42
1.000000
  0
VERTEX
  8
21
 10
2.675000
 20
2.013000
 30
0.000000
  0
VERTEX
  8
21
 10
2.660000
 20
2.013000
 30
0.000000
 42
1.000000
  0
SEQEND
  8
0
  0
POLYLINE
  8
21
 66
1
 10
0.000000
 20
0.000000
 30
0.000000
 40
0.000000
 41
0.000000
 70
1
  0
VERTEX
  8
21
 10
2.677879
 20
2.017121
 30
0.000000
  0
VERTEX
  8
21
 10
2.672879
 20
2.012121
 30
0.000000
 42
1.000000
  0
VERTEX
  8
21
 10
2.677121
 20
2.007879
 30
0.000000
  0
VERTEX
  8
21
 10
2.682121
 20
2.012879
 30
0.000000
 42
1.000000
  0
SEQEND
  8
0
  0
POLYLINE
  8
21
 66
1
 10
0.000000
 20
0.000000
 30
0.000000
 40
0.000000
 41
0.000000
 70
1
  0
VERTEX
  8
21
 10
2.822121
 20
2.082879
 30
0.000000
  0
VERTEX
  8
21
 10
2.827121
 20
2.087879
 30
0.000000
 42
1.000000
  0
VERTEX
  8
21
 10
2.822879
 20
2.092121
 30
0.000000
  0
VERTEX
  8
21
 10
2.817879
 20
2.087121
 30
0.000000
 42
1.000000
  0
SEQEND
  8
0
  0
POLYLINE
  8
21
 66
1
 10
0.000000
 20
0.000000
 30
0.000000
 40
0.000000
 41
0.000000
 70
1
  0
VERTEX
  8
21
 10
2.820000
 20
2.088000
 30
0.000000
  0
VERTEX
  8
21
 10
2.680000
 20
2.088000
 30
0.000000
 42
1.000000
  0
VERTEX
  8
21
 10
2.680000
 20
2.082000
 30
0.000000
  0
VERTEX
  8
21
 10
2.820000
 20
2.082000
 30
0.000000
 42
1.000000
  0
SEQEND
  8
0
  0
POLYLINE
  8
21
 66
1
 10
0.000000
 20
0.000000
 30
0.000000
 40
0.000000
 41
0.000000
 70
1
  0
VERTEX
  8
21
 10
2.817879
 20
2.012879
 30
0.000000
  0
VERTEX
  8
21
 10
2.822879
 20
2.007879
 30
0.000000
 42
1.000000
  0
VERTEX
  8
21
 10
2.827121
 20
2.012121
 30
0.000000
  0
VERTEX
  8
21
 10
2.822121
 20
2.017121
 30
0.000000
 42
1.000000
  0
SEQEND
  8
0
  0
POLYLINE
  8
21
 66
1
 10
0.000000
 20
0.000000
 30
0.000000
 40
0.000000
 41
0.000000
 70
1
  0
VERTEX
  8
21
 10
2.820000
 20
2.018000
 30
0.000000
  0
VERTEX
  8
21
 10
2.680000
 20
2.018000
 30
0.000000
 42
1.000000
  0
VERTEX
  8
21
 10
2.680000
 20
2.012000
 30
0.000000
  0
VERTEX
  8
21
 10
2.820000
 20
2.012000
 30
0.000000
 42
1.000000
  0
SEQEND
  8
0
  0
POLYLINE
  8
21
 66
1
 10
0.000000
 20
0.000000
 30
0.000000
 40
0.000000
 41
0.000000
 70
1
  0
VERTEX
  8
21
 10
2.840000
 20
2.093000
 30
0.000000
  0
VERTEX
  8
21
 10
2.825000
 20
2.093000
 30
0.000000
 42
1.000000
  0
VERTEX
  8
21
 10
2.825000
 20
2.087000
 30
0.000000
  0
VERTEX
  8
21
 10
2.840000
 20
2.087000
 30
0.000000
 42
1.000000
  0
SEQEND
  8
0
  0
POLYLINE
  8
21
 66
1
 10
0.000000
 20
0.000000
 30
0.000000
 40
0.000000
 41
0.000000
 70
1
  0
VERTEX
  8
21
 10
2.840000
 20
2.013000
 30
0.000000
  0
VERTEX
  8
21
 10
2.825000
 20
2.013000
 30
0.000000
 42
1.000000
  0
VERTEX
  8
21
 10
2.825000
 20
2.007000
 30
0.000000
  0
VERTEX
  8
21
 10
2.840000
 20
2.007000
 30
0.000000
 42
1.000000
  0
SEQEND
  8
0
  0
POLYLINE
  8
21
 66
1
 10
0.000000
 20
0.000000
 30
0.000000
 40
0.000000
 41
0.000000
 70
1
  0
VERTEX
  8
21
 10
2.853000
 20
2.020000
 30
0.000000
  0
VERTEX
  8
21
 10
2.853000
 20
2.080000
 30
0.000000
 42
1.000000
  0
VERTEX
  8
21
 10
2.847000
 20
2.080000
 30
0.000000
  0
VERTEX
  8
21
 10
2.847000
 20
2.020000
 30
0.000000
 42
1.000000
  0
SEQEND
  8
0
  0
INSERT
  8
21
  2
RECT
 10
2.857500
 20
2.050000
 30
0.000000
 41
0.015000
 42
0.020000
 43
1.000000
 50
0.000000
  0
INSERT
  8
21
  2
RECT
 10
2.642500
 20
2.050000
 30
0.000000
 41
0.015000
 42
0.020000
 43
1.000000
 50
0.000000
  0
POLYLINE
  8
21
 66
1
 10
0.000000
 20
0.000000
 30
0.000000
 40
0.000000
 41
0.000000
 70
1
  0
VERTEX
  8
21
 10
2.640000
 20
0.663000
 30
0.000000
 42
1.000000
  0
VERTEX
  8
21
 10
2.640000
 20
0.657000
 30
0.000000
 42
0.414214
  0
VERTEX
  8
21
 10
2.653000
 20
0.670000
 30
0.000000
 42
1.000000
  0
VERTEX
  8
21
 10
2.647000
 20
0.670000
 30
0.000000
 42
-0.414214
  0
SEQEND
  8
0
  0
POLYLINE
  8
21
 66
1
 10
0.000000
 20
0.000000
 30
0.000000
 40
0.000000
 41
0.000000
 70
1
  0
VERTEX
  8
21
 10
2.647000
 20
0.730000
 30
0.000000
 42
1.000000
  0
VERTEX
  8
21
 10
2.653000
 20
0.730000
 30
0.000000
 42
0.414214
  0
VERTEX
  8
21
 10
2.640000
 20
0.743000
 30
0.000000
 42
1.000000
  0
VERTEX
  8
21
 10
2.640000
 20
0.737000
 30
0.000000
 42
-0.414214
  0
SEQEND
  8
0
  0
POLYLINE
  8
21
 66
1
 10
0.000000
 20
0.000000
 30
0.000000
 40
0.000000
 41
0.000000
 70
1
  0
VERTEX
  8
21
 10
2.460000
 20
0.737000
 30
0.000000
 42
1.000000
  0
VERTEX
  8
21
 10
2.460000
 20
0.743000
 30
0.000000
 42
0.414214
  0
VERTEX
  8
21
 10
2.447000
 20
0.730000
 30
0.000000
 42
1.000000
  0
VERTEX
  8
21
 10
2.453000
 20
0.730000
 30
0.000000
 42
-0.414214
  0
SEQEND
  8
0
  0
POLYLINE
  8
21
 66
1
 10
0.000000
 20
0.000000
 30
0.000000
 40
0.000000
 41
0.000000
 70
1
  0
VERTEX
  8
21
 10
2.453000
 20
0.670000
 30
0.000000
 42
1.000000
  0
VERTEX
  8
21
 10
2.447000
 20
0.670000
 30
0.000000
 42
0.414214
  0
VERTEX
  8
21
 10
2.460000
 20
0.657000
 30
0.000000
 42
1.000000
  0
VERTEX
  8
21
 10
2.460000
 20
0.663000
 30
0.000000
 42
-0.414214
  0
SEQEND
  8
0
  0
POLYLINE
  8
21
 66
1
 10
0.000000
 20
0.000000
 30
0.000000
 40
0.000000
 41
0.000000
 70
1
  0
VERTEX
  8
21
 10
2.647000
 20
0.730000
 30
0.000000
  0
VERTEX
  8
21
 10
2.647000
 20
0.670000
 30
0.000000
 42
1.000000
  0
VERTEX
  8
21
 10
2.653000
 20
0.670000
 30
0.000000
  0
VERTEX
  8
21
 10
2.653000
 20
0.730000
 30
0.000000
 42
1.000000
  0
SEQEND
  8
0
  0
POLYLINE
  8
21
 66
1
 10
0.000000
 20
0.000000
 30
0.000000
 40
0.000000
 41
0.000000
 70
1
  0
VERTEX
  8
21
 10
2.640000
 20
0.663000
 30
0.000000
  0
VERTEX
  8
21
 10
2.625000
 20
0.663000
 30
0.000000
 42
1.000000
  0
VERTEX
  8
21
 10
2.625000
 20
0.657000
 30
0.000000
  0
VERTEX
  8
21
 10
2.640000
 20
0.657000
 30
0.000000
 42
1.000000
  0
SEQEND
  8
0
  0
POLYLINE
  8
21
 66
1
 10
0.000000
 20
0.000000
 30
0.000000
 40
0.000000
 41
0.000000
 70
1
  0
VERTEX
  8
21
 10
2.617879
 20
0.662879
 30
0.000000
  0
VERTEX
  8
21
 10
2.622879
 20
0.657879
 30
0.000000
 42
1.000000
  0
VERTEX
  8
21
 10
2.627121
 20
0.662121
 30
0.000000
  0
VERTEX
  8
21
 10
2.622121
 20
0.667121
 30
0.000000
 42
1.000000
  0
SEQEND
  8
0
  0
POLYLINE
  8
21
 66
1
 10
0.000000
 20
0.000000
 30
0.000000
 40
0.000000
 41
0.000000
 70
1
  0
VERTEX
  8
21
 10
2.640000
 20
0.743000
 30
0.000000
  0
VERTEX
  8
21
 10
2.625000
 20
0.743000
 30
0.000000
 42
1.000000
  0
VERTEX
  8
21
 10
2.625000
 20
0.737000
 30
0.000000
  0
VERTEX
  8
21
 10
2.640000
 20
0.737000
 30
0.000000
 42
1.000000
  0
SEQEND
  8
0
  0
POLYLINE
  8
21
 66
1
 10
0.000000
 20
0.000000
 30
0.000000
 40
0.000000
 41
0.000000
 70
1
  0
VERTEX
  8
21
 10
2.622121
 20
0.732879
 30
0.000000
  0
VERTEX
  8
21
 10
2.627121
 20
0.737879
 30
0.000000
 42
1.000000
  0
VERTEX
  8
21
 10
2.622879
 20
0.742121
 30
0.000000
  0
VERTEX
  8
21
 10
2.617879
 20
0.737121
 30
0.000000
 42
1.000000
  0
SEQEND
  8
0
  0
POLYLINE
  8
21
 66
1
 10
0.000000
 20
0.000000
 30
0.000000
 40
0.000000
 41
0.000000
 70
1
  0
VERTEX
  8
21
 10
2.477879
 20
0.667121
 30
0.000000
  0
VERTEX
  8
21
 10
2.472879
 20
0.662121
 30
0.000000
 42
1.000000
  0
VERTEX
  8
21
 10
2.477121
 20
0.657879
 30
0.000000
  0
VERTEX
  8
21
 10
2.482121
 20
0.662879
 30
0.000000
 42
1.000000
  0
SEQEND
  8
0
  0
POLYLINE
  8
21
 66
1
 10
0.000000
 20
0.000000
 30
0.000000
 40
0.000000
 41
0.000000
 70
1
  0
VERTEX
  8
21
 10
2.480000
 20
0.662000
 30
0.000000
  0
VERTEX
  8
21
 10
2.620000
 20
0.662000
 30
0.000000
 42
1.000000
  0
VERTEX
  8
21
 10
2.620000
 20
0.668000
 30
0.000000
  0
VERTEX
  8
21
 10
2.480000
 20
0.668000
 30
0.000000
 42
1.000000
  0
SEQEND
  8
0
  0
POLYLINE
  8
21
 66
1
 10
0.000000
 20
0.000000
 30
0.000000
 40
0.000000
 41
0.000000
 70
1
  0
VERTEX
  8
21
 10
2.482121
 20
0.737121
 30
0.000000
  0
VERTEX
  8
21
 10
2.477121
 20
0.742121
 30
0.000000
 42
1.000000
  0
VERTEX
  8
21
 10
2.472879
 20
0.737879
 30
0.000000
  0
VERTEX
  8
21
 10
2.477879
 20
0.732879
 30
0.000000
 42
1.000000
  0
SEQEND
  8
0
  0
POLYLINE
  8
21
 66
1
 10
0.000000
 20
0.000000
 30
0.000000
 40
0.000000
 41
0.000000
 70
1
  0
VERTEX
  8
21
 10
2.480000
 20
0.732000
 30
0.000000
  0
VERTEX
  8
21
 10
2.620000
 20
0.732000
 30
0.000000
 42
1.000000
  0
VERTEX
  8
21
 10
2.620000
 20
0.738000
 30
0.000000
  0
VERTEX
  8
21
 10
2.480000
 20
0.738000
 30
0.000000
 42
1.000000
  0
SEQEND
  8
0
  0
POLYLINE
  8
21
 66
1
 10
0.000000
 20
0.000000
 30
0.000000
 40
0.000000
 41
0.000000
 70
1
  0
VERTEX
  8
21
 10
2.460000
 20
0.657000
 30
0.000000
  0
VERTEX
  8
21
 10
2.475000
 20
0.657000
 30
0.000000
 42
1.000000
  0
VERTEX
  8
21
 10
2.475000
 20
0.663000
 30
0.000000
  0
VERTEX
  8
21
 10
2.460000
 20
0.663000
 30
0.000000
 42
1.000000
  0
SEQEND
  8
0
  0
POLYLINE
  8
21
 66
1
 10
0.000000
 20
0.000000
 30
0.000000
 40
0.000000
 41
0.000000
 70
1
  0
VERTEX
  8
21
 10
2.460000
 20
0.737000
 30
0.000000
  0
VERTEX
  8
21
 10
2.475000
 20
0.737000
 30
0.000000
 42
1.000000
  0
VERTEX
  8
21
 10
2.475000
 20
0.743000
 30
0.000000
  0
VERTEX
  8
21
 10
2.460000
 20
0.743000
 30
0.000000
 42
1.000000
  0
SEQEND
  8
0
  0
POLYLINE
  8
21
 66
1
 10
0.000000
 20
0.000000
 30
0.000000
 40
0.000000
 41
0.000000
 70
1
  0
VERTEX
  8
21
 10
2.447000
 20
0.730000
 30
0.000000
  0
VERTEX
  8
21
 10
2.447000
 20
0.670000
 30
0.000000
 42
1.000000
  0
VERTEX
  8
21
 10
2.453000
 20
0.670000
 30
0.000000
  0
VERTEX
  8
21
 10
2.453000
 20
0.730000
 30
0.000000
 42
1.000000
  0
SEQEND
  8
0
  0
INSERT
  8
21
  2
RECT
 10
2.442500
 20
0.700000
 30
0.000000
 41
0.015000
 42
0.020000
 43
1.000000
 50
180.000000
  0
INSERT
  8
21
  2
RECT
 10
2.657500
 20
0.700000
 30
0.000000
 41
0.015000
 42
0.020000
 43
1.000000
 50
180.000000
  0
POLYLINE
  8
21
 66
1
 10
0.000000
 20
0.000000
 30
0.000000
 40
0.000000
 41
0.000000
 70
1
  0
VERTEX
  8
21
 10
1.460000
 20
3.837000
 30
0.000000
 42
1.000000
  0
VERTEX
  8
21
 10
1.460000
 20
3.843000
 30
0.000000
 42
0.414214
  0
VERTEX
  8
21
 10
1.447000
 20
3.830000
 30
0.000000
 42
1.000000
  0
VERTEX
  8
21
 10
1.453000
 20
3.830000
 30
0.000000
 42
-0.414214
  0
SEQEND
  8
0
  0
POLYLINE
  8
21
 66
1
 10
0.000000
 20
0.000000
 30
0.000000
 40
0.000000
 41
0.000000
 70
1
  0
VERTEX
  8
21
 10
1.453000
 20
3.770000
 30
0.000000
 42
1.000000
  0
VERTEX
  8
21
 10
1.447000
 20
3.770000
 30
0.000000
 42
0.414214
  0
VERTEX
  8
21
 10
1.460000
 20
3.757000
 30
0.000000
 42
1.000000
  0
VERTEX
  8
21
 10
1.460000
 20
3.763000
 30
0.000000
 42
-0.414214
  0
SEQEND
  8
0
  0
POLYLINE
  8
21
 66
1
 10
0.000000
 20
0.000000
 30
0.000000
 40
0.000000
 41
0.000000
 70
1
  0
VERTEX
  8
21
 10
1.640000
 20
3.763000
 30
0.000000
 42
1.000000
  0
VERTEX
  8
21
 10
1.640000
 20
3.757000
 30
0.000000
 42
0.414214
  0
VERTEX
  8
21
 10
1.653000
 20
3.770000
 30
0.000000
 42
1.000000
  0
VERTEX
  8
21
 10
1.647000
 20
3.770000
 30
0.000000
 42
-0.414214
  0
SEQEND
  8
0
  0
POLYLINE
  8
21
 66
1
 10
0.000000
 20
0.000000
 30
0.000000
 40
0.000000
 41
0.000000
 70
1
  0
VERTEX
  8
21
 10
1.647000
 20
3.830000
 30
0.000000
 42
1.000000
  0
VERTEX
  8
21
 10
1.653000
 20
3.830000
 30
0.000000
 42
0.414214
  0
VERTEX
  8
21
 10
1.640000
 20
3.843000
 30
0.000000
 42
1.000000
  0
VERTEX
  8
21
 10
1.640000
 20
3.837000
 30
0.000000
 42
-0.414214
  0
SEQEND
  8
0
  0
POLYLINE
  8
21
 66
1
 10
0.000000
 20
0.000000
 30
0.000000
 40
0.000000
 41
0.000000
 70
1
  0
VERTEX
  8
21
 10
1.453000
 20
3.770000
 30
0.000000
  0
VERTEX
  8
21
 10
1.453000
 20
3.830000
 30
0.000000
 42
1.000000
  0
VERTEX
  8
21
 10
1.447000
 20
3.830000
 30
0.000000
  0
VERTEX
  8
21
 10
1.447000
 20
3.770000
 30
0.000000
 42
1.000000
  0
SEQEND
  8
0
  0
POLYLINE
  8
21
 66
1
 10
0.000000
 20
0.000000
 30
0.000000
 40
0.000000
 41
0.000000
 70
1
  0
VERTEX
  8
21
 10
1.460000
 20
3.837000
 30
0.000000
  0
VERTEX
  8
21
 10
1.475000
 20
3.837000
 30
0.000000
 42
1.000000
  0
VERTEX
  8
21
 10
1.475000
 20
3.843000
 30
0.000000
  0
VERTEX
  8
21
 10
1.460000
 20
3.843000
 30
0.000000
 42
1.000000
  0
SEQEND
  8
0
  0
POLYLINE
  8
21
 66
1
 10
0.000000
 20
0.000000
 30
0.000000
 40
0.000000
 41
0.000000
 70
1
  0
VERTEX
  8
21
 10
1.482121
 20
3.837121
 30
0.000000
  0
VERTEX
  8
21
 10
1.477121
 20
3.842121
 30
0.000000
 42
1.000000
  0
VERTEX
  8
21
 10
1.472879
 20
3.837879
 30
0.000000
  0
VERTEX
  8
21
 10
1.477879
 20
3.832879
 30
0.000000
 42
1.000000
  0
SEQEND
  8
0
  0
POLYLINE
  8
21
 66
1
 10
0.000000
 20
0.000000
 30
0.000000
 40
0.000000
 41
0.000000
 70
1
  0
VERTEX
  8
21
 10
1.460000
 20
3.757000
 30
0.000000
  0
VERTEX
  8
21
 10
1.475000
 20
3.757000
 30
0.000000
 42
1.000000
  0
VERTEX
  8
21
 10
1.475000
 20
3.763000
 30
0.000000
  0
VERTEX
  8
21
 10
1.460000
 20
3.763000
 30
0.000000
 42
1.000000
  0
SEQEND
  8
0
  0
POLYLINE
  8
21
 66
1
 10
0.000000
 20
0.000000
 30
0.000000
 40
0.000000
 41
0.000000
 70
1
  0
VERTEX
  8
21
 10
1.477879
 20
3.767121
 30
0.000000
  0
VERTEX
  8
21
 10
1.472879
 20
3.762121
 30
0.000000
 42
1.000000
  0
VERTEX
  8
21
 10
1.477121
 20
3.757879
 30
0.000000
  0
VERTEX
  8
21
 10
1.482121
 20
3.762879
 30
0.000000
 42
1.000000
  0
SEQEND
  8
0
  0
POLYLINE
  8
21
 66
1
 10
0.000000
 20
0.000000
 30
0.000000
 40
0.000000
 41
0.000000
 70
1
  0
VERTEX
  8
21
 10
1.622121
 20
3.832879
 30
0.000000
  0
VERTEX
  8
21
 10
1.627121
 20
3.837879
 30
0.000000
 42
1.000000
  0
VERTEX
  8
21
 10
1.622879
 20
3.842121
 30
0.000000
  0
VERTEX
  8
21
 10
1.617879
 20
3.837121
 30
0.000000
 42
1.000000
  0
SEQEND
  8
0
  0
POLYLINE
  8
21
 66
1
 10
0.000000
 20
0.000000
 30
0.000000
 40
0.000000
 41
0.000000
 70
1
  0
VERTEX
  8
21
 10
1.620000
 20
3.838000
 30
0.000000
  0
VERTEX
  8
21
 10
1.480000
 20
3.838000
 30
0.000000
 42
1.000000
  0
VERTEX
  8
21
 10
1.480000
 20
3.832000
 30
0.000000
  0
VERTEX
  8
21
 10
1.620000
 20
3.832000
 30
0.000000
 42
1.000000
  0
SEQEND
  8
0
  0
POLYLINE
  8
21
 66
1
 10
0.000000
 20
0.000000
 30
0.000000
 40
0.000000
 41
0.000000
 70
1
  0
VERTEX
  8
21
 10
1.617879
 20
3.762879
 30
0.000000
  0
VERTEX
  8
21
 10
1.622879
 20
3.757879
 30
0.000000
 42
1.000000
  0
VERTEX
  8
21
 10
1.627121
 20
3.762121
 30
0.000000
  0
VERTEX
  8
21
 10
1.622121
 20
3.767121
 30
0.000000
 42
1.000000
  0
SEQEND
  8
0
  0
POLYLINE
  8
21
 66
1
 10
0.000000
 20
0.000000
 30
0.000000
 40
0.000000
 41
0.000000
 70
1
  0
VERTEX
  8
21
 10
1.620000
 20
3.768000
 30
0.000000
  0
VERTEX
  8
21
 10
1.480000
 20
3.768000
 30
0.000000
 42
1.000000
  0
VERTEX
  8
21
 10
1.480000
 20
3.762000
 30
0.000000
  0
VERTEX
  8
21
 10
1.620000
 20
3.762000
 30
0.000000
 42
1.000000
  0
SEQEND
  8
0
  0
POLYLINE
  8
21
 66
1
 10
0.000000
 20
0.000000
 30
0.000000
 40
0.000000
 41
0.000000
 70
1
  0
VERTEX
  8
21
 10
1.640000
 20
3.843000
 30
0.000000
  0
VERTEX
  8
21
 10
1.625000
 20
3.843000
 30
0.000000
 42
1.000000
  0
VERTEX
  8
21
 10
1.625000
 20
3.837000
 30
0.000000
  0
VERTEX
  8
21
 10
1.640000
 20
3.837000
 30
0.000000
 42
1.000000
  0
SEQEND
  8
0
  0
POLYLINE
  8
21
 66
1
 10
0.000000
 20
0.000000
 30
0.000000
 40
0.000000
 41
0.000000
 70
1
  0
VERTEX
  8
21
 10
1.640000
 20
3.763000
 30
0.000000
  0
VERTEX
  8
21
 10
1.625000
 20
3.763000
 30
0.000000
 42
1.000000
  0
VERTEX
  8
21
 10
1.625000
 20
3.757000
 30
0.000000
  0
VERTEX
  8
21
 10
1.640000
 20
3.757000
 30
0.000000
 42
1.000000
  0
SEQEND
  8
0
  0
POLYLINE
  8
21
 66
1
 10
0.000000
 20
0.000000
 30
0.000000
 40
0.000000
 41
0.000000
 70
1
  0
VERTEX
  8
21
 10
1.653000
 20
3.770000
 30
0.000000
  0
VERTEX
  8
21
 10
1.653000
 20
3.830000
 30
0.000000
 42
1.000000
  0
VERTEX
  8
21
 10
1.647000
 20
3.830000
 30
0.000000
  0
VERTEX
  8
21
 10
1.647000
 20
3.770000
 30
0.000000
 42
1.000000
  0
SEQEND
  8
0
  0
INSERT
  8
21
  2
RECT
 10
1.657500
 20
3.800000
 30
0.000000
 41
0.015000
 42
0.020000
 43
1.000000
 50
0.000000
  0
INSERT
  8
21
  2
RECT
 10
1.442500
 20
3.800000
 30
0.000000
 41
0.015000
 42
0.020000
 43
1.000000
 50
0.000000
  0
POLYLINE
  8
21
 66
1
 10
0.000000
 20
0.000000
 30
0.000000
 40
0.000000
 41
0.000000
 70
1
  0
VERTEX
  8
21
 10
1.950000
 20
3.697000
 30
0.000000
  0
VERTEX
  8
21
 10
2.200000
 20
3.697000
 30
0.000000
 42
1.000000
  0
VERTEX
  8
21
 10
2.200000
 20
3.703000
 30
0.000000
  0
VERTEX
  8
21
 10
1.950000
 20
3.703000
 30
0.000000
 42
1.000000
  0
SEQEND
  8
0
  0
POLYLINE
  8
21
 66
1
 10
0.000000
 20
0.000000
 30
0.000000
 40
0.000000
 41
0.000000
 70
1
  0
VERTEX
  8
21
 10
2.203000
 20
3.700000
 30
0.000000
  0
VERTEX
  8
21
 10
2.203000
 20
3.750000
 30
0.000000
 42
1.000000
  0
VERTEX
  8
21
 10
2.197000
 20
3.750000
 30
0.000000
  0
VERTEX
  8
21
 10
2.197000
 20
3.700000
 30
0.000000
 42
1.000000
  0
SEQEND
  8
0
  0
POLYLINE
  8
21
 66
1
 10
0.000000
 20
0.000000
 30
0.000000
 40
0.000000
 41
0.000000
 70
1
  0
VERTEX
  8
21
 10
2.200000
 20
3.747000
 30
0.000000
  0
VERTEX
  8
21
 10
2.400000
 20
3.747000
 30
0.000000
 42
1.000000
  0
VERTEX
  8
21
 10
2.400000
 20
3.753000
 30
0.000000
  0
VERTEX
  8
21
 10
2.200000
 20
3.753000
 30
0.000000
 42
1.000000
  0
SEQEND
  8
0
  0
POLYLINE
  8
21
 66
1
 10
0.000000
 20
0.000000
 30
0.000000
 40
0.000000
 41
0.000000
 70
1
  0
VERTEX
  8
21
 10
2.397000
 20
3.750000
 30
0.000000
  0
VERTEX
  8
21
 10
2.397000
 20
3.700000
 30
0.000000
 42
1.000000
  0
VERTEX
  8
21
 10
2.403000
 20
3.700000
 30
0.000000
  0
VERTEX
  8
21
 10
2.403000
 20
3.750000
 30
0.000000
 42
1.000000
  0
SEQEND
  8
0
  0
POLYLINE
  8
21
 66
1
 10
0.000000
 20
0.000000
 30
0.000000
 40
0.000000
 41
0.000000
 70
1
  0
VERTEX
  8
21
 10
2.400000
 20
3.697000
 30
0.000000
  0
VERTEX
  8
21
 10
2.650000
 20
3.697000
 30
0.000000
 42
1.000000
  0
VERTEX
  8
21
 10
2.650000
 20
3.703000
 30
0.000000
  0
VERTEX
  8
21
 10
2.400000
 20
3.703000
 30
0.000000
 42
1.000000
  0
SEQEND
  8
0
  0
POLYLINE
  8
21
 66
1
 10
0.000000
 20
0.000000
 30
0.000000
 40
0.000000
 41
0.000000
 70
1
  0
VERTEX
  8
21
 10
2.647000
 20
3.700000
 30
0.000000
  0
VERTEX
  8
21
 10
2.647000
 20
2.300000
 30
0.000000
 42
1.000000
  0
VERTEX
  8
21
 10
2.653000
 20
2.300000
 30
0.000000
  0
VERTEX
  8
21
 10
2.653000
 20
3.700000
 30
0.000000
 42
1.000000
  0
SEQEND
  8
0
  0
POLYLINE
  8
21
 66
1
 10
0.000000
 20
0.000000
 30
0.000000
 40
0.000000
 41
0.000000
 70
1
  0
VERTEX
  8
21
 10
2.650000
 20
2.303000
 30
0.000000
  0
VERTEX
  8
21
 10
1.950000
 20
2.303000
 30
0.000000
 42
1.000000
  0
VERTEX
  8
21
 10
1.950000
 20
2.297000
 30
0.000000
  0
VERTEX
  8
21
 10
2.650000
 20
2.297000
 30
0.000000
 42
1.000000
  0
SEQEND
  8
0
  0
POLYLINE
  8
21
 66
1
 10
0.000000
 20
0.000000
 30
0.000000
 40
0.000000
 41
0.000000
 70
1
  0
VERTEX
  8
21
 10
1.953000
 20
2.300000
 30
0.000000
  0
VERTEX
  8
21
 10
1.953000
 20
3.700000
 30
0.000000
 42
1.000000
  0
VERTEX
  8
21
 10
1.947000
 20
3.700000
 30
0.000000
  0
VERTEX
  8
21
 10
1.947000
 20
2.300000
 30
0.000000
 42
1.000000
  0
SEQEND
  8
0
  0
POLYLINE
  8
21
 66
1
 10
0.000000
 20
0.000000
 30
0.000000
 40
0.000000
 41
0.000000
 70
1
  0
VERTEX
  8
21
 10
1.262500
 20
3.153000
 30
0.000000
  0
VERTEX
  8
21
 10
0.837500
 20
3.153000
 30
0.000000
 42
1.000000
  0
VERTEX
  8
21
 10
0.837500
 20
3.147000
 30
0.000000
  0
VERTEX
  8
21
 10
1.262500
 20
3.147000
 30
0.000000
 42
1.000000
  0
SEQEND
  8
0
  0
POLYLINE
  8
21
 66
1
 10
0.000000
 20
0.000000
 30
0.000000
 40
0.000000
 41
0.000000
 70
1
  0
VERTEX
  8
21
 10
0.840500
 20
3.150000
 30
0.000000
  0
VERTEX
  8
21
 10
0.840500
 20
3.900000
 30
0.000000
 42
1.000000
  0
VERTEX
  8
21
 10
0.834500
 20
3.900000
 30
0.000000
  0
VERTEX
  8
21
 10
0.834500
 20
3.150000
 30
0.000000
 42
1.000000
  0
SEQEND
  8
0
  0
POLYLINE
  8
21
 66
1
 10
0.000000
 20
0.000000
 30
0.000000
 40
0.000000
 41
0.000000
 70
1
  0
VERTEX
  8
21
 10
0.837500
 20
3.897000
 30
0.000000
  0
VERTEX
  8
21
 10
1.262500
 20
3.897000
 30
0.000000
 42
1.000000
  0
VERTEX
  8
21
 10
1.262500
 20
3.903000
 30
0.000000
  0
VERTEX
  8
21
 10
0.837500
 20
3.903000
 30
0.000000
 42
1.000000
  0
SEQEND
  8
0
  0
POLYLINE
  8
21
 66
1
 10
0.000000
 20
0.000000
 30
0.000000
 40
0.000000
 41
0.000000
 70
1
  0
VERTEX
  8
21
 10
1.259500
 20
3.900000
 30
0.000000
  0
VERTEX
  8
21
 10
1.259500
 20
3.150000
 30
0.000000
 42
1.000000
  0
VERTEX
  8
21
 10
1.265500
 20
3.150000
 30
0.000000
  0
VERTEX
  8
21
 10
1.265500
 20
3.900000
 30
0.000000
 42
1.000000
  0
SEQEND
  8
0
  0
ENDSEC
  0
EOF
