%TF.GenerationSoftware,KiCad,Pcbnew,(5.1.8)-1*%
%TF.CreationDate,2022-08-22T14:52:20-04:00*%
%TF.ProjectId,SerialParser,53657269-616c-4506-9172-7365722e6b69,rev?*%
%TF.SameCoordinates,Original*%
%TF.FileFunction,Soldermask,Bot*%
%TF.FilePolarity,Negative*%
%FSLAX46Y46*%
G04 Gerber Fmt 4.6, Leading zero omitted, Abs format (unit mm)*
G04 Created by KiCad (PCBNEW (5.1.8)-1) date 2022-08-22 14:52:20*
%MOMM*%
%LPD*%
G01*
G04 APERTURE LIST*
%ADD10C,5.700000*%
%ADD11C,1.600000*%
%ADD12C,5.500000*%
%ADD13C,3.650000*%
%ADD14R,1.500000X1.500000*%
%ADD15C,1.500000*%
%ADD16C,6.400000*%
%ADD17C,0.800000*%
G04 APERTURE END LIST*
D10*
%TO.C,H8*%
X200279000Y-134493000D03*
%TD*%
D11*
%TO.C,U1*%
X210566000Y-102997000D03*
X210566000Y-105537000D03*
X213106000Y-102997000D03*
X213106000Y-105537000D03*
X215646000Y-102997000D03*
X215646000Y-105537000D03*
X218186000Y-102997000D03*
X218186000Y-105537000D03*
X220726000Y-102997000D03*
X220726000Y-105537000D03*
X208026000Y-77597000D03*
X208026000Y-80137000D03*
X208026000Y-82677000D03*
X208026000Y-85217000D03*
X208026000Y-87757000D03*
X208026000Y-90297000D03*
X208026000Y-92837000D03*
X208026000Y-95377000D03*
X208026000Y-97917000D03*
X208026000Y-100457000D03*
X208026000Y-102997000D03*
X208026000Y-105537000D03*
X208026000Y-108077000D03*
X220726000Y-80137000D03*
X223266000Y-77597000D03*
X223266000Y-80137000D03*
X223266000Y-82677000D03*
X223266000Y-85217000D03*
X223266000Y-87757000D03*
X223266000Y-90297000D03*
X223266000Y-92837000D03*
X223266000Y-95377000D03*
X223266000Y-97917000D03*
X223266000Y-100457000D03*
X223266000Y-102997000D03*
X223266000Y-105537000D03*
X223266000Y-108077000D03*
X208026000Y-110617000D03*
X210566000Y-110617000D03*
X213106000Y-110617000D03*
X223266000Y-110617000D03*
X220726000Y-110617000D03*
X218186000Y-110617000D03*
X215646000Y-110617000D03*
%TD*%
D12*
%TO.C,H7*%
X125349000Y-134493000D03*
%TD*%
%TO.C,H6*%
X200279000Y-103505000D03*
%TD*%
%TO.C,H5*%
X125349000Y-103505000D03*
%TD*%
D13*
%TO.C,J1*%
X109000000Y-82550000D03*
X120870000Y-82550000D03*
D14*
X119380000Y-88900000D03*
D15*
X118110000Y-91440000D03*
X116840000Y-88900000D03*
X115570000Y-91440000D03*
X114300000Y-88900000D03*
X113030000Y-91440000D03*
X111760000Y-88900000D03*
X110490000Y-91440000D03*
%TD*%
D16*
%TO.C,H4*%
X231140000Y-133350000D03*
D17*
X233540000Y-133350000D03*
X232837056Y-135047056D03*
X231140000Y-135750000D03*
X229442944Y-135047056D03*
X228740000Y-133350000D03*
X229442944Y-131652944D03*
X231140000Y-130950000D03*
X232837056Y-131652944D03*
%TD*%
D16*
%TO.C,H3*%
X101600000Y-133350000D03*
D17*
X104000000Y-133350000D03*
X103297056Y-135047056D03*
X101600000Y-135750000D03*
X99902944Y-135047056D03*
X99200000Y-133350000D03*
X99902944Y-131652944D03*
X101600000Y-130950000D03*
X103297056Y-131652944D03*
%TD*%
D16*
%TO.C,H2*%
X231140000Y-80010000D03*
D17*
X233540000Y-80010000D03*
X232837056Y-81707056D03*
X231140000Y-82410000D03*
X229442944Y-81707056D03*
X228740000Y-80010000D03*
X229442944Y-78312944D03*
X231140000Y-77610000D03*
X232837056Y-78312944D03*
%TD*%
D16*
%TO.C,H1*%
X101600000Y-80010000D03*
D17*
X104000000Y-80010000D03*
X103297056Y-81707056D03*
X101600000Y-82410000D03*
X99902944Y-81707056D03*
X99200000Y-80010000D03*
X99902944Y-78312944D03*
X101600000Y-77610000D03*
X103297056Y-78312944D03*
%TD*%
D13*
%TO.C,J5*%
X187520000Y-82550000D03*
X199390000Y-82550000D03*
D14*
X197900000Y-88900000D03*
D15*
X196630000Y-91440000D03*
X195360000Y-88900000D03*
X194090000Y-91440000D03*
X192820000Y-88900000D03*
X191550000Y-91440000D03*
X190280000Y-88900000D03*
X189010000Y-91440000D03*
%TD*%
D13*
%TO.C,J4*%
X167890000Y-82550000D03*
X179760000Y-82550000D03*
D14*
X178270000Y-88900000D03*
D15*
X177000000Y-91440000D03*
X175730000Y-88900000D03*
X174460000Y-91440000D03*
X173190000Y-88900000D03*
X171920000Y-91440000D03*
X170650000Y-88900000D03*
X169380000Y-91440000D03*
%TD*%
D13*
%TO.C,J3*%
X148260000Y-82550000D03*
X160130000Y-82550000D03*
D14*
X158640000Y-88900000D03*
D15*
X157370000Y-91440000D03*
X156100000Y-88900000D03*
X154830000Y-91440000D03*
X153560000Y-88900000D03*
X152290000Y-91440000D03*
X151020000Y-88900000D03*
X149750000Y-91440000D03*
%TD*%
D13*
%TO.C,J2*%
X128630000Y-82550000D03*
X140500000Y-82550000D03*
D14*
X139010000Y-88900000D03*
D15*
X137740000Y-91440000D03*
X136470000Y-88900000D03*
X135200000Y-91440000D03*
X133930000Y-88900000D03*
X132660000Y-91440000D03*
X131390000Y-88900000D03*
X130120000Y-91440000D03*
%TD*%
M02*
