M48
; DRILL file {KiCad (5.1.8)-1} date 08/22/22 14:52:05
; FORMAT={-:-/ absolute / metric / decimal}
; #@! TF.CreationDate,2022-08-22T14:52:05-04:00
; #@! TF.GenerationSoftware,Kicad,Pcbnew,(5.1.8)-1
; #@! TF.FileFunction,Plated,1,2,PTH
FMAT,2
METRIC
T1C0.400
T2C0.500
T3C0.600
T4C0.900
T5C1.100
T6C3.200
%
G90
G05
T1
X108.712Y-111.379
X109.22Y-101.6
X109.982Y-106.172
X113.792Y-111.633
X119.888Y-105.918
X120.92Y-109.982
X120.92Y-110.998
X123.947Y-110.993
X123.952Y-109.982
X125.222Y-110.744
X129.54Y-101.092
X130.048Y-105.918
X131.455Y-111.996
X136.271Y-108.839
X140.208Y-105.41
X143.764Y-109.22
X150.622Y-127.508
X151.003Y-110.109
X151.511Y-128.397
X153.416Y-101.346
X156.972Y-110.744
X163.83Y-111.125
X166.624Y-129.54
X167.894Y-128.397
X170.688Y-111.76
X173.609Y-129.413
X177.165Y-111.03
X179.07Y-122.682
X184.023Y-130.429
X184.15Y-112.141
X185.547Y-129.413
X188.214Y-115.951
X192.532Y-102.362
X192.532Y-105.918
X194.818Y-117.475
X201.681Y-111.247
X202.565Y-109.618
X202.819Y-111.125
X203.581Y-109.22
X204.343Y-107.442
X204.484Y-108.432
X204.667Y-112.846
X205.359Y-113.665
X206.375Y-115.734
X221.742Y-112.268
X224.917Y-115.189
X225.552Y-113.03
X225.679Y-115.951
X226.695Y-94.361
T2
X99.2Y-133.35
X99.903Y-131.653
X99.903Y-135.047
X101.6Y-130.95
X101.6Y-135.75
X103.297Y-131.653
X103.297Y-135.047
X104.0Y-133.35
X228.74Y-133.35
X229.443Y-131.653
X229.443Y-135.047
X231.14Y-130.95
X231.14Y-135.75
X232.837Y-131.653
X232.837Y-135.047
X233.54Y-133.35
X99.2Y-80.01
X99.903Y-78.313
X99.903Y-81.707
X101.6Y-77.61
X101.6Y-82.41
X103.297Y-78.313
X103.297Y-81.707
X104.0Y-80.01
X228.74Y-80.01
X229.443Y-78.313
X229.443Y-81.707
X231.14Y-77.61
X231.14Y-82.41
X232.837Y-78.313
X232.837Y-81.707
X233.54Y-80.01
T3
X103.378Y-113.03
X108.585Y-119.507
X110.236Y-113.157
X115.697Y-119.634
X117.094Y-113.157
X117.348Y-98.044
X121.92Y-98.044
X122.682Y-119.634
X124.079Y-113.157
X125.222Y-94.234
X129.54Y-119.634
X130.81Y-113.157
X136.017Y-119.634
X137.414Y-94.234
X137.414Y-98.044
X137.668Y-113.157
X141.732Y-98.044
X143.002Y-119.634
X144.399Y-113.157
X144.78Y-94.234
X149.733Y-119.634
X151.384Y-113.157
X156.21Y-94.234
X156.972Y-98.044
X156.972Y-119.634
X158.242Y-113.157
X160.782Y-98.044
X163.576Y-119.634
X163.83Y-94.234
X164.973Y-113.157
X164.973Y-119.634
X170.307Y-119.634
X171.958Y-113.157
X171.958Y-119.634
X176.784Y-98.298
X177.038Y-94.234
X177.292Y-119.634
X178.943Y-113.157
X180.594Y-98.298
X184.023Y-119.634
X184.912Y-94.234
X185.547Y-113.157
X190.881Y-119.634
X192.405Y-113.157
X196.088Y-98.044
X197.739Y-119.634
X199.263Y-113.157
X200.152Y-98.044
X200.406Y-94.234
X204.47Y-119.634
T4
X110.49Y-91.44
X111.76Y-88.9
X113.03Y-91.44
X114.3Y-88.9
X115.57Y-91.44
X116.84Y-88.9
X118.11Y-91.44
X119.38Y-88.9
X189.01Y-91.44
X190.28Y-88.9
X191.55Y-91.44
X192.82Y-88.9
X194.09Y-91.44
X195.36Y-88.9
X196.63Y-91.44
X197.9Y-88.9
X130.12Y-91.44
X131.39Y-88.9
X132.66Y-91.44
X133.93Y-88.9
X135.2Y-91.44
X136.47Y-88.9
X137.74Y-91.44
X139.01Y-88.9
X149.75Y-91.44
X151.02Y-88.9
X152.29Y-91.44
X153.56Y-88.9
X154.83Y-91.44
X156.1Y-88.9
X157.37Y-91.44
X158.64Y-88.9
X169.38Y-91.44
X170.65Y-88.9
X171.92Y-91.44
X173.19Y-88.9
X174.46Y-91.44
X175.73Y-88.9
X177.0Y-91.44
X178.27Y-88.9
T5
X208.026Y-77.597
X208.026Y-80.137
X208.026Y-82.677
X208.026Y-85.217
X208.026Y-87.757
X208.026Y-90.297
X208.026Y-92.837
X208.026Y-95.377
X208.026Y-97.917
X208.026Y-100.457
X208.026Y-102.997
X208.026Y-105.537
X208.026Y-108.077
X208.026Y-110.617
X210.566Y-102.997
X210.566Y-105.537
X210.566Y-110.617
X213.106Y-102.997
X213.106Y-105.537
X213.106Y-110.617
X215.646Y-102.997
X215.646Y-105.537
X215.646Y-110.617
X218.186Y-102.997
X218.186Y-105.537
X218.186Y-110.617
X220.726Y-80.137
X220.726Y-102.997
X220.726Y-105.537
X220.726Y-110.617
X223.266Y-77.597
X223.266Y-80.137
X223.266Y-82.677
X223.266Y-85.217
X223.266Y-87.757
X223.266Y-90.297
X223.266Y-92.837
X223.266Y-95.377
X223.266Y-97.917
X223.266Y-100.457
X223.266Y-102.997
X223.266Y-105.537
X223.266Y-108.077
X223.266Y-110.617
T6
X101.6Y-133.35
X231.14Y-133.35
X200.279Y-134.493
X125.349Y-103.505
X200.279Y-103.505
X101.6Y-80.01
X125.349Y-134.493
X231.14Y-80.01
T0
M30
