G04 #@! TF.GenerationSoftware,KiCad,Pcbnew,(5.1.8)-1*
G04 #@! TF.CreationDate,2022-01-31T17:06:36-05:00*
G04 #@! TF.ProjectId,ElectromagnetController_V3,456c6563-7472-46f6-9d61-676e6574436f,rev?*
G04 #@! TF.SameCoordinates,Original*
G04 #@! TF.FileFunction,Soldermask,Top*
G04 #@! TF.FilePolarity,Negative*
%FSLAX46Y46*%
G04 Gerber Fmt 4.6, Leading zero omitted, Abs format (unit mm)*
G04 Created by KiCad (PCBNEW (5.1.8)-1) date 2022-01-31 17:06:36*
%MOMM*%
%LPD*%
G01*
G04 APERTURE LIST*
%ADD10R,2.500000X1.800000*%
%ADD11R,1.400000X1.200000*%
%ADD12R,1.300000X2.800000*%
%ADD13R,6.000000X2.500000*%
%ADD14R,4.600000X1.100000*%
%ADD15R,9.400000X10.800000*%
%ADD16R,2.900000X5.400000*%
%ADD17R,1.200000X0.750000*%
%ADD18R,3.500000X1.600000*%
%ADD19R,0.800000X0.900000*%
%ADD20C,2.000000*%
%ADD21R,0.800000X0.500000*%
%ADD22R,0.800000X0.400000*%
%ADD23R,1.300000X0.800000*%
%ADD24C,3.650000*%
%ADD25R,1.500000X1.500000*%
%ADD26C,1.500000*%
%ADD27R,1.000000X2.500000*%
%ADD28R,0.900000X1.200000*%
%ADD29C,0.100000*%
%ADD30R,2.500000X1.000000*%
%ADD31R,0.750000X1.200000*%
%ADD32R,3.150000X1.000000*%
%ADD33R,1.120000X2.440000*%
%ADD34R,1.200000X0.900000*%
%ADD35R,2.000000X1.700000*%
%ADD36R,1.600000X0.550000*%
%ADD37R,0.550000X1.600000*%
%ADD38R,1.500000X1.250000*%
%ADD39C,6.400000*%
%ADD40C,2.108200*%
%ADD41C,3.987800*%
%ADD42C,2.540000*%
%ADD43R,0.800000X1.300000*%
%ADD44R,1.800000X1.300000*%
%ADD45R,1.450000X0.450000*%
%ADD46R,2.000000X1.600000*%
%ADD47R,2.500000X3.325000*%
%ADD48R,1.550000X0.600000*%
%ADD49C,0.800000*%
G04 APERTURE END LIST*
D10*
G04 #@! TO.C,D2*
X91916000Y-42164000D03*
X87916000Y-42164000D03*
G04 #@! TD*
D11*
G04 #@! TO.C,Q24*
X133493000Y-135237000D03*
X133493000Y-137137000D03*
D12*
X135493000Y-136187000D03*
G04 #@! TD*
D11*
G04 #@! TO.C,Q23*
X126224000Y-135194000D03*
X126224000Y-137094000D03*
D12*
X128224000Y-136144000D03*
G04 #@! TD*
D11*
G04 #@! TO.C,Q22*
X133493000Y-129860000D03*
X133493000Y-131760000D03*
D12*
X135493000Y-130810000D03*
G04 #@! TD*
D11*
G04 #@! TO.C,Q21*
X133493000Y-124780000D03*
X133493000Y-126680000D03*
D12*
X135493000Y-125730000D03*
G04 #@! TD*
D11*
G04 #@! TO.C,Q20*
X126224000Y-124780000D03*
X126224000Y-126680000D03*
D12*
X128224000Y-125730000D03*
G04 #@! TD*
D11*
G04 #@! TO.C,Q19*
X133523000Y-119784000D03*
X133523000Y-121684000D03*
D12*
X135523000Y-120734000D03*
G04 #@! TD*
D11*
G04 #@! TO.C,Q18*
X126224000Y-119784000D03*
X126224000Y-121684000D03*
D12*
X128224000Y-120734000D03*
G04 #@! TD*
D11*
G04 #@! TO.C,Q17*
X126224000Y-129796500D03*
X126224000Y-131696500D03*
D12*
X128224000Y-130746500D03*
G04 #@! TD*
D11*
G04 #@! TO.C,Q16*
X133777000Y-106789000D03*
X133777000Y-108689000D03*
D12*
X135777000Y-107739000D03*
G04 #@! TD*
D11*
G04 #@! TO.C,Q15*
X126351000Y-106746000D03*
X126351000Y-108646000D03*
D12*
X128351000Y-107696000D03*
G04 #@! TD*
D11*
G04 #@! TO.C,Q14*
X133713500Y-101686500D03*
X133713500Y-103586500D03*
D12*
X135713500Y-102636500D03*
G04 #@! TD*
D11*
G04 #@! TO.C,Q13*
X126347500Y-101686500D03*
X126347500Y-103586500D03*
D12*
X128347500Y-102636500D03*
G04 #@! TD*
D11*
G04 #@! TO.C,Q12*
X133713500Y-96606500D03*
X133713500Y-98506500D03*
D12*
X135713500Y-97556500D03*
G04 #@! TD*
D11*
G04 #@! TO.C,Q11*
X126347500Y-96586000D03*
X126347500Y-98486000D03*
D12*
X128347500Y-97536000D03*
G04 #@! TD*
D11*
G04 #@! TO.C,Q10*
X133713500Y-91569500D03*
X133713500Y-93469500D03*
D12*
X135713500Y-92519500D03*
G04 #@! TD*
D11*
G04 #@! TO.C,Q9*
X126351000Y-91506000D03*
X126351000Y-93406000D03*
D12*
X128351000Y-92456000D03*
G04 #@! TD*
D11*
G04 #@! TO.C,Q8*
X133904000Y-78552000D03*
X133904000Y-80452000D03*
D12*
X135904000Y-79502000D03*
G04 #@! TD*
D11*
G04 #@! TO.C,Q7*
X126284000Y-78509000D03*
X126284000Y-80409000D03*
D12*
X128284000Y-79459000D03*
G04 #@! TD*
D11*
G04 #@! TO.C,Q6*
X133904000Y-73429000D03*
X133904000Y-75329000D03*
D12*
X135904000Y-74379000D03*
G04 #@! TD*
D11*
G04 #@! TO.C,Q5*
X126284000Y-73345000D03*
X126284000Y-75245000D03*
D12*
X128284000Y-74295000D03*
G04 #@! TD*
D11*
G04 #@! TO.C,Q4*
X133904000Y-68349000D03*
X133904000Y-70249000D03*
D12*
X135904000Y-69299000D03*
G04 #@! TD*
D11*
G04 #@! TO.C,Q3*
X126224000Y-68265000D03*
X126224000Y-70165000D03*
D12*
X128224000Y-69215000D03*
G04 #@! TD*
D11*
G04 #@! TO.C,Q2*
X133777000Y-63228000D03*
X133777000Y-65128000D03*
D12*
X135777000Y-64178000D03*
G04 #@! TD*
D11*
G04 #@! TO.C,Q1*
X126270000Y-63312000D03*
X126270000Y-65212000D03*
D12*
X128270000Y-64262000D03*
G04 #@! TD*
D13*
G04 #@! TO.C,C6*
X129514000Y-41656000D03*
X119914000Y-41656000D03*
G04 #@! TD*
D14*
G04 #@! TO.C,U8*
X102102000Y-30128000D03*
X102102000Y-31828000D03*
X102102000Y-33528000D03*
X102102000Y-35228000D03*
X102102000Y-36928000D03*
D15*
X111252000Y-33528000D03*
G04 #@! TD*
D16*
G04 #@! TO.C,L1*
X94996000Y-33020000D03*
X85096000Y-33020000D03*
G04 #@! TD*
D17*
G04 #@! TO.C,C8*
X97668000Y-43688000D03*
X99568000Y-43688000D03*
G04 #@! TD*
D18*
G04 #@! TO.C,C7*
X87564000Y-48260000D03*
X92964000Y-48260000D03*
G04 #@! TD*
D19*
G04 #@! TO.C,D14*
X131876800Y-88417400D03*
X133776800Y-88417400D03*
X132826800Y-86417400D03*
G04 #@! TD*
G04 #@! TO.C,D13*
X125897600Y-88442800D03*
X127797600Y-88442800D03*
X126847600Y-86442800D03*
G04 #@! TD*
G04 #@! TO.C,D12*
X125897600Y-116646200D03*
X127797600Y-116646200D03*
X126847600Y-114646200D03*
G04 #@! TD*
G04 #@! TO.C,D11*
X131876800Y-116630200D03*
X133776800Y-116630200D03*
X132826800Y-114630200D03*
G04 #@! TD*
G04 #@! TO.C,D10*
X134945200Y-139192000D03*
X133045200Y-139192000D03*
X133995200Y-141192000D03*
G04 #@! TD*
G04 #@! TO.C,D9*
X127797600Y-139242800D03*
X125897600Y-139242800D03*
X126847600Y-141242800D03*
G04 #@! TD*
G04 #@! TO.C,D8*
X127797600Y-110820200D03*
X125897600Y-110820200D03*
X126847600Y-112820200D03*
G04 #@! TD*
G04 #@! TO.C,D7*
X133776800Y-110794800D03*
X131876800Y-110794800D03*
X132826800Y-112794800D03*
G04 #@! TD*
G04 #@! TO.C,D6*
X127797600Y-82448400D03*
X125897600Y-82448400D03*
X126847600Y-84448400D03*
G04 #@! TD*
G04 #@! TO.C,D5*
X133776800Y-82448400D03*
X131876800Y-82448400D03*
X132826800Y-84448400D03*
G04 #@! TD*
G04 #@! TO.C,D4*
X131876800Y-60350400D03*
X133776800Y-60350400D03*
X132826800Y-58350400D03*
G04 #@! TD*
G04 #@! TO.C,D3*
X125923000Y-60410600D03*
X127823000Y-60410600D03*
X126873000Y-58410600D03*
G04 #@! TD*
D17*
G04 #@! TO.C,C15*
X80949800Y-87452200D03*
X79049800Y-87452200D03*
G04 #@! TD*
G04 #@! TO.C,C14*
X63682800Y-98374200D03*
X65582800Y-98374200D03*
G04 #@! TD*
D20*
G04 #@! TO.C,J9*
X141986000Y-136652000D03*
X139446000Y-136652000D03*
X141986000Y-134112000D03*
X139446000Y-134112000D03*
X141986000Y-131572000D03*
X139446000Y-131572000D03*
X141986000Y-129032000D03*
X139446000Y-129032000D03*
X141986000Y-126492000D03*
X139446000Y-126492000D03*
X141986000Y-123952000D03*
X139446000Y-123952000D03*
X141986000Y-121412000D03*
X139446000Y-121412000D03*
X141986000Y-118872000D03*
X139446000Y-118872000D03*
G04 #@! TD*
G04 #@! TO.C,J8*
X141986000Y-108458000D03*
X139446000Y-108458000D03*
X141986000Y-105918000D03*
X139446000Y-105918000D03*
X141986000Y-103378000D03*
X139446000Y-103378000D03*
X141986000Y-100838000D03*
X139446000Y-100838000D03*
X141986000Y-98298000D03*
X139446000Y-98298000D03*
X141986000Y-95758000D03*
X139446000Y-95758000D03*
X141986000Y-93218000D03*
X139446000Y-93218000D03*
X141986000Y-90678000D03*
X139446000Y-90678000D03*
G04 #@! TD*
G04 #@! TO.C,J1*
X141986000Y-80200500D03*
X139446000Y-80200500D03*
X141986000Y-77660500D03*
X139446000Y-77660500D03*
X141986000Y-75120500D03*
X139446000Y-75120500D03*
X141986000Y-72580500D03*
X139446000Y-72580500D03*
X141986000Y-70040500D03*
X139446000Y-70040500D03*
X141986000Y-67500500D03*
X139446000Y-67500500D03*
X141986000Y-64960500D03*
X139446000Y-64960500D03*
X141986000Y-62420500D03*
X139446000Y-62420500D03*
G04 #@! TD*
D21*
G04 #@! TO.C,RN11*
X116967000Y-122244000D03*
D22*
X116967000Y-123844000D03*
X116967000Y-123044000D03*
D21*
X116967000Y-124644000D03*
D22*
X118767000Y-123044000D03*
D21*
X118767000Y-122244000D03*
D22*
X118767000Y-123844000D03*
D21*
X118767000Y-124644000D03*
G04 #@! TD*
G04 #@! TO.C,RN12*
X116967000Y-129540000D03*
D22*
X116967000Y-131140000D03*
X116967000Y-130340000D03*
D21*
X116967000Y-131940000D03*
D22*
X118767000Y-130340000D03*
D21*
X118767000Y-129540000D03*
D22*
X118767000Y-131140000D03*
D21*
X118767000Y-131940000D03*
G04 #@! TD*
D23*
G04 #@! TO.C,U11*
X106197000Y-122042000D03*
X106197000Y-123322000D03*
X106197000Y-124582000D03*
X106197000Y-125852000D03*
X106197000Y-127132000D03*
X106197000Y-128402000D03*
X106197000Y-129662000D03*
X106197000Y-130942000D03*
X112497000Y-130942000D03*
X112497000Y-129662000D03*
X112497000Y-128402000D03*
X112497000Y-127132000D03*
X112497000Y-125852000D03*
X112497000Y-124582000D03*
X112497000Y-123322000D03*
X112497000Y-122042000D03*
G04 #@! TD*
G04 #@! TO.C,U9*
X106070000Y-107437000D03*
X106070000Y-108717000D03*
X106070000Y-109977000D03*
X106070000Y-111247000D03*
X106070000Y-112527000D03*
X106070000Y-113797000D03*
X106070000Y-115057000D03*
X106070000Y-116337000D03*
X112370000Y-116337000D03*
X112370000Y-115057000D03*
X112370000Y-113797000D03*
X112370000Y-112527000D03*
X112370000Y-111247000D03*
X112370000Y-109977000D03*
X112370000Y-108717000D03*
X112370000Y-107437000D03*
G04 #@! TD*
G04 #@! TO.C,U7*
X106070000Y-48382000D03*
X106070000Y-49662000D03*
X106070000Y-50922000D03*
X106070000Y-52192000D03*
X106070000Y-53472000D03*
X106070000Y-54742000D03*
X106070000Y-56002000D03*
X106070000Y-57282000D03*
X112370000Y-57282000D03*
X112370000Y-56002000D03*
X112370000Y-54742000D03*
X112370000Y-53472000D03*
X112370000Y-52192000D03*
X112370000Y-50922000D03*
X112370000Y-49662000D03*
X112370000Y-48382000D03*
G04 #@! TD*
G04 #@! TO.C,U5*
X106197000Y-92832000D03*
X106197000Y-94112000D03*
X106197000Y-95372000D03*
X106197000Y-96642000D03*
X106197000Y-97922000D03*
X106197000Y-99192000D03*
X106197000Y-100452000D03*
X106197000Y-101732000D03*
X112497000Y-101732000D03*
X112497000Y-100452000D03*
X112497000Y-99192000D03*
X112497000Y-97922000D03*
X112497000Y-96642000D03*
X112497000Y-95372000D03*
X112497000Y-94112000D03*
X112497000Y-92832000D03*
G04 #@! TD*
G04 #@! TO.C,U4*
X106197000Y-78227000D03*
X106197000Y-79507000D03*
X106197000Y-80767000D03*
X106197000Y-82037000D03*
X106197000Y-83317000D03*
X106197000Y-84587000D03*
X106197000Y-85847000D03*
X106197000Y-87127000D03*
X112497000Y-87127000D03*
X112497000Y-85847000D03*
X112497000Y-84587000D03*
X112497000Y-83317000D03*
X112497000Y-82037000D03*
X112497000Y-80767000D03*
X112497000Y-79507000D03*
X112497000Y-78227000D03*
G04 #@! TD*
G04 #@! TO.C,U3*
X106070000Y-62987000D03*
X106070000Y-64267000D03*
X106070000Y-65527000D03*
X106070000Y-66797000D03*
X106070000Y-68077000D03*
X106070000Y-69347000D03*
X106070000Y-70607000D03*
X106070000Y-71887000D03*
X112370000Y-71887000D03*
X112370000Y-70607000D03*
X112370000Y-69347000D03*
X112370000Y-68077000D03*
X112370000Y-66797000D03*
X112370000Y-65527000D03*
X112370000Y-64267000D03*
X112370000Y-62987000D03*
G04 #@! TD*
D24*
G04 #@! TO.C,J2*
X144018000Y-144242500D03*
X144018000Y-156112500D03*
D25*
X137668000Y-154622500D03*
D26*
X135128000Y-153352500D03*
X137668000Y-152082500D03*
X135128000Y-150812500D03*
X137668000Y-149542500D03*
X135128000Y-148272500D03*
X137668000Y-147002500D03*
X135128000Y-145732500D03*
G04 #@! TD*
D27*
G04 #@! TO.C,J5*
X75946000Y-138684000D03*
X78486000Y-138684000D03*
X81026000Y-138684000D03*
X83566000Y-138684000D03*
X86106000Y-138684000D03*
X88646000Y-138684000D03*
G04 #@! TD*
D28*
G04 #@! TO.C,R11*
X86106000Y-132588000D03*
X86106000Y-130388000D03*
G04 #@! TD*
G04 #@! TO.C,R10*
X83566000Y-132588000D03*
X83566000Y-130388000D03*
G04 #@! TD*
D29*
G04 #@! TO.C,JP2*
G36*
X85356602Y-126208000D02*
G01*
X85356602Y-126183466D01*
X85361412Y-126134635D01*
X85370984Y-126086510D01*
X85385228Y-126039555D01*
X85404005Y-125994222D01*
X85427136Y-125950949D01*
X85454396Y-125910150D01*
X85485524Y-125872221D01*
X85520221Y-125837524D01*
X85558150Y-125806396D01*
X85598949Y-125779136D01*
X85642222Y-125756005D01*
X85687555Y-125737228D01*
X85734510Y-125722984D01*
X85782635Y-125713412D01*
X85831466Y-125708602D01*
X85856000Y-125708602D01*
X85856000Y-125708000D01*
X86356000Y-125708000D01*
X86356000Y-125708602D01*
X86380534Y-125708602D01*
X86429365Y-125713412D01*
X86477490Y-125722984D01*
X86524445Y-125737228D01*
X86569778Y-125756005D01*
X86613051Y-125779136D01*
X86653850Y-125806396D01*
X86691779Y-125837524D01*
X86726476Y-125872221D01*
X86757604Y-125910150D01*
X86784864Y-125950949D01*
X86807995Y-125994222D01*
X86826772Y-126039555D01*
X86841016Y-126086510D01*
X86850588Y-126134635D01*
X86855398Y-126183466D01*
X86855398Y-126208000D01*
X86856000Y-126208000D01*
X86856000Y-126708000D01*
X85356000Y-126708000D01*
X85356000Y-126208000D01*
X85356602Y-126208000D01*
G37*
G36*
X86856000Y-127008000D02*
G01*
X86856000Y-127508000D01*
X86855398Y-127508000D01*
X86855398Y-127532534D01*
X86850588Y-127581365D01*
X86841016Y-127629490D01*
X86826772Y-127676445D01*
X86807995Y-127721778D01*
X86784864Y-127765051D01*
X86757604Y-127805850D01*
X86726476Y-127843779D01*
X86691779Y-127878476D01*
X86653850Y-127909604D01*
X86613051Y-127936864D01*
X86569778Y-127959995D01*
X86524445Y-127978772D01*
X86477490Y-127993016D01*
X86429365Y-128002588D01*
X86380534Y-128007398D01*
X86356000Y-128007398D01*
X86356000Y-128008000D01*
X85856000Y-128008000D01*
X85856000Y-128007398D01*
X85831466Y-128007398D01*
X85782635Y-128002588D01*
X85734510Y-127993016D01*
X85687555Y-127978772D01*
X85642222Y-127959995D01*
X85598949Y-127936864D01*
X85558150Y-127909604D01*
X85520221Y-127878476D01*
X85485524Y-127843779D01*
X85454396Y-127805850D01*
X85427136Y-127765051D01*
X85404005Y-127721778D01*
X85385228Y-127676445D01*
X85370984Y-127629490D01*
X85361412Y-127581365D01*
X85356602Y-127532534D01*
X85356602Y-127508000D01*
X85356000Y-127508000D01*
X85356000Y-127008000D01*
X86856000Y-127008000D01*
G37*
G04 #@! TD*
G04 #@! TO.C,JP1*
G36*
X82816602Y-126208000D02*
G01*
X82816602Y-126183466D01*
X82821412Y-126134635D01*
X82830984Y-126086510D01*
X82845228Y-126039555D01*
X82864005Y-125994222D01*
X82887136Y-125950949D01*
X82914396Y-125910150D01*
X82945524Y-125872221D01*
X82980221Y-125837524D01*
X83018150Y-125806396D01*
X83058949Y-125779136D01*
X83102222Y-125756005D01*
X83147555Y-125737228D01*
X83194510Y-125722984D01*
X83242635Y-125713412D01*
X83291466Y-125708602D01*
X83316000Y-125708602D01*
X83316000Y-125708000D01*
X83816000Y-125708000D01*
X83816000Y-125708602D01*
X83840534Y-125708602D01*
X83889365Y-125713412D01*
X83937490Y-125722984D01*
X83984445Y-125737228D01*
X84029778Y-125756005D01*
X84073051Y-125779136D01*
X84113850Y-125806396D01*
X84151779Y-125837524D01*
X84186476Y-125872221D01*
X84217604Y-125910150D01*
X84244864Y-125950949D01*
X84267995Y-125994222D01*
X84286772Y-126039555D01*
X84301016Y-126086510D01*
X84310588Y-126134635D01*
X84315398Y-126183466D01*
X84315398Y-126208000D01*
X84316000Y-126208000D01*
X84316000Y-126708000D01*
X82816000Y-126708000D01*
X82816000Y-126208000D01*
X82816602Y-126208000D01*
G37*
G36*
X84316000Y-127008000D02*
G01*
X84316000Y-127508000D01*
X84315398Y-127508000D01*
X84315398Y-127532534D01*
X84310588Y-127581365D01*
X84301016Y-127629490D01*
X84286772Y-127676445D01*
X84267995Y-127721778D01*
X84244864Y-127765051D01*
X84217604Y-127805850D01*
X84186476Y-127843779D01*
X84151779Y-127878476D01*
X84113850Y-127909604D01*
X84073051Y-127936864D01*
X84029778Y-127959995D01*
X83984445Y-127978772D01*
X83937490Y-127993016D01*
X83889365Y-128002588D01*
X83840534Y-128007398D01*
X83816000Y-128007398D01*
X83816000Y-128008000D01*
X83316000Y-128008000D01*
X83316000Y-128007398D01*
X83291466Y-128007398D01*
X83242635Y-128002588D01*
X83194510Y-127993016D01*
X83147555Y-127978772D01*
X83102222Y-127959995D01*
X83058949Y-127936864D01*
X83018150Y-127909604D01*
X82980221Y-127878476D01*
X82945524Y-127843779D01*
X82914396Y-127805850D01*
X82887136Y-127765051D01*
X82864005Y-127721778D01*
X82845228Y-127676445D01*
X82830984Y-127629490D01*
X82821412Y-127581365D01*
X82816602Y-127532534D01*
X82816602Y-127508000D01*
X82816000Y-127508000D01*
X82816000Y-127008000D01*
X84316000Y-127008000D01*
G37*
G04 #@! TD*
D30*
G04 #@! TO.C,J7*
X64008000Y-122682000D03*
X64008000Y-120142000D03*
X64008000Y-117602000D03*
X64008000Y-115062000D03*
G04 #@! TD*
D21*
G04 #@! TO.C,RN10*
X116967000Y-114433500D03*
D22*
X116967000Y-116033500D03*
X116967000Y-115233500D03*
D21*
X116967000Y-116833500D03*
D22*
X118767000Y-115233500D03*
D21*
X118767000Y-114433500D03*
D22*
X118767000Y-116033500D03*
D21*
X118767000Y-116833500D03*
G04 #@! TD*
G04 #@! TO.C,RN9*
X116967000Y-108164604D03*
D22*
X116967000Y-109764604D03*
X116967000Y-108964604D03*
D21*
X116967000Y-110564604D03*
D22*
X118767000Y-108964604D03*
D21*
X118767000Y-108164604D03*
D22*
X118767000Y-109764604D03*
D21*
X118767000Y-110564604D03*
G04 #@! TD*
G04 #@! TO.C,RN8*
X116967000Y-100101500D03*
D22*
X116967000Y-101701500D03*
X116967000Y-100901500D03*
D21*
X116967000Y-102501500D03*
D22*
X118767000Y-100901500D03*
D21*
X118767000Y-100101500D03*
D22*
X118767000Y-101701500D03*
D21*
X118767000Y-102501500D03*
G04 #@! TD*
G04 #@! TO.C,RN7*
X116967000Y-93154500D03*
D22*
X116967000Y-94754500D03*
X116967000Y-93954500D03*
D21*
X116967000Y-95554500D03*
D22*
X118767000Y-93954500D03*
D21*
X118767000Y-93154500D03*
D22*
X118767000Y-94754500D03*
D21*
X118767000Y-95554500D03*
G04 #@! TD*
G04 #@! TO.C,RN6*
X116967000Y-85547940D03*
D22*
X116967000Y-87147940D03*
X116967000Y-86347940D03*
D21*
X116967000Y-87947940D03*
D22*
X118767000Y-86347940D03*
D21*
X118767000Y-85547940D03*
D22*
X118767000Y-87147940D03*
D21*
X118767000Y-87947940D03*
G04 #@! TD*
G04 #@! TO.C,RN5*
X116967000Y-78511500D03*
D22*
X116967000Y-80111500D03*
X116967000Y-79311500D03*
D21*
X116967000Y-80911500D03*
D22*
X118767000Y-79311500D03*
D21*
X118767000Y-78511500D03*
D22*
X118767000Y-80111500D03*
D21*
X118767000Y-80911500D03*
G04 #@! TD*
G04 #@! TO.C,RN4*
X116967000Y-70345500D03*
D22*
X116967000Y-71945500D03*
X116967000Y-71145500D03*
D21*
X116967000Y-72745500D03*
D22*
X118767000Y-71145500D03*
D21*
X118767000Y-70345500D03*
D22*
X118767000Y-71945500D03*
D21*
X118767000Y-72745500D03*
G04 #@! TD*
G04 #@! TO.C,RN3*
X116967000Y-63182500D03*
D22*
X116967000Y-64782500D03*
X116967000Y-63982500D03*
D21*
X116967000Y-65582500D03*
D22*
X118767000Y-63982500D03*
D21*
X118767000Y-63182500D03*
D22*
X118767000Y-64782500D03*
D21*
X118767000Y-65582500D03*
G04 #@! TD*
G04 #@! TO.C,RN2*
X116967000Y-55994500D03*
D22*
X116967000Y-57594500D03*
X116967000Y-56794500D03*
D21*
X116967000Y-58394500D03*
D22*
X118767000Y-56794500D03*
D21*
X118767000Y-55994500D03*
D22*
X118767000Y-57594500D03*
D21*
X118767000Y-58394500D03*
G04 #@! TD*
G04 #@! TO.C,RN1*
X116967000Y-50228500D03*
D22*
X116967000Y-51828500D03*
X116967000Y-51028500D03*
D21*
X116967000Y-52628500D03*
D22*
X118767000Y-51028500D03*
D21*
X118767000Y-50228500D03*
D22*
X118767000Y-51828500D03*
D21*
X118767000Y-52628500D03*
G04 #@! TD*
D31*
G04 #@! TO.C,C13*
X93980000Y-71823500D03*
X93980000Y-73723500D03*
G04 #@! TD*
G04 #@! TO.C,C9*
X94107000Y-102679500D03*
X94107000Y-104579500D03*
G04 #@! TD*
D32*
G04 #@! TO.C,J4*
X69801500Y-68008500D03*
X74851500Y-68008500D03*
X69801500Y-70548500D03*
X74851500Y-70548500D03*
X69801500Y-73088500D03*
X74851500Y-73088500D03*
G04 #@! TD*
D33*
G04 #@! TO.C,SW2*
X75120500Y-102946500D03*
X64960500Y-111556500D03*
X72580500Y-102946500D03*
X67500500Y-111556500D03*
X70040500Y-102946500D03*
X70040500Y-111556500D03*
X67500500Y-102946500D03*
X72580500Y-111556500D03*
X64960500Y-102946500D03*
X75120500Y-111556500D03*
G04 #@! TD*
D34*
G04 #@! TO.C,R9*
X75270000Y-61658500D03*
X77470000Y-61658500D03*
G04 #@! TD*
D35*
G04 #@! TO.C,D1*
X71786500Y-61658500D03*
X67786500Y-61658500D03*
G04 #@! TD*
D36*
G04 #@! TO.C,U1*
X77080000Y-96672000D03*
X77080000Y-95872000D03*
X77080000Y-95072000D03*
X77080000Y-94272000D03*
X77080000Y-93472000D03*
X77080000Y-92672000D03*
X77080000Y-91872000D03*
X77080000Y-91072000D03*
D37*
X75630000Y-89622000D03*
X74830000Y-89622000D03*
X74030000Y-89622000D03*
X73230000Y-89622000D03*
X72430000Y-89622000D03*
X71630000Y-89622000D03*
X70830000Y-89622000D03*
X70030000Y-89622000D03*
D36*
X68580000Y-91072000D03*
X68580000Y-91872000D03*
X68580000Y-92672000D03*
X68580000Y-93472000D03*
X68580000Y-94272000D03*
X68580000Y-95072000D03*
X68580000Y-95872000D03*
X68580000Y-96672000D03*
D37*
X70030000Y-98122000D03*
X70830000Y-98122000D03*
X71630000Y-98122000D03*
X72430000Y-98122000D03*
X73230000Y-98122000D03*
X74030000Y-98122000D03*
X74830000Y-98122000D03*
X75630000Y-98122000D03*
G04 #@! TD*
D38*
G04 #@! TO.C,C12*
X100076000Y-41148000D03*
X97576000Y-41148000D03*
G04 #@! TD*
D39*
G04 #@! TO.C,H8*
X97155000Y-130175000D03*
G04 #@! TD*
G04 #@! TO.C,H7*
X97155000Y-55245000D03*
G04 #@! TD*
G04 #@! TO.C,H6*
X66040000Y-130175000D03*
G04 #@! TD*
G04 #@! TO.C,H5*
X66040000Y-55245000D03*
G04 #@! TD*
D40*
G04 #@! TO.C,J3*
X139446000Y-46736000D03*
X139446000Y-51816000D03*
D41*
X149606000Y-45466000D03*
X149606000Y-53086000D03*
D42*
X141986000Y-49276000D03*
G04 #@! TD*
D43*
G04 #@! TO.C,U6*
X95310000Y-107255000D03*
D44*
X94010000Y-112455000D03*
X94010000Y-111155000D03*
X94010000Y-107255000D03*
X94010000Y-108555000D03*
D45*
X91060000Y-106935000D03*
X91060000Y-107585000D03*
X91060000Y-108235000D03*
X91060000Y-108885000D03*
X91060000Y-109525000D03*
X91060000Y-110185000D03*
X91060000Y-110825000D03*
X91060000Y-111475000D03*
X91060000Y-112125000D03*
X91060000Y-112775000D03*
X96960000Y-112775000D03*
X96960000Y-112125000D03*
X96960000Y-111475000D03*
X96960000Y-110825000D03*
X96960000Y-110185000D03*
X96960000Y-109525000D03*
X96960000Y-108885000D03*
X96960000Y-108235000D03*
X96960000Y-107585000D03*
X96960000Y-106935000D03*
D44*
X94010000Y-109855000D03*
D43*
X92710000Y-107255000D03*
X92710000Y-108555000D03*
X92710000Y-109855000D03*
X92710000Y-111155000D03*
X92710000Y-112455000D03*
X95310000Y-112455000D03*
X95310000Y-111155000D03*
X95310000Y-109855000D03*
X95310000Y-108555000D03*
G04 #@! TD*
G04 #@! TO.C,U2*
X95310000Y-76200000D03*
D44*
X94010000Y-81400000D03*
X94010000Y-80100000D03*
X94010000Y-76200000D03*
X94010000Y-77500000D03*
D45*
X91060000Y-75880000D03*
X91060000Y-76530000D03*
X91060000Y-77180000D03*
X91060000Y-77830000D03*
X91060000Y-78470000D03*
X91060000Y-79130000D03*
X91060000Y-79770000D03*
X91060000Y-80420000D03*
X91060000Y-81070000D03*
X91060000Y-81720000D03*
X96960000Y-81720000D03*
X96960000Y-81070000D03*
X96960000Y-80420000D03*
X96960000Y-79770000D03*
X96960000Y-79130000D03*
X96960000Y-78470000D03*
X96960000Y-77830000D03*
X96960000Y-77180000D03*
X96960000Y-76530000D03*
X96960000Y-75880000D03*
D44*
X94010000Y-78800000D03*
D43*
X92710000Y-76200000D03*
X92710000Y-77500000D03*
X92710000Y-78800000D03*
X92710000Y-80100000D03*
X92710000Y-81400000D03*
X95310000Y-81400000D03*
X95310000Y-80100000D03*
X95310000Y-78800000D03*
X95310000Y-77500000D03*
G04 #@! TD*
D46*
G04 #@! TO.C,SW1*
X127320000Y-144526000D03*
X121920000Y-144526000D03*
G04 #@! TD*
D28*
G04 #@! TO.C,R8*
X91122500Y-102595500D03*
X91122500Y-104795500D03*
G04 #@! TD*
G04 #@! TO.C,R7*
X91122500Y-71564500D03*
X91122500Y-73764500D03*
G04 #@! TD*
D34*
G04 #@! TO.C,R6*
X115656000Y-148209000D03*
X117856000Y-148209000D03*
G04 #@! TD*
G04 #@! TO.C,R5*
X115697000Y-150622000D03*
X117897000Y-150622000D03*
G04 #@! TD*
G04 #@! TO.C,R4*
X117897000Y-152908000D03*
X115697000Y-152908000D03*
G04 #@! TD*
G04 #@! TO.C,R3*
X97876000Y-152527000D03*
X100076000Y-152527000D03*
G04 #@! TD*
G04 #@! TO.C,R2*
X97876000Y-148717000D03*
X100076000Y-148717000D03*
G04 #@! TD*
G04 #@! TO.C,R1*
X115656000Y-144526000D03*
X117856000Y-144526000D03*
G04 #@! TD*
D24*
G04 #@! TO.C,J6*
X143954500Y-27275500D03*
X143954500Y-39145500D03*
D25*
X137604500Y-37655500D03*
D26*
X135064500Y-36385500D03*
X137604500Y-35115500D03*
X135064500Y-33845500D03*
X137604500Y-32575500D03*
X135064500Y-31305500D03*
X137604500Y-30035500D03*
X135064500Y-28765500D03*
G04 #@! TD*
D31*
G04 #@! TO.C,C5*
X96964500Y-102679500D03*
X96964500Y-104579500D03*
G04 #@! TD*
G04 #@! TO.C,C4*
X96964500Y-71760000D03*
X96964500Y-73660000D03*
G04 #@! TD*
G04 #@! TO.C,C3*
X88646000Y-132456000D03*
X88646000Y-130556000D03*
G04 #@! TD*
D47*
G04 #@! TO.C,Y1*
X84201000Y-96511500D03*
X84201000Y-90686500D03*
G04 #@! TD*
D48*
G04 #@! TO.C,U10*
X105852000Y-148717000D03*
X105852000Y-149987000D03*
X105852000Y-151257000D03*
X105852000Y-152527000D03*
X111252000Y-152527000D03*
X111252000Y-151257000D03*
X111252000Y-149987000D03*
X111252000Y-148717000D03*
G04 #@! TD*
D31*
G04 #@! TO.C,C2*
X87757000Y-91435000D03*
X87757000Y-89535000D03*
G04 #@! TD*
G04 #@! TO.C,C1*
X87757000Y-95631000D03*
X87757000Y-97531000D03*
G04 #@! TD*
D39*
G04 #@! TO.C,H4*
X125000000Y-153000000D03*
D49*
X127400000Y-153000000D03*
X126697056Y-154697056D03*
X125000000Y-155400000D03*
X123302944Y-154697056D03*
X122600000Y-153000000D03*
X123302944Y-151302944D03*
X125000000Y-150600000D03*
X126697056Y-151302944D03*
G04 #@! TD*
D39*
G04 #@! TO.C,H3*
X125000000Y-30000000D03*
D49*
X127400000Y-30000000D03*
X126697056Y-31697056D03*
X125000000Y-32400000D03*
X123302944Y-31697056D03*
X122600000Y-30000000D03*
X123302944Y-28302944D03*
X125000000Y-27600000D03*
X126697056Y-28302944D03*
G04 #@! TD*
D39*
G04 #@! TO.C,H2*
X65000000Y-153000000D03*
D49*
X67400000Y-153000000D03*
X66697056Y-154697056D03*
X65000000Y-155400000D03*
X63302944Y-154697056D03*
X62600000Y-153000000D03*
X63302944Y-151302944D03*
X65000000Y-150600000D03*
X66697056Y-151302944D03*
G04 #@! TD*
D39*
G04 #@! TO.C,H1*
X65000000Y-30000000D03*
D49*
X67400000Y-30000000D03*
X66697056Y-31697056D03*
X65000000Y-32400000D03*
X63302944Y-31697056D03*
X62600000Y-30000000D03*
X63302944Y-28302944D03*
X65000000Y-27600000D03*
X66697056Y-28302944D03*
G04 #@! TD*
M02*
