G04 #@! TF.GenerationSoftware,KiCad,Pcbnew,(5.1.8)-1*
G04 #@! TF.CreationDate,2022-01-31T17:06:36-05:00*
G04 #@! TF.ProjectId,ElectromagnetController_V3,456c6563-7472-46f6-9d61-676e6574436f,rev?*
G04 #@! TF.SameCoordinates,Original*
G04 #@! TF.FileFunction,Paste,Top*
G04 #@! TF.FilePolarity,Positive*
%FSLAX46Y46*%
G04 Gerber Fmt 4.6, Leading zero omitted, Abs format (unit mm)*
G04 Created by KiCad (PCBNEW (5.1.8)-1) date 2022-01-31 17:06:36*
%MOMM*%
%LPD*%
G01*
G04 APERTURE LIST*
%ADD10R,2.500000X1.800000*%
%ADD11R,1.400000X1.200000*%
%ADD12R,1.300000X2.800000*%
%ADD13R,6.000000X2.500000*%
%ADD14R,4.600000X1.100000*%
%ADD15R,4.550000X5.250000*%
%ADD16R,2.900000X5.400000*%
%ADD17R,1.200000X0.750000*%
%ADD18R,3.500000X1.600000*%
%ADD19R,0.800000X0.900000*%
%ADD20R,0.800000X0.500000*%
%ADD21R,0.800000X0.400000*%
%ADD22R,1.300000X0.800000*%
%ADD23R,1.000000X2.500000*%
%ADD24R,0.900000X1.200000*%
%ADD25R,2.500000X1.000000*%
%ADD26R,0.750000X1.200000*%
%ADD27R,3.150000X1.000000*%
%ADD28R,1.120000X2.440000*%
%ADD29R,1.200000X0.900000*%
%ADD30R,2.000000X1.700000*%
%ADD31R,1.600000X0.550000*%
%ADD32R,0.550000X1.600000*%
%ADD33R,1.500000X1.250000*%
%ADD34R,1.450000X0.450000*%
%ADD35R,2.000000X1.600000*%
%ADD36R,2.500000X3.325000*%
%ADD37R,1.550000X0.600000*%
G04 APERTURE END LIST*
D10*
G04 #@! TO.C,D2*
X91916000Y-42164000D03*
X87916000Y-42164000D03*
G04 #@! TD*
D11*
G04 #@! TO.C,Q24*
X133493000Y-135237000D03*
X133493000Y-137137000D03*
D12*
X135493000Y-136187000D03*
G04 #@! TD*
D11*
G04 #@! TO.C,Q23*
X126224000Y-135194000D03*
X126224000Y-137094000D03*
D12*
X128224000Y-136144000D03*
G04 #@! TD*
D11*
G04 #@! TO.C,Q22*
X133493000Y-129860000D03*
X133493000Y-131760000D03*
D12*
X135493000Y-130810000D03*
G04 #@! TD*
D11*
G04 #@! TO.C,Q21*
X133493000Y-124780000D03*
X133493000Y-126680000D03*
D12*
X135493000Y-125730000D03*
G04 #@! TD*
D11*
G04 #@! TO.C,Q20*
X126224000Y-124780000D03*
X126224000Y-126680000D03*
D12*
X128224000Y-125730000D03*
G04 #@! TD*
D11*
G04 #@! TO.C,Q19*
X133523000Y-119784000D03*
X133523000Y-121684000D03*
D12*
X135523000Y-120734000D03*
G04 #@! TD*
D11*
G04 #@! TO.C,Q18*
X126224000Y-119784000D03*
X126224000Y-121684000D03*
D12*
X128224000Y-120734000D03*
G04 #@! TD*
D11*
G04 #@! TO.C,Q17*
X126224000Y-129796500D03*
X126224000Y-131696500D03*
D12*
X128224000Y-130746500D03*
G04 #@! TD*
D11*
G04 #@! TO.C,Q16*
X133777000Y-106789000D03*
X133777000Y-108689000D03*
D12*
X135777000Y-107739000D03*
G04 #@! TD*
D11*
G04 #@! TO.C,Q15*
X126351000Y-106746000D03*
X126351000Y-108646000D03*
D12*
X128351000Y-107696000D03*
G04 #@! TD*
D11*
G04 #@! TO.C,Q14*
X133713500Y-101686500D03*
X133713500Y-103586500D03*
D12*
X135713500Y-102636500D03*
G04 #@! TD*
D11*
G04 #@! TO.C,Q13*
X126347500Y-101686500D03*
X126347500Y-103586500D03*
D12*
X128347500Y-102636500D03*
G04 #@! TD*
D11*
G04 #@! TO.C,Q12*
X133713500Y-96606500D03*
X133713500Y-98506500D03*
D12*
X135713500Y-97556500D03*
G04 #@! TD*
D11*
G04 #@! TO.C,Q11*
X126347500Y-96586000D03*
X126347500Y-98486000D03*
D12*
X128347500Y-97536000D03*
G04 #@! TD*
D11*
G04 #@! TO.C,Q10*
X133713500Y-91569500D03*
X133713500Y-93469500D03*
D12*
X135713500Y-92519500D03*
G04 #@! TD*
D11*
G04 #@! TO.C,Q9*
X126351000Y-91506000D03*
X126351000Y-93406000D03*
D12*
X128351000Y-92456000D03*
G04 #@! TD*
D11*
G04 #@! TO.C,Q8*
X133904000Y-78552000D03*
X133904000Y-80452000D03*
D12*
X135904000Y-79502000D03*
G04 #@! TD*
D11*
G04 #@! TO.C,Q7*
X126284000Y-78509000D03*
X126284000Y-80409000D03*
D12*
X128284000Y-79459000D03*
G04 #@! TD*
D11*
G04 #@! TO.C,Q6*
X133904000Y-73429000D03*
X133904000Y-75329000D03*
D12*
X135904000Y-74379000D03*
G04 #@! TD*
D11*
G04 #@! TO.C,Q5*
X126284000Y-73345000D03*
X126284000Y-75245000D03*
D12*
X128284000Y-74295000D03*
G04 #@! TD*
D11*
G04 #@! TO.C,Q4*
X133904000Y-68349000D03*
X133904000Y-70249000D03*
D12*
X135904000Y-69299000D03*
G04 #@! TD*
D11*
G04 #@! TO.C,Q3*
X126224000Y-68265000D03*
X126224000Y-70165000D03*
D12*
X128224000Y-69215000D03*
G04 #@! TD*
D11*
G04 #@! TO.C,Q2*
X133777000Y-63228000D03*
X133777000Y-65128000D03*
D12*
X135777000Y-64178000D03*
G04 #@! TD*
D11*
G04 #@! TO.C,Q1*
X126270000Y-63312000D03*
X126270000Y-65212000D03*
D12*
X128270000Y-64262000D03*
G04 #@! TD*
D13*
G04 #@! TO.C,C6*
X129514000Y-41656000D03*
X119914000Y-41656000D03*
G04 #@! TD*
D14*
G04 #@! TO.C,U8*
X102102000Y-30128000D03*
X102102000Y-31828000D03*
X102102000Y-33528000D03*
X102102000Y-35228000D03*
X102102000Y-36928000D03*
D15*
X113677000Y-36303000D03*
X108827000Y-30753000D03*
X113677000Y-30753000D03*
X108827000Y-36303000D03*
G04 #@! TD*
D16*
G04 #@! TO.C,L1*
X94996000Y-33020000D03*
X85096000Y-33020000D03*
G04 #@! TD*
D17*
G04 #@! TO.C,C8*
X97668000Y-43688000D03*
X99568000Y-43688000D03*
G04 #@! TD*
D18*
G04 #@! TO.C,C7*
X87564000Y-48260000D03*
X92964000Y-48260000D03*
G04 #@! TD*
D19*
G04 #@! TO.C,D14*
X131876800Y-88417400D03*
X133776800Y-88417400D03*
X132826800Y-86417400D03*
G04 #@! TD*
G04 #@! TO.C,D13*
X125897600Y-88442800D03*
X127797600Y-88442800D03*
X126847600Y-86442800D03*
G04 #@! TD*
G04 #@! TO.C,D12*
X125897600Y-116646200D03*
X127797600Y-116646200D03*
X126847600Y-114646200D03*
G04 #@! TD*
G04 #@! TO.C,D11*
X131876800Y-116630200D03*
X133776800Y-116630200D03*
X132826800Y-114630200D03*
G04 #@! TD*
G04 #@! TO.C,D10*
X134945200Y-139192000D03*
X133045200Y-139192000D03*
X133995200Y-141192000D03*
G04 #@! TD*
G04 #@! TO.C,D9*
X127797600Y-139242800D03*
X125897600Y-139242800D03*
X126847600Y-141242800D03*
G04 #@! TD*
G04 #@! TO.C,D8*
X127797600Y-110820200D03*
X125897600Y-110820200D03*
X126847600Y-112820200D03*
G04 #@! TD*
G04 #@! TO.C,D7*
X133776800Y-110794800D03*
X131876800Y-110794800D03*
X132826800Y-112794800D03*
G04 #@! TD*
G04 #@! TO.C,D6*
X127797600Y-82448400D03*
X125897600Y-82448400D03*
X126847600Y-84448400D03*
G04 #@! TD*
G04 #@! TO.C,D5*
X133776800Y-82448400D03*
X131876800Y-82448400D03*
X132826800Y-84448400D03*
G04 #@! TD*
G04 #@! TO.C,D4*
X131876800Y-60350400D03*
X133776800Y-60350400D03*
X132826800Y-58350400D03*
G04 #@! TD*
G04 #@! TO.C,D3*
X125923000Y-60410600D03*
X127823000Y-60410600D03*
X126873000Y-58410600D03*
G04 #@! TD*
D17*
G04 #@! TO.C,C15*
X80949800Y-87452200D03*
X79049800Y-87452200D03*
G04 #@! TD*
G04 #@! TO.C,C14*
X63682800Y-98374200D03*
X65582800Y-98374200D03*
G04 #@! TD*
D20*
G04 #@! TO.C,RN11*
X116967000Y-122244000D03*
D21*
X116967000Y-123844000D03*
X116967000Y-123044000D03*
D20*
X116967000Y-124644000D03*
D21*
X118767000Y-123044000D03*
D20*
X118767000Y-122244000D03*
D21*
X118767000Y-123844000D03*
D20*
X118767000Y-124644000D03*
G04 #@! TD*
G04 #@! TO.C,RN12*
X116967000Y-129540000D03*
D21*
X116967000Y-131140000D03*
X116967000Y-130340000D03*
D20*
X116967000Y-131940000D03*
D21*
X118767000Y-130340000D03*
D20*
X118767000Y-129540000D03*
D21*
X118767000Y-131140000D03*
D20*
X118767000Y-131940000D03*
G04 #@! TD*
D22*
G04 #@! TO.C,U11*
X106197000Y-122042000D03*
X106197000Y-123322000D03*
X106197000Y-124582000D03*
X106197000Y-125852000D03*
X106197000Y-127132000D03*
X106197000Y-128402000D03*
X106197000Y-129662000D03*
X106197000Y-130942000D03*
X112497000Y-130942000D03*
X112497000Y-129662000D03*
X112497000Y-128402000D03*
X112497000Y-127132000D03*
X112497000Y-125852000D03*
X112497000Y-124582000D03*
X112497000Y-123322000D03*
X112497000Y-122042000D03*
G04 #@! TD*
G04 #@! TO.C,U9*
X106070000Y-107437000D03*
X106070000Y-108717000D03*
X106070000Y-109977000D03*
X106070000Y-111247000D03*
X106070000Y-112527000D03*
X106070000Y-113797000D03*
X106070000Y-115057000D03*
X106070000Y-116337000D03*
X112370000Y-116337000D03*
X112370000Y-115057000D03*
X112370000Y-113797000D03*
X112370000Y-112527000D03*
X112370000Y-111247000D03*
X112370000Y-109977000D03*
X112370000Y-108717000D03*
X112370000Y-107437000D03*
G04 #@! TD*
G04 #@! TO.C,U7*
X106070000Y-48382000D03*
X106070000Y-49662000D03*
X106070000Y-50922000D03*
X106070000Y-52192000D03*
X106070000Y-53472000D03*
X106070000Y-54742000D03*
X106070000Y-56002000D03*
X106070000Y-57282000D03*
X112370000Y-57282000D03*
X112370000Y-56002000D03*
X112370000Y-54742000D03*
X112370000Y-53472000D03*
X112370000Y-52192000D03*
X112370000Y-50922000D03*
X112370000Y-49662000D03*
X112370000Y-48382000D03*
G04 #@! TD*
G04 #@! TO.C,U5*
X106197000Y-92832000D03*
X106197000Y-94112000D03*
X106197000Y-95372000D03*
X106197000Y-96642000D03*
X106197000Y-97922000D03*
X106197000Y-99192000D03*
X106197000Y-100452000D03*
X106197000Y-101732000D03*
X112497000Y-101732000D03*
X112497000Y-100452000D03*
X112497000Y-99192000D03*
X112497000Y-97922000D03*
X112497000Y-96642000D03*
X112497000Y-95372000D03*
X112497000Y-94112000D03*
X112497000Y-92832000D03*
G04 #@! TD*
G04 #@! TO.C,U4*
X106197000Y-78227000D03*
X106197000Y-79507000D03*
X106197000Y-80767000D03*
X106197000Y-82037000D03*
X106197000Y-83317000D03*
X106197000Y-84587000D03*
X106197000Y-85847000D03*
X106197000Y-87127000D03*
X112497000Y-87127000D03*
X112497000Y-85847000D03*
X112497000Y-84587000D03*
X112497000Y-83317000D03*
X112497000Y-82037000D03*
X112497000Y-80767000D03*
X112497000Y-79507000D03*
X112497000Y-78227000D03*
G04 #@! TD*
G04 #@! TO.C,U3*
X106070000Y-62987000D03*
X106070000Y-64267000D03*
X106070000Y-65527000D03*
X106070000Y-66797000D03*
X106070000Y-68077000D03*
X106070000Y-69347000D03*
X106070000Y-70607000D03*
X106070000Y-71887000D03*
X112370000Y-71887000D03*
X112370000Y-70607000D03*
X112370000Y-69347000D03*
X112370000Y-68077000D03*
X112370000Y-66797000D03*
X112370000Y-65527000D03*
X112370000Y-64267000D03*
X112370000Y-62987000D03*
G04 #@! TD*
D23*
G04 #@! TO.C,J5*
X75946000Y-138684000D03*
X78486000Y-138684000D03*
X81026000Y-138684000D03*
X83566000Y-138684000D03*
X86106000Y-138684000D03*
X88646000Y-138684000D03*
G04 #@! TD*
D24*
G04 #@! TO.C,R11*
X86106000Y-132588000D03*
X86106000Y-130388000D03*
G04 #@! TD*
G04 #@! TO.C,R10*
X83566000Y-132588000D03*
X83566000Y-130388000D03*
G04 #@! TD*
D25*
G04 #@! TO.C,J7*
X64008000Y-122682000D03*
X64008000Y-120142000D03*
X64008000Y-117602000D03*
X64008000Y-115062000D03*
G04 #@! TD*
D20*
G04 #@! TO.C,RN10*
X116967000Y-114433500D03*
D21*
X116967000Y-116033500D03*
X116967000Y-115233500D03*
D20*
X116967000Y-116833500D03*
D21*
X118767000Y-115233500D03*
D20*
X118767000Y-114433500D03*
D21*
X118767000Y-116033500D03*
D20*
X118767000Y-116833500D03*
G04 #@! TD*
G04 #@! TO.C,RN9*
X116967000Y-108164604D03*
D21*
X116967000Y-109764604D03*
X116967000Y-108964604D03*
D20*
X116967000Y-110564604D03*
D21*
X118767000Y-108964604D03*
D20*
X118767000Y-108164604D03*
D21*
X118767000Y-109764604D03*
D20*
X118767000Y-110564604D03*
G04 #@! TD*
G04 #@! TO.C,RN8*
X116967000Y-100101500D03*
D21*
X116967000Y-101701500D03*
X116967000Y-100901500D03*
D20*
X116967000Y-102501500D03*
D21*
X118767000Y-100901500D03*
D20*
X118767000Y-100101500D03*
D21*
X118767000Y-101701500D03*
D20*
X118767000Y-102501500D03*
G04 #@! TD*
G04 #@! TO.C,RN7*
X116967000Y-93154500D03*
D21*
X116967000Y-94754500D03*
X116967000Y-93954500D03*
D20*
X116967000Y-95554500D03*
D21*
X118767000Y-93954500D03*
D20*
X118767000Y-93154500D03*
D21*
X118767000Y-94754500D03*
D20*
X118767000Y-95554500D03*
G04 #@! TD*
G04 #@! TO.C,RN6*
X116967000Y-85547940D03*
D21*
X116967000Y-87147940D03*
X116967000Y-86347940D03*
D20*
X116967000Y-87947940D03*
D21*
X118767000Y-86347940D03*
D20*
X118767000Y-85547940D03*
D21*
X118767000Y-87147940D03*
D20*
X118767000Y-87947940D03*
G04 #@! TD*
G04 #@! TO.C,RN5*
X116967000Y-78511500D03*
D21*
X116967000Y-80111500D03*
X116967000Y-79311500D03*
D20*
X116967000Y-80911500D03*
D21*
X118767000Y-79311500D03*
D20*
X118767000Y-78511500D03*
D21*
X118767000Y-80111500D03*
D20*
X118767000Y-80911500D03*
G04 #@! TD*
G04 #@! TO.C,RN4*
X116967000Y-70345500D03*
D21*
X116967000Y-71945500D03*
X116967000Y-71145500D03*
D20*
X116967000Y-72745500D03*
D21*
X118767000Y-71145500D03*
D20*
X118767000Y-70345500D03*
D21*
X118767000Y-71945500D03*
D20*
X118767000Y-72745500D03*
G04 #@! TD*
G04 #@! TO.C,RN3*
X116967000Y-63182500D03*
D21*
X116967000Y-64782500D03*
X116967000Y-63982500D03*
D20*
X116967000Y-65582500D03*
D21*
X118767000Y-63982500D03*
D20*
X118767000Y-63182500D03*
D21*
X118767000Y-64782500D03*
D20*
X118767000Y-65582500D03*
G04 #@! TD*
G04 #@! TO.C,RN2*
X116967000Y-55994500D03*
D21*
X116967000Y-57594500D03*
X116967000Y-56794500D03*
D20*
X116967000Y-58394500D03*
D21*
X118767000Y-56794500D03*
D20*
X118767000Y-55994500D03*
D21*
X118767000Y-57594500D03*
D20*
X118767000Y-58394500D03*
G04 #@! TD*
G04 #@! TO.C,RN1*
X116967000Y-50228500D03*
D21*
X116967000Y-51828500D03*
X116967000Y-51028500D03*
D20*
X116967000Y-52628500D03*
D21*
X118767000Y-51028500D03*
D20*
X118767000Y-50228500D03*
D21*
X118767000Y-51828500D03*
D20*
X118767000Y-52628500D03*
G04 #@! TD*
D26*
G04 #@! TO.C,C13*
X93980000Y-71823500D03*
X93980000Y-73723500D03*
G04 #@! TD*
G04 #@! TO.C,C9*
X94107000Y-102679500D03*
X94107000Y-104579500D03*
G04 #@! TD*
D27*
G04 #@! TO.C,J4*
X69801500Y-68008500D03*
X74851500Y-68008500D03*
X69801500Y-70548500D03*
X74851500Y-70548500D03*
X69801500Y-73088500D03*
X74851500Y-73088500D03*
G04 #@! TD*
D28*
G04 #@! TO.C,SW2*
X75120500Y-102946500D03*
X64960500Y-111556500D03*
X72580500Y-102946500D03*
X67500500Y-111556500D03*
X70040500Y-102946500D03*
X70040500Y-111556500D03*
X67500500Y-102946500D03*
X72580500Y-111556500D03*
X64960500Y-102946500D03*
X75120500Y-111556500D03*
G04 #@! TD*
D29*
G04 #@! TO.C,R9*
X75270000Y-61658500D03*
X77470000Y-61658500D03*
G04 #@! TD*
D30*
G04 #@! TO.C,D1*
X71786500Y-61658500D03*
X67786500Y-61658500D03*
G04 #@! TD*
D31*
G04 #@! TO.C,U1*
X77080000Y-96672000D03*
X77080000Y-95872000D03*
X77080000Y-95072000D03*
X77080000Y-94272000D03*
X77080000Y-93472000D03*
X77080000Y-92672000D03*
X77080000Y-91872000D03*
X77080000Y-91072000D03*
D32*
X75630000Y-89622000D03*
X74830000Y-89622000D03*
X74030000Y-89622000D03*
X73230000Y-89622000D03*
X72430000Y-89622000D03*
X71630000Y-89622000D03*
X70830000Y-89622000D03*
X70030000Y-89622000D03*
D31*
X68580000Y-91072000D03*
X68580000Y-91872000D03*
X68580000Y-92672000D03*
X68580000Y-93472000D03*
X68580000Y-94272000D03*
X68580000Y-95072000D03*
X68580000Y-95872000D03*
X68580000Y-96672000D03*
D32*
X70030000Y-98122000D03*
X70830000Y-98122000D03*
X71630000Y-98122000D03*
X72430000Y-98122000D03*
X73230000Y-98122000D03*
X74030000Y-98122000D03*
X74830000Y-98122000D03*
X75630000Y-98122000D03*
G04 #@! TD*
D33*
G04 #@! TO.C,C12*
X100076000Y-41148000D03*
X97576000Y-41148000D03*
G04 #@! TD*
D34*
G04 #@! TO.C,U6*
X91060000Y-106935000D03*
X91060000Y-107585000D03*
X91060000Y-108235000D03*
X91060000Y-108885000D03*
X91060000Y-109525000D03*
X91060000Y-110185000D03*
X91060000Y-110825000D03*
X91060000Y-111475000D03*
X91060000Y-112125000D03*
X91060000Y-112775000D03*
X96960000Y-112775000D03*
X96960000Y-112125000D03*
X96960000Y-111475000D03*
X96960000Y-110825000D03*
X96960000Y-110185000D03*
X96960000Y-109525000D03*
X96960000Y-108885000D03*
X96960000Y-108235000D03*
X96960000Y-107585000D03*
X96960000Y-106935000D03*
G04 #@! TD*
G04 #@! TO.C,U2*
X91060000Y-75880000D03*
X91060000Y-76530000D03*
X91060000Y-77180000D03*
X91060000Y-77830000D03*
X91060000Y-78470000D03*
X91060000Y-79130000D03*
X91060000Y-79770000D03*
X91060000Y-80420000D03*
X91060000Y-81070000D03*
X91060000Y-81720000D03*
X96960000Y-81720000D03*
X96960000Y-81070000D03*
X96960000Y-80420000D03*
X96960000Y-79770000D03*
X96960000Y-79130000D03*
X96960000Y-78470000D03*
X96960000Y-77830000D03*
X96960000Y-77180000D03*
X96960000Y-76530000D03*
X96960000Y-75880000D03*
G04 #@! TD*
D35*
G04 #@! TO.C,SW1*
X127320000Y-144526000D03*
X121920000Y-144526000D03*
G04 #@! TD*
D24*
G04 #@! TO.C,R8*
X91122500Y-102595500D03*
X91122500Y-104795500D03*
G04 #@! TD*
G04 #@! TO.C,R7*
X91122500Y-71564500D03*
X91122500Y-73764500D03*
G04 #@! TD*
D29*
G04 #@! TO.C,R6*
X115656000Y-148209000D03*
X117856000Y-148209000D03*
G04 #@! TD*
G04 #@! TO.C,R5*
X115697000Y-150622000D03*
X117897000Y-150622000D03*
G04 #@! TD*
G04 #@! TO.C,R4*
X117897000Y-152908000D03*
X115697000Y-152908000D03*
G04 #@! TD*
G04 #@! TO.C,R3*
X97876000Y-152527000D03*
X100076000Y-152527000D03*
G04 #@! TD*
G04 #@! TO.C,R2*
X97876000Y-148717000D03*
X100076000Y-148717000D03*
G04 #@! TD*
G04 #@! TO.C,R1*
X115656000Y-144526000D03*
X117856000Y-144526000D03*
G04 #@! TD*
D26*
G04 #@! TO.C,C5*
X96964500Y-102679500D03*
X96964500Y-104579500D03*
G04 #@! TD*
G04 #@! TO.C,C4*
X96964500Y-71760000D03*
X96964500Y-73660000D03*
G04 #@! TD*
G04 #@! TO.C,C3*
X88646000Y-132456000D03*
X88646000Y-130556000D03*
G04 #@! TD*
D36*
G04 #@! TO.C,Y1*
X84201000Y-96511500D03*
X84201000Y-90686500D03*
G04 #@! TD*
D37*
G04 #@! TO.C,U10*
X105852000Y-148717000D03*
X105852000Y-149987000D03*
X105852000Y-151257000D03*
X105852000Y-152527000D03*
X111252000Y-152527000D03*
X111252000Y-151257000D03*
X111252000Y-149987000D03*
X111252000Y-148717000D03*
G04 #@! TD*
D26*
G04 #@! TO.C,C2*
X87757000Y-91435000D03*
X87757000Y-89535000D03*
G04 #@! TD*
G04 #@! TO.C,C1*
X87757000Y-95631000D03*
X87757000Y-97531000D03*
G04 #@! TD*
M02*
