M48
; DRILL file {KiCad (5.1.8)-1} date 01/31/22 17:06:32
; FORMAT={-:-/ absolute / metric / decimal}
; #@! TF.CreationDate,2022-01-31T17:06:32-05:00
; #@! TF.GenerationSoftware,Kicad,Pcbnew,(5.1.8)-1
; #@! TF.FileFunction,Plated,1,2,PTH
FMAT,2
METRIC
T1C0.300
T2C0.400
T3C0.500
T4C0.600
T5C0.900
T6C1.270
T7C1.600
T8C2.540
T9C3.200
%
G90
G05
T1
X92.71Y-76.2
X92.71Y-77.5
X92.71Y-78.8
X92.71Y-80.1
X92.71Y-81.4
X94.01Y-76.2
X94.01Y-77.5
X94.01Y-78.8
X94.01Y-80.1
X94.01Y-81.4
X95.31Y-76.2
X95.31Y-77.5
X95.31Y-78.8
X95.31Y-80.1
X95.31Y-81.4
X92.71Y-107.255
X92.71Y-108.555
X92.71Y-109.855
X92.71Y-111.155
X92.71Y-112.455
X94.01Y-107.255
X94.01Y-108.555
X94.01Y-109.855
X94.01Y-111.155
X94.01Y-112.455
X95.31Y-107.255
X95.31Y-108.555
X95.31Y-109.855
X95.31Y-111.155
X95.31Y-112.455
T2
X64.96Y-105.727
X64.999Y-100.025
X65.811Y-91.973
X66.421Y-105.664
X66.929Y-95.885
X67.056Y-70.548
X67.945Y-115.062
X68.58Y-98.171
X68.58Y-105.283
X68.961Y-84.455
X70.104Y-66.04
X70.104Y-79.756
X70.231Y-100.266
X71.501Y-100.457
X71.501Y-113.919
X71.628Y-91.059
X72.39Y-99.695
X72.771Y-94.805
X74.041Y-99.822
X74.041Y-128.143
X75.311Y-99.949
X75.692Y-85.026
X76.581Y-99.822
X77.978Y-82.169
X79.502Y-92.71
X79.629Y-62.23
X80.772Y-78.867
X80.772Y-88.392
X83.82Y-143.002
X85.344Y-129.032
X85.852Y-113.284
X86.392Y-75.692
X86.47Y-107.696
X86.487Y-99.091
X86.995Y-112.649
X87.117Y-77.475
X87.122Y-99.822
X87.232Y-108.585
X87.757Y-110.998
X87.884Y-100.584
X87.884Y-109.474
X87.991Y-78.555
X88.519Y-110.236
X88.519Y-111.76
X88.646Y-101.346
X88.646Y-128.016
X88.9Y-79.195
X89.281Y-117.983
X90.17Y-69.85
X90.551Y-120.65
X91.948Y-147.32
X93.086Y-59.06
X93.218Y-61.722
X93.218Y-64.008
X93.218Y-66.802
X94.234Y-148.653
X97.536Y-114.554
X97.536Y-120.65
X97.663Y-96.52
X97.917Y-97.536
X98.679Y-106.362
X99.568Y-107.95
X99.568Y-108.966
X100.076Y-75.692
X100.076Y-81.026
X100.33Y-109.982
X100.33Y-123.444
X100.33Y-125.73
X100.838Y-128.27
X101.092Y-64.77
X101.092Y-75.692
X101.092Y-81.026
X101.346Y-107.188
X101.346Y-118.11
X101.49Y-114.046
X102.108Y-78.232
X102.108Y-81.026
X102.108Y-119.38
X102.108Y-130.81
X102.362Y-110.236
X102.362Y-112.522
X103.378Y-78.232
X103.378Y-84.582
X103.378Y-108.712
X104.394Y-78.232
X104.394Y-87.122
X104.394Y-110.236
X104.394Y-116.332
X115.316Y-57.023
X115.443Y-82.804
X115.443Y-112.522
X115.57Y-97.663
X115.697Y-126.619
X115.951Y-67.691
X116.586Y-54.864
X116.887Y-68.627
X116.967Y-59.436
X116.967Y-88.9
X116.967Y-103.759
X116.967Y-117.983
X116.967Y-133.096
X117.077Y-83.041
X117.094Y-142.494
X117.141Y-112.95
X117.348Y-97.917
X117.602Y-127.0
X118.745Y-74.041
X120.142Y-68.072
X120.523Y-97.536
X120.523Y-112.649
X120.523Y-126.492
X120.65Y-82.804
X121.158Y-52.705
X124.46Y-129.667
X124.46Y-135.001
X124.587Y-62.992
X124.587Y-68.072
X124.587Y-91.059
X124.587Y-119.507
X124.587Y-124.587
X124.714Y-73.152
X124.714Y-78.232
X124.714Y-96.393
X124.714Y-101.473
X124.714Y-106.553
X127.533Y-76.365
X127.584Y-104.686
X127.711Y-132.88
X128.905Y-114.579
X128.93Y-112.979
X129.134Y-83.718
X129.438Y-139.624
X129.464Y-87.122
X129.565Y-59.639
X129.997Y-62.89
X130.378Y-90.627
X130.404Y-105.994
X130.404Y-119.532
X130.429Y-60.35
X130.429Y-77.648
X130.429Y-116.789
X130.429Y-134.163
X130.835Y-88.417
X131.572Y-135.128
X131.826Y-129.794
X131.953Y-119.634
X131.953Y-124.587
X132.08Y-63.119
X132.08Y-68.199
X132.08Y-91.44
X132.08Y-96.52
X132.08Y-101.6
X132.08Y-106.68
X132.207Y-78.359
X132.334Y-73.279
X135.28Y-116.764
X135.331Y-82.118
X135.331Y-110.363
X135.712Y-83.718
X135.738Y-60.35
X135.966Y-139.141
X135.992Y-88.925
X136.093Y-112.446
X136.677Y-140.716
X136.906Y-64.262
X136.906Y-125.984
X136.906Y-131.318
X137.16Y-98.044
X137.16Y-120.904
X137.414Y-69.342
X137.414Y-74.93
X137.414Y-92.71
X137.414Y-103.124
T3
X122.6Y-153.0
X123.303Y-151.303
X123.303Y-154.697
X125.0Y-150.6
X125.0Y-155.4
X126.697Y-151.303
X126.697Y-154.697
X127.4Y-153.0
X122.6Y-30.0
X123.303Y-28.303
X123.303Y-31.697
X125.0Y-27.6
X125.0Y-32.4
X126.697Y-28.303
X126.697Y-31.697
X127.4Y-30.0
X62.6Y-153.0
X63.303Y-151.303
X63.303Y-154.697
X65.0Y-150.6
X65.0Y-155.4
X66.697Y-151.303
X66.697Y-154.697
X67.4Y-153.0
X62.6Y-30.0
X63.303Y-28.303
X63.303Y-31.697
X65.0Y-27.6
X65.0Y-32.4
X66.697Y-28.303
X66.697Y-31.697
X67.4Y-30.0
T4
X67.754Y-120.142
X81.026Y-141.224
X102.108Y-27.432
X103.124Y-42.672
X106.172Y-45.91
X106.68Y-146.05
X117.348Y-33.528
X117.475Y-154.305
X121.92Y-34.036
X124.333Y-121.793
X124.333Y-126.873
X124.46Y-70.358
X124.46Y-75.438
X124.46Y-80.645
X124.46Y-131.953
X124.587Y-65.278
X124.587Y-93.599
X124.587Y-98.679
X124.587Y-108.839
X124.587Y-137.287
X124.714Y-103.759
X131.572Y-65.278
X131.572Y-70.358
X131.699Y-121.793
X131.826Y-126.873
X131.826Y-131.953
X131.826Y-137.287
X131.953Y-93.599
X131.953Y-98.679
X131.953Y-103.759
X131.953Y-108.839
X132.08Y-75.438
X132.08Y-80.645
T5
X135.128Y-145.732
X135.128Y-148.272
X135.128Y-150.812
X135.128Y-153.352
X137.668Y-147.002
X137.668Y-149.542
X137.668Y-152.082
X137.668Y-154.623
X135.064Y-28.765
X135.064Y-31.305
X135.064Y-33.846
X135.064Y-36.386
X137.605Y-30.035
X137.605Y-32.575
X137.605Y-35.115
X137.605Y-37.655
T6
X139.446Y-90.678
X139.446Y-93.218
X139.446Y-95.758
X139.446Y-98.298
X139.446Y-100.838
X139.446Y-103.378
X139.446Y-105.918
X139.446Y-108.458
X141.986Y-90.678
X141.986Y-93.218
X141.986Y-95.758
X141.986Y-98.298
X141.986Y-100.838
X141.986Y-103.378
X141.986Y-105.918
X141.986Y-108.458
X139.446Y-118.872
X139.446Y-121.412
X139.446Y-123.952
X139.446Y-126.492
X139.446Y-129.032
X139.446Y-131.572
X139.446Y-134.112
X139.446Y-136.652
X141.986Y-118.872
X141.986Y-121.412
X141.986Y-123.952
X141.986Y-126.492
X141.986Y-129.032
X141.986Y-131.572
X141.986Y-134.112
X141.986Y-136.652
X139.446Y-62.42
X139.446Y-64.96
X139.446Y-67.501
X139.446Y-70.04
X139.446Y-72.581
X139.446Y-75.12
X139.446Y-77.66
X139.446Y-80.2
X141.986Y-62.42
X141.986Y-64.96
X141.986Y-67.501
X141.986Y-70.04
X141.986Y-72.581
X141.986Y-75.12
X141.986Y-77.66
X141.986Y-80.2
T7
X139.446Y-46.736
X139.446Y-51.816
T8
X141.986Y-49.276
T9
X66.04Y-130.175
X97.155Y-130.175
X65.0Y-153.0
X65.0Y-30.0
X97.155Y-55.245
X66.04Y-55.245
X125.0Y-153.0
X125.0Y-30.0
T0
M30
