G04 #@! TF.GenerationSoftware,KiCad,Pcbnew,(5.1.8)-1*
G04 #@! TF.CreationDate,2022-01-31T11:41:58-05:00*
G04 #@! TF.ProjectId,ElectromagnetController_V3,456c6563-7472-46f6-9d61-676e6574436f,rev?*
G04 #@! TF.SameCoordinates,Original*
G04 #@! TF.FileFunction,Soldermask,Bot*
G04 #@! TF.FilePolarity,Negative*
%FSLAX46Y46*%
G04 Gerber Fmt 4.6, Leading zero omitted, Abs format (unit mm)*
G04 Created by KiCad (PCBNEW (5.1.8)-1) date 2022-01-31 11:41:58*
%MOMM*%
%LPD*%
G01*
G04 APERTURE LIST*
%ADD10C,2.000000*%
%ADD11C,3.650000*%
%ADD12R,1.500000X1.500000*%
%ADD13C,1.500000*%
%ADD14C,6.400000*%
%ADD15C,2.108200*%
%ADD16C,3.987800*%
%ADD17C,2.540000*%
%ADD18R,0.800000X1.300000*%
%ADD19R,1.800000X1.300000*%
%ADD20C,0.800000*%
G04 APERTURE END LIST*
D10*
G04 #@! TO.C,J9*
X141986000Y-136652000D03*
X139446000Y-136652000D03*
X141986000Y-134112000D03*
X139446000Y-134112000D03*
X141986000Y-131572000D03*
X139446000Y-131572000D03*
X141986000Y-129032000D03*
X139446000Y-129032000D03*
X141986000Y-126492000D03*
X139446000Y-126492000D03*
X141986000Y-123952000D03*
X139446000Y-123952000D03*
X141986000Y-121412000D03*
X139446000Y-121412000D03*
X141986000Y-118872000D03*
X139446000Y-118872000D03*
G04 #@! TD*
G04 #@! TO.C,J8*
X141986000Y-108458000D03*
X139446000Y-108458000D03*
X141986000Y-105918000D03*
X139446000Y-105918000D03*
X141986000Y-103378000D03*
X139446000Y-103378000D03*
X141986000Y-100838000D03*
X139446000Y-100838000D03*
X141986000Y-98298000D03*
X139446000Y-98298000D03*
X141986000Y-95758000D03*
X139446000Y-95758000D03*
X141986000Y-93218000D03*
X139446000Y-93218000D03*
X141986000Y-90678000D03*
X139446000Y-90678000D03*
G04 #@! TD*
G04 #@! TO.C,J1*
X141986000Y-80200500D03*
X139446000Y-80200500D03*
X141986000Y-77660500D03*
X139446000Y-77660500D03*
X141986000Y-75120500D03*
X139446000Y-75120500D03*
X141986000Y-72580500D03*
X139446000Y-72580500D03*
X141986000Y-70040500D03*
X139446000Y-70040500D03*
X141986000Y-67500500D03*
X139446000Y-67500500D03*
X141986000Y-64960500D03*
X139446000Y-64960500D03*
X141986000Y-62420500D03*
X139446000Y-62420500D03*
G04 #@! TD*
D11*
G04 #@! TO.C,J2*
X144018000Y-144242500D03*
X144018000Y-156112500D03*
D12*
X137668000Y-154622500D03*
D13*
X135128000Y-153352500D03*
X137668000Y-152082500D03*
X135128000Y-150812500D03*
X137668000Y-149542500D03*
X135128000Y-148272500D03*
X137668000Y-147002500D03*
X135128000Y-145732500D03*
G04 #@! TD*
D14*
G04 #@! TO.C,H8*
X97155000Y-130175000D03*
G04 #@! TD*
G04 #@! TO.C,H7*
X97155000Y-55245000D03*
G04 #@! TD*
G04 #@! TO.C,H6*
X66040000Y-130175000D03*
G04 #@! TD*
G04 #@! TO.C,H5*
X66040000Y-55245000D03*
G04 #@! TD*
D15*
G04 #@! TO.C,J3*
X139446000Y-46736000D03*
X139446000Y-51816000D03*
D16*
X149606000Y-45466000D03*
X149606000Y-53086000D03*
D17*
X141986000Y-49276000D03*
G04 #@! TD*
D18*
G04 #@! TO.C,U6*
X95310000Y-107255000D03*
D19*
X94010000Y-112455000D03*
X94010000Y-111155000D03*
X94010000Y-107255000D03*
X94010000Y-108555000D03*
X94010000Y-109855000D03*
D18*
X92710000Y-107255000D03*
X92710000Y-108555000D03*
X92710000Y-109855000D03*
X92710000Y-111155000D03*
X92710000Y-112455000D03*
X95310000Y-112455000D03*
X95310000Y-111155000D03*
X95310000Y-109855000D03*
X95310000Y-108555000D03*
G04 #@! TD*
G04 #@! TO.C,U2*
X95310000Y-76200000D03*
D19*
X94010000Y-81400000D03*
X94010000Y-80100000D03*
X94010000Y-76200000D03*
X94010000Y-77500000D03*
X94010000Y-78800000D03*
D18*
X92710000Y-76200000D03*
X92710000Y-77500000D03*
X92710000Y-78800000D03*
X92710000Y-80100000D03*
X92710000Y-81400000D03*
X95310000Y-81400000D03*
X95310000Y-80100000D03*
X95310000Y-78800000D03*
X95310000Y-77500000D03*
G04 #@! TD*
D11*
G04 #@! TO.C,J6*
X143954500Y-27275500D03*
X143954500Y-39145500D03*
D12*
X137604500Y-37655500D03*
D13*
X135064500Y-36385500D03*
X137604500Y-35115500D03*
X135064500Y-33845500D03*
X137604500Y-32575500D03*
X135064500Y-31305500D03*
X137604500Y-30035500D03*
X135064500Y-28765500D03*
G04 #@! TD*
D14*
G04 #@! TO.C,H4*
X125000000Y-153000000D03*
D20*
X127400000Y-153000000D03*
X126697056Y-154697056D03*
X125000000Y-155400000D03*
X123302944Y-154697056D03*
X122600000Y-153000000D03*
X123302944Y-151302944D03*
X125000000Y-150600000D03*
X126697056Y-151302944D03*
G04 #@! TD*
D14*
G04 #@! TO.C,H3*
X125000000Y-30000000D03*
D20*
X127400000Y-30000000D03*
X126697056Y-31697056D03*
X125000000Y-32400000D03*
X123302944Y-31697056D03*
X122600000Y-30000000D03*
X123302944Y-28302944D03*
X125000000Y-27600000D03*
X126697056Y-28302944D03*
G04 #@! TD*
D14*
G04 #@! TO.C,H2*
X65000000Y-153000000D03*
D20*
X67400000Y-153000000D03*
X66697056Y-154697056D03*
X65000000Y-155400000D03*
X63302944Y-154697056D03*
X62600000Y-153000000D03*
X63302944Y-151302944D03*
X65000000Y-150600000D03*
X66697056Y-151302944D03*
G04 #@! TD*
D14*
G04 #@! TO.C,H1*
X65000000Y-30000000D03*
D20*
X67400000Y-30000000D03*
X66697056Y-31697056D03*
X65000000Y-32400000D03*
X63302944Y-31697056D03*
X62600000Y-30000000D03*
X63302944Y-28302944D03*
X65000000Y-27600000D03*
X66697056Y-28302944D03*
G04 #@! TD*
M02*
